<svg xmlns="http://www.w3.org/2000/svg" xmlns:xlink="http://www.w3.org/1999/xlink" width="400" height="208.358" viewBox="0 0 400 208.358">
  <defs>
    <clipPath id="clip-path">
      <rect id="Rect치ngulo_412103" data-name="Rect치ngulo 412103" width="335.08" height="183.655" rx="14" transform="translate(0 -63)" fill="#111d96"/>
    </clipPath>
    <linearGradient id="linear-gradient" x1="0.607" y1="0.434" x2="0.284" y2="0.705" gradientUnits="objectBoundingBox">
      <stop offset="0" stop-color="#31ba5c"/>
      <stop offset="0.565" stop-color="#31ba5c" stop-opacity="0.337"/>
      <stop offset="1" stop-color="#31ba5c" stop-opacity="0"/>
    </linearGradient>
    <clipPath id="clip-path-2">
      <path id="Trazado_1280245" data-name="Trazado 1280245" d="M2926.3,658.858c11.852.145,24.008-.777,30.482,1.937-.894,7.928-4.438,23.213-18.456,23.919-12.7.64-22.38-14.053-27.394-23.836C2915.475,659.022,2919.917,658.78,2926.3,658.858Z" transform="translate(-2910.936 -658.819)" fill="none"/>
    </clipPath>
    <linearGradient id="linear-gradient-3" x1="0.5" x2="0.5" y2="1" gradientUnits="objectBoundingBox">
      <stop offset="0" stop-color="gray"/>
      <stop offset="1"/>
    </linearGradient>
  </defs>
  <g id="Grupo_1192410" data-name="Grupo 1192410" transform="translate(-232.051 -4999.766)">
    <g id="Grupo_1192408" data-name="Grupo 1192408" transform="translate(232.051 4999.766)">
      <path id="Trazado_1280275" data-name="Trazado 1280275" d="M7,0H328.08a7,7,0,0,1,7,7V175.175a7,7,0,0,1-7,7H7a7,7,0,0,1-7-7V7A7,7,0,0,1,7,0Z" transform="translate(0 24.703)" fill="#111d96"/>
      <g id="Enmascarar_grupo_1099246" data-name="Enmascarar grupo 1099246" transform="translate(0 87.703)" clip-path="url(#clip-path)">
        <g id="Grupo_1192409" data-name="Grupo 1192409" transform="translate(-136.203 -94.965)">
          <path id="Trazado_1280274" data-name="Trazado 1280274" d="M0,117.417c24.214,65.157,74.113,120.372,136.494,151.038,16.406,8.064,36.965,14.2,52.1,3.938,7.384-5.007,12.089-13.271,14.381-21.893,7.318-27.519-7.879-56.793-2.8-84.812,4.173-23.035,22.457-42.295,44.516-50.132s47.137-4.969,68.2,5.252c27.911,13.544,48.893,38.837,77.1,51.745,26.869,12.294,59.41,11.853,85.59-1.85s45.218-40.569,48.723-69.909-8.94-60.265-32.255-78.418C472.892,7.465,448.107,1.544,423.875.161,408.868-.7,391.1,1.559,383.7,14.642c-7.66,13.542.284,30.269,8.125,43.707l24.716,42.364c4.889,8.381,9.87,17.01,11.4,26.591s-1.141,20.47-9.037,26.108c-9.091,6.491-22.286,3.971-31.141-2.839s-14.377-16.967-19.67-26.8c-12.89-23.957-26.139-48.112-44.717-67.985S280.035,20.468,252.9,18.542c-36.252-2.572-71.579,20.468-88.753,52.5s-17.723,71.255-6.9,105.95c4.483,14.377,10.89,28.751,9.859,43.775s-13.158,30.753-28.107,28.933c-8.47-1.031-15.316-7.232-21.074-13.53-28.064-30.69-44.725-70.635-52-111.581S60.325,41.565,65.5.3" transform="translate(63.845 0)" fill="#070e4a"/>
          <path id="Trazado_1273760" data-name="Trazado 1273760" d="M-8944.519-13837.08a182.92,182.92,0,0,0-31.9,3.067c-50.224,8.98-99.749,44.827-147.2,106.544a553.413,553.413,0,0,0-55.79,88.987c-2.574,4.546-27.507,49.98-15.645,83.447,4.713,13.291,14.346,22.911,28.632,28.594a29.5,29.5,0,0,0,10.944,2.1c24.263,0,47.787-28.343,77.57-64.227,37.13-44.736,83.342-100.411,136.851-100.411a84.073,84.073,0,0,1,27.81,4.886c46.6,16.328,72.753,48.122,98.048,78.87,29.854,36.289,58.053,70.564,114.547,70.564,16.3,0,33.873-2.833,53.729-8.66,65.435-19.2,103.258-70.134,101.179-136.237-2.024-64.339-40.58-123.186-87.775-133.968a105.016,105.016,0,0,0-23.309-2.721c-37.061,0-63.351,21.444-86.545,40.364-19.476,15.884-36.293,29.6-56.093,29.6a44.984,44.984,0,0,1-8.752-.879c-20.3-4.038-31.461-19.1-44.39-36.536C-8871.158-13808.719-8892.184-13837.08-8944.519-13837.08Zm-210.959,295.462a11.538,11.538,0,0,1-4.345-.834c-9.519-3.785-15.611-9.759-18.626-18.265-8-22.573,7.761-57.858,14.509-69.547l.316-.6c.791-1.661,80.5-166.511,190.355-186.151a164.953,164.953,0,0,1,28.749-2.788c43.389,0,60.054,22.479,77.7,46.276,13.825,18.646,28.118,37.925,55.113,43.3a62.947,62.947,0,0,0,12.242,1.223c26.149,0,47.08-17.073,67.323-33.587,21.927-17.886,44.6-36.382,75.313-36.381a87.209,87.209,0,0,1,19.327,2.274c39.146,8.944,72.425,61.732,74.184,117.678.874,27.748-6.016,94.905-88.638,119.152-18.2,5.342-34.125,7.938-48.694,7.938-48.1,0-72.554-29.729-100.872-64.148-25.574-31.09-54.562-66.321-105.815-84.282a101.861,101.861,0,0,0-33.717-5.891c-61.86,0-111,59.2-150.478,106.77C-9116.234-13569.728-9139.564-13541.618-9155.478-13541.618Z" transform="translate(9146.236 13861.505)" fill="url(#linear-gradient)"/>
          <path id="Trazado_1273760-2" data-name="Trazado 1273760" d="M-8944.519-13837.08a182.92,182.92,0,0,0-31.9,3.067c-50.224,8.98-99.749,44.827-147.2,106.544a553.413,553.413,0,0,0-55.79,88.987c-2.574,4.546-27.507,49.98-15.645,83.447,4.713,13.291,14.346,22.911,28.632,28.594a29.5,29.5,0,0,0,10.944,2.1c24.263,0,47.787-28.343,77.57-64.227,37.13-44.736,83.342-100.411,136.851-100.411a84.073,84.073,0,0,1,27.81,4.886c46.6,16.328,72.753,48.122,98.048,78.87,29.854,36.289,58.053,70.564,114.547,70.564,16.3,0,33.873-2.833,53.729-8.66,65.435-19.2,103.258-70.134,101.179-136.237-2.024-64.339-40.58-123.186-87.775-133.968a105.016,105.016,0,0,0-23.309-2.721c-37.061,0-63.351,21.444-86.545,40.364-19.476,15.884-36.293,29.6-56.093,29.6a44.984,44.984,0,0,1-8.752-.879c-20.3-4.038-31.461-19.1-44.39-36.536C-8871.158-13808.719-8892.184-13837.08-8944.519-13837.08Zm-210.959,295.462a11.538,11.538,0,0,1-4.345-.834c-9.519-3.785-15.611-9.759-18.626-18.265-8-22.573,7.761-57.858,14.509-69.547l.316-.6c.791-1.661,80.5-166.511,190.355-186.151a164.953,164.953,0,0,1,28.749-2.788c43.389,0,60.054,22.479,77.7,46.276,13.825,18.646,28.118,37.925,55.113,43.3a62.947,62.947,0,0,0,12.242,1.223c26.149,0,47.08-17.073,67.323-33.587,21.927-17.886,44.6-36.382,75.313-36.381a87.209,87.209,0,0,1,19.327,2.274c39.146,8.944,72.425,61.732,74.184,117.678.874,27.748-6.016,94.905-88.638,119.152-18.2,5.342-34.125,7.938-48.694,7.938-48.1,0-72.554-29.729-100.872-64.148-25.574-31.09-54.562-66.321-105.815-84.282a101.861,101.861,0,0,0-33.717-5.891c-61.86,0-111,59.2-150.478,106.77C-9116.234-13569.728-9139.564-13541.618-9155.478-13541.618Z" transform="translate(9230.236 13743.505)" fill="url(#linear-gradient)"/>
        </g>
      </g>
      <g id="Grupo_1192394" data-name="Grupo 1192394" transform="translate(244.555 0)">
        <ellipse id="Elipse_12402" data-name="Elipse 12402" cx="73.244" cy="73.244" rx="73.244" ry="73.244" transform="matrix(-0.998, -0.063, 0.063, -0.998, 146.196, 155.445)" fill="#fffeeb"/>
        <path id="Trazado_1280224" data-name="Trazado 1280224" d="M1458.127-747.949l49.4-54.075a73.244,73.244,0,0,1,4.673,103.477,73.367,73.367,0,0,1-13.948,11.892Z" transform="translate(-1380.404 825.672)" fill="#fc5649"/>
        <path id="Trazado_1280225" data-name="Trazado 1280225" d="M1492.089-776.077a72.936,72.936,0,0,1,16.4-29.408,73.244,73.244,0,0,1,103.474-4.676s-49.4,54.078-49.4,54.078Z" transform="translate(-1484.844 833.805)" fill="#ffb14c"/>
        <path id="Trazado_1280226" data-name="Trazado 1280226" d="M1505.671-665.327l42.472-59.68,39.863,61.467A73.312,73.312,0,0,1,1505.671-665.327Z" transform="translate(-1470.42 802.73)" fill="#0dba98"/>
      </g>
      <g id="Grupo_1192407" data-name="Grupo 1192407" transform="translate(41.107 10.945)">
        <path id="Trazado_1280227" data-name="Trazado 1280227" d="M2838.849,980.622h89.741l-6.33-26.686h-76.512Z" transform="translate(-2808.938 -784.689)" fill="#28121f"/>
        <g id="Grupo_1192397" data-name="Grupo 1192397" transform="translate(80.755 61.547)">
          <g id="Grupo_1192395" data-name="Grupo 1192395" transform="translate(0 32.944)">
            <path id="Trazado_1280228" data-name="Trazado 1280228" d="M2584.791,710.3c13.088,25.121,26.99,52.64,53.881,54.795,41.719,3.343,50.315-26.928,58.9-57.05l-28.563-11.165c-6.418,14.437-12.34,26.218-24.309,25.427-13.839-.915-24.331-15.6-32.725-25.276Z" transform="translate(-2584.791 -696.884)" fill="#fc5649"/>
          </g>
          <g id="Grupo_1192396" data-name="Grupo 1192396" transform="translate(87.811 0)">
            <path id="Trazado_1280229" data-name="Trazado 1280229" d="M2542.941,593.988c.547-1.349,3.381-3.9,4.665-4.585,5.82-3.1,13.869-4.375,18.113-5.361,8.978-2.088,9.643,3.929,9.738,4.52l-37.392,18.187Z" transform="translate(-2536.895 -583.604)" fill="#ffa194"/>
            <path id="Trazado_1280230" data-name="Trazado 1280230" d="M2501.081,597.674a2.584,2.584,0,0,0,3.045,2.112l42.785-8.37,3.354-3.028a.328.328,0,0,0-.111-.553l-4.241-1.49-42.779,8.368A2.584,2.584,0,0,0,2501.081,597.674Z" transform="translate(-2501.046 -585.548)"/>
          </g>
          <path id="Trazado_1280231" data-name="Trazado 1280231" d="M2560.763,630.947l1.3-5.511a7.143,7.143,0,0,0,5.359-6.715s4.944-4.262,2.754-9.287c0,0,4.092-5.965,1.642-10.851,0,0,6.14-5.009,3.641-8.623-2.606-3.768-8.364-1.719-16.379,7.188l-19.415,3.82-5.449,14.545-2.018,4.269Z" transform="translate(-2447.98 -586.838)" fill="#ffa194"/>
          <path id="Trazado_1280232" data-name="Trazado 1280232" d="M2544.8,647.219c5.309,0,9.9-3.253,13.289-9.408a37.451,37.451,0,0,0,3.447-8.971l6.25-6.253a.811.811,0,0,0-1.147-1.146l-6.416,6.419a.808.808,0,0,0-.22.406,36.1,36.1,0,0,1-3.351,8.795c-3.125,5.664-7.113,8.536-11.852,8.536a.811.811,0,1,0,0,1.621Z" transform="translate(-2443.373 -610.268)" fill="#db5349"/>
          <path id="Trazado_1280233" data-name="Trazado 1280233" d="M2550.447,662.662c5.2,0,7.67-2.682,7.773-2.8a.811.811,0,0,0-1.2-1.086c-.093.1-2.139,2.261-6.569,2.261a.811.811,0,0,0,0,1.621Z" transform="translate(-2435.419 -636.729)" fill="#db5349"/>
          <path id="Trazado_1280234" data-name="Trazado 1280234" d="M2563.281,693.281a13.856,13.856,0,0,0,6.221-1.312.811.811,0,0,0-.773-1.425,13.9,13.9,0,0,1-8.652.791.811.811,0,1,0-.319,1.59A17.87,17.87,0,0,0,2563.281,693.281Z" transform="translate(-2449.672 -659.374)" fill="#db5349"/>
          <path id="Trazado_1280235" data-name="Trazado 1280235" d="M2583.345,706.739a13.867,13.867,0,0,0,2.858-.3.811.811,0,0,0-.366-1.58c-1.087.25-4.243.633-5.763-.577a2.621,2.621,0,0,1-.92-2.2.811.811,0,0,0-1.621,0,4.2,4.2,0,0,0,1.535,3.472A6.944,6.944,0,0,0,2583.345,706.739Z" transform="translate(-2471.936 -667.048)" fill="#db5349"/>
          <path id="Trazado_1280236" data-name="Trazado 1280236" d="M2542.7,589.255a.806.806,0,0,0,.508-.179c2.981-2.4,5.326-2.111,5.425-2.1a.811.811,0,0,0,.241-1.6c-.125-.019-3.106-.441-6.683,2.439a.81.81,0,0,0,.509,1.442Z" transform="translate(-2424.308 -584.837)" fill="#db5349"/>
        </g>
        <path id="Trazado_1280237" data-name="Trazado 1280237" d="M2826.075,710.672l27.186-13.27c4.4,5.073,9.374,11.517,15.1,16.635.04.342.076.687.107,1.036,1.148,12.86-2.659,27.162-2.659,27.162v19.377C2847.755,752.828,2836.649,730.968,2826.075,710.672Z" transform="translate(-2745.32 -602.76)" fill="#b21f1f"/>
        <path id="Trazado_1280238" data-name="Trazado 1280238" d="M2882.7,678.233c18.185-18.092,22.682-19.552,37.131-19.375,12.424.152,25.181-.869,31.378,2.355,1.917,1,14.582,10.194,16.157,27.841,1.043,11.694-2.419,24.7-2.419,24.7v30.892h-70.989c-13.045,10.464-29.392,9.2-37.5-.955C2839.623,722.617,2871.271,689.6,2882.7,678.233Z" transform="translate(-2851.623 -575.398)" fill="#fc5649"/>
        <path id="Trazado_1280239" data-name="Trazado 1280239" d="M2926.236,697.182c.349,0,.7-.009,1.048-.026,7.792-.393,14.072-4.451,18.16-11.737a42.236,42.236,0,0,0,4.614-14.343.811.811,0,1,0-1.6-.243,41.876,41.876,0,0,1-4.425,13.793c-3.8,6.775-9.621,10.548-16.828,10.911-.32.016-.645.024-.965.024-6.379,0-12.583-3.149-18.441-9.36a70.672,70.672,0,0,1-11.052-16.269.811.811,0,1,0-1.443.739,72.272,72.272,0,0,0,11.315,16.643C2912.794,693.862,2919.395,697.182,2926.236,697.182Z" transform="translate(-2846.807 -582.966)" fill="#b21f1f"/>
        <path id="Trazado_1280240" data-name="Trazado 1280240" d="M2926.3,658.858c11.852.145,24.008-.777,30.482,1.937-.894,7.928-4.438,23.213-18.456,23.919-12.7.64-22.38-14.053-27.394-23.836C2915.475,659.022,2919.917,658.78,2926.3,658.858Z" transform="translate(-2858.097 -575.398)" fill="#fffeeb"/>
        <path id="Trazado_1280241" data-name="Trazado 1280241" d="M2599.359,739.542a3.439,3.439,0,1,0,3.439-3.439A3.439,3.439,0,0,0,2599.359,739.542Z" transform="translate(-2416.935 -630.206)" fill="#fffeeb"/>
        <circle id="Elipse_12403" data-name="Elipse 12403" cx="3.439" cy="3.439" r="3.439" transform="translate(48.096 147.486)" fill="#fffeeb"/>
        <path id="Trazado_1280242" data-name="Trazado 1280242" d="M3165.051,900.848c-4.836-6.054-5.669-13.095-4.131-20.324.7-.064,1.417-.1,2.137-.1a23.357,23.357,0,0,1,22.778,28.51C3177.612,909.781,3169.875,906.886,3165.051,900.848Z" transform="translate(-3160.219 -732.556)" fill="#0dba98"/>
        <path id="Trazado_1280243" data-name="Trazado 1280243" d="M2705.4,873.636a23.339,23.339,0,0,1,20.023,11.33c-7.53,4.355-17.232,6.511-30.072,5.482a39.151,39.151,0,0,1-11.423-2.652A23.358,23.358,0,0,1,2705.4,873.636Z" transform="translate(-2560.713 -727.742)" fill="#0dba98"/>
        <g id="Grupo_1192400" data-name="Grupo 1192400" transform="translate(52.839 83.421)">
          <g id="Grupo_1192399" data-name="Grupo 1192399" transform="translate(0)" clip-path="url(#clip-path-2)">
            <g id="Grupo_1192398" data-name="Grupo 1192398" transform="translate(0.18 10.246)">
              <path id="Trazado_1280244" data-name="Trazado 1280244" d="M2903.474,695.673h46.456a.811.811,0,0,0,0-1.621h-46.456a.811.811,0,0,0,0,1.621Z" transform="translate(-2902.663 -694.052)" fill="#0dba98"/>
            </g>
          </g>
        </g>
        <path id="Trazado_1280246" data-name="Trazado 1280246" d="M2944.56,658.859c7.7.094,15.531-.262,21.846.222-2.153,3.386-5.685,7.15-10.891,7.59-6.557.554-11.334-3.5-14.885-7.8C2941.861,658.839,2943.164,658.841,2944.56,658.859Z" transform="translate(-2876.353 -575.399)" fill="#ffa194"/>
        <path id="Trazado_1280247" data-name="Trazado 1280247" d="M2957.622,815.853a.811.811,0,0,0,.811-.81V785.188a57.583,57.583,0,0,0,1.635-19.09,34.951,34.951,0,0,0-1.361-7.464.811.811,0,0,0-1.535.521,34.284,34.284,0,0,1,1.287,7.151,55.993,55.993,0,0,1-1.623,18.58.811.811,0,0,0-.025.2v29.956A.811.811,0,0,0,2957.622,815.853Z" transform="translate(-2874.922 -645.796)" fill="#b21f1f"/>
        <g id="Grupo_1192403" data-name="Grupo 1192403" transform="translate(62.464 97.512)">
          <g id="Grupo_1192401" data-name="Grupo 1192401" transform="translate(0)">
            <rect id="Rect치ngulo_412102" data-name="Rect치ngulo 412102" width="41.69" height="53.742" rx="18.625" transform="translate(0 2.625)" fill="#70529e"/>
            <path id="Trazado_1280248" data-name="Trazado 1280248" d="M2946.1,712.208h-16.277a2.467,2.467,0,0,1,0-4.934H2946.1a2.467,2.467,0,0,1,0,4.934Z" transform="translate(-2917.112 -707.274)"/>
          </g>
          <g id="Grupo_1192402" data-name="Grupo 1192402" transform="translate(0)" opacity="0.5" style="mix-blend-mode: soft-light;isolation: isolate">
            <path id="Trazado_1280249" data-name="Trazado 1280249" d="M2892.143,715.315a5.417,5.417,0,0,1,5.417-5.417h4.828c0-.052-.005-.1-.005-.158a2.467,2.467,0,0,1,2.467-2.467h16.277a2.467,2.467,0,0,1,2.467,2.467c0,.053,0,.106-.006.158h4.828a5.416,5.416,0,0,1,5.417,5.417v42.908a5.416,5.416,0,0,1-5.417,5.417H2897.56a5.417,5.417,0,0,1-5.417-5.417Z" transform="translate(-2892.143 -707.274)" fill="url(#linear-gradient-3)"/>
          </g>
        </g>
        <g id="Grupo_1192404" data-name="Grupo 1192404" transform="translate(42.333 104.03)">
          <path id="Trazado_1280250" data-name="Trazado 1280250" d="M2978.026,746.605c-.942-1.512-2.665-2.326-5.68-.844,3.481-1.995,4.758-4.395,3.464-6.828-1.285-2.416-4.532-2.614-7.974-.036,1.444-1.948,2.361-4.2.826-5.864-3.35-3.637-7.784-.8-21.783,6.508l-.036-9.858s-5.841,6.508-8.443,14.032l-11.687,8.085,17.517,24.778,10.831-7.823s6.211-1.13,11.152-2.176c7.235-1.531,8.527-3.568,7.761-5.493s-3.063-2.115-9.619-.489c0,0,7.126-3.857,9.715-5.982C2978.66,750.849,2979.02,748.2,2978.026,746.605Z" transform="translate(-2926.713 -729.684)" fill="#ffa194"/>
          <path id="Trazado_1280251" data-name="Trazado 1280251" d="M2961.333,768.117a.807.807,0,0,0,.384-.1L2976.4,760.1a.811.811,0,1,0-.77-1.427l-14.679,7.918a.811.811,0,0,0,.386,1.524Z" transform="translate(-2934.888 -750.174)" fill="#db5349"/>
          <path id="Trazado_1280252" data-name="Trazado 1280252" d="M2943.693,790.7a.805.805,0,0,0,.384-.1l14.679-7.918a.811.811,0,0,0-.77-1.427l-14.679,7.918a.811.811,0,0,0,.385,1.525Z" transform="translate(-2912.117 -766.188)" fill="#db5349"/>
          <path id="Trazado_1280253" data-name="Trazado 1280253" d="M2966.162,834.774a.807.807,0,0,0,.345-.078l5.935-2.8a.811.811,0,0,0-.692-1.466l-5.935,2.8a.811.811,0,0,0,.346,1.544Z" transform="translate(-2932.377 -801.076)" fill="#db5349"/>
          <path id="Trazado_1280254" data-name="Trazado 1280254" d="M3037.81,745.377l-1.135.666a.863.863,0,0,1-1.256-1.013l2.331-7.118Z" transform="translate(-3017.644 -735.519)" fill="#db5349"/>
        </g>
        <path id="Trazado_1280255" data-name="Trazado 1280255" d="M3070.834,847.667a.808.808,0,0,0,.586-.25l17.517-18.323a.811.811,0,0,0,.076-1.028L3071.5,803.287a.81.81,0,0,0-1.123-.2c-5.458,3.775-27.983,14.3-28.211,14.41a.811.811,0,1,0,.686,1.469c.9-.419,21.313-9.962,27.778-14.1l16.676,23.59-17.055,17.84a.811.811,0,0,0,.586,1.371Z" transform="translate(-3028.5 -677.609)" fill="#b21f1f"/>
        <g id="Grupo_1192406" data-name="Grupo 1192406" transform="translate(46.706)">
          <circle id="Elipse_12404" data-name="Elipse 12404" cx="20.91" cy="20.91" r="20.91" transform="translate(10.25 70.384) rotate(-93.17)" fill="#28121f"/>
          <path id="Trazado_1280256" data-name="Trazado 1280256" d="M2922.795,483.57c0,12.251-5.84,21.981-18.092,21.981s-22.18-7.9-22.18-20.153,10-20.676,10-20.676C2911.3,461.646,2922.795,469.6,2922.795,483.57Z" transform="translate(-2862.549 -437.283)" fill="#28121f"/>
          <path id="Trazado_1280257" data-name="Trazado 1280257" d="M2905.393,472.244a1.2,1.2,0,0,0,1.107-1.674,16.644,16.644,0,0,0-10.1-9.507c-4.663-1.662-10.773-1.892-18.163-.682a1.2,1.2,0,1,0,.39,2.375c13.8-2.261,22.2.6,25.661,8.754A1.2,1.2,0,0,0,2905.393,472.244Z" transform="translate(-2844.81 -434.128)" fill="#28121f"/>
          <path id="Trazado_1280258" data-name="Trazado 1280258" d="M2919.346,525.675V514.438c15.992,0,17.724-6.7,17.036-20.134-.292-5.7-1.123-13.568-8.835-19.368a18.918,18.918,0,0,0-29.327,8.99q-.077.226-.15.457c-2.476,7.814-3.275,14.966,1.481,19.927v21.365Z" transform="translate(-2880.206 -442.276)" fill="#ffa194"/>
          <path id="Trazado_1280259" data-name="Trazado 1280259" d="M2955.366,621.953a18.066,18.066,0,0,0,8.867,6.319v-8.438l-7.708-.112A1.406,1.406,0,0,0,2955.366,621.953Z" transform="translate(-2925.093 -547.67)" fill="#db5349"/>
          <path id="Trazado_1280260" data-name="Trazado 1280260" d="M2968.208,469.706c-2.065-1.223-4.221-3.144-7.259-3.477-10.117-1.108-22.6.75-25.384,13.94-1.507,7.134-.636,19.083,7.017,24.818,10.991,0,11.818-11.622,11.818-11.622C2963.235,490.156,2968.672,478.513,2968.208,469.706Z" transform="translate(-2923.237 -438.626)" fill="#28121f"/>
          <g id="Grupo_1192405" data-name="Grupo 1192405" transform="translate(25.342 48.918)">
            <path id="Trazado_1280261" data-name="Trazado 1280261" d="M2962.7,544.521a5.82,5.82,0,1,0,7.109-4.147A5.819,5.819,0,0,0,2962.7,544.521Z" transform="translate(-2962.507 -540.18)" fill="#ffa194"/>
            <path id="Trazado_1280262" data-name="Trazado 1280262" d="M2970.373,550.589a3.567,3.567,0,1,0,4.357-2.542A3.567,3.567,0,0,0,2970.373,550.589Z" transform="translate(-2968.001 -545.675)" fill="#db5349"/>
          </g>
          <ellipse id="Elipse_12405" data-name="Elipse 12405" cx="15.336" cy="15.336" rx="15.336" ry="15.336" transform="translate(11.332 39.835) rotate(-111.682)" fill="#28121f"/>
          <path id="Trazado_1280263" data-name="Trazado 1280263" d="M2988.611,416.668a16.54,16.54,0,1,0-16.54-16.54A16.559,16.559,0,0,0,2988.611,416.668Zm0-30.673a14.133,14.133,0,1,1-14.133,14.133A14.149,14.149,0,0,1,2988.611,385.995Z" transform="translate(-2970.948 -380.21)" fill="#28121f"/>
          <path id="Trazado_1280264" data-name="Trazado 1280264" d="M2934.631,529.961a1.349,1.349,0,0,1,1.1-.558,1.362,1.362,0,0,1,1.106.552c-.013-.02,2.032-1.29,2.032-1.29a3.774,3.774,0,0,0-6.286.033l2.062,1.242Z" transform="translate(-2893.181 -481.912)" fill="#28121f"/>
          <path id="Trazado_1280265" data-name="Trazado 1280265" d="M2904.114,543.439a1.2,1.2,0,0,0,.833-.334l2.443-2.342a1.749,1.749,0,0,0-1.21-3.011h-1.436c-.314-1.243-.687-3.656.763-4.737a1.2,1.2,0,0,0-1.439-1.93c-3.48,2.594-1.432,8.069-1.343,8.3a1.2,1.2,0,0,0,1.124.773h.693l-1.261,1.208a1.2,1.2,0,0,0,.833,2.072Z" transform="translate(-2853.362 -484.643)" fill="#db5349"/>
          <path id="Trazado_1280266" data-name="Trazado 1280266" d="M2901.42,546.217a1.208,1.208,0,1,0,1.208-1.209A1.208,1.208,0,0,0,2901.42,546.217Z" transform="translate(-2849.087 -494.686)" fill="#28121f"/>
          <path id="Trazado_1280267" data-name="Trazado 1280267" d="M2939.22,546.217a1.208,1.208,0,1,0,1.208-1.209A1.209,1.209,0,0,0,2939.22,546.217Z" transform="translate(-2897.88 -494.686)" fill="#28121f"/>
          <path id="Trazado_1280268" data-name="Trazado 1280268" d="M2902.879,579.8a1.243,1.243,0,0,0,.175-.013l3.244-.474a1.2,1.2,0,0,0-.348-2.381l-3.245.473a1.2,1.2,0,0,0,.173,2.395Z" transform="translate(-2852.653 -517.314)" fill="#db5349"/>
          <path id="Trazado_1280269" data-name="Trazado 1280269" d="M2895.363,533.206l4.239-.02a1.2,1.2,0,1,0-.012-2.407l-4.233.019a1.2,1.2,0,0,0,.006,2.407Z" transform="translate(-2843.938 -484.595)" fill="#28121f"/>
          <path id="Trazado_1280270" data-name="Trazado 1280270" d="M2934.135,561.974a3.567,3.567,0,1,0,2.838-4.171A3.567,3.567,0,0,0,2934.135,561.974Z" transform="translate(-2895.954 -503.715)" fill="#f4756e"/>
          <path id="Trazado_1280271" data-name="Trazado 1280271" d="M2953.976,496.793a1.2,1.2,0,0,0,.848-.349c4.346-4.315,4.4-12.1,4.4-12.43a1.2,1.2,0,0,0-2.407,0c0,.071-.056,7.12-3.686,10.723a1.2,1.2,0,0,0,.848,2.057Z" transform="translate(-2919.405 -450.576)" fill="#70529e"/>
          <path id="Trazado_1280272" data-name="Trazado 1280272" d="M2976.833,495.856a1.2,1.2,0,0,0,1.013-.552c1.607-2.5,2.124-6.635,2.146-6.81a1.2,1.2,0,0,0-2.389-.291,17.247,17.247,0,0,1-1.78,5.8,1.2,1.2,0,0,0,1.011,1.855Z" transform="translate(-2946.832 -453.651)" fill="#70529e"/>
        </g>
        <path id="Trazado_1280273" data-name="Trazado 1280273" d="M2611.376,706.882a.811.811,0,0,0,.3-1.566l-28.563-11.165a.811.811,0,0,0-.591,1.51l28.563,11.165A.809.809,0,0,0,2611.376,706.882Z" transform="translate(-2417.838 -600.416)" fill="#b21f1f"/>
      </g>
    </g>
  </g>
</svg>
