<svg xmlns="http://www.w3.org/2000/svg" width="400" height="251.043" viewBox="0 0 400 251.043">
  <g id="Grupo_1192468" data-name="Grupo 1192468" transform="translate(-232.051 -6566.211)">
    <rect id="Rectángulo_411951" data-name="Rectángulo 411951" width="400" height="203.232" rx="7" transform="translate(232.051 6612.953)" fill="#185c2d"/>
    <g id="Grupo_1192419" data-name="Grupo 1192419" transform="translate(-1054.073 6128.006)">
      <path id="Trazado_1280276" data-name="Trazado 1280276" d="M1667.68,835.68a123.116,123.116,0,0,1,18.683,27.651c11.563,23.481,12.938,61.585,12.7,74.134H1633.69c-.241-5.356-.481-26.929-.722-32.285-4.925,2.6-23.8,29.379-26.534,32.25h-77.757c15.428-20.85,42.336-51.445,61.281-66.765-1.37-7.473-2.74-12.939-4.11-20.413Z" transform="translate(-109.799 -249.286)" fill="#363e44"/>
      <g id="Grupo_1192412" data-name="Grupo 1192412" transform="translate(1353.608 512.409)">
        <path id="Trazado_1280277" data-name="Trazado 1280277" d="M1430.392,694.553c-20.416,3.794-80.005,11.137-76.647,36.121,2.778,20.665,60.5,10.954,81.013,8.5Q1432.574,716.863,1430.392,694.553Z" transform="translate(-1353.608 -673.184)" fill="#e2a18d"/>
        <path id="Trazado_1280278" data-name="Trazado 1280278" d="M1571.075,700.012l-6.726,50.07,121.066-29.145L1663,687.308l23.167-1.495q-.373-24.288-.747-48.576L1536.7,658.162l2.241,51.565Z" transform="translate(-1468.438 -637.237)" fill="#efbc73"/>
        <g id="Grupo_1192411" data-name="Grupo 1192411" transform="translate(182.392 7.67)">
          <path id="Trazado_1280279" data-name="Trazado 1280279" d="M1877.525,657.81c6.854.244,53.5-1.692,59.482,10.266,6.279,12.558-27.938,66.071-39.608,80.9a18.932,18.932,0,0,1-6.166,8.781c-4.007,3.038-6.481,1.937-11.21,4.484-7.98,4.3-8.689,11.889-11.724,10.84-2.083-.72-1.862-5.161-.607-9.159,1.289-4.1,3.85-6.216,3.363-6.726-.534-.558-2.859,1.923-6.033,4.745-1.474,1.31-3.307,7.4-6.3,6.839-2.385-.45-2.064-7.26,1.3-12.163,2.382-3.469,6.327-4.524,5.985-5.212-.257-.516-2.592.171-4.429,1.362-3.031,1.966-4.972,8.179-7.715,7.606-2.688-.561-2.3-6.5.507-11.21,2.369-3.968,6.826-4.934,6.406-5.792-.3-.6-2.38-.585-6.539.747-3.471,1.112-9.5,5.513-11.21,2.055-1.435-2.909,4.791-7.68,11.343-11.018,4.342-2.212,8.994-3.942,11.637-5.049a33.922,33.922,0,0,0-5.979-2.989c-4.737-1.809-6.673-1.84-7.031-4.105-.369-2.335,3.573-3.268,8.171-3.133,5.485.161,9.338,2.457,11.751,3.315q7.193-13.078,14.386-26.156c-2.615.187-6.565.333-9.181.52C1878.006,685.1,1877.521,672.253,1877.525,657.81Z" transform="translate(-1842.823 -657.81)" fill="#e2a18d"/>
          <path id="Trazado_1280280" data-name="Trazado 1280280" d="M1961.685,730.239a.368.368,0,0,1-.173-.043.372.372,0,0,1-.156-.5l9.952-18.922a.373.373,0,1,1,.66.348l-9.952,18.922A.372.372,0,0,1,1961.685,730.239Z" transform="translate(-1917.136 -690.9)" fill="#363e44"/>
        </g>
      </g>
      <g id="Grupo_1192413" data-name="Grupo 1192413" transform="translate(1445.641 513.001)">
        <path id="Trazado_1280281" data-name="Trazado 1280281" d="M1635.056,769.918a.358.358,0,0,1-.066-.006.372.372,0,0,1-.3-.432l2.13-11.959a.373.373,0,0,1,.734.131l-2.13,11.959A.373.373,0,0,1,1635.056,769.918Z" transform="translate(-1621.923 -713.074)" fill="#fff"/>
        <path id="Trazado_1280282" data-name="Trazado 1280282" d="M1623.928,767.894a.361.361,0,0,1-.066-.006.373.373,0,0,1-.3-.433l2.13-11.959a.373.373,0,1,1,.734.131l-2.13,11.96A.373.373,0,0,1,1623.928,767.894Z" transform="translate(-1614.945 -711.804)" fill="#fff"/>
        <path id="Trazado_1280283" data-name="Trazado 1280283" d="M1606.92,791.8a6.455,6.455,0,0,1-6.345-7.655l6.667-35.259a3.009,3.009,0,0,1,3.515-2.4l6.772,1.281a3.008,3.008,0,0,1,2.4,3.515l-6.666,35.259A6.467,6.467,0,0,1,1606.92,791.8Zm3.273-44.619a2.264,2.264,0,0,0-2.219,1.844l-6.667,35.259a5.709,5.709,0,1,0,11.22,2.122l6.666-35.259a2.263,2.263,0,0,0-1.8-2.644l-6.772-1.281A2.309,2.309,0,0,0,1610.193,747.179Z" transform="translate(-1600.461 -706.314)" fill="#fff"/>
        <path id="Trazado_1280284" data-name="Trazado 1280284" d="M1634.21,681.107l-7.515-1.42,7.726-40.863,7.516,1.421Zm-6.644-2.015,6.05,1.144,7.449-39.4-6.05-1.145Z" transform="translate(-1616.914 -638.824)" fill="#fff"/>
      </g>
      <g id="Grupo_1192414" data-name="Grupo 1192414" transform="translate(1353.7 551.3)">
        <path id="Trazado_1280285" data-name="Trazado 1280285" d="M1386.533,745.117c17.087,3.589,57.745,10.05,61.689,10.839,7.372,1.474,23.17,4.179,23.223,9.338a5.31,5.31,0,0,1-2.911,4.415,5.368,5.368,0,0,1,1.071,5.841,5.616,5.616,0,0,1-4.055,3.038,4.5,4.5,0,0,1,1.727,4.232,4.717,4.717,0,0,1-5.187,3.514,5.273,5.273,0,0,1,.058,3.814,5.534,5.534,0,0,1-5.127,3.276c-6.551-1.3-17.095-1.669-29.68-2.874-29.557-2.83-42.618-5.332-56.649-9.284A23.55,23.55,0,0,1,1353.854,762C1364.823,756.306,1375.564,750.814,1386.533,745.117Z" transform="translate(-1353.854 -743.787)" fill="#e2a18d"/>
        <path id="Trazado_1280286" data-name="Trazado 1280286" d="M1475.828,749.707a.374.374,0,0,1-.075-.008c-3.489-.717-11.215-2.236-18.687-3.7s-15.2-2.989-18.693-3.706a.373.373,0,0,1,.151-.73c3.489.717,11.215,2.236,18.687,3.705s15.2,2.988,18.693,3.706a.373.373,0,0,1-.074.738Z" transform="translate(-1406.675 -741.55)" fill="#363e44"/>
        <path id="Trazado_1280287" data-name="Trazado 1280287" d="M1639.481,794.266a.359.359,0,0,1-.1-.013.372.372,0,0,1-.263-.457l.86-3.195a.373.373,0,1,1,.72.194l-.86,3.194A.373.373,0,0,1,1639.481,794.266Z" transform="translate(-1532.758 -772.141)" fill="#363e44"/>
        <path id="Trazado_1280288" data-name="Trazado 1280288" d="M1633.659,816.017a.362.362,0,0,1-.1-.013.372.372,0,0,1-.263-.457l.86-3.195a.373.373,0,1,1,.72.194l-.86,3.194A.372.372,0,0,1,1633.659,816.017Z" transform="translate(-1529.106 -785.783)" fill="#363e44"/>
        <path id="Trazado_1280289" data-name="Trazado 1280289" d="M1627.975,838.23a.368.368,0,0,1-.1-.013.373.373,0,0,1-.263-.457l.86-3.2a.373.373,0,1,1,.72.194l-.86,3.195A.373.373,0,0,1,1627.975,838.23Z" transform="translate(-1525.541 -799.714)" fill="#363e44"/>
        <path id="Trazado_1280290" data-name="Trazado 1280290" d="M1622.4,858.271a.361.361,0,0,1-.1-.013.372.372,0,0,1-.263-.457l.86-3.195a.373.373,0,1,1,.72.194l-.86,3.194A.373.373,0,0,1,1622.4,858.271Z" transform="translate(-1522.048 -812.283)" fill="#363e44"/>
      </g>
      <g id="Grupo_1192416" data-name="Grupo 1192416" transform="translate(1479.078 438.205)">
        <circle id="Elipse_12406" data-name="Elipse 12406" cx="17.202" cy="17.202" r="17.202" transform="translate(0 33.959) rotate(-80.783)" fill="#363e44"/>
        <path id="Trazado_1280291" data-name="Trazado 1280291" d="M1746.666,525.006c14.053,1.2,19.551,6.513,21.859,10.649,4.484,8.034,1.9,13.561,6.165,24.1,3.5,8.639,10.009,14.086,14.572,17.188a42.513,42.513,0,0,1-34,11.771,113.9,113.9,0,0,0-8.594-63.709Z" transform="translate(-1725.594 -492.644)" fill="#363e44"/>
        <path id="Trazado_1280292" data-name="Trazado 1280292" d="M1711.9,534.57c.944-.091,9.993-.832,15.444,5.356,4.057,4.6,4.543,10.514,3.861,20.551-.8,11.819-2.935,18.772-6.337,21.105-5.375,3.686-21.484-4.558-27.541-14.878-4.373-7.449-3.874-17.043.747-24.412C1702.684,534.943,1711.3,534.628,1711.9,534.57Z" transform="translate(-1692.76 -498.596)" fill="#e2a18d"/>
        <rect id="Rectángulo_412104" data-name="Rectángulo 412104" width="17.369" height="25.557" rx="8.685" transform="translate(9.269 72.388)" fill="#e2a18d"/>
        <path id="Trazado_1280293" data-name="Trazado 1280293" d="M1726.206,637.4a14.8,14.8,0,0,1-3.2-.393c-7.019-1.573-16.969-7.779-21.467-15.442a.373.373,0,1,1,.643-.377c4.4,7.488,14.123,13.554,20.987,15.092,2.739.614,4.86.479,6.132-.39a.373.373,0,1,1,.421.616A6.175,6.175,0,0,1,1726.206,637.4Z" transform="translate(-1697.256 -552.85)" fill="#363e44"/>
        <path id="Trazado_1280294" data-name="Trazado 1280294" d="M1728.569,532.671c3.625,8.171-9.154,16.649-20.4,13.454-6.576-1.868-12.715-8.692-11.366-12.84C1699.129,526.149,1724.847,524.281,1728.569,532.671Z" transform="translate(-1694.205 -493.969)" fill="#363e44"/>
        <g id="Grupo_1192415" data-name="Grupo 1192415" transform="translate(31.098 50.912)">
          <path id="Trazado_1280295" data-name="Trazado 1280295" d="M1800.718,574.855a15.655,15.655,0,0,1-3.567,5.864c-.546.546-3.889-4.875-3.12-5.147A15.7,15.7,0,0,1,1800.718,574.855Z" transform="translate(-1786.326 -574.761)" fill="#fff"/>
          <path id="Trazado_1280296" data-name="Trazado 1280296" d="M1773.557,585.4a14.723,14.723,0,0,0,8.966-1.818,11.06,11.06,0,0,0,1.857-1.5,6.156,6.156,0,0,0-3.118-5.146,11.113,11.113,0,0,0-2.279,1.1A14.724,14.724,0,0,0,1773.557,585.4Z" transform="translate(-1773.557 -576.126)" fill="#363e44"/>
        </g>
      </g>
      <g id="Grupo_1192418" data-name="Grupo 1192418" transform="translate(1414.64 440.998)">
        <circle id="Elipse_12407" data-name="Elipse 12407" cx="39.094" cy="39.094" r="39.094" transform="translate(0 55.287) rotate(-45)" fill="#e2a18d"/>
        <path id="Trazado_1280297" data-name="Trazado 1280297" d="M1599.21,567.064a39.305,39.305,0,0,1-27.1-10.774h0a39.1,39.1,0,0,1-12.368-28.693,39.467,39.467,0,1,1,39.467,39.467Zm0-78.188a38.765,38.765,0,0,0-38.721,38.721,38.721,38.721,0,0,0,38.721,38.721,38.721,38.721,0,1,0,0-77.442Z" transform="translate(-1543.923 -472.309)" fill="#fff"/>
        <path id="Trazado_1280298" data-name="Trazado 1280298" d="M1630.6,669.754a32.836,32.836,0,0,1-20.665-7.217.373.373,0,1,1,.465-.583,32.475,32.475,0,0,0,34.537,3.724.373.373,0,1,1,.33.668A32.858,32.858,0,0,1,1630.6,669.754Z" transform="translate(-1575.315 -581.276)" fill="#fff"/>
        <path id="Trazado_1280299" data-name="Trazado 1280299" d="M1734.318,544.735a.372.372,0,0,1-.359-.275A32.41,32.41,0,0,0,1724.8,529.3a.373.373,0,1,1,.509-.545,33.148,33.148,0,0,1,9.373,15.512.372.372,0,0,1-.36.471Z" transform="translate(-1647.365 -497.724)" fill="#fff"/>
        <path id="Trazado_1280300" data-name="Trazado 1280300" d="M1659.26,510.82a.373.373,0,0,1-.2-.058,32.5,32.5,0,0,0-31.091-2.027.373.373,0,0,1-.315-.676,33.243,33.243,0,0,1,31.806,2.073.373.373,0,0,1-.2.688Z" transform="translate(-1586.38 -482.868)" fill="#fff"/>
        <path id="Trazado_1280301" data-name="Trazado 1280301" d="M1589.42,635.1a.373.373,0,0,1-.267-.113,33.43,33.43,0,0,1-7.5-12.044.373.373,0,0,1,.7-.25,32.681,32.681,0,0,0,7.335,11.774.372.372,0,0,1-.267.633Z" transform="translate(-1557.648 -556.547)" fill="#fff"/>
        <g id="Grupo_1192417" data-name="Grupo 1192417" transform="translate(23.2 42.021)">
          <path id="Trazado_1280302" data-name="Trazado 1280302" d="M1708.5,586.055a60.941,60.941,0,0,1-25.92,6.32c-3.014,0,2.672-24.12,5.534-22.755A61.08,61.08,0,0,1,1708.5,586.055Z" transform="translate(-1643.629 -565.404)" fill="#fff"/>
          <path id="Trazado_1280303" data-name="Trazado 1280303" d="M1624.051,562.634a43.254,43.254,0,0,0-9.312-3.248c-17.915-3.958-35.2,5.339-35.2,5.339s11.761,15.713,29.675,19.67a42.991,42.991,0,0,0,9.272.979A23.979,23.979,0,0,0,1624.051,562.634Z" transform="translate(-1579.538 -558.405)" fill="#363e44"/>
        </g>
      </g>
    </g>
    <g id="Grupo_1192442" data-name="Grupo 1192442" transform="translate(-318.205 6356.339)">
      <g id="Grupo_1192420" data-name="Grupo 1192420">
        <path id="Trazado_1280304" data-name="Trazado 1280304" d="M650.192,455.143q-.012.354-.032.717-.067,1.284-.215,2.7-7.592,1.05-15.14,1.637c-.219.017-.438.035-.657.05q-10.8.813-21.511.641l-.682-.013q-3.312-.064-6.614-.229h0l-.9-.045q-10.132-.545-20.174-2.041a36.049,36.049,0,0,1,.086-9.656c.038-.227.081-.451.126-.669,1.155-5.693,4.292-8.607,8.615-10.9q.291-.158.591-.309c.918-.466,1.886-.91,2.9-1.35,7.845-3.416,6.386-9.733-2.281-14.49-5.227-2.871-7.094-6.768-7.4-10.487q-.026-.324-.038-.645c-.211-5.764,3.111-10.929,3.111-10.929l23.428.725.729.024,2.981.092,18.6-.577.763-.024,7.768-.24a22.518,22.518,0,0,1,2.15,4.721c.071.221.142.446.208.678v0c1.211,4.148,1.541,9.894-3.377,14.338-.161.146-.326.29-.5.431a17.793,17.793,0,0,1-2.813,1.891,18.925,18.925,0,0,0-5.766,4.542c-.124.155-.24.312-.35.466-2.51,3.568-1.446,7.182,3.835,9.482C645.4,439.056,650.662,442.627,650.192,455.143Z" fill="#e59f3f"/>
      </g>
      <g id="Grupo_1192433" data-name="Grupo 1192433">
        <g id="Grupo_1192422" data-name="Grupo 1192422">
          <g id="Grupo_1192421" data-name="Grupo 1192421">
            <path id="Trazado_1280305" data-name="Trazado 1280305" d="M611.523,437.932c-2.161,1.9-5.229,2.575-8.023,2.83a12.84,12.84,0,0,1-8.933-2.062,9.43,9.43,0,0,1-1.47-1.373q.291-.158.591-.309a9.039,9.039,0,0,0,3.428,2.369,16.087,16.087,0,0,0,9.946.092c2.753-.766,5.335-2.39,5.995-5.36a7.511,7.511,0,0,0-3.491-7.826c-2.266-1.459-5.162-1.495-7.343-3.117a4.589,4.589,0,0,1-1.6-5.515,7.143,7.143,0,0,1,1.867-2.693c.8-.728,2.323-1.32,2.643-2.438.7-2.444-7.738-2.523-9.122-2.56a43.175,43.175,0,0,0-9.113.721q-.026-.324-.038-.645a44,44,0,0,1,12.194-.533,24.6,24.6,0,0,1,4.987.8c.9.283,1.8.877,1.781,1.929-.019,1.09-1.047,1.832-1.852,2.4a6.871,6.871,0,0,0-2.916,3.768c-1.148,4.392,3.989,5.276,6.939,6.392a8.994,8.994,0,0,1,5.549,5.628A7.258,7.258,0,0,1,611.523,437.932Z" fill="#b56d25"/>
          </g>
        </g>
        <g id="Grupo_1192424" data-name="Grupo 1192424">
          <g id="Grupo_1192423" data-name="Grupo 1192423">
            <path id="Trazado_1280306" data-name="Trazado 1280306" d="M636.476,399.357q-1.5,2.55-3.184,4.983c-3.261,4.7-8.115,11.976-14.862,10.016-6.207-1.8-7.924-9.317-5.031-14.514l.729.024a9.823,9.823,0,0,0,.489,11.2,7.8,7.8,0,0,0,10.6,1.461c3.273-2.18,5.67-5.8,7.852-9q1.391-2.034,2.646-4.152Z" fill="#b56d25"/>
          </g>
        </g>
        <g id="Grupo_1192426" data-name="Grupo 1192426">
          <g id="Grupo_1192425" data-name="Grupo 1192425">
            <path id="Trazado_1280307" data-name="Trazado 1280307" d="M646.6,404.516v0c-2.467,2.236-4.027,6.5-4.3,9.055a9.378,9.378,0,0,0,.925,5.283c-.161.146-.326.29-.5.431a9.909,9.909,0,0,1-1.1-5.347c.2-2.907,1.951-7.71,4.768-10.1C646.465,404.059,646.536,404.284,646.6,404.516Z" fill="#b56d25"/>
          </g>
        </g>
        <g id="Grupo_1192428" data-name="Grupo 1192428">
          <g id="Grupo_1192427" data-name="Grupo 1192427">
            <path id="Trazado_1280308" data-name="Trazado 1280308" d="M650.192,455.143q-.012.354-.032.717a9.361,9.361,0,0,1-4.261.358c-1.979-.283-4.309-1.549-4.6-3.729-.2-1.474.753-2.654,1.249-3.959a3.6,3.6,0,0,0-1.62-4.358c-3.137-2.079-7.19-.041-10.527.341a8.1,8.1,0,0,1-7.59-3.1,10.309,10.309,0,0,1,2.206-14.591,9.8,9.8,0,0,1,9.126-1.1c-.124.155-.24.312-.35.466a10.247,10.247,0,0,0-2.3-.483,9.475,9.475,0,0,0-7.948,3.3c-3.74,4.373-2.592,12.593,3.262,14.589,4.916,1.676,11.394-3.652,15.535.946,1.549,1.719,1.172,3.519.24,5.429-.712,1.457-.995,2.873.245,4.128a5.691,5.691,0,0,0,3.515,1.526A9,9,0,0,0,650.192,455.143Z" fill="#b56d25"/>
          </g>
        </g>
        <g id="Grupo_1192430" data-name="Grupo 1192430">
          <g id="Grupo_1192429" data-name="Grupo 1192429">
            <path id="Trazado_1280309" data-name="Trazado 1280309" d="M634.8,460.192c-.219.017-.438.035-.657.05a22.32,22.32,0,0,0-.7-5.856c-.457-1.758-1.241-3.412-3.14-3.914a8.993,8.993,0,0,0-4.37.257c-5.614,1.372-11.124,4.635-13.3,10.154l-.682-.013c2.334-6.2,8.791-9.98,15.136-11.042a7.32,7.32,0,0,1,4.057.251,5.141,5.141,0,0,1,2.734,3.472A21.467,21.467,0,0,1,634.8,460.192Z" fill="#b56d25"/>
          </g>
        </g>
        <g id="Grupo_1192432" data-name="Grupo 1192432">
          <g id="Grupo_1192431" data-name="Grupo 1192431">
            <path id="Trazado_1280310" data-name="Trazado 1280310" d="M606.627,459.229a12.242,12.242,0,0,1-1.286,1.412h0l-.9-.045a10.318,10.318,0,0,0,2.631-3.294c1.5-3.071,1.028-6.871-2.219-8.553-3.3-1.708-7.07-.629-10.443.247-3.011.781-6.41,1.538-9.392.238a6.467,6.467,0,0,1-.665-.335c.038-.227.081-.451.126-.669.09.055.183.109.277.16a10.055,10.055,0,0,0,6.463.668c3.523-.6,6.974-2.17,10.613-1.815,2.622.255,5.274,1.553,6.294,4.119A8.306,8.306,0,0,1,606.627,459.229Z" fill="#b56d25"/>
          </g>
        </g>
      </g>
      <g id="Grupo_1192434" data-name="Grupo 1192434">
        <ellipse id="Elipse_12408" data-name="Elipse 12408" cx="27.153" cy="1.817" rx="27.153" ry="1.817" transform="translate(589.939 397.352)" fill="#1e1d12"/>
      </g>
      <g id="Grupo_1192441" data-name="Grupo 1192441">
        <g id="Grupo_1192435" data-name="Grupo 1192435">
          <path id="Trazado_1280311" data-name="Trazado 1280311" d="M620.027,392.143s-3.178-18.492,7.455-22.209C645.9,363.5,645.22,354.27,642.329,345.58c0,0,13.962,10.085,13.1,21.243S628.8,378.088,629.254,399.01h-8.046Z" fill="#365f54"/>
        </g>
        <g id="Grupo_1192436" data-name="Grupo 1192436">
          <path id="Trazado_1280312" data-name="Trazado 1280312" d="M608.362,327.019a8.05,8.05,0,0,0-.244,10.729c7.511,9.656.215,13.518.215,13.518s14.162,4.292,21.672-3.647c5.9-6.238,3-20.6,3-20.6Z" fill="#365f54"/>
        </g>
        <g id="Grupo_1192437" data-name="Grupo 1192437">
          <path id="Trazado_1280313" data-name="Trazado 1280313" d="M606.831,398.9s-12.66.643-16.523-19.312.215-40.341-10.3-45.92c0,0,23.174,4.291,30.041,23.174s4.291,37.122,11.158,42.058Z" fill="#365f54"/>
        </g>
        <g id="Grupo_1192438" data-name="Grupo 1192438">
          <path id="Trazado_1280314" data-name="Trazado 1280314" d="M610,398.9s-10.679-10.729-1.667-27.466,10.514-40.556,0-44.418c7.888-3.7,16.193-2.825,24.676,0,0,0,12.875,14.591,5.365,30.041S617.345,392.894,622.71,398.9Z" fill="#539380"/>
        </g>
        <g id="Grupo_1192440" data-name="Grupo 1192440">
          <g id="Grupo_1192439" data-name="Grupo 1192439">
            <path id="Trazado_1280315" data-name="Trazado 1280315" d="M627.138,334.986c4.322,8.969.272,19.03-4.107,27.113-4.191,7.735-9.181,15.523-9.5,24.594a18.132,18.132,0,0,0,3.681,12.1c.257.324.71-.134.455-.455-5.721-7.187-3.513-17.218.021-24.85,3.839-8.29,9.6-15.795,11.379-24.924a22.048,22.048,0,0,0-1.377-13.906c-.18-.373-.735-.047-.556.325Z" fill="#365f54"/>
          </g>
        </g>
      </g>
    </g>
    <g id="Calculator" transform="translate(168.868 6434.424)">
      <rect id="Rectángulo_412105" data-name="Rectángulo 412105" width="67.958" height="98.797" rx="5.259" transform="translate(382.997 145.51)" fill="#303030" stroke="#303030" stroke-linecap="round" stroke-linejoin="round" stroke-width="1.5"/>
      <path id="Trazado_1280316" data-name="Trazado 1280316" d="M379.821,218V149.835a4.325,4.325,0,0,1,4.325-4.325h59.309a4.324,4.324,0,0,1,4.325,4.325v90.147a4.324,4.324,0,0,1-4.325,4.325H384.146a4.325,4.325,0,0,1-4.325-4.325v-11.3c-2.913.932-9.946,1.243-14.767-2.44C371.747,225.59,377.135,223.243,379.821,218Z" fill="#00826f" stroke="#303030" stroke-linecap="round" stroke-linejoin="round" stroke-width="1.5"/>
      <rect id="Rectángulo_412106" data-name="Rectángulo 412106" width="54.985" height="12.972" rx="2.244" transform="translate(441.293 165.309) rotate(180)" fill="#fff" stroke="#303030" stroke-linecap="round" stroke-linejoin="round" stroke-width="1.5"/>
      <g id="Grupo_1192447" data-name="Grupo 1192447" transform="translate(386.308 172.068)">
        <g id="Grupo_1192443" data-name="Grupo 1192443" transform="translate(44.253)">
          <rect id="Rectángulo_412107" data-name="Rectángulo 412107" width="9.932" height="9.932" rx="1.481" transform="translate(10.733 9.932) rotate(180)" fill="#303030" stroke="#303030" stroke-linecap="round" stroke-linejoin="round" stroke-width="1.5"/>
          <rect id="Rectángulo_412108" data-name="Rectángulo 412108" width="9.932" height="9.932" rx="1.481" transform="translate(9.932 9.932) rotate(180)" fill="#fff" stroke="#303030" stroke-linecap="round" stroke-linejoin="round" stroke-width="1.5"/>
        </g>
        <g id="Grupo_1192444" data-name="Grupo 1192444" transform="translate(29.502)">
          <rect id="Rectángulo_412109" data-name="Rectángulo 412109" width="9.932" height="9.932" rx="1.481" transform="translate(10.733 9.932) rotate(180)" fill="#303030" stroke="#303030" stroke-linecap="round" stroke-linejoin="round" stroke-width="1.5"/>
          <rect id="Rectángulo_412110" data-name="Rectángulo 412110" width="9.932" height="9.932" rx="1.481" transform="translate(9.932 9.932) rotate(180)" fill="#fff" stroke="#303030" stroke-linecap="round" stroke-linejoin="round" stroke-width="1.5"/>
        </g>
        <g id="Grupo_1192445" data-name="Grupo 1192445" transform="translate(14.751)">
          <rect id="Rectángulo_412111" data-name="Rectángulo 412111" width="9.932" height="9.932" rx="1.481" transform="translate(10.733 9.932) rotate(180)" fill="#303030" stroke="#303030" stroke-linecap="round" stroke-linejoin="round" stroke-width="1.5"/>
          <rect id="Rectángulo_412112" data-name="Rectángulo 412112" width="9.932" height="9.932" rx="1.481" transform="translate(9.932 9.932) rotate(180)" fill="#f55571" stroke="#303030" stroke-linecap="round" stroke-linejoin="round" stroke-width="1.5"/>
        </g>
        <g id="Grupo_1192446" data-name="Grupo 1192446">
          <rect id="Rectángulo_412113" data-name="Rectángulo 412113" width="9.932" height="9.932" rx="1.481" transform="translate(10.733 9.932) rotate(180)" fill="#303030" stroke="#303030" stroke-linecap="round" stroke-linejoin="round" stroke-width="1.5"/>
          <rect id="Rectángulo_412114" data-name="Rectángulo 412114" width="9.932" height="9.932" rx="1.481" transform="translate(9.932 9.932) rotate(180)" fill="#f55571" stroke="#303030" stroke-linecap="round" stroke-linejoin="round" stroke-width="1.5"/>
        </g>
      </g>
      <g id="Grupo_1192452" data-name="Grupo 1192452" transform="translate(386.308 186.068)">
        <g id="Grupo_1192448" data-name="Grupo 1192448" transform="translate(44.253)">
          <rect id="Rectángulo_412115" data-name="Rectángulo 412115" width="9.932" height="9.932" rx="1.481" transform="translate(10.733 9.932) rotate(180)" fill="#303030" stroke="#303030" stroke-linecap="round" stroke-linejoin="round" stroke-width="1.5"/>
          <rect id="Rectángulo_412116" data-name="Rectángulo 412116" width="9.932" height="9.932" rx="1.481" transform="translate(9.932 9.932) rotate(180)" fill="#fff" stroke="#303030" stroke-linecap="round" stroke-linejoin="round" stroke-width="1.5"/>
        </g>
        <g id="Grupo_1192449" data-name="Grupo 1192449" transform="translate(29.502)">
          <rect id="Rectángulo_412117" data-name="Rectángulo 412117" width="9.932" height="9.932" rx="1.481" transform="translate(10.733 9.932) rotate(180)" fill="#303030" stroke="#303030" stroke-linecap="round" stroke-linejoin="round" stroke-width="1.5"/>
          <rect id="Rectángulo_412118" data-name="Rectángulo 412118" width="9.932" height="9.932" rx="1.481" transform="translate(9.932 9.932) rotate(180)" fill="#fff" stroke="#303030" stroke-linecap="round" stroke-linejoin="round" stroke-width="1.5"/>
        </g>
        <g id="Grupo_1192450" data-name="Grupo 1192450" transform="translate(14.751)">
          <rect id="Rectángulo_412119" data-name="Rectángulo 412119" width="9.932" height="9.932" rx="1.481" transform="translate(10.733 9.932) rotate(180)" fill="#303030" stroke="#303030" stroke-linecap="round" stroke-linejoin="round" stroke-width="1.5"/>
          <rect id="Rectángulo_412120" data-name="Rectángulo 412120" width="9.932" height="9.932" rx="1.481" transform="translate(9.932 9.932) rotate(180)" fill="#fff" stroke="#303030" stroke-linecap="round" stroke-linejoin="round" stroke-width="1.5"/>
        </g>
        <g id="Grupo_1192451" data-name="Grupo 1192451">
          <rect id="Rectángulo_412121" data-name="Rectángulo 412121" width="9.932" height="9.932" rx="1.481" transform="translate(10.733 9.932) rotate(180)" fill="#303030" stroke="#303030" stroke-linecap="round" stroke-linejoin="round" stroke-width="1.5"/>
          <rect id="Rectángulo_412122" data-name="Rectángulo 412122" width="9.932" height="9.932" rx="1.481" transform="translate(9.932 9.932) rotate(180)" fill="#ff95fb" stroke="#303030" stroke-linecap="round" stroke-linejoin="round" stroke-width="1.5"/>
        </g>
      </g>
      <g id="Grupo_1192457" data-name="Grupo 1192457" transform="translate(386.308 200.068)">
        <g id="Grupo_1192453" data-name="Grupo 1192453" transform="translate(44.253 0)">
          <rect id="Rectángulo_412123" data-name="Rectángulo 412123" width="9.932" height="9.932" rx="1.481" transform="translate(10.733 9.932) rotate(180)" fill="#303030" stroke="#303030" stroke-linecap="round" stroke-linejoin="round" stroke-width="1.5"/>
          <rect id="Rectángulo_412124" data-name="Rectángulo 412124" width="9.932" height="9.932" rx="1.481" transform="translate(9.932 9.932) rotate(180)" fill="#fff" stroke="#303030" stroke-linecap="round" stroke-linejoin="round" stroke-width="1.5"/>
        </g>
        <g id="Grupo_1192454" data-name="Grupo 1192454" transform="translate(29.502 0)">
          <rect id="Rectángulo_412125" data-name="Rectángulo 412125" width="9.932" height="9.932" rx="1.481" transform="translate(10.733 9.932) rotate(180)" fill="#303030" stroke="#303030" stroke-linecap="round" stroke-linejoin="round" stroke-width="1.5"/>
          <rect id="Rectángulo_412126" data-name="Rectángulo 412126" width="9.932" height="9.932" rx="1.481" transform="translate(9.932 9.932) rotate(180)" fill="#fff" stroke="#303030" stroke-linecap="round" stroke-linejoin="round" stroke-width="1.5"/>
        </g>
        <g id="Grupo_1192455" data-name="Grupo 1192455" transform="translate(14.751 0)">
          <rect id="Rectángulo_412127" data-name="Rectángulo 412127" width="9.932" height="9.932" rx="1.481" transform="translate(10.733 9.932) rotate(180)" fill="#303030" stroke="#303030" stroke-linecap="round" stroke-linejoin="round" stroke-width="1.5"/>
          <rect id="Rectángulo_412128" data-name="Rectángulo 412128" width="9.932" height="9.932" rx="1.481" transform="translate(9.932 9.932) rotate(180)" fill="#fff" stroke="#303030" stroke-linecap="round" stroke-linejoin="round" stroke-width="1.5"/>
        </g>
        <g id="Grupo_1192456" data-name="Grupo 1192456" transform="translate(0 0)">
          <rect id="Rectángulo_412129" data-name="Rectángulo 412129" width="9.932" height="9.932" rx="1.481" transform="translate(10.733 9.932) rotate(180)" fill="#303030" stroke="#303030" stroke-linecap="round" stroke-linejoin="round" stroke-width="1.5"/>
          <rect id="Rectángulo_412130" data-name="Rectángulo 412130" width="9.932" height="9.932" rx="1.481" transform="translate(9.932 9.932) rotate(180)" fill="#ff95fb" stroke="#303030" stroke-linecap="round" stroke-linejoin="round" stroke-width="1.5"/>
        </g>
      </g>
      <g id="Grupo_1192462" data-name="Grupo 1192462" transform="translate(386.308 214.068)">
        <g id="Grupo_1192458" data-name="Grupo 1192458" transform="translate(44.253 0)">
          <rect id="Rectángulo_412131" data-name="Rectángulo 412131" width="9.932" height="9.932" rx="1.481" transform="translate(10.733 9.932) rotate(180)" fill="#303030" stroke="#303030" stroke-linecap="round" stroke-linejoin="round" stroke-width="1.5"/>
          <rect id="Rectángulo_412132" data-name="Rectángulo 412132" width="9.932" height="9.932" rx="1.481" transform="translate(9.932 9.932) rotate(180)" fill="#fff" stroke="#303030" stroke-linecap="round" stroke-linejoin="round" stroke-width="1.5"/>
        </g>
        <g id="Grupo_1192459" data-name="Grupo 1192459" transform="translate(29.502 0)">
          <rect id="Rectángulo_412133" data-name="Rectángulo 412133" width="9.932" height="9.932" rx="1.481" transform="translate(10.733 9.932) rotate(180)" fill="#303030" stroke="#303030" stroke-linecap="round" stroke-linejoin="round" stroke-width="1.5"/>
          <rect id="Rectángulo_412134" data-name="Rectángulo 412134" width="9.932" height="9.932" rx="1.481" transform="translate(9.932 9.932) rotate(180)" fill="#fff" stroke="#303030" stroke-linecap="round" stroke-linejoin="round" stroke-width="1.5"/>
        </g>
        <g id="Grupo_1192460" data-name="Grupo 1192460" transform="translate(14.751 0)">
          <rect id="Rectángulo_412135" data-name="Rectángulo 412135" width="9.932" height="9.932" rx="1.481" transform="translate(10.733 9.932) rotate(180)" fill="#303030" stroke="#303030" stroke-linecap="round" stroke-linejoin="round" stroke-width="1.5"/>
          <rect id="Rectángulo_412136" data-name="Rectángulo 412136" width="9.932" height="9.932" rx="1.481" transform="translate(9.932 9.932) rotate(180)" fill="#fff" stroke="#303030" stroke-linecap="round" stroke-linejoin="round" stroke-width="1.5"/>
        </g>
        <g id="Grupo_1192461" data-name="Grupo 1192461" transform="translate(0 0)">
          <rect id="Rectángulo_412137" data-name="Rectángulo 412137" width="9.932" height="9.932" rx="1.481" transform="translate(10.733 9.932) rotate(180)" fill="#303030" stroke="#303030" stroke-linecap="round" stroke-linejoin="round" stroke-width="1.5"/>
          <rect id="Rectángulo_412138" data-name="Rectángulo 412138" width="9.932" height="9.932" rx="1.481" transform="translate(9.932 9.932) rotate(180)" fill="#ff95fb" stroke="#303030" stroke-linecap="round" stroke-linejoin="round" stroke-width="1.5"/>
        </g>
      </g>
      <g id="Grupo_1192467" data-name="Grupo 1192467" transform="translate(386.308 228.068)">
        <g id="Grupo_1192463" data-name="Grupo 1192463" transform="translate(44.253)">
          <rect id="Rectángulo_412139" data-name="Rectángulo 412139" width="9.932" height="9.932" rx="1.481" transform="translate(10.733 9.932) rotate(180)" fill="#303030" stroke="#303030" stroke-linecap="round" stroke-linejoin="round" stroke-width="1.5"/>
          <rect id="Rectángulo_412140" data-name="Rectángulo 412140" width="9.932" height="9.932" rx="1.481" transform="translate(9.932 9.932) rotate(180)" fill="#ff95fb" stroke="#303030" stroke-linecap="round" stroke-linejoin="round" stroke-width="1.5"/>
        </g>
        <g id="Grupo_1192464" data-name="Grupo 1192464" transform="translate(29.502)">
          <rect id="Rectángulo_412141" data-name="Rectángulo 412141" width="9.932" height="9.932" rx="1.481" transform="translate(10.733 9.932) rotate(180)" fill="#303030" stroke="#303030" stroke-linecap="round" stroke-linejoin="round" stroke-width="1.5"/>
          <rect id="Rectángulo_412142" data-name="Rectángulo 412142" width="9.932" height="9.932" rx="1.481" transform="translate(9.932 9.932) rotate(180)" fill="#fff" stroke="#303030" stroke-linecap="round" stroke-linejoin="round" stroke-width="1.5"/>
        </g>
        <g id="Grupo_1192465" data-name="Grupo 1192465" transform="translate(14.751)">
          <rect id="Rectángulo_412143" data-name="Rectángulo 412143" width="9.932" height="9.932" rx="1.481" transform="translate(10.733 9.932) rotate(180)" fill="#303030" stroke="#303030" stroke-linecap="round" stroke-linejoin="round" stroke-width="1.5"/>
          <rect id="Rectángulo_412144" data-name="Rectángulo 412144" width="9.932" height="9.932" rx="1.481" transform="translate(9.932 9.932) rotate(180)" fill="#ff95fb" stroke="#303030" stroke-linecap="round" stroke-linejoin="round" stroke-width="1.5"/>
        </g>
        <g id="Grupo_1192466" data-name="Grupo 1192466">
          <rect id="Rectángulo_412145" data-name="Rectángulo 412145" width="9.932" height="9.932" rx="1.481" transform="translate(10.733 9.932) rotate(180)" fill="#303030" stroke="#303030" stroke-linecap="round" stroke-linejoin="round" stroke-width="1.5"/>
          <rect id="Rectángulo_412146" data-name="Rectángulo 412146" width="9.932" height="9.932" rx="1.481" transform="translate(9.932 9.932) rotate(180)" fill="#ff95fb" stroke="#303030" stroke-linecap="round" stroke-linejoin="round" stroke-width="1.5"/>
        </g>
      </g>
    </g>
  </g>
</svg>
