<svg xmlns="http://www.w3.org/2000/svg" width="400" height="153" viewBox="0 0 400 153">
  <g id="Grupo_1192314" data-name="Grupo 1192314" transform="translate(-915.051 -1412)">
    <rect id="Rectángulo_411839" data-name="Rectángulo 411839" width="400" height="153" rx="7" transform="translate(915.051 1412)" fill="#12263f"/>
    <g id="Grupo_1192313" data-name="Grupo 1192313" transform="translate(145.016 662.253)">
      <g id="Grupo_1192304" data-name="Grupo 1192304">
        <path id="Trazado_1280167" data-name="Trazado 1280167" d="M1064.405,874.579H876.436a21.425,21.425,0,0,1-21.4-21.4V799.149a21.426,21.426,0,0,1,21.4-21.4h187.969a21.426,21.426,0,0,1,21.4,21.4v54.029A21.425,21.425,0,0,1,1064.405,874.579ZM876.436,778.89a20.282,20.282,0,0,0-20.258,20.259v54.029a20.281,20.281,0,0,0,20.258,20.258h187.969a20.281,20.281,0,0,0,20.258-20.258V799.149a20.281,20.281,0,0,0-20.258-20.259Z" fill="#5dace1"/>
      </g>
      <g id="Grupo_1192307" data-name="Grupo 1192307">
        <g id="Grupo_1192305" data-name="Grupo 1192305">
          <path id="Trazado_1280168" data-name="Trazado 1280168" d="M929.219,826.169a27.169,27.169,0,1,1-11.83-22.437A27.166,27.166,0,0,1,929.219,826.169Z" fill="#f0dcd8"/>
        </g>
        <g id="Grupo_1192306" data-name="Grupo 1192306">
          <path id="Trazado_1280169" data-name="Trazado 1280169" d="M929.219,826.169H902.05l15.339-22.437A27.164,27.164,0,0,1,929.219,826.169Z" fill="#fff"/>
        </g>
      </g>
      <g id="Grupo_1192308" data-name="Grupo 1192308">
        <path id="Trazado_1280170" data-name="Trazado 1280170" d="M983.776,855.492H960.344a1.716,1.716,0,0,1-1.715-1.715V798.549a1.716,1.716,0,0,1,1.715-1.714h23.432a1.716,1.716,0,0,1,1.714,1.714v55.228A1.716,1.716,0,0,1,983.776,855.492Zm-23.432-57.514a.572.572,0,0,0-.572.571v55.228a.573.573,0,0,0,.572.572h23.432a.572.572,0,0,0,.571-.572V798.549a.571.571,0,0,0-.571-.571Z" fill="#5dace1"/>
      </g>
      <g id="Grupo_1192309" data-name="Grupo 1192309">
        <path id="Trazado_1280171" data-name="Trazado 1280171" d="M1022.352,855.492H998.92a1.716,1.716,0,0,1-1.714-1.715V798.549a1.716,1.716,0,0,1,1.714-1.714h23.432a1.716,1.716,0,0,1,1.715,1.714v55.228A1.717,1.717,0,0,1,1022.352,855.492ZM998.92,797.978a.571.571,0,0,0-.571.571v55.228a.572.572,0,0,0,.571.572h23.432a.573.573,0,0,0,.572-.572V798.549a.572.572,0,0,0-.572-.571Z" fill="#5dace1"/>
      </g>
      <g id="Grupo_1192310" data-name="Grupo 1192310">
        <path id="Trazado_1280172" data-name="Trazado 1280172" d="M1060.929,855.492H1037.5a1.716,1.716,0,0,1-1.714-1.715V798.549a1.716,1.716,0,0,1,1.714-1.714h23.432a1.717,1.717,0,0,1,1.715,1.714v55.228A1.717,1.717,0,0,1,1060.929,855.492ZM1037.5,797.978a.571.571,0,0,0-.571.571v55.228a.572.572,0,0,0,.571.572h23.432a.573.573,0,0,0,.572-.572V798.549a.572.572,0,0,0-.572-.571Z" fill="#5dace1"/>
      </g>
      <g id="Grupo_1192311" data-name="Grupo 1192311">
        <rect id="Rectángulo_412095" data-name="Rectángulo 412095" width="25.718" height="20.727" transform="translate(959.201 834.193)" fill="#5dace1"/>
      </g>
      <g id="Grupo_1192312" data-name="Grupo 1192312">
        <rect id="Rectángulo_412096" data-name="Rectángulo 412096" width="25.718" height="42.197" transform="translate(997.777 812.724)" fill="#5dace1"/>
      </g>
    </g>
  </g>
</svg>
