<svg xmlns="http://www.w3.org/2000/svg" xmlns:xlink="http://www.w3.org/1999/xlink" width="295" height="171" viewBox="0 0 295 171">
  <defs>
    <clipPath id="clip-path">
      <rect id="Rectángulo_411969" data-name="Rectángulo 411969" width="295" height="171" rx="7" transform="translate(1125.051 707)" fill="#ace3be"/>
    </clipPath>
  </defs>
  <g id="Grupo_1191309" data-name="Grupo 1191309" transform="translate(-1125.051 -707)">
    <g id="Enmascarar_grupo_1099237" data-name="Enmascarar grupo 1099237" clip-path="url(#clip-path)">
      <path id="Trazado_1278970" data-name="Trazado 1278970" d="M7,0H288a7,7,0,0,1,7,7V142a7,7,0,0,1-7,7H7a7,7,0,0,1-7-7V7A7,7,0,0,1,7,0Z" transform="translate(1125.051 729)" fill="#ace3be"/>
      <g id="Grupo_1191302" data-name="Grupo 1191302" transform="translate(1139.747 651.606)">
        <path id="Trazado_1278911" data-name="Trazado 1278911" d="M202.762,71.83c-.216.238-.436.473-.643.719-4.339,5.155-6.5,11.742-7.888,18.374a10.912,10.912,0,0,0-2.481.112,9.469,9.469,0,0,0-7.482,6.129,9.262,9.262,0,0,0,1.959,8.69,11.252,11.252,0,0,0,5.232,3.3c0,.022,0,.044-.007.066a45.7,45.7,0,0,1-3.262,5.488c-3.289,4.842-7.031,9.855-7.3,15.7-.221,4.83,1.986,9.273,5.065,13.122-1.4.882-2.766,1.809-4.088,2.8h0a60.412,60.412,0,0,0-6.073,5.22c-12.34,12.126-19.394,29.136-20.68,46.389-.594,7.968.364,16.876,6.249,22.282,3.655,3.358,8.53,4.733,13.552,5.263q-.984,23.8-1.968,47.608s2.519.4,6.108.806q-.742,13.072-1.584,26.088a150.78,150.78,0,0,0,62.805,1.982c3.315-.6,6.612-1.326,9.884-2.155q.046-12.363-.079-24.551a55.521,55.521,0,0,0,10.349-2.428l1.513-46.071c5.2-.724,10.137-2.478,13.857-6.092a23.3,23.3,0,0,0,6.328-13.081,50.568,50.568,0,0,0-.229-14.728c-2.042-15.26-7.182-30.523-17.357-42.078a51.54,51.54,0,0,0-5.832-5.649l0,.062c-.736-.609-1.5-1.189-2.264-1.756a24.237,24.237,0,0,0-4.129-30.847,1.857,1.857,0,0,0,.291-.394,2.135,2.135,0,0,0,.138-1.572,11.081,11.081,0,0,0,4.724-2.734,9.263,9.263,0,0,0,2.572-8.529,9.47,9.47,0,0,0-7.029-6.644,11.5,11.5,0,0,0-4.894-.05,26.919,26.919,0,0,0-1.894-13.5,177.3,177.3,0,0,0-26.135-5.639C214.364,72.745,208.572,72.161,202.762,71.83Z" transform="translate(-3.275 -6.251)" fill="#2e2854" opacity="0.15" style="mix-blend-mode: multiply;isolation: isolate"/>
        <g id="Grupo_1191301" data-name="Grupo 1191301" transform="translate(146.351 55.394)">
          <g id="Grupo_1191276" data-name="Grupo 1191276" transform="translate(26.024 180.451)">
            <path id="Trazado_1278912" data-name="Trazado 1278912" d="M258.546,346.581c-23.741.543-46.469.723-69.159,1.743-.069,18.707-.532,37.211-1.042,55.691a150.708,150.708,0,0,0,64.627,2.443c2.71-.491,5.407-1.068,8.089-1.712C260.479,385.077,259.515,365.826,258.546,346.581Z" transform="translate(-188.346 -346.581)" fill="#5767bf"/>
            <path id="Trazado_1278913" data-name="Trazado 1278913" d="M254.431,378.183q.61,4.706.767,9.459a4.168,4.168,0,0,1-.288,2.054,2.869,2.869,0,0,1-2.215,1.386,25.348,25.348,0,0,0-2.947.2q-.054,13.673-.108,27.346" transform="translate(-211.655 -358.599)" fill="none" stroke="#2e2854" stroke-linecap="round" stroke-linejoin="round" stroke-width="1.5"/>
            <path id="Trazado_1278914" data-name="Trazado 1278914" d="M290.364,346.581q-8.991.205-17.8.361c-.505,18.872-.55,32.846-.55,32.846,6.4.7,14.889-.007,19.921-.573C291.454,368.287,290.91,357.433,290.364,346.581Z" transform="translate(-220.163 -346.581)" fill="#2e2854" opacity="0.15" style="mix-blend-mode: multiply;isolation: isolate"/>
            <path id="Trazado_1278915" data-name="Trazado 1278915" d="M189.732,348.887c-.042,11.291-.229,22.507-.481,33.69a157.056,157.056,0,0,0,21.7-.66s1.976-13.619,3.187-33.854C205.971,348.268,197.848,348.522,189.732,348.887Z" transform="translate(-188.69 -347.145)" fill="#2e2854" opacity="0.15" style="mix-blend-mode: multiply;isolation: isolate"/>
          </g>
          <g id="Grupo_1191287" data-name="Grupo 1191287" transform="translate(23.403)">
            <path id="Trazado_1278916" data-name="Trazado 1278916" d="M194.277,141.533c-5.288-4.547-10.231-10.54-10.16-17.513.06-5.853,3.622-11,6.737-15.951s6.007-10.764,4.57-16.438c0,0,.745-5.064.262-5.315,1.1-7.407,2.974-14.978,7.59-20.875A26.188,26.188,0,0,1,249.24,88.182s1.854,11.132,1.883,12.827a24.4,24.4,0,0,1,3.3,40.086Z" transform="translate(-184.116 -55.394)" fill="#5767bf"/>
            <g id="Grupo_1191277" data-name="Grupo 1191277" transform="translate(35.697 58.955)">
              <path id="Trazado_1278917" data-name="Trazado 1278917" d="M242.273,151.782q-.278,7.2-.555,14.407s10.456.188,10.839.312q-.156-7.987-.311-15.973Z" transform="translate(-241.718 -150.528)" fill="#e8614e"/>
              <path id="Trazado_1278918" data-name="Trazado 1278918" d="M252.6,157.564q-.069-3.518-.137-7.036l-9.972,1.254-.193,5A20.921,20.921,0,0,0,252.6,157.564Z" transform="translate(-241.94 -150.528)" fill="#d15046"/>
            </g>
            <g id="Grupo_1191282" data-name="Grupo 1191282" transform="translate(16.775 17.876)">
              <path id="Trazado_1278919" data-name="Trazado 1278919" d="M256.289,93.386c.594,5.07,1.189,10.194.622,15.266s-2.409,10.168-6.055,13.741a20.081,20.081,0,0,1-9.918,5.093A25.056,25.056,0,0,1,218,120.35a25.8,25.8,0,0,1-6.147-23.24,17.353,17.353,0,0,0,10.441-4.391c2.952-2.467,5.309-5.557,8.246-8.478a13.556,13.556,0,0,0,9.211,4.984,16.675,16.675,0,0,0,10.583-3.017C250.837,89.361,253.552,92.03,256.289,93.386Z" transform="translate(-211.185 -84.24)" fill="#e8614e"/>
              <g id="Grupo_1191278" data-name="Grupo 1191278" transform="translate(3.372 26.773)">
                <path id="Trazado_1278920" data-name="Trazado 1278920" d="M220.065,137.452a23.941,23.941,0,0,0,5.718,4.409,6.5,6.5,0,0,0,3.459-6.314,6.687,6.687,0,0,0-10.025-5.485,6.764,6.764,0,0,0-2.591,2.7A23.868,23.868,0,0,0,220.065,137.452Z" transform="translate(-216.626 -128.116)" fill="#d15046"/>
                <path id="Trazado_1278921" data-name="Trazado 1278921" d="M277.461,128.63a6.75,6.75,0,1,0-6.985,11.52,16.936,16.936,0,0,0,1.548-1.327A20.9,20.9,0,0,0,277.461,128.63Z" transform="translate(-235.725 -127.443)" fill="#d15046"/>
              </g>
              <g id="Grupo_1191281" data-name="Grupo 1191281" transform="translate(9.189 11.072)">
                <g id="Grupo_1191279" data-name="Grupo 1191279" transform="translate(0 0.442)">
                  <path id="Trazado_1278922" data-name="Trazado 1278922" d="M226.013,103.223a16.422,16.422,0,0,0,1.753,3.1,7.752,7.752,0,0,1,7.361-1.029" transform="translate(-226.013 -102.973)" fill="none" stroke="#2e2854" stroke-linecap="round" stroke-linejoin="round" stroke-width="1.5"/>
                  <path id="Trazado_1278923" data-name="Trazado 1278923" d="M230.921,105.283c-.2-.826-.408-1.642-.612-2.463" transform="translate(-227.647 -102.82)" fill="none" stroke="#2e2854" stroke-linecap="round" stroke-linejoin="round" stroke-width="1.5"/>
                  <path id="Trazado_1278924" data-name="Trazado 1278924" d="M234.552,104.71c-.055-.628-.1-1.256-.154-1.889" transform="translate(-229.202 -102.82)" fill="none" stroke="#2e2854" stroke-linecap="round" stroke-linejoin="round" stroke-width="1.5"/>
                </g>
                <g id="Grupo_1191280" data-name="Grupo 1191280" transform="translate(24.929)">
                  <path id="Trazado_1278925" data-name="Trazado 1278925" d="M275.354,102.508a16.458,16.458,0,0,1-1.754,3.1,7.75,7.75,0,0,0-7.36-1.029" transform="translate(-266.24 -102.259)" fill="none" stroke="#2e2854" stroke-linecap="round" stroke-linejoin="round" stroke-width="1.5"/>
                  <path id="Trazado_1278926" data-name="Trazado 1278926" d="M275.664,104.569c.2-.827.407-1.642.611-2.463" transform="translate(-269.824 -102.106)" fill="none" stroke="#2e2854" stroke-linecap="round" stroke-linejoin="round" stroke-width="1.5"/>
                  <path id="Trazado_1278927" data-name="Trazado 1278927" d="M272.312,104c.055-.628.1-1.256.154-1.889" transform="translate(-268.549 -102.106)" fill="none" stroke="#2e2854" stroke-linecap="round" stroke-linejoin="round" stroke-width="1.5"/>
                </g>
                <path id="Trazado_1278928" data-name="Trazado 1278928" d="M256.446,104.337a11.285,11.285,0,0,1,2.666,3.244l-2.6,1.034" transform="translate(-237.586 -102.954)" fill="none" stroke="#2e2854" stroke-linecap="round" stroke-linejoin="round" stroke-width="1.5"/>
                <path id="Trazado_1278929" data-name="Trazado 1278929" d="M235.819,120.643a16.1,16.1,0,0,0,15.855.113" transform="translate(-229.742 -109.155)" fill="none" stroke="#2e2854" stroke-linecap="round" stroke-linejoin="round" stroke-width="1.5"/>
              </g>
            </g>
            <g id="Grupo_1191284" data-name="Grupo 1191284" transform="translate(1.895 28.682)">
              <path id="Trazado_1278930" data-name="Trazado 1278930" d="M204.376,104.142a12.8,12.8,0,0,0-9.643-2.258,9.467,9.467,0,0,0-7.26,6.39,9.261,9.261,0,0,0,2.266,8.615,11.846,11.846,0,0,0,8.339,3.558c2.76.068,5.7-.835,7.385-3.023Z" transform="translate(-187.174 -101.677)" fill="#e8614e"/>
              <g id="Grupo_1191283" data-name="Grupo 1191283" transform="translate(5.187 6.012)">
                <path id="Trazado_1278931" data-name="Trazado 1278931" d="M195.544,114.753a6.542,6.542,0,0,1,6.063-3.361" transform="translate(-195.544 -111.379)" fill="none" stroke="#2e2854" stroke-linecap="round" stroke-linejoin="round" stroke-width="1.5"/>
                <path id="Trazado_1278932" data-name="Trazado 1278932" d="M199.986,112.529a9.878,9.878,0,0,0,2.556,4.352" transform="translate(-197.233 -111.816)" fill="none" stroke="#2e2854" stroke-linecap="round" stroke-linejoin="round" stroke-width="1.5"/>
              </g>
              <path id="Trazado_1278933" data-name="Trazado 1278933" d="M202.706,128.355a2.084,2.084,0,1,0,1.154,2.866A2.112,2.112,0,0,0,202.706,128.355Z" transform="translate(-192.02 -111.778)" fill="#fff"/>
            </g>
            <g id="Grupo_1191286" data-name="Grupo 1191286" transform="translate(60.007 28.196)">
              <path id="Trazado_1278934" data-name="Trazado 1278934" d="M282.035,103.357a12.8,12.8,0,0,1,9.643-2.258,9.47,9.47,0,0,1,7.26,6.39,9.26,9.26,0,0,1-2.267,8.615,11.844,11.844,0,0,1-8.338,3.558c-2.761.068-5.7-.835-7.386-3.024Z" transform="translate(-280.947 -100.892)" fill="#e8614e"/>
              <g id="Grupo_1191285" data-name="Grupo 1191285" transform="translate(7.04 6.012)">
                <path id="Trazado_1278935" data-name="Trazado 1278935" d="M298.37,113.968a6.543,6.543,0,0,0-6.063-3.361" transform="translate(-292.307 -110.594)" fill="none" stroke="#2e2854" stroke-linecap="round" stroke-linejoin="round" stroke-width="1.5"/>
                <path id="Trazado_1278936" data-name="Trazado 1278936" d="M296.08,111.744a9.88,9.88,0,0,1-2.556,4.352" transform="translate(-292.77 -111.031)" fill="none" stroke="#2e2854" stroke-linecap="round" stroke-linejoin="round" stroke-width="1.5"/>
              </g>
              <path id="Trazado_1278937" data-name="Trazado 1278937" d="M295.153,127.964a2.084,2.084,0,1,0,1.154,2.867A2.113,2.113,0,0,0,295.153,127.964Z" transform="translate(-285.289 -111.144)" fill="#fff"/>
            </g>
          </g>
          <g id="Grupo_1191300" data-name="Grupo 1191300" transform="translate(0 70.584)">
            <g id="Grupo_1191290" data-name="Grupo 1191290" transform="translate(41.262 0)">
              <g id="Grupo_1191288" data-name="Grupo 1191288">
                <path id="Trazado_1278938" data-name="Trazado 1278938" d="M257.468,171.365a43.575,43.575,0,0,0-6.451-1.422l-13.947,10.718-14.189-9.506a57.016,57.016,0,0,0-5.979,1.476l-3.969,105.826,45.763,1.862Z" transform="translate(-212.934 -169.54)" fill="#fff"/>
                <path id="Trazado_1278939" data-name="Trazado 1278939" d="M241.755,187.713c10.695.465,14.985-12.667,16.235-17.712a38.69,38.69,0,0,0-15.161.084l-.358.015a53.223,53.223,0,0,0-16.1,1.141C228.148,177.246,232.5,187.311,241.755,187.713Z" transform="translate(-218.044 -169.293)" fill="#e8614e"/>
                <path id="Trazado_1278940" data-name="Trazado 1278940" d="M227.026,180.494a19.123,19.123,0,0,0,7.468,7.309,16.058,16.058,0,0,0,16.93-2,18.228,18.228,0,0,0,6.4-15.356q-1.426-.3-2.866-.5c-.612,4.28-1.537,8.69-4.341,11.947a12.527,12.527,0,0,1-17.932,1.089c-2.744-2.5-4.243-6.092-5.158-9.69a10.206,10.206,0,0,0-.7-2.135c-1.182.227-2.359.48-3.525.782A41.515,41.515,0,0,0,227.026,180.494Z" transform="translate(-216.875 -169.54)" fill="#f5c4d8"/>
                <path id="Trazado_1278941" data-name="Trazado 1278941" d="M258.7,290.216l-1.029-91.248c-3,11.423-4.889,32.211-6.084,53.522l-27.548,2.334c-.223-18.891-1.666-39.49-5.491-58.855l-2.186,1.054-3.425,91.331,10.3.419c.28-4.909.513-10.184.661-15.735a89.066,89.066,0,0,0,13.176-3.972,127.751,127.751,0,0,0,13.579,3.439c-.232,6.055-.415,11.912-.56,17.361Z" transform="translate(-212.934 -179.438)" fill="#2e2854" opacity="0.15" style="mix-blend-mode: multiply;isolation: isolate"/>
              </g>
              <g id="Grupo_1191289" data-name="Grupo 1191289" transform="translate(1.181 104.188)">
                <path id="Trazado_1278942" data-name="Trazado 1278942" d="M215.23,342.5q21.133-.187,42.262.447s.5,6.225.332,6.443l-42.984-.119A56.575,56.575,0,0,0,215.23,342.5Z" transform="translate(-214.84 -339.335)" fill="#2e2854"/>
                <path id="Trazado_1278943" data-name="Trazado 1278943" d="M250.577,338.361a10.479,10.479,0,0,0-7.457-.434,6.968,6.968,0,0,0-4.187,4.647,6.563,6.563,0,0,0,1.511,6.038,7.924,7.924,0,0,0,3.657,2.1,8.913,8.913,0,0,0,6.678-.624,6.681,6.681,0,0,0,3.5-5.558C254.31,342.049,252.986,339.3,250.577,338.361Zm-.015,8.911a5.727,5.727,0,0,1-3.082.928,7.327,7.327,0,0,1-3.847-.667,3.959,3.959,0,0,1-1.807-5.2c.943-1.8,3.739-2.528,5.927-2.148,2.953.514,4.065,2.279,4.146,4.161A3.459,3.459,0,0,1,250.561,347.273Z" transform="translate(-223.926 -337.418)" fill="#f7a145"/>
              </g>
            </g>
            <g id="Grupo_1191291" data-name="Grupo 1191291" transform="translate(80.316 1.824)">
              <path id="Trazado_1278944" data-name="Trazado 1278944" d="M297.339,180.472a49.854,49.854,0,0,0-15.9-8.235c-2.048,46.23-4.091,92.462-5.479,139.015a59.818,59.818,0,0,0,27.638-3.286q-.114-42.48-.229-84.96Z" transform="translate(-275.955 -172.237)" fill="#d24d84"/>
              <path id="Trazado_1278945" data-name="Trazado 1278945" d="M278.533,311.191c4.961,1.588,15.495,4.207,25.929,2.075l-.049-18.259c-6.289-.019-15.309-.042-25.249-.051Q278.84,303.069,278.533,311.191Z" transform="translate(-276.935 -218.906)" fill="#2e2854" opacity="0.15" style="mix-blend-mode: multiply;isolation: isolate"/>
            </g>
            <g id="Grupo_1191292" data-name="Grupo 1191292" transform="translate(20.535 3.091)">
              <path id="Trazado_1278946" data-name="Trazado 1278946" d="M204.183,174.281A60.891,60.891,0,0,0,183.9,185.11l-3.9,39.3q-.254,43.851-.506,87.7s16.945,2.063,25.6.379A536.368,536.368,0,0,0,204.183,174.281Z" transform="translate(-179.488 -174.281)" fill="#d24d84"/>
              <path id="Trazado_1278947" data-name="Trazado 1278947" d="M179.9,313.882c6.119.108,18.819-.031,29.069-2.547q.278-8.171.3-16.335c-12.7.043-23.746.136-29.263.31Q179.952,304.6,179.9,313.882Z" transform="translate(-179.644 -220.19)" fill="#2e2854" opacity="0.15" style="mix-blend-mode: multiply;isolation: isolate"/>
            </g>
            <g id="Grupo_1191299" data-name="Grupo 1191299" transform="translate(0 9.996)">
              <g id="Grupo_1191293" data-name="Grupo 1191293" transform="translate(59.099)">
                <path id="Trazado_1278948" data-name="Trazado 1278948" d="M241.718,259.38a102.123,102.123,0,0,0,38.981,8.207c8.4.089,17.568-1.218,23.382-7.283a23.3,23.3,0,0,0,5.86-13.3,50.578,50.578,0,0,0-.752-14.71c-2.583-15.178-8.262-30.249-18.841-41.436a51.509,51.509,0,0,0-6.029-5.437l-.529,23.026c3.115,8.209,3.7,17.129,4.19,25.9a22.931,22.931,0,0,1-.447,7.458l-44.962,9.478Z" transform="translate(-241.718 -185.424)" fill="#d24d84"/>
                <path id="Trazado_1278949" data-name="Trazado 1278949" d="M309.608,222.682c3.115,8.21,3.7,17.129,4.19,25.9a22.926,22.926,0,0,1-.447,7.457" transform="translate(-267.536 -199.593)" fill="none" stroke="#2e2854" stroke-linecap="round" stroke-linejoin="round" stroke-width="1.5"/>
                <path id="Trazado_1278950" data-name="Trazado 1278950" d="M341.526,285.1a15.375,15.375,0,0,0-12.857,5.566,16.96,16.96,0,0,0-3.6,13.451,22.382,22.382,0,0,0,10.627-5.923A23.214,23.214,0,0,0,341.526,285.1Z" transform="translate(-273.331 -223.312)" fill="#d66b97"/>
                <path id="Trazado_1278951" data-name="Trazado 1278951" d="M246.757,298.252a102.161,102.161,0,0,0,35.858,6.939c8.4.089,17.568-1.218,23.382-7.283a21.217,21.217,0,0,0,4.79-8.363c-3.617,3.257-11.188,8.057-24.552,8.3-20.315.372-25.708-2.734-25.708-2.734v-1.551s10.09-5.722,12.308-8.776l-6.617-.481-18.125,3.821Z" transform="translate(-243.634 -223.028)" fill="#2e2854" opacity="0.15" style="mix-blend-mode: multiply;isolation: isolate"/>
                <path id="Trazado_1278952" data-name="Trazado 1278952" d="M241.718,300.809a102.124,102.124,0,0,0,38.981,8.208c8.4.089,17.568-1.218,23.382-7.284A20.857,20.857,0,0,0,308.6,294.2" transform="translate(-241.718 -226.79)" fill="none" stroke="#2e2854" stroke-linecap="round" stroke-linejoin="round" stroke-width="1.5"/>
              </g>
              <path id="Trazado_1278953" data-name="Trazado 1278953" d="M246.817,267.836c-4.449.076-8.746-1.538-12.814-3.343s-8.095-3.844-12.461-4.707a23.655,23.655,0,0,0-3.165-.405l-3.991,14.179Z" transform="translate(-172.224 -213.549)" fill="#e8614e"/>
              <g id="Grupo_1191296" data-name="Grupo 1191296" transform="translate(0 3.923)">
                <g id="Grupo_1191294" data-name="Grupo 1191294" transform="translate(70.522 47.605)">
                  <path id="Trazado_1278954" data-name="Trazado 1278954" d="M260.15,285.536a54.456,54.456,0,0,0,17.779-6.733c3.157.788,5.779,1.373,8.385,1.125a9.63,9.63,0,0,0,6.786-3.489,8.845,8.845,0,0,0,1.443-2.952h0c-4.749-3.423-10.875-4.813-16.791-4.908-5.595-.09-11.134.845-16.673,1.7Z" transform="translate(-260.15 -268.573)" fill="#e8614e"/>
                  <path id="Trazado_1278955" data-name="Trazado 1278955" d="M260.15,288.552a54.457,54.457,0,0,0,17.779-6.733c3.157.788,5.779,1.373,8.385,1.125a9.63,9.63,0,0,0,6.786-3.489,8.845,8.845,0,0,0,1.443-2.952h0" transform="translate(-260.15 -271.589)" fill="none" stroke="#2e2854" stroke-linecap="round" stroke-linejoin="round" stroke-width="1.5"/>
                </g>
                <g id="Grupo_1191295" data-name="Grupo 1191295">
                  <path id="Trazado_1278956" data-name="Trazado 1278956" d="M178.388,214.394a77.135,77.135,0,0,0-5.4,21.883,10.112,10.112,0,0,0,.542,5.413,7.419,7.419,0,0,0,5.91,3.682,25.385,25.385,0,0,0,7.212-.607c9.016-1.529,18.191-1.88,27.251-3.123,1.3-.178,2.6-.374,3.894-.575a162.789,162.789,0,0,1,1.806,21.568,165.175,165.175,0,0,1-46.209,8.552c-7.012.223-14.637-.3-19.969-4.861-6.072-5.193-7.347-14.062-7.036-22.045.672-17.288,7.117-34.538,19.019-47.094a60.419,60.419,0,0,1,5.884-5.432Z" transform="translate(-146.351 -191.755)" fill="#d24d84"/>
                  <path id="Trazado_1278957" data-name="Trazado 1278957" d="M159.049,292.03a15.265,15.265,0,0,0-12.493-6.452c.456,6.267,2.283,12.435,6.952,16.428a18.551,18.551,0,0,0,6.844,3.61A14.888,14.888,0,0,0,159.049,292.03Z" transform="translate(-146.429 -227.435)" fill="#d66b97"/>
                  <path id="Trazado_1278958" data-name="Trazado 1278958" d="M175.994,297.468c-18.661-.279-26.725-15.788-29.516-23.2-.027.464-.065.926-.083,1.389-.311,7.984.964,16.852,7.036,22.045,5.332,4.56,12.957,5.084,19.969,4.861a165.175,165.175,0,0,0,46.209-8.552c-.023-1.361-.069-2.722-.126-4.082C211.979,292.524,194.481,297.745,175.994,297.468Z" transform="translate(-146.351 -223.136)" fill="#2e2854" opacity="0.15" style="mix-blend-mode: multiply;isolation: isolate"/>
                  <path id="Trazado_1278959" data-name="Trazado 1278959" d="M182.732,228.287a77.135,77.135,0,0,0-5.4,21.883,10.112,10.112,0,0,0,.542,5.413,7.419,7.419,0,0,0,5.91,3.682,25.384,25.384,0,0,0,7.212-.607c9.016-1.529,18.191-1.88,27.251-3.123,1.3-.178,2.6-.374,3.894-.575a162.789,162.789,0,0,1,1.806,21.568,165.175,165.175,0,0,1-46.209,8.552c-7.012.223-14.637-.3-19.969-4.861" transform="translate(-150.696 -205.648)" fill="none" stroke="#2e2854" stroke-linecap="round" stroke-linejoin="round" stroke-width="1.5"/>
                </g>
              </g>
              <g id="Grupo_1191298" data-name="Grupo 1191298" transform="translate(25.662 45.787)">
                <path id="Trazado_1278960" data-name="Trazado 1278960" d="M208.251,259.353a24.533,24.533,0,0,0-13.919,3.345c-2.1,1.252-4.771,2.887-6.224,5.478a2.233,2.233,0,0,0-.346,1.03.915.915,0,0,0,.528.882,1.4,1.4,0,0,0,1.135-.273l2.268-1.324a15.22,15.22,0,0,0-1.651,2.258,2.521,2.521,0,0,0-.4,1.008.96.96,0,0,0,.423.943c.519.284,1.126-.14,1.58-.52a18.805,18.805,0,0,1,1.935-1.416,16.369,16.369,0,0,0-1.489,2.032c-.274.441-.518,1.044-.184,1.442a.882.882,0,0,0,.884.227,2.591,2.591,0,0,0,.843-.45c1.386-.979,2.772-1.957,4.2-2.879l-.006,0a9.633,9.633,0,0,0-1.008,1.857,1.062,1.062,0,0,0-.029,1.017c.3.4.918.228,1.356,0a13.441,13.441,0,0,0,3.31-2.434,9.779,9.779,0,0,0,7.443-4.583Z" transform="translate(-187.762 -259.309)" fill="#e8614e"/>
                <g id="Grupo_1191297" data-name="Grupo 1191297" transform="translate(0 3.389)">
                  <path id="Trazado_1278961" data-name="Trazado 1278961" d="M203.995,277.06a9.669,9.669,0,0,1,2.054-2.16" transform="translate(-193.935 -268.627)" fill="none" stroke="#2e2854" stroke-linecap="round" stroke-linejoin="round" stroke-width="1.5"/>
                  <path id="Trazado_1278962" data-name="Trazado 1278962" d="M201.311,272.167a16.512,16.512,0,0,0-4.166,3.486" transform="translate(-191.33 -267.588)" fill="none" stroke="#2e2854" stroke-linecap="round" stroke-linejoin="round" stroke-width="1.5"/>
                  <path id="Trazado_1278963" data-name="Trazado 1278963" d="M198,269.013a15.288,15.288,0,0,0-3.895,3.168" transform="translate(-190.174 -266.389)" fill="none" stroke="#2e2854" stroke-linecap="round" stroke-linejoin="round" stroke-width="1.5"/>
                  <path id="Trazado_1278964" data-name="Trazado 1278964" d="M194.332,264.778c-2.1,1.252-4.771,2.887-6.224,5.478a2.233,2.233,0,0,0-.346,1.03.915.915,0,0,0,.528.882,1.4,1.4,0,0,0,1.135-.273l2.268-1.324a15.221,15.221,0,0,0-1.651,2.258,2.521,2.521,0,0,0-.4,1.008.96.96,0,0,0,.423.943c.519.284,1.126-.14,1.58-.52a18.819,18.819,0,0,1,1.935-1.416,16.378,16.378,0,0,0-1.489,2.032c-.274.441-.518,1.044-.184,1.442a.882.882,0,0,0,.884.227,2.59,2.59,0,0,0,.843-.45c1.386-.979,2.772-1.957,4.2-2.879l-.006,0a9.631,9.631,0,0,0-1.008,1.857,1.062,1.062,0,0,0-.029,1.017c.3.4.918.228,1.356,0a13.442,13.442,0,0,0,3.31-2.434,9.779,9.779,0,0,0,7.443-4.583" transform="translate(-187.762 -264.778)" fill="none" stroke="#2e2854" stroke-linecap="round" stroke-linejoin="round" stroke-width="1.5"/>
                </g>
              </g>
            </g>
          </g>
        </g>
      </g>
      <g id="Grupo_1191305" data-name="Grupo 1191305" transform="translate(1106.848 646.646)">
        <g id="Grupo_1191303" data-name="Grupo 1191303">
          <path id="Trazado_1278965" data-name="Trazado 1278965" d="M165.656,133.1a521.824,521.824,0,0,0-2.177-55.111,12.3,12.3,0,0,0-11.774-11.133,718.636,718.636,0,0,0-92.48,2.884A12.364,12.364,0,0,0,48.018,81.474c-.873,17.691-.976,35.993-.477,55.42a12.364,12.364,0,0,0,12.08,12.039,722.552,722.552,0,0,0,94.969-3.788A12.329,12.329,0,0,0,165.656,133.1Z" fill="#2e2854" opacity="0.15" style="mix-blend-mode: multiply;isolation: isolate"/>
          <path id="Trazado_1278966" data-name="Trazado 1278966" d="M157.441,127.035a522.081,522.081,0,0,0-2.177-55.11,12.3,12.3,0,0,0-11.775-11.134A718.621,718.621,0,0,0,51.01,63.675,12.366,12.366,0,0,0,39.8,75.411c-.873,17.691-.976,35.992-.477,55.419A12.364,12.364,0,0,0,51.4,142.87a722.567,722.567,0,0,0,94.97-3.788A12.331,12.331,0,0,0,157.441,127.035Z" fill="#fff"/>
          <path id="Trazado_1278967" data-name="Trazado 1278967" d="M157.441,127.035a522.081,522.081,0,0,0-2.177-55.11,12.3,12.3,0,0,0-11.775-11.134A718.621,718.621,0,0,0,51.01,63.675,12.366,12.366,0,0,0,39.8,75.411c-.873,17.691-.976,35.992-.477,55.419A12.364,12.364,0,0,0,51.4,142.87a722.567,722.567,0,0,0,94.97-3.788A12.331,12.331,0,0,0,157.441,127.035Z" fill="none" stroke="#2e2854" stroke-linecap="round" stroke-linejoin="round" stroke-width="1.5"/>
        </g>
        <g id="Grupo_1191304" data-name="Grupo 1191304">
          <path id="Trazado_1278968" data-name="Trazado 1278968" d="M91.034,93.741q-9.258,6.654-19,12.585c.547-7.922.912-15.416.884-23.153a20.737,20.737,0,0,0-9.663,2.11A21.156,21.156,0,0,0,69,125.038a21.113,21.113,0,0,0,22.031-31.3Z" fill="#d24d84"/>
          <path id="Trazado_1278969" data-name="Trazado 1278969" d="M76.154,78.016c.028,7.737-.336,15.23-.884,23.153q9.749-5.912,19.005-12.585a20.306,20.306,0,0,0-3.333-4.453A21.556,21.556,0,0,0,76.154,78.016Z" fill="#2e2854"/>
        </g>
        <rect id="Rectángulo_411967" data-name="Rectángulo 411967" width="37.516" height="5.249" transform="translate(106.473 79.235)" fill="#5767bf"/>
        <rect id="Rectángulo_411968" data-name="Rectángulo 411968" width="17.538" height="5.249" transform="translate(106.473 89.429)" fill="#5767bf"/>
        <line id="Línea_596" data-name="Línea 596" x2="25.982" transform="translate(106.473 113.594)" fill="none" stroke="#2e2854" stroke-linecap="round" stroke-linejoin="round" stroke-width="1.5"/>
        <line id="Línea_597" data-name="Línea 597" x2="37.516" transform="translate(106.473 106.669)" fill="none" stroke="#2e2854" stroke-linecap="round" stroke-linejoin="round" stroke-width="1.5"/>
        <line id="Línea_598" data-name="Línea 598" x2="33.758" transform="translate(106.473 120.519)" fill="none" stroke="#2e2854" stroke-linecap="round" stroke-linejoin="round" stroke-width="1.5"/>
      </g>
    </g>
    <g id="Grupo_1191308" data-name="Grupo 1191308" transform="translate(1220 761.867)">
      <g id="Grupo_1191306" data-name="Grupo 1191306" transform="translate(0 0)">
        <path id="Trazado_1278971" data-name="Trazado 1278971" d="M339.707,76.311a9.557,9.557,0,0,1,8.852-8.889,358.779,358.779,0,0,1,59.012-.514A9.6,9.6,0,0,1,416.7,75.55q.624,8.565.988,17.2A29.313,29.313,0,0,1,426.1,99l-8.17.244c.543,17.306.317,34.875-.69,52.882a9.544,9.544,0,0,1-8.649,8.747,262.41,262.41,0,0,1-60.22.251,9.528,9.528,0,0,1-8.616-8.854Q338.049,114.316,339.707,76.311Z" transform="translate(-338.89 -62.612)" fill="#2e2854" opacity="0.15" style="mix-blend-mode: multiply;isolation: isolate"/>
        <path id="Trazado_1278972" data-name="Trazado 1278972" d="M333.947,71.2A9.558,9.558,0,0,1,342.8,62.31,358.851,358.851,0,0,1,401.81,61.8a9.6,9.6,0,0,1,9.128,8.641q.624,8.566.988,17.2a29.327,29.327,0,0,1,8.413,6.254l-8.17.244c.543,17.306.318,34.875-.69,52.881a9.543,9.543,0,0,1-8.649,8.747,262.376,262.376,0,0,1-60.22.251,9.528,9.528,0,0,1-8.616-8.853Q332.289,109.2,333.947,71.2Z" transform="translate(-329.378 -60.829)" fill="#fff"/>
        <path id="Trazado_1278973" data-name="Trazado 1278973" d="M333.947,71.2A9.558,9.558,0,0,1,342.8,62.31,358.851,358.851,0,0,1,401.81,61.8a9.6,9.6,0,0,1,9.128,8.641q.624,8.566.988,17.2a29.327,29.327,0,0,1,8.413,6.254l-8.17.244c.543,17.306.318,34.875-.69,52.881a9.543,9.543,0,0,1-8.649,8.747,262.376,262.376,0,0,1-60.22.251,9.528,9.528,0,0,1-8.616-8.853Q332.289,109.2,333.947,71.2Z" transform="translate(-329.378 -60.829)" fill="none" stroke="#2e2854" stroke-linecap="round" stroke-linejoin="round" stroke-width="1.5"/>
      </g>
      <g id="Grupo_1191307" data-name="Grupo 1191307" transform="translate(16.324 13.336)">
        <path id="Trazado_1278974" data-name="Trazado 1278974" d="M416.172,99.1l10.275-17.8,10.275,17.8h-6.458v52.3H422.63V99.1Z" transform="translate(-416.172 -81.304)" fill="#76c9bf"/>
        <rect id="Rectángulo_411970" data-name="Rectángulo 411970" width="7.633" height="42.803" transform="translate(23.465 27.293)" fill="#2e2854"/>
        <rect id="Rectángulo_411971" data-name="Rectángulo 411971" width="7.633" height="25.054" transform="translate(40.471 45.043)" fill="#2e2854"/>
      </g>
    </g>
  </g>
</svg>
