<svg xmlns="http://www.w3.org/2000/svg" width="62" height="62" viewBox="0 0 62 62">
  <g id="Grupo_1191331" data-name="Grupo 1191331" transform="translate(-854.051 -7367)">
    <circle id="Elipse_12309" data-name="Elipse 12309" cx="31" cy="31" r="31" transform="translate(854.051 7367)" fill="#fae700"/>
    <g id="computer-data-online-marketing-seo" transform="translate(863.051 7376)">
      <path id="Trazado_1279151" data-name="Trazado 1279151" d="M42.145,43v2.7a1.354,1.354,0,0,1-1.35,1.35H4.35A1.354,1.354,0,0,1,3,45.7V43Z" transform="translate(-0.325 -13.328)" fill="#57a4ff"/>
      <path id="Trazado_1279152" data-name="Trazado 1279152" d="M29.907,13.723a5.576,5.576,0,0,0,.04-.675,6.1,6.1,0,1,0-.04.675ZM40.746,28.571v-10.8h-2.7v10.8Zm0-17.548V6.973h-8.1v4.05Zm-5.4,17.548V19.122h-2.7v9.449Zm-5.4,0v-8.1h-2.7v8.1Zm-13.5-5.4v-4.05H7v4.05ZM15.1,16.422V6.973H7v9.449Z" transform="translate(-1.625 -1.599)" fill="#46f8ff"/>
      <path id="Trazado_1279153" data-name="Trazado 1279153" d="M42.145,4.35V30H3V4.35A1.354,1.354,0,0,1,4.35,3H40.8a1.354,1.354,0,0,1,1.35,1.35Z" transform="translate(-0.325 -0.325)" fill="#46f8ff"/>
      <path id="Trazado_1279154" data-name="Trazado 1279154" d="M42.145,4.35V30H3V27.3H39.446V3H40.8a1.354,1.354,0,0,1,1.35,1.35Z" transform="translate(-0.325 -0.325)" fill="#00d7df"/>
      <path id="Trazado_1279155" data-name="Trazado 1279155" d="M53,23h2.7V33.8H53Z" transform="translate(-16.579 -6.827)" fill="#009698"/>
      <g id="Grupo_1191330" data-name="Grupo 1191330" transform="translate(14.149 5.375)">
        <path id="Trazado_1279156" data-name="Trazado 1279156" d="M45,7h8.1v4.05H45Z" transform="translate(-28.127 -7)" fill="#57a4ff"/>
        <path id="Trazado_1279157" data-name="Trazado 1279157" d="M45,25h2.7v9.449H45Z" transform="translate(-28.127 -12.851)" fill="#57a4ff"/>
        <path id="Trazado_1279158" data-name="Trazado 1279158" d="M36.2,59.7H20L22.025,57H34.173Z" transform="translate(-20 -23.254)" fill="#57a4ff"/>
      </g>
      <path id="Trazado_1279159" data-name="Trazado 1279159" d="M59.05,43v2.7a1.354,1.354,0,0,1-1.35,1.35H55a1.354,1.354,0,0,0,1.35-1.35V43Z" transform="translate(-17.229 -13.328)" fill="#006df0"/>
      <path id="Trazado_1279160" data-name="Trazado 1279160" d="M41.724,59.7h-2.7L37,57h2.7Z" transform="translate(-11.378 -17.879)" fill="#006df0"/>
      <path id="Trazado_1279161" data-name="Trazado 1279161" d="M37,27h2.7v8.1H37Z" transform="translate(-11.378 -8.127)" fill="#ffde55"/>
      <path id="Trazado_1279162" data-name="Trazado 1279162" d="M38.074,13.074a5.577,5.577,0,0,1-.04.675H32V7a6.074,6.074,0,0,1,6.074,6.074Z" transform="translate(-9.752 -1.625)" fill="#ffde55"/>
      <path id="Trazado_1279163" data-name="Trazado 1279163" d="M29.073,13.749h6.034A6.074,6.074,0,1,1,29.073,7Z" transform="translate(-6.825 -1.625)" fill="#ff7956"/>
      <path id="Trazado_1279164" data-name="Trazado 1279164" d="M33.774,49l.675,5.4H25l.675-5.4Z" transform="translate(-7.477 -15.279)" fill="#c6c5ca"/>
      <path id="Trazado_1279165" data-name="Trazado 1279165" d="M34.235,51.025H25.63L25.88,49h8.1Z" transform="translate(-7.682 -15.279)" fill="#898890"/>
      <path id="Trazado_1279166" data-name="Trazado 1279166" d="M34.235,51.025H25.63L25.88,49h8.1Z" transform="translate(-7.682 -15.279)" fill="#898890"/>
      <path id="Trazado_1279167" data-name="Trazado 1279167" d="M7,25h9.449v4.05H7Z" transform="translate(-1.625 -7.477)" fill="#ff7956"/>
      <path id="Trazado_1279168" data-name="Trazado 1279168" d="M7,7h8.1v9.449H7Z" transform="translate(-1.625 -1.625)" fill="#009698"/>
      <path id="Trazado_1279169" data-name="Trazado 1279169" d="M28.749,19.5A6.749,6.749,0,1,0,22,12.749,6.749,6.749,0,0,0,28.749,19.5Zm5.4-6.749H29.424V7.4a5.4,5.4,0,0,1,4.724,5.353ZM28.074,7.4v6.028a.675.675,0,0,0,.675.675h5.222a5.4,5.4,0,1,1-5.9-6.7Z" transform="translate(-6.502 -1.3)"/>
      <path id="Trazado_1279170" data-name="Trazado 1279170" d="M6,34H9.375v1.35H6Z" transform="translate(-1.3 -10.403)"/>
      <path id="Trazado_1279171" data-name="Trazado 1279171" d="M13,34H27.173v1.35H13Z" transform="translate(-3.576 -10.403)"/>
      <path id="Trazado_1279172" data-name="Trazado 1279172" d="M6,38H16.8v1.35H6Z" transform="translate(-1.3 -11.703)"/>
      <path id="Trazado_1279173" data-name="Trazado 1279173" d="M24,38h6.749v1.35H24Z" transform="translate(-7.152 -11.703)"/>
      <path id="Trazado_1279174" data-name="Trazado 1279174" d="M44.675,11.4h8.1a.675.675,0,0,0,.675-.675V6.675A.675.675,0,0,0,52.774,6h-8.1A.675.675,0,0,0,44,6.675v4.05A.675.675,0,0,0,44.675,11.4Zm.675-4.05H52.1v2.7H45.35Z" transform="translate(-13.653 -1.3)"/>
      <path id="Trazado_1279175" data-name="Trazado 1279175" d="M6.675,16.8h8.1a.675.675,0,0,0,.675-.675V6.675A.675.675,0,0,0,14.774,6h-8.1A.675.675,0,0,0,6,6.675v9.449A.675.675,0,0,0,6.675,16.8ZM7.35,7.35H14.1v8.1H7.35Z" transform="translate(-1.3 -1.3)"/>
      <path id="Trazado_1279176" data-name="Trazado 1279176" d="M39.375,26h-2.7a.675.675,0,0,0-.675.675v8.1a.675.675,0,0,0,.675.675h2.7a.675.675,0,0,0,.675-.675v-8.1A.675.675,0,0,0,39.375,26ZM38.7,34.1H37.35V27.35H38.7Z" transform="translate(-11.053 -7.802)"/>
      <path id="Trazado_1279177" data-name="Trazado 1279177" d="M44.675,34.8h2.7a.675.675,0,0,0,.675-.675V24.675A.675.675,0,0,0,47.375,24h-2.7a.675.675,0,0,0-.675.675v9.449A.675.675,0,0,0,44.675,34.8Zm.675-9.449H46.7v8.1H45.35Z" transform="translate(-13.653 -7.152)"/>
      <path id="Trazado_1279178" data-name="Trazado 1279178" d="M55.375,22h-2.7a.675.675,0,0,0-.675.675v10.8a.675.675,0,0,0,.675.675h2.7a.675.675,0,0,0,.675-.675v-10.8A.675.675,0,0,0,55.375,22ZM54.7,32.8H53.35V23.35H54.7Z" transform="translate(-16.254 -6.502)"/>
      <path id="Trazado_1279179" data-name="Trazado 1279179" d="M6.675,29.4h9.449a.675.675,0,0,0,.675-.675v-4.05A.675.675,0,0,0,16.124,24H6.675A.675.675,0,0,0,6,24.675v4.05A.675.675,0,0,0,6.675,29.4Zm.675-4.05h8.1v2.7H7.35Z" transform="translate(-1.3 -7.152)"/>
      <path id="Trazado_1279180" data-name="Trazado 1279180" d="M40.47,2H4.025A2.031,2.031,0,0,0,2,4.025V32.371A2.031,2.031,0,0,0,4.025,34.4H17.435l-.506,4.05h-.756a.684.684,0,0,0-.54.27l-2.025,2.7a.675.675,0,0,0,.54,1.08h16.2a.675.675,0,0,0,.54-1.08l-2.025-2.7a.684.684,0,0,0-.54-.27h-.756L27.06,34.4H40.47A2.031,2.031,0,0,0,42.5,32.371V4.025A2.031,2.031,0,0,0,40.47,2ZM27.984,39.8,29,41.145H15.5l1.012-1.35Zm-9.7-1.35.506-4.05H25.7l.506,4.05Zm22.859-6.074a.675.675,0,0,1-.675.675H4.025a.675.675,0,0,1-.675-.675V30.347h37.8Zm0-3.375H3.35V4.025a.675.675,0,0,1,.675-.675H40.47a.675.675,0,0,1,.675.675Z" transform="translate(0 0)"/>
    </g>
  </g>
</svg>
