<svg xmlns="http://www.w3.org/2000/svg" xmlns:xlink="http://www.w3.org/1999/xlink" width="106" height="106" viewBox="0 0 106 106">
  <defs>
    <filter id="Elipse_12115" x="0" y="0" width="106" height="106" filterUnits="userSpaceOnUse">
      <feOffset dy="3" input="SourceAlpha"/>
      <feGaussianBlur stdDeviation="3" result="blur"/>
      <feFlood flood-opacity="0.161"/>
      <feComposite operator="in" in2="blur"/>
      <feComposite in="SourceGraphic"/>
    </filter>
  </defs>
  <g id="Grupo_1191334" data-name="Grupo 1191334" transform="translate(9 6)">
    <g id="Grupo_1181949" data-name="Grupo 1181949">
      <g transform="matrix(1, 0, 0, 1, -9, -6)" filter="url(#Elipse_12115)">
        <g id="Elipse_12115-2" data-name="Elipse 12115" transform="translate(9 6)" fill="#f6bc1c" stroke="#ab8212" stroke-width="1.5">
          <circle cx="44" cy="44" r="44" stroke="none"/>
          <circle cx="44" cy="44" r="43.25" fill="none"/>
        </g>
      </g>
    </g>
    <g id="Grupo_1191333" data-name="Grupo 1191333" transform="translate(21 30)">
      <path id="Trazado_1279181" data-name="Trazado 1279181" d="M298.611,66.665v-1.49h-6.405v1.49h2.458V91.732h-2.458v1.49h6.405v-1.49h-2.458V66.665Z" transform="translate(-253.136 -65.175)" fill="#333e48"/>
      <g id="Grupo_1191332" data-name="Grupo 1191332" transform="translate(0 3.18)">
        <path id="Trazado_1279182" data-name="Trazado 1279182" d="M.276,107.761l7.5-16.929a2.925,2.925,0,0,1,2.766-1.874h.277a2.884,2.884,0,0,1,2.734,1.874l7.5,16.929a2.307,2.307,0,0,1,.246.953,2.243,2.243,0,0,1-2.243,2.274,2.409,2.409,0,0,1-2.274-1.629l-1.444-3.379H5.869l-1.506,3.533a2.324,2.324,0,0,1-2.181,1.475A2.177,2.177,0,0,1,0,108.775,2.509,2.509,0,0,1,.276,107.761Zm13.3-5.961L10.6,94.7l-2.98,7.1Z" transform="translate(0 -88.957)" fill="#1e252b"/>
        <path id="Trazado_1279183" data-name="Trazado 1279183" d="M176.011,139.713v-.062c0-3.595,2.735-5.254,6.637-5.254a11.7,11.7,0,0,1,4.025.676V134.8c0-1.936-1.2-3.011-3.533-3.011a10.707,10.707,0,0,0-3.226.461,1.976,1.976,0,0,1-.676.123,1.9,1.9,0,0,1-1.935-1.9,1.936,1.936,0,0,1,1.259-1.813,14.338,14.338,0,0,1,5.254-.86c2.55,0,4.394.676,5.561,1.843a7.178,7.178,0,0,1,1.782,5.254v7.5a2.242,2.242,0,0,1-2.274,2.243,2.091,2.091,0,0,1-2.243-1.936v-.031a6.332,6.332,0,0,1-4.977,2.089C178.561,144.752,176.011,142.97,176.011,139.713Zm10.723-1.075v-.83a7.242,7.242,0,0,0-2.98-.615c-2,0-3.226.8-3.226,2.274v.061c0,1.26,1.045,2,2.55,2C185.259,141.526,186.734,140.328,186.734,138.638Z" transform="translate(-152.477 -122.599)" fill="#1e252b"/>
      </g>
    </g>
  </g>
</svg>
