<svg xmlns="http://www.w3.org/2000/svg" xmlns:xlink="http://www.w3.org/1999/xlink" width="106" height="106" viewBox="0 0 106 106">
  <defs>
    <filter id="Elipse_12115" x="0" y="0" width="106" height="106" filterUnits="userSpaceOnUse">
      <feOffset dy="3" input="SourceAlpha"/>
      <feGaussianBlur stdDeviation="3" result="blur"/>
      <feFlood flood-opacity="0.161"/>
      <feComposite operator="in" in2="blur"/>
      <feComposite in="SourceGraphic"/>
    </filter>
  </defs>
  <g id="Grupo_1191336" data-name="Grupo 1191336" transform="translate(9 6)">
    <g id="Grupo_1181949" data-name="Grupo 1181949">
      <g transform="matrix(1, 0, 0, 1, -9, -6)" filter="url(#Elipse_12115)">
        <g id="Elipse_12115-2" data-name="Elipse 12115" transform="translate(9 6)" fill="#f6bc1c" stroke="#ab8212" stroke-width="1.5">
          <circle cx="44" cy="44" r="44" stroke="none"/>
          <circle cx="44" cy="44" r="43.25" fill="none"/>
        </g>
      </g>
    </g>
    <g id="Grupo_1191335" data-name="Grupo 1191335" transform="translate(19 19)">
      <path id="Trazado_1279184" data-name="Trazado 1279184" d="M41.265,44l-1.276,1.276,8.093,4.046-3.237-8.9L43.568,41.7,28.659,26.665H22.185L16.52,21H6v3.237h8.9L20.567,29.9h6.474Z" transform="translate(-1.954 -4.815)" fill="#ff4b50"/>
      <path id="Trazado_1279185" data-name="Trazado 1279185" d="M48.082,49.706,27.85,28.665H21.376L15.711,23H6v1.619h8.9l5.665,5.665h6.474l14.224,14.1-1.276,1.276Z" transform="translate(-1.954 -5.196)" fill="#e9353f"/>
      <path id="Trazado_1279186" data-name="Trazado 1279186" d="M5.237,47.319V2H2V50.556H50.556V47.319Z" transform="translate(-1.191 -1.191)" fill="#0056c0"/>
      <path id="Trazado_1279187" data-name="Trazado 1279187" d="M15.676,51.324l11.5-12.14,5.665,5.666L46.6,31.093l1.619,1.619L52.264,23l-9.711,4.046,1.619,1.619-11.33,11.33-5.665-5.666-16.222,17" transform="translate(-2.899 -5.196)" fill="#80ac00"/>
      <path id="Trazado_1279188" data-name="Trazado 1279188" d="M5.619,2H4V48.937H50.937V47.319H5.619Z" transform="translate(-1.572 -1.191)" fill="#0068dd"/>
      <path id="Trazado_1279189" data-name="Trazado 1279189" d="M32.841,42.422,52.264,23l-9.711,4.046,1.619,1.619-11.33,11.33-5.665-5.666-16.222,17h2.465L27.176,36.757Z" transform="translate(-2.899 -5.196)" fill="#8bc000"/>
      <circle id="Elipse_12344" data-name="Elipse 12344" cx="8" cy="8" r="8" transform="translate(33 1.175)" fill="#f9cb52"/>
      <path id="Trazado_1279190" data-name="Trazado 1279190" d="M50.474,2a8.046,8.046,0,0,0-4.85,1.626A8.081,8.081,0,0,0,56.941,14.942,8.081,8.081,0,0,0,50.474,2Z" transform="translate(-9.202 -1.191)" fill="#ffd986"/>
      <circle id="Elipse_12345" data-name="Elipse 12345" cx="6.5" cy="6.5" r="6.5" transform="translate(35 2.175)" fill="#ed8213"/>
      <path id="Trazado_1279191" data-name="Trazado 1279191" d="M49.668,5a6.445,6.445,0,0,0-4.154,1.511,6.474,6.474,0,0,0,9.117,9.117A6.474,6.474,0,0,0,49.668,5Z" transform="translate(-9.205 -1.763)" fill="#f89b1c"/>
      <path id="Trazado_1279192" data-name="Trazado 1279192" d="M52.046,15.643a3.231,3.231,0,0,0-.809-6.359,1.619,1.619,0,1,1,1.619-1.619h1.619a3.237,3.237,0,0,0-2.428-3.122V2.04c-.266-.026-.536-.04-.809-.04s-.543.015-.809.04v2.5a3.231,3.231,0,0,0,.809,6.359,1.619,1.619,0,1,1-1.619,1.619H48a3.237,3.237,0,0,0,2.428,3.122v2.5c.266.026.536.04.809.04s.543-.015.809-.04Z" transform="translate(-9.965 -1.191)" fill="#ffd986"/>
      <path id="Trazado_1279193" data-name="Trazado 1279193" d="M50.365,46.319H15.659l9.635-10.17,5.076,5.077a.833.833,0,0,0,1.144,0L35.844,36.9l3.318,3.292-.7.7a.809.809,0,0,0,.21,1.295l8.093,4.046a.809.809,0,0,0,1.122-1l-3.237-8.9a.809.809,0,0,0-1.333-.3l-.7.7L39.32,33.418l5.38-5.378,1.046,1.046a.809.809,0,0,0,1.319-.261l4.046-9.711a.809.809,0,0,0-1.059-1.059L40.342,22.1a.809.809,0,0,0-.261,1.319l1.046,1.046L35.767,29.83,28.28,22.284a.809.809,0,0,0-.575-.243H21.567l-5.428-5.428a.809.809,0,0,0-.572-.237H5.856V1.809A.809.809,0,0,0,5.046,1H1.809A.809.809,0,0,0,1,1.809V50.365a.809.809,0,0,0,.809.809H50.365a.809.809,0,0,0,.809-.809V47.128A.809.809,0,0,0,50.365,46.319Zm-8.326-7.864a.746.746,0,0,0,.575.243.809.809,0,0,0,.572-.237l.379-.379,2.107,5.8L40.4,41.241l.486-.486a.809.809,0,0,0,0-1.148l-3.9-3.855,1.191-1.192ZM42.844,23.9l-.764-.764,6.782-2.826-2.826,6.782-.764-.765a.834.834,0,0,0-1.145,0L30.943,39.509,25.85,34.416a.765.765,0,0,0-.583-.236.809.809,0,0,0-.576.252L13.429,46.319H10.947L25.292,31.291l5.079,5.08a.809.809,0,0,0,1.144,0l11.33-11.33a.809.809,0,0,0,0-1.144ZM5.856,21.232h7.758l5.427,5.428a.809.809,0,0,0,.573.237h6.141l6.5,6.445-1.313,1.313L25.85,29.56a.782.782,0,0,0-.582-.236.809.809,0,0,0-.575.25L8.71,46.319H5.856Zm9.376-3.237,5.428,5.428a.809.809,0,0,0,.572.237h6.137l7.254,7.315L33.4,32.2l-6.746-6.684a.809.809,0,0,0-.566-.235H19.948L14.52,19.85a.809.809,0,0,0-.572-.237H5.856V17.994ZM49.556,49.556H2.619V2.619H4.237V47.128a.809.809,0,0,0,.809.809H49.556Z" transform="translate(-1 -1)"/>
      <path id="Trazado_1279194" data-name="Trazado 1279194" d="M49.9,1a8.9,8.9,0,1,0,8.9,8.9A8.9,8.9,0,0,0,49.9,1ZM42.619,9.9a7.292,7.292,0,0,1,6.474-7.236V4.352a3.231,3.231,0,0,0,.809,6.359,1.619,1.619,0,1,1-1.619,1.619H46.665a3.237,3.237,0,0,0,2.428,3.122v1.686A7.292,7.292,0,0,1,42.619,9.9Zm8.093,7.236V15.452A3.231,3.231,0,0,0,49.9,9.093,1.619,1.619,0,1,1,51.52,7.474h1.619a3.237,3.237,0,0,0-2.428-3.122V2.666a7.283,7.283,0,0,1,0,14.471Z" transform="translate(-8.63 -1)"/>
    </g>
  </g>
</svg>
