<svg xmlns="http://www.w3.org/2000/svg" xmlns:xlink="http://www.w3.org/1999/xlink" width="106" height="106" viewBox="0 0 106 106">
  <defs>
    <filter id="Elipse_12115" x="0" y="0" width="106" height="106" filterUnits="userSpaceOnUse">
      <feOffset dy="3" input="SourceAlpha"/>
      <feGaussianBlur stdDeviation="3" result="blur"/>
      <feFlood flood-opacity="0.161"/>
      <feComposite operator="in" in2="blur"/>
      <feComposite in="SourceGraphic"/>
    </filter>
  </defs>
  <g id="Grupo_1191338" data-name="Grupo 1191338" transform="translate(9 6)">
    <g id="Grupo_1191337" data-name="Grupo 1191337">
      <g id="Grupo_1181949" data-name="Grupo 1181949">
        <g transform="matrix(1, 0, 0, 1, -9, -6)" filter="url(#Elipse_12115)">
          <g id="Elipse_12115-2" data-name="Elipse 12115" transform="translate(9 6)" fill="#f6bc1c" stroke="#ab8212" stroke-width="1.5">
            <circle cx="44" cy="44" r="44" stroke="none"/>
            <circle cx="44" cy="44" r="43.25" fill="none"/>
          </g>
        </g>
      </g>
      <rect id="Rect치ngulo_411986" data-name="Rect치ngulo 411986" width="35" height="52" transform="translate(19 18)" fill="#ace3be"/>
      <rect id="Rect치ngulo_411987" data-name="Rect치ngulo 411987" width="30" height="26" rx="2" transform="translate(40 44)" fill="#9fa4d5"/>
      <path id="Trazado_1279195" data-name="Trazado 1279195" d="M49.73,25.419H48.115v-.5a1.838,1.838,0,0,0-1.838-1.835H45.156a1.838,1.838,0,0,0-1.838,1.835v.5h-4.2v-.5A1.838,1.838,0,0,0,37.484,23.1V.828A.825.825,0,0,0,36.659,0H.843A.825.825,0,0,0,.018.828v51.2a.825.825,0,0,0,.825.825H49.73a3.046,3.046,0,0,0,3.137-2.938V28.354a3.044,3.044,0,0,0-3.137-2.935Zm-4.761-.5a.188.188,0,0,1,.187-.184h1.121a.188.188,0,0,1,.187.184v3.257a.188.188,0,0,1-.187.184H45.156a.188.188,0,0,1-.187-.184Zm-1.65,2.148v1.109a1.838,1.838,0,0,0,1.838,1.835h1.121a1.838,1.838,0,0,0,1.838-1.835V27.07H49.73a1.4,1.4,0,0,1,1.486,1.285v3.023H22.681V28.354a1.4,1.4,0,0,1,1.486-1.285h1.156v1.109a1.838,1.838,0,0,0,1.838,1.835h1.121a1.838,1.838,0,0,0,1.838-1.835V27.07h4.2v1.109a1.838,1.838,0,0,0,1.838,1.835h1.121a1.838,1.838,0,0,0,1.838-1.835V27.07ZM26.973,28.178V24.922a.188.188,0,0,1,.187-.184h1.121a.188.188,0,0,1,.187.184v3.257a.188.188,0,0,1-.187.184H27.161A.188.188,0,0,1,26.973,28.178Zm10.306-3.441a.188.188,0,0,1,.187.184v3.257a.188.188,0,0,1-.187.184H36.158a.188.188,0,0,1-.187-.184V24.922a.188.188,0,0,1,.187-.184ZM1.668,1.653H35.834V23.118a1.837,1.837,0,0,0-1.513,1.8v.5h-4.2v-.5a1.838,1.838,0,0,0-1.838-1.835H27.161a1.838,1.838,0,0,0-1.838,1.835v.5H24.167a3.044,3.044,0,0,0-3.137,2.935V49.917a2.769,2.769,0,0,0,.318,1.287H1.668ZM49.73,51.2H24.167a1.417,1.417,0,0,1-1.486-1.287V33.027H51.216V49.917A1.4,1.4,0,0,1,49.73,51.2ZM31.181,35.558H26.944a.825.825,0,0,0-.825.825v4.234a.825.825,0,0,0,.825.825h4.237a.825.825,0,0,0,.825-.825V36.383A.825.825,0,0,0,31.181,35.558Zm-.825,4.234H27.769V37.209h2.587Zm8.638-4.234H34.76a.825.825,0,0,0-.825.825v4.234a.825.825,0,0,0,.825.825h4.234a.825.825,0,0,0,.825-.825V36.383A.825.825,0,0,0,38.994,35.558Zm-.825,4.234H35.585V37.209h2.584Zm-6.988,3H26.944a.825.825,0,0,0-.825.825v4.234a.825.825,0,0,0,.825.825h4.237a.825.825,0,0,0,.825-.825V43.614A.825.825,0,0,0,31.181,42.788Zm-.825,4.234H27.769V44.439h2.587Zm8.638-4.234H34.76a.825.825,0,0,0-.825.825v4.234a.825.825,0,0,0,.825.825h4.234a.825.825,0,0,0,.825-.825V43.614A.825.825,0,0,0,38.994,42.788Zm-.825,4.234H35.585V44.439h2.584Zm8.787-11.465H42.719a.825.825,0,0,0-.825.825v4.234a.825.825,0,0,0,.825.825h4.237a.825.825,0,0,0,.825-.825V36.383a.825.825,0,0,0-.825-.825Zm-.825,4.234H43.544V37.209H46.13Zm.825,3H42.719a.825.825,0,0,0-.825.825v4.234a.825.825,0,0,0,.825.825h4.237a.825.825,0,0,0,.825-.825V43.614a.825.825,0,0,0-.825-.825Zm-.825,4.234H43.544V44.439H46.13ZM5.083,14.762V5.893a.825.825,0,0,1,.825-.825H15.5a.825.825,0,1,1,0,1.65H6.733v7.219h7.939V11.426l-1.535,1.393A.825.825,0,0,1,12,12.792l-1.882-1.879a.825.825,0,0,1,1.166-1.168l1.326,1.323,3.983-3.615A.825.825,0,0,1,17.7,8.675l-1.38,1.252v4.835a.825.825,0,0,1-.825.825H5.908A.825.825,0,0,1,5.083,14.762Zm0,16.1V22a.825.825,0,0,1,.825-.825H15.5a.825.825,0,1,1,0,1.65H6.733v7.216h7.939V27.528l-1.535,1.393A.825.825,0,0,1,12,28.894l-1.882-1.882a.825.825,0,0,1,1.167-1.167l1.326,1.326,3.983-3.615A.825.825,0,0,1,17.7,24.778l-1.38,1.252v4.832a.825.825,0,0,1-.825.825H5.908a.825.825,0,0,1-.825-.825Zm12.676,8.853A.825.825,0,0,1,17.7,40.88l-1.379,1.251v4.833a.825.825,0,0,1-.825.825H5.908a.825.825,0,0,1-.825-.825V38.1a.825.825,0,0,1,.825-.825H15.5a.825.825,0,1,1,0,1.65H6.733v7.216h7.939v-2.51l-1.535,1.392A.825.825,0,0,1,12,44.993l-1.882-1.879a.825.825,0,1,1,1.166-1.168l1.326,1.324,3.983-3.613a.825.825,0,0,1,1.166.057ZM21.03,5.893a.825.825,0,0,1,.825-.825h10.73a.825.825,0,1,1,0,1.65H21.855a.825.825,0,0,1-.825-.825Zm0,4.433a.825.825,0,0,1,.825-.825h10.73a.825.825,0,1,1,0,1.65H21.855a.825.825,0,0,1-.825-.825Z" transform="translate(17.982 17.997)"/>
    </g>
  </g>
</svg>
