<svg xmlns="http://www.w3.org/2000/svg" xmlns:xlink="http://www.w3.org/1999/xlink" width="400" height="158" viewBox="0 0 400 158">
  <defs>
    <clipPath id="clip-path">
      <rect id="Rectángulo_411992" data-name="Rectángulo 411992" width="400" height="158" rx="7" transform="translate(862.051 12392)" fill="#070e4a"/>
    </clipPath>
  </defs>
  <g id="Grupo_1191369" data-name="Grupo 1191369" transform="translate(-862.051 -12392)">
    <g id="Enmascarar_grupo_1099239" data-name="Enmascarar grupo 1099239" clip-path="url(#clip-path)">
      <rect id="Rectángulo_411742" data-name="Rectángulo 411742" width="400" height="158" rx="7" transform="translate(862.051 12392)" fill="#070e4a"/>
      <g id="Grupo_1191368" data-name="Grupo 1191368" transform="translate(23.63 11626.191)">
        <g id="Grupo_1191358" data-name="Grupo 1191358" transform="translate(855.035 777.747)">
          <path id="Trazado_1279262" data-name="Trazado 1279262" d="M1019.5,853.809H871.845A16.829,16.829,0,0,1,855.035,837v-42.44a16.83,16.83,0,0,1,16.81-16.811H1019.5a16.83,16.83,0,0,1,16.811,16.811V837A16.829,16.829,0,0,1,1019.5,853.809Zm-147.65-75.164a15.931,15.931,0,0,0-15.913,15.913V837a15.931,15.931,0,0,0,15.913,15.913H1019.5A15.93,15.93,0,0,0,1035.408,837v-42.44a15.931,15.931,0,0,0-15.913-15.913Z" transform="translate(-855.035 -777.747)" fill="#5dace1"/>
        </g>
        <g id="Grupo_1191361" data-name="Grupo 1191361" transform="translate(870.624 794.432)">
          <g id="Grupo_1191359" data-name="Grupo 1191359">
            <path id="Trazado_1279263" data-name="Trazado 1279263" d="M917.564,820.339a21.341,21.341,0,1,1-9.292-17.624A21.339,21.339,0,0,1,917.564,820.339Z" transform="translate(-874.881 -798.988)" fill="#f0dcd8"/>
          </g>
          <g id="Grupo_1191360" data-name="Grupo 1191360" transform="translate(21.341 3.726)">
            <path id="Trazado_1279264" data-name="Trazado 1279264" d="M923.391,821.356H902.05L914.1,803.732A21.338,21.338,0,0,1,923.391,821.356Z" transform="translate(-902.05 -803.732)" fill="#fff"/>
          </g>
        </g>
        <g id="Grupo_1191362" data-name="Grupo 1191362" transform="translate(936.408 792.741)">
          <path id="Trazado_1279265" data-name="Trazado 1279265" d="M978.382,842.91H959.976a1.348,1.348,0,0,1-1.347-1.347V798.181a1.348,1.348,0,0,1,1.347-1.346h18.406a1.348,1.348,0,0,1,1.346,1.346v43.382A1.348,1.348,0,0,1,978.382,842.91Zm-18.406-45.177a.449.449,0,0,0-.449.448v43.382a.45.45,0,0,0,.449.449h18.406a.45.45,0,0,0,.449-.449V798.181a.449.449,0,0,0-.449-.448Z" transform="translate(-958.629 -796.835)" fill="#5dace1"/>
        </g>
        <g id="Grupo_1191363" data-name="Grupo 1191363" transform="translate(966.71 792.741)">
          <path id="Trazado_1279266" data-name="Trazado 1279266" d="M1016.958,842.91H998.552a1.348,1.348,0,0,1-1.346-1.347V798.181a1.348,1.348,0,0,1,1.346-1.346h18.406a1.348,1.348,0,0,1,1.347,1.346v43.382A1.348,1.348,0,0,1,1016.958,842.91Zm-18.406-45.177a.449.449,0,0,0-.448.448v43.382a.45.45,0,0,0,.448.449h18.406a.45.45,0,0,0,.449-.449V798.181a.449.449,0,0,0-.449-.448Z" transform="translate(-997.206 -796.835)" fill="#5dace1"/>
        </g>
        <g id="Grupo_1191364" data-name="Grupo 1191364" transform="translate(997.013 792.741)">
          <path id="Trazado_1279267" data-name="Trazado 1279267" d="M1055.535,842.91h-18.406a1.348,1.348,0,0,1-1.346-1.347V798.181a1.348,1.348,0,0,1,1.346-1.346h18.406a1.349,1.349,0,0,1,1.347,1.346v43.382A1.349,1.349,0,0,1,1055.535,842.91Zm-18.406-45.177a.449.449,0,0,0-.448.448v43.382a.45.45,0,0,0,.448.449h18.406a.45.45,0,0,0,.449-.449V798.181a.449.449,0,0,0-.449-.448Z" transform="translate(-1035.783 -796.835)" fill="#5dace1"/>
        </g>
        <g id="Grupo_1191365" data-name="Grupo 1191365" transform="translate(936.857 822.086)">
          <rect id="Rectángulo_411989" data-name="Rectángulo 411989" width="20.201" height="16.281" fill="#5dace1"/>
        </g>
        <g id="Grupo_1191366" data-name="Grupo 1191366" transform="translate(967.159 805.221)">
          <rect id="Rectángulo_411990" data-name="Rectángulo 411990" width="20.201" height="33.146" fill="#5dace1"/>
        </g>
        <g id="Grupo_1191367" data-name="Grupo 1191367" transform="translate(997.461 830.226)">
          <rect id="Rectángulo_411991" data-name="Rectángulo 411991" width="20.201" height="8.141" fill="#5dace1"/>
        </g>
      </g>
      <g id="Grupo_1191357" data-name="Grupo 1191357" transform="translate(-2275.652 11823.448)">
        <g id="Grupo_1191345" data-name="Grupo 1191345">
          <g id="Grupo_1191340" data-name="Grupo 1191340">
            <path id="Trazado_1279196" data-name="Trazado 1279196" d="M3378.7,656.877c-7.106,13.771-14.442,30.407-19.569,37.029l-12.219-15.455,11.673-23.165Z" fill="#ed9f78"/>
            <path id="Trazado_1279197" data-name="Trazado 1279197" d="M3391.473,624.966c-9.432-.822-14.535-1.22-20.8,7.973-3.317,4.869-8.056,14.573-12.092,22.347,6.55,2.852,18.715,8.841,18.715,8.841S3387.564,638.063,3391.473,624.966Z" fill="#ffbc4a"/>
            <g id="Grupo_1191339" data-name="Grupo 1191339">
              <path id="Trazado_1279198" data-name="Trazado 1279198" d="M3305.922,648.737A50.832,50.832,0,0,0,3317.8,659.9s1.772,2.209,2.11,2.79c3.952-1.218,5.29-4.233,7.642-6.268a29.134,29.134,0,0,1-1.71-3.109c-1.341-3.146-2.842-7.53-3.811-9.659l-14.07-6.765.018,5.291-1.174,3.68Z" fill="#fcc5a0"/>
              <path id="Trazado_1279199" data-name="Trazado 1279199" d="M3315.96,642.833c-3.719-3.2-8.647-6.109-12.5-8.828-1.838-1.3-1.932-2.568-1.611-3.618,2,.768,3.228,1.385,4.076,1.713a71.188,71.188,0,0,1,13.5,7.452,12.638,12.638,0,0,1,2.613,4.1Z" fill="#fcc5a0"/>
              <path id="Trazado_1279200" data-name="Trazado 1279200" d="M3306.806,645.855a61.121,61.121,0,0,0,6.847,3.443,2.085,2.085,0,0,0,2.458-1.815,61.822,61.822,0,0,0-8.131-5.308,2.81,2.81,0,0,0-1.438,1.644A2.5,2.5,0,0,0,3306.806,645.855Z" fill="#fcc5a0"/>
              <path id="Trazado_1279201" data-name="Trazado 1279201" d="M3307.98,642.175a66.037,66.037,0,0,0,7.085,3.651,2.085,2.085,0,0,0,2.458-1.815,77.391,77.391,0,0,0-9.183-5.836,2.5,2.5,0,0,0-1.316,1.572A2.563,2.563,0,0,0,3307.98,642.175Z" fill="#fcc5a0"/>
              <path id="Trazado_1279202" data-name="Trazado 1279202" d="M3305.922,648.737a50,50,0,0,0,5.593,2.813,1.7,1.7,0,0,0,2.007-1.483,51.042,51.042,0,0,0-6.741-4.277,2.087,2.087,0,0,0-.859,2.947Z" fill="#fcc5a0"/>
              <path id="Trazado_1279203" data-name="Trazado 1279203" d="M3315.328,644.764c.464,3.85,2.626,8.048,5.934,10.073,1.723,1.054,3.347.541,5.269.2-.53-1.169-3.106-8.327-4.5-11.389a4.887,4.887,0,0,0-2.409-2.194c-3.424-1.6-9.17-3.517-12.54-5.224a3.906,3.906,0,0,0,.69,3.4C3310.1,642.355,3313.824,643.688,3315.328,644.764Z" fill="#fcc5a0"/>
              <path id="Trazado_1279204" data-name="Trazado 1279204" d="M3319.623,641.455c-3.424-1.6-9.17-3.517-12.54-5.224a3.906,3.906,0,0,0,.69,3.4c2.326,2.727,6.051,4.06,7.555,5.136a26.22,26.22,0,0,0,5.934,10.073" fill="none" stroke="#d66050" stroke-linecap="round" stroke-linejoin="round" stroke-width="0.842"/>
            </g>
            <path id="Trazado_1279205" data-name="Trazado 1279205" d="M3319.911,662.685s21.289,27.09,28.518,32.367c8.136,5.939,16.534-4.715,11.294-12.472-5.275-7.807-19.595-15.224-32.17-26.163Z" fill="#fcc5a0"/>
          </g>
          <g id="Grupo_1191341" data-name="Grupo 1191341">
            <path id="Trazado_1279206" data-name="Trazado 1279206" d="M3428.728,862.839l-8.087,16.27,5.115,41.7a1.415,1.415,0,0,0,2.754.2l18.178-52.878Z" fill="#ffbc4a"/>
            <path id="Trazado_1279207" data-name="Trazado 1279207" d="M3376.631,922.614l.035-1.014a3.477,3.477,0,0,1,.609-1.838l10.576-16.406,16.517-2.021,2.394,18.893a3.354,3.354,0,0,1,.025.538l-.065,1.848Z" fill="#ffbc4a"/>
            <path id="Trazado_1279208" data-name="Trazado 1279208" d="M3387.728,717.268c-3.784,37.4-6.846,124.48-7.061,189.061l24.612-2.394c4.049-31.4,19.415-147.226,17.985-182.167Z" fill="#1e0b4a"/>
            <path id="Trazado_1279209" data-name="Trazado 1279209" d="M3363.051,719.885l36.9-2.617c-8.487,25.183-21,67.927-30.02,94.138,19.49,16.767,40.44,33.354,62,52.206l-16.016,20.863c-21.17-14.849-52.939-36.688-70.576-52.4-11.088-9.88-10.8-17.872-8.461-27.093C3345.786,769.845,3349.5,756.88,3363.051,719.885Z" fill="#1e0b4a"/>
            <path id="Trazado_1279210" data-name="Trazado 1279210" d="M3403.985,907.842a28.791,28.791,0,0,0-2.513,13.923" fill="none" stroke="#1e0b4a" stroke-linecap="round" stroke-linejoin="round" stroke-width="0.842"/>
            <line id="Línea_599" data-name="Línea 599" x1="27.645" y1="23" transform="translate(3383.343 822.758)" fill="none" stroke="#1e0b4a" stroke-linecap="round" stroke-linejoin="round" stroke-width="0.829"/>
          </g>
          <path id="Trazado_1279211" data-name="Trazado 1279211" d="M3363.051,719.885s5.964-35.518,7.825-54.924c2.173-22.66,4.815-29.45,6.407-34.4.636-1.978,5.97-6.011,7.842-5.987,14.949.191,28.386,1.762,41.809,5.815,25.913,11.865-.938,44.721-1.976,61.869-.655,10.825-1.694,29.512-1.694,29.512Z" fill="#ffbc4a"/>
          <g id="Grupo_1191343" data-name="Grupo 1191343">
            <path id="Trazado_1279212" data-name="Trazado 1279212" d="M3398.649,583.274s-2.985,17.444-2.746,29.269c.076,3.766,2.5,4.6,6.3,4.763,4.346.188,8.6-1.842,10.678-7.278,5.786-15.116,4.3-26.321.018-28.281S3398.649,583.274,3398.649,583.274Z" fill="#fcc5a0"/>
            <path id="Trazado_1279213" data-name="Trazado 1279213" d="M3415.328,596.8l-3.05,34.741-9.189-.911,3.355-34.683Z" fill="#fcc5a0"/>
            <path id="Trazado_1279214" data-name="Trazado 1279214" d="M3409.668,617.93a18.085,18.085,0,0,0,2.3-5.959,10.477,10.477,0,0,1-7.577,5.234l-.389,4.021A6.941,6.941,0,0,0,3409.668,617.93Z" fill="#d66050"/>
            <path id="Trazado_1279215" data-name="Trazado 1279215" d="M3414.484,606.405c-.8-2.386.764-6.074.38-10.486-.12-1.384-3.313-1.717-3.313-1.717l1.6-7.307s-11.847-1.741-14.752-1.484c-.1-1.816.16-2.219.721-2.59,3.429-2.274,10.15-3.119,15.452-1.471a8.07,8.07,0,0,1,5.745,9.1C3419.438,595.069,3414.484,606.405,3414.484,606.405Z" fill="#1e0b4a"/>
            <path id="Trazado_1279216" data-name="Trazado 1279216" d="M3415.144,597.238a2.654,2.654,0,0,1,3.047.718,2.889,2.889,0,0,1,.185,2.578,6.751,6.751,0,0,1-6.139,4.563S3411.252,598.838,3415.144,597.238Z" fill="#fcc5a0"/>
            <path id="Trazado_1279217" data-name="Trazado 1279217" d="M3402.986,594.042l3.9.429S3403.21,591.232,3402.986,594.042Z" fill="#1e0b4a"/>
            <path id="Trazado_1279218" data-name="Trazado 1279218" d="M3400,593.713l-2.872-.316S3400.364,590.919,3400,593.713Z" fill="#1e0b4a"/>
            <path id="Trazado_1279219" data-name="Trazado 1279219" d="M3399.457,606.405a9.938,9.938,0,0,0,5.623-3.151" fill="none" stroke="#d66050" stroke-linecap="round" stroke-linejoin="round" stroke-width="0.842"/>
            <path id="Trazado_1279220" data-name="Trazado 1279220" d="M3400.856,595.683a10.2,10.2,0,0,1-.9,3.84,11.534,11.534,0,0,0-.756,1.63,2.3,2.3,0,0,0,.611,1.84" fill="none" stroke="#d66050" stroke-linecap="round" stroke-linejoin="round" stroke-width="0.842"/>
            <path id="Trazado_1279221" data-name="Trazado 1279221" d="M3403.517,596.37a.7.7,0,1,0,.777-.623A.7.7,0,0,0,3403.517,596.37Z" fill="#1e0b4a"/>
            <path id="Trazado_1279222" data-name="Trazado 1279222" d="M3397.625,595.615a.7.7,0,1,0,.776-.623A.7.7,0,0,0,3397.625,595.615Z" fill="#1e0b4a"/>
            <path id="Trazado_1279223" data-name="Trazado 1279223" d="M3400.129,614.122a8.266,8.266,0,0,0,2.176-.47" fill="none" stroke="#d66050" stroke-linecap="round" stroke-linejoin="round" stroke-width="0.842"/>
            <path id="Trazado_1279224" data-name="Trazado 1279224" d="M3414.047,602.378a3.056,3.056,0,0,1,.483-2.769,3.014,3.014,0,0,1,1.14-.891" fill="none" stroke="#d66050" stroke-linecap="round" stroke-linejoin="round" stroke-width="0.842"/>
            <g id="Grupo_1191342" data-name="Grupo 1191342">
              <path id="Trazado_1279225" data-name="Trazado 1279225" d="M3398.727,598.488a13.432,13.432,0,0,1-3.747-.494,10.656,10.656,0,0,1,.053-4.424,15.579,15.579,0,0,1,5.18.608A12.8,12.8,0,0,1,3398.727,598.488Z" fill="none" stroke="#d66050" stroke-linecap="round" stroke-linejoin="round" stroke-width="0.842"/>
              <path id="Trazado_1279226" data-name="Trazado 1279226" d="M3402.263,598.9a23.192,23.192,0,0,0,4.936.525,10.64,10.64,0,0,0,.974-4.316,23.41,23.41,0,0,0-6.357-.746A12.84,12.84,0,0,0,3402.263,598.9Z" fill="none" stroke="#d66050" stroke-linecap="round" stroke-linejoin="round" stroke-width="0.842"/>
              <line id="Línea_600" data-name="Línea 600" x2="1.603" y2="0.188" transform="translate(3400.213 594.178)" fill="none" stroke="#d66050" stroke-linecap="round" stroke-linejoin="round" stroke-width="0.842"/>
              <line id="Línea_601" data-name="Línea 601" x2="6.975" y2="1.072" transform="translate(3408.173 595.113)" fill="none" stroke="#d66050" stroke-linecap="round" stroke-linejoin="round" stroke-width="0.842"/>
            </g>
            <path id="Trazado_1279227" data-name="Trazado 1279227" d="M3422.867,629.234c-12.572,13.088-29.873,5.623-30.829-4.467A135.779,135.779,0,0,1,3422.867,629.234Z" fill="#fcc5a0"/>
          </g>
          <g id="Grupo_1191344" data-name="Grupo 1191344">
            <path id="Trazado_1279228" data-name="Trazado 1279228" d="M3453.348,708.755s-7.964-16.849-19.15-41.574l21.007-7.075c5.45,12.624,12.043,31.7,14.3,42.549Z" fill="#ed9f78"/>
            <path id="Trazado_1279229" data-name="Trazado 1279229" d="M3433.9,735.741s30.238-21.17,35.213-31.222c2.706-5.468-8.944-14.063-21.758.446-12.851,14.552-14.293,15.38-18.353,19.92Z" fill="#fcc5a0"/>
            <path id="Trazado_1279230" data-name="Trazado 1279230" d="M3419.782,731.123s-7.914,2.66-10.67,2.177a3.281,3.281,0,0,1-2.261-1.6s9.827-4.563,11.024-4.911c2.308-.672,11.124-1.9,11.124-1.9l4.9,10.856c-4.447,5.109-7.9,7-11.853,9.383l-6.277-11.469Z" fill="#fcc5a0"/>
            <path id="Trazado_1279231" data-name="Trazado 1279231" d="M3426.934,630.387c7.93,2.488,17.793,6.149,23.022,15.9,4.07,7.592,5.86,13.224,10.484,27.075-10.156,3.985-22.762,9.115-22.762,9.115L3423.1,651.836A178.04,178.04,0,0,1,3426.934,630.387Z" fill="#ffbc4a"/>
          </g>
        </g>
        <g id="Grupo_1191356" data-name="Grupo 1191356">
          <g id="Grupo_1191352" data-name="Grupo 1191352">
            <path id="Trazado_1279232" data-name="Trazado 1279232" d="M3475.783,653.053c9.74-3.273,12.314-5.579,17.835-14.244,8.955-14.054-3.375-45.057-7.24-49.856-8.095-10.05-23.157-8.54-30.413-5.465,0,0-7.552,6.765.23,36.122a20.745,20.745,0,0,0-6.6,21.371c1.392,4.713,5.88,8.723,10.333,10.8S3472.817,654.05,3475.783,653.053Z" fill="#1e0b4a"/>
            <rect id="Rectángulo_411988" data-name="Rectángulo 411988" width="33.425" height="7.412" transform="matrix(-0.129, 0.992, -0.992, -0.129, 3473.233, 606.786)" fill="#fcc5a0"/>
            <path id="Trazado_1279233" data-name="Trazado 1279233" d="M3471.88,611.836a23.489,23.489,0,0,1-8.659,14.408l.766-5.875C3466.821,619.139,3469.622,616.247,3471.88,611.836Z" fill="#d66050"/>
            <g id="Grupo_1191350" data-name="Grupo 1191350">
              <path id="Trazado_1279234" data-name="Trazado 1279234" d="M3460.337,619.228c1.894,2.543,3.692,1.186,4.774.516,4.725-2.928,8.554-9.68,9.977-18.256a57.763,57.763,0,0,0,.778-13.312c-3.867-3.965-11.678-5.859-16.978-3.927C3456.678,595.011,3455.982,613.382,3460.337,619.228Z" fill="#fcc5a0"/>
              <g id="Grupo_1191347" data-name="Grupo 1191347">
                <g id="Grupo_1191346" data-name="Grupo 1191346">
                  <path id="Trazado_1279235" data-name="Trazado 1279235" d="M3463.938,597.433l5.489-.151S3465.112,594.71,3463.938,597.433Z" fill="#1e0b4a"/>
                  <path id="Trazado_1279236" data-name="Trazado 1279236" d="M3464.589,599.529a.825.825,0,1,0,.927-.864A.9.9,0,0,0,3464.589,599.529Z" fill="#1e0b4a"/>
                </g>
              </g>
              <g id="Grupo_1191349" data-name="Grupo 1191349">
                <g id="Grupo_1191348" data-name="Grupo 1191348">
                  <path id="Trazado_1279237" data-name="Trazado 1279237" d="M3460.707,597.3l-4.2-.385S3460.1,594.543,3460.707,597.3Z" fill="#1e0b4a"/>
                  <path id="Trazado_1279238" data-name="Trazado 1279238" d="M3459.753,599.334a.775.775,0,1,1-.787-.944A.885.885,0,0,1,3459.753,599.334Z" fill="#1e0b4a"/>
                </g>
              </g>
              <path id="Trazado_1279239" data-name="Trazado 1279239" d="M3461.844,597.686a13.482,13.482,0,0,1-1.13,5.994c-.712,1.558-.153,2.124.515,2.4" fill="none" stroke="#d66050" stroke-linecap="round" stroke-linejoin="round" stroke-width="0.754"/>
              <path id="Trazado_1279240" data-name="Trazado 1279240" d="M3466,601.3a1.6,1.6,0,0,0-1.709,1.549,1.756,1.756,0,0,0,1.327,2,1.594,1.594,0,0,0,1.709-1.548A1.756,1.756,0,0,0,3466,601.3Z" fill="#d66050"/>
              <path id="Trazado_1279241" data-name="Trazado 1279241" d="M3461.872,610.311a4.238,4.238,0,0,0,3.888-3.54" fill="none" stroke="#d66050" stroke-linecap="round" stroke-linejoin="round" stroke-width="0.754"/>
              <path id="Trazado_1279242" data-name="Trazado 1279242" d="M3459.314,602.955a1.756,1.756,0,0,0-1.328-2,1.327,1.327,0,0,0-.833.155c-.016,1.092-.011,2.174.015,3.239a1.331,1.331,0,0,0,.437.153A1.6,1.6,0,0,0,3459.314,602.955Z" fill="#d66050"/>
            </g>
            <path id="Trazado_1279243" data-name="Trazado 1279243" d="M3483.218,607.4c-8.418-4.312-21.046-12-23.042-21.247-7.741,25.366-3.965,1.48-3.2-2.667,8.046-1.939,14.37-.089,20.648,5.3C3480.963,592.477,3486.007,600.262,3483.218,607.4Z" fill="#1e0b4a"/>
            <g id="Grupo_1191351" data-name="Grupo 1191351">
              <path id="Trazado_1279244" data-name="Trazado 1279244" d="M3474.536,598.533c.861-1.792,2.22-1.932,2.856-1.6a1.931,1.931,0,0,1,.838,1.449,4.444,4.444,0,0,1-1.216,3.785,3.07,3.07,0,0,1-3.276.826A8.1,8.1,0,0,1,3474.536,598.533Z" fill="#fcc5a0"/>
              <path id="Trazado_1279245" data-name="Trazado 1279245" d="M3475.184,601.046a3.906,3.906,0,0,1,.627-2.439,2.385,2.385,0,0,1,.818-.729" fill="none" stroke="#d66050" stroke-linecap="round" stroke-linejoin="round" stroke-width="0.754"/>
            </g>
          </g>
          <path id="Trazado_1279246" data-name="Trazado 1279246" d="M3445.293,922.614h21.127s2.523-6.688,4.3-10.691c3.944-8.908,5.68,10.691,5.68,10.691h3.186s-2.424-26-2.892-31.271l-17.656,3.768c1.157,11.683-14.412,19.514-30.042,25.012a1.225,1.225,0,0,0,.4,2.379Z" fill="#1e0b4a"/>
          <path id="Trazado_1279247" data-name="Trazado 1279247" d="M3464.343,716.489c1.626,14.673,2.035,13.69,3.354,30.189,3.738,46.766,6.715,109.517,9.62,151.259l-21.369,2.379c-14.76-57.845-24.743-136.459-20.3-184.7Z" fill="#1e0b4a"/>
          <path id="Trazado_1279248" data-name="Trazado 1279248" d="M3540.593,922.614h-12.455a4.625,4.625,0,0,1-4.48-3.549c-.553-2.314-1.3-5.268-1.965-7.28-3.075-9.329-.942,10.829-.942,10.829h-2.835s-4.446-20.163-5.064-25.434l21-.086c3.935,12.382,7,17.572,18.969,22.795,1.745.762,1.222,2.6,0,2.6Z" fill="#1e0b4a"/>
          <path id="Trazado_1279249" data-name="Trazado 1279249" d="M3408.518,686.944c-4.223-2.526-7.07-2.73-11.373-2.529,0,0-.574-1.214.945-1.824s8.8-.841,8.8-.841Z" fill="#ed9f78"/>
          <path id="Trazado_1279250" data-name="Trazado 1279250" d="M3491.888,717.228c14.592,25.508,38.005,156.811,41.965,179.866l-24.464.086c-8.035-26.882-16.319-52.274-25.623-77.386-14.094-38.04-22.36-70.76-29.888-105.152Z" fill="#1e0b4a"/>
          <path id="Trazado_1279251" data-name="Trazado 1279251" d="M3495.425,742.526a40.264,40.264,0,0,1-15.012-19.55" fill="none" stroke="#7463e5" stroke-linecap="round" stroke-linejoin="round" stroke-width="0.833"/>
          <path id="Trazado_1279252" data-name="Trazado 1279252" d="M3435.649,715.612c.518-5.186.694-13.335,1.179-19.779,1.366-18.19,3.349-39.933,6.291-53.65,18.157-9.479,31.872-12.636,49.414-14.521l-2.3,14.591c-4.119,26.03-8.322,44.588,1.656,74.975Z" fill="#7463e5"/>
          <path id="Trazado_1279253" data-name="Trazado 1279253" d="M3443.119,642.183c-4.71,2.713-10.543,9.875-13.576,21.555-1.51,5.811-2.864,22.074-2.864,22.074l14.409,9.975Z" fill="#7463e5"/>
          <path id="Trazado_1279254" data-name="Trazado 1279254" d="M3492.533,627.662c5.98-.449,10.584.423,13.453,4.814,3.74,5.724,5.622,22.395,5.573,32.37-.043,8.841-.646,25.531-4.71,29.833-6.014,6.366-12.746,5.264-32.915-9.493Z" fill="#7463e5"/>
          <g id="Grupo_1191353" data-name="Grupo 1191353">
            <path id="Trazado_1279255" data-name="Trazado 1279255" d="M3460.023,673.789s-3.622,3.051-6.474,3.919c-2.129.648-9.668,2.345-10.346,2.312-1.555-.074-1.852-1.041-1.44-1.3,1.546-.96,7.2-2.8,7.553-3.316s1.352-3.744,3.533-3.975S3460.023,673.789,3460.023,673.789Z" fill="#ed9f78"/>
            <path id="Trazado_1279256" data-name="Trazado 1279256" d="M3485.7,676.437s-23.109-8.587-26.159-8.588c-5.913,0-17.031,3.707-19.028,5.389a15.782,15.782,0,0,0-3.233,5.236c-.074.234.652.826,1.57-.04.533-.5,1.472-1.8,2.113-2.555a15.532,15.532,0,0,1,2.137-1.9.09.09,0,0,1,.138.106c-.268.62-.883,2.055-1.324,3.169a27.292,27.292,0,0,0-1.354,3.8c-.071.4.836.8,1.573-.3.693-1.042,2.944-5.414,4.32-6.428a8.609,8.609,0,0,1,1.34-.814.089.089,0,0,1,.122.111c-.365,1.054-2.076,6.024-2.484,7.816-.065.285.67,1.076,1.493.1s3.15-6.682,4.19-7.123,8.447.828,8.633.924,19.684,14.048,19.684,14.048Z" fill="#fcc5a0"/>
          </g>
          <g id="Grupo_1191354" data-name="Grupo 1191354">
            <path id="Trazado_1279257" data-name="Trazado 1279257" d="M3377.166,639.631h52.5a4.938,4.938,0,0,1,4.669,3.33L3447.88,682.3h-52.5a4.937,4.937,0,0,1-4.668-3.33Z" fill="#1e0b4a"/>
            <path id="Trazado_1279258" data-name="Trazado 1279258" d="M3402.435,680.021h66.5a2.282,2.282,0,0,1,2.282,2.281h-68.786Z" fill="#1e0b4a"/>
          </g>
          <g id="Grupo_1191355" data-name="Grupo 1191355">
            <path id="Trazado_1279259" data-name="Trazado 1279259" d="M3434.778,687.682c3.447,3.025,4.556,13.512-.34,14.663-4.67,1.1-15.1-10.876-17.091-13.534l5.667-6.478A25.571,25.571,0,0,1,3434.778,687.682Z" fill="#fcc5a0"/>
            <path id="Trazado_1279260" data-name="Trazado 1279260" d="M3417.347,688.811s-5.911-.716-7.661-1.13c-3.069-.727-6.965-9.713-8.728-16.791a1.4,1.4,0,0,1,1.862.66c.48,1.063,3.183,5.356,3.183,5.356l-2.481-7.043a1.6,1.6,0,0,1,2.063.624c.711,1.243,4.358,8.926,7.146,11.7-1.511-3.181-3.843-7.781-4.724-10.748a1.263,1.263,0,0,1,1.988.417c1.275,2.129,5.029,9.841,6.224,9.9.914.041,4.122.333,4.122.333l2.673.25Z" fill="#fcc5a0"/>
          </g>
          <path id="Trazado_1279261" data-name="Trazado 1279261" d="M3452.194,637.8c1.452,2.584,11.9,14.861,28.28-8.5C3470.611,630.934,3460.577,633.69,3452.194,637.8Z" fill="#fcc5a0"/>
        </g>
      </g>
    </g>
  </g>
</svg>
