<svg xmlns="http://www.w3.org/2000/svg" xmlns:xlink="http://www.w3.org/1999/xlink" width="118" height="118" viewBox="0 0 118 118">
  <defs>
    <filter id="Elipse_12115" x="0" y="0" width="118" height="118" filterUnits="userSpaceOnUse">
      <feOffset dy="3" input="SourceAlpha"/>
      <feGaussianBlur stdDeviation="3" result="blur"/>
      <feFlood flood-opacity="0.161"/>
      <feComposite operator="in" in2="blur"/>
      <feComposite in="SourceGraphic"/>
    </filter>
  </defs>
  <g id="Grupo_1191385" data-name="Grupo 1191385" transform="translate(4087.974 11281)">
    <g id="Grupo_1181949" data-name="Grupo 1181949" transform="translate(-4887.755 -13824)">
      <g transform="matrix(1, 0, 0, 1, 799.78, 2543)" filter="url(#Elipse_12115)">
        <g id="Elipse_12115-2" data-name="Elipse 12115" transform="translate(9 6)" fill="#f6bc1c" stroke="#ab8212" stroke-width="1.5">
          <circle cx="50" cy="50" r="50" stroke="none"/>
          <circle cx="50" cy="50" r="49.25" fill="none"/>
        </g>
      </g>
    </g>
    <g id="Grupo_1191384" data-name="Grupo 1191384" transform="translate(-4104.333 -11253.657)">
      <path id="Trazado_1279320" data-name="Trazado 1279320" d="M342.966,20.5a13,13,0,0,0-13-13h-.729a5.688,5.688,0,0,1,5.688,5.688v.854a1.5,1.5,0,0,0,1.5,1.5h.854a5.688,5.688,0,0,1,5.688,5.688Z" transform="translate(-245.676 -6.66)" fill="#e2dfe2"/>
      <path id="Trazado_1279321" data-name="Trazado 1279321" d="M75.489,62.5H62.361a2.271,2.271,0,0,0-2.271,2.271v8.411a2.271,2.271,0,0,1,2.271-2.271H75.489A2.271,2.271,0,0,0,77.76,68.64V64.771A2.271,2.271,0,0,0,75.489,62.5Z" transform="translate(-6.66 -55.504)" fill="#a2f4c1"/>
      <path id="Trazado_1279322" data-name="Trazado 1279322" d="M128.828,15.545h-.854a1.5,1.5,0,0,1-1.5-1.5v-.854A5.688,5.688,0,0,0,120.784,7.5H96.01a1.5,1.5,0,0,0-1.5,1.5v4.654h11.546a2.271,2.271,0,0,1,2.271,2.271V19.8a2.271,2.271,0,0,1-2.271,2.271H94.508V61.633a1.5,1.5,0,0,0,1.5,1.5h37a1.5,1.5,0,0,0,1.5-1.5v-40.4A5.688,5.688,0,0,0,128.828,15.545Z" transform="translate(-37.226 -6.661)" fill="#f9f6f9"/>
      <path id="Trazado_1279323" data-name="Trazado 1279323" d="M128.873,79.364a5.663,5.663,0,0,1,1.165,3.449v30.721a11.181,11.181,0,0,1-11.182,11.182H94.508v.737a1.5,1.5,0,0,0,1.5,1.5h37a1.5,1.5,0,0,0,1.5-1.5v-40.4A5.688,5.688,0,0,0,128.873,79.364Z" transform="translate(-37.226 -70.48)" fill="#efecef"/>
      <path id="Trazado_1279324" data-name="Trazado 1279324" d="M63.943,142.179H62.361a2.271,2.271,0,1,1,0-4.541h1.582Z" transform="translate(-6.66 -122.231)" fill="#86f1a7"/>
      <path id="Trazado_1279325" data-name="Trazado 1279325" d="M209.387,192.623v-4.4a1.119,1.119,0,0,0-1.119-1.119H183.859v5.524Z" transform="translate(-116.575 -166.155)" fill="#80e29d"/>
      <path id="Trazado_1279326" data-name="Trazado 1279326" d="M140.033,187.1h-4.4a1.119,1.119,0,0,0-1.119,1.119v4.4h5.524Z" transform="translate(-72.749 -166.155)" fill="#78d090"/>
      <path id="Trazado_1279327" data-name="Trazado 1279327" d="M134.508,236.449v24.409a1.119,1.119,0,0,0,1.119,1.119h4.4V236.449Z" transform="translate(-72.748 -209.981)" fill="#80e29d"/>
      <path id="Trazado_1279328" data-name="Trazado 1279328" d="M183.859,236.449v25.528h24.409a1.119,1.119,0,0,0,1.119-1.119V236.449Z" transform="translate(-116.575 -209.981)" fill="#a2f4c1"/>
      <path id="Trazado_1279329" data-name="Trazado 1279329" d="M375.343,393.588a1.119,1.119,0,0,0,1.119-1.119V384.65a11.164,11.164,0,0,1-4.468,8.938Z" transform="translate(-283.65 -341.592)" fill="#86f1a7"/>
      <path id="Trazado_1279330" data-name="Trazado 1279330" d="M84.287,0h-25.5a2.344,2.344,0,0,0-2.342,2.342V6.157H55.7a3.114,3.114,0,0,0-3.11,3.11v8.411a3.114,3.114,0,0,0,3.11,3.11h.743V54.972a2.344,2.344,0,0,0,2.342,2.342h37a2.344,2.344,0,0,0,2.342-2.342V45.322a.84.84,0,1,0-1.679,0v9.649a.663.663,0,0,1-.663.663h-37a.663.663,0,0,1-.663-.663V16.247H61.76a.84.84,0,0,0,0-1.679H55.7a3.091,3.091,0,0,0-1.431.349V9.267A1.433,1.433,0,0,1,55.7,7.836H68.828A1.433,1.433,0,0,1,70.26,9.267v3.869a1.433,1.433,0,0,1-1.431,1.431H65.678a.84.84,0,0,0,0,1.679h3.151a3.114,3.114,0,0,0,3.111-3.11V9.267a3.114,3.114,0,0,0-3.11-3.11H58.122V2.342a.663.663,0,0,1,.663-.663H83.558a4.854,4.854,0,0,1,4.849,4.848v.854a2.344,2.344,0,0,0,2.342,2.342H91.6a4.854,4.854,0,0,1,4.849,4.849V41.4a.84.84,0,1,0,1.679,0V13.843A13.858,13.858,0,0,0,84.287,0ZM55.7,16.247h.743v2.862H55.7a1.431,1.431,0,1,1,0-2.862Zm35.9-8.2h-.854a.663.663,0,0,1-.663-.663V6.528A6.5,6.5,0,0,0,88.7,2.506a12.231,12.231,0,0,1,6.928,6.928A6.5,6.5,0,0,0,91.6,8.044Z"/>
      <path id="Trazado_1279331" data-name="Trazado 1279331" d="M128.967,179.6a1.961,1.961,0,0,0-1.959,1.959v28.814a1.961,1.961,0,0,0,1.959,1.959h28.814a1.961,1.961,0,0,0,1.959-1.959V181.558a1.961,1.961,0,0,0-1.959-1.959Zm18.237,7.2h2.347v3.427h-6.83V186.8h.565a.84.84,0,1,0,0-1.679h-.565v-3.845h6.83v3.845H147.2a.84.84,0,0,0,0,1.679Zm-4.483,18.743v-3.426h6.83v3.426Zm6.83,1.679v3.427h-6.83v-3.427Zm-17.019-10.211v3.427h-3.845v-3.427Zm-3.845-1.679v-3.426h3.845v3.426Zm5.524,1.679h6.83v3.427h-6.83Zm8.509,0h6.83v3.427h-6.83Zm8.509,0h6.83v3.427h-6.83Zm0-1.679v-3.426h6.83v3.426Zm-1.679,0h-6.83v-3.426h6.83Zm-8.509,0h-6.83v-3.426h6.83Zm-6.83-5.106V186.8h6.83v3.427Zm0-5.106v-3.845h6.83v3.845Zm-1.679,5.106h-3.845V186.8h3.845Zm-3.845,11.89h3.845v3.426h-3.845Zm5.524,0h6.83v3.426h-6.83Zm17.019,0h6.83v3.426h-6.83Zm6.83-11.89h-6.83V186.8h6.83Zm-29.373-8.671a.28.28,0,0,1,.28-.28h3.565v3.845h-3.845Zm0,28.814v-3.147h3.845v3.427h-3.565A.28.28,0,0,1,128.687,210.372Zm5.524-3.147h6.83v3.427h-6.83Zm23.569,3.427h-6.55v-3.427h6.83v3.147A.28.28,0,0,1,157.781,210.651Zm.28-29.093v3.565h-6.83v-3.845h6.55A.28.28,0,0,1,158.061,181.558Z" transform="translate(-66.088 -159.495)"/>
    </g>
  </g>
</svg>
