<svg xmlns="http://www.w3.org/2000/svg" xmlns:xlink="http://www.w3.org/1999/xlink" width="218" height="185" viewBox="0 0 218 185">
  <defs>
    <filter id="Rect치ngulo_411964" x="0" y="0" width="218" height="185" filterUnits="userSpaceOnUse">
      <feOffset dy="3" input="SourceAlpha"/>
      <feGaussianBlur stdDeviation="3" result="blur"/>
      <feFlood flood-opacity="0.161"/>
      <feComposite operator="in" in2="blur"/>
      <feComposite in="SourceGraphic"/>
    </filter>
  </defs>
  <g id="Grupo_1191399" data-name="Grupo 1191399" transform="translate(9 6)">
    <g transform="matrix(1, 0, 0, 1, -9, -6)" filter="url(#Rect치ngulo_411964)">
      <rect id="Rect치ngulo_411964-2" data-name="Rect치ngulo 411964" width="200" height="167" rx="4" transform="translate(9 6)" fill="#185c2d"/>
    </g>
    <g id="Grupo_1191398" data-name="Grupo 1191398" transform="translate(42.694 20)">
      <g id="Grupo_1191396" data-name="Grupo 1191396" transform="translate(1.864 1.864)">
        <path id="Trazado_1279353" data-name="Trazado 1279353" d="M55.549,299.694a7.97,7.97,0,0,0,7.97-7.97V235.935A3.985,3.985,0,0,1,67.5,231.95H53.556l-5.977,4.31v55.464A7.97,7.97,0,0,0,55.549,299.694Z" transform="translate(40.09 -176.161)" fill="#dbd8db"/>
        <path id="Trazado_1279354" data-name="Trazado 1279354" d="M93.638,291.723a1.978,1.978,0,0,0,.815,1.609,7.292,7.292,0,0,1,3.17,5.837v.242a7.873,7.873,0,0,1-9.962-7.688V231.949h5.977v59.774Z" transform="translate(0.009 -176.16)" fill="#c9c5c9"/>
        <path id="Trazado_1279355" data-name="Trazado 1279355" d="M100.333,7.556l77.035,13.152c3.072.453,5.977,2.676,5.977,5.977v96.375a7.97,7.97,0,0,0,7.97,7.97H103.647a7.97,7.97,0,0,1-7.97-7.97V11.484a3.985,3.985,0,0,1,4.656-3.928Z" transform="translate(-95.677 -7.498)" fill="#eceaec"/>
        <path id="Trazado_1279356" data-name="Trazado 1279356" d="M100.333,7.556l77.035,13.152a7.744,7.744,0,0,0-6.3,3.243l-5.809,8.133a3.985,3.985,0,0,1-4.76,1.369l-58.844-24.2V113.1a11.955,11.955,0,0,0,11.955,11.955h69.925a8.126,8.126,0,0,0,7.781,5.977H103.647a7.97,7.97,0,0,1-7.97-7.97V11.484a3.985,3.985,0,0,1,4.656-3.928Z" transform="translate(-95.677 -7.498)" fill="#dbd8db"/>
        <g id="Grupo_1191390" data-name="Grupo 1191390" transform="translate(31.88 71.729)">
          <path id="Trazado_1279357" data-name="Trazado 1279357" d="M328.1,296.079h-7.97v31.879h7.97Z" transform="translate(-320.128 -296.079)" fill="#ffc244"/>
        </g>
        <g id="Grupo_1191391" data-name="Grupo 1191391" transform="translate(31.88 71.729)">
          <path id="Trazado_1279358" data-name="Trazado 1279358" d="M328.1,296.079h-7.97v25.9h7.97Z" transform="translate(-320.128 -296.079)" fill="#ffd05b"/>
        </g>
        <g id="Grupo_1191392" data-name="Grupo 1191392" transform="translate(63.759 87.668)">
          <path id="Trazado_1279359" data-name="Trazado 1279359" d="M199.84,360.208h-7.97v15.94h7.97Z" transform="translate(-191.87 -360.208)" fill="#ff8b57"/>
        </g>
        <g id="Grupo_1191393" data-name="Grupo 1191393" transform="translate(63.759 87.668)">
          <path id="Trazado_1279360" data-name="Trazado 1279360" d="M199.84,360.208h-7.97v9.962h7.97Z" transform="translate(-191.87 -360.208)" fill="#ffaa5a"/>
        </g>
        <g id="Grupo_1191394" data-name="Grupo 1191394" transform="translate(47.819 91.653)">
          <path id="Trazado_1279361" data-name="Trazado 1279361" d="M263.969,376.24H256v11.955h7.97Z" transform="translate(-255.999 -376.24)" fill="#615260"/>
        </g>
        <path id="Trazado_1279362" data-name="Trazado 1279362" d="M31.548,263.829h3.985a3.985,3.985,0,0,0,3.985-3.985v-23.91a3.985,3.985,0,0,0-7.97,0Z" transform="translate(72.06 -176.161)" fill="#c9c5c9"/>
        <path id="Trazado_1279363" data-name="Trazado 1279363" d="M392.227,264.014h-7.97v39.849h7.97Z" transform="translate(-368.317 -200.255)" fill="#98db7c"/>
        <path id="Trazado_1279364" data-name="Trazado 1279364" d="M392.227,264.014h-7.97v33.872h7.97Z" transform="translate(-368.317 -200.255)" fill="#b8eb7c"/>
        <g id="Grupo_1191395" data-name="Grupo 1191395" transform="translate(47.819 91.653)">
          <path id="Trazado_1279365" data-name="Trazado 1279365" d="M263.969,376.24H256v5.977h7.97Z" transform="translate(-255.999 -376.24)" fill="#736572"/>
        </g>
      </g>
      <g id="Grupo_1191397" data-name="Grupo 1191397">
        <path id="Trazado_1279366" data-name="Trazado 1279366" d="M26.125,1.38a5.839,5.839,0,0,1,4.756-1.3l76.89,13.128a7.851,7.851,0,0,1,7.673,7.84v96.375a6.106,6.106,0,1,0,12.211,0V61.638a5.815,5.815,0,0,1,.4-2.121H121.55a1.864,1.864,0,1,1,0-3.728H133.5a5.856,5.856,0,0,1,5.849,5.849V85.547A5.856,5.856,0,0,1,133.5,91.4h-2.121v26.03a9.845,9.845,0,0,1-9.834,9.834H33.882a9.845,9.845,0,0,1-9.834-9.834V5.85a5.836,5.836,0,0,1,2.077-4.47ZM131.384,87.668H133.5a2.123,2.123,0,0,0,2.121-2.121V61.638a2.121,2.121,0,0,0-4.241,0ZM42.122,5.786l49.32,20.309a2.113,2.113,0,0,0,2.533-.729l5.809-8.133A9.556,9.556,0,0,1,101,15.838ZM27.776,117.427a6.105,6.105,0,0,0,6.106,6.106h79.965a9.789,9.789,0,0,1-2.13-6.106V21.052a4.118,4.118,0,0,0-4.084-4.113h-.056a5.891,5.891,0,0,0-4.757,2.462L97.01,27.533a5.825,5.825,0,0,1-6.987,2.009S37.753,8.024,29.594,4.667a1.309,1.309,0,0,0-1.818,1.164v111.6Z" transform="translate(-24.048 0)"/>
        <path id="Trazado_1279367" data-name="Trazado 1279367" d="M170.2,296.363h2.121V258.378a1.864,1.864,0,0,1,1.864-1.864h7.97a1.864,1.864,0,0,1,1.864,1.864v5.977a1.864,1.864,0,1,1-3.728,0v-4.113h-4.241v36.121h4.241V272.325a1.864,1.864,0,1,1,3.728,0v24.038h4.242V266.348a1.864,1.864,0,0,1,1.864-1.864h7.97a1.864,1.864,0,0,1,1.864,1.864v30.015H204.2v-10.09a1.864,1.864,0,0,1,1.864-1.864h7.97a1.864,1.864,0,0,1,1.864,1.864v10.091h4.241V282.288a1.864,1.864,0,0,1,1.864-1.864h7.97a1.864,1.864,0,0,1,1.864,1.864v14.076h2.121a1.864,1.864,0,0,1,0,3.728H170.2a1.864,1.864,0,0,1,0-3.728Zm53.668,0h4.241V284.152h-4.241Zm-15.94,0h4.241v-8.227h-4.241Zm-15.94,0h4.241V268.212h-4.241Z" transform="translate(-156.383 -192.756)"/>
        <path id="Trazado_1279368" data-name="Trazado 1279368" d="M194.25,448.9h3.985a1.864,1.864,0,1,1,0,3.728H194.25a1.864,1.864,0,1,1,0-3.728Z" transform="translate(-126.635 -337.324)"/>
        <path id="Trazado_1279369" data-name="Trazado 1279369" d="M258.379,448.9h3.985a1.864,1.864,0,1,1,0,3.728h-3.985a1.864,1.864,0,0,1,0-3.728Z" transform="translate(-206.703 -337.324)"/>
        <path id="Trazado_1279370" data-name="Trazado 1279370" d="M322.508,448.9h3.985a1.864,1.864,0,0,1,0,3.728h-3.985a1.864,1.864,0,1,1,0-3.728Z" transform="translate(-286.772 -337.324)"/>
        <path id="Trazado_1279371" data-name="Trazado 1279371" d="M386.638,448.9h3.985a1.864,1.864,0,1,1,0,3.728h-3.985a1.864,1.864,0,1,1,0-3.728Z" transform="translate(-366.842 -337.324)"/>
        <path id="Trazado_1279372" data-name="Trazado 1279372" d="M240.031,167.942h-51.8a3.861,3.861,0,0,1-3.857-3.857v-15.94a3.861,3.861,0,0,1,3.857-3.857h51.8a3.861,3.861,0,0,1,3.857,3.857v15.94A3.861,3.861,0,0,1,240.031,167.942Zm-45.7-19.925h-6.106a.128.128,0,0,0-.128.128v6.106h6.234Zm0,9.962H188.1v6.106a.128.128,0,0,0,.128.128h6.106Zm9.962-9.962h-6.234v6.234h6.234Zm0,9.962h-6.234v6.234h6.234Zm9.962-9.962h-6.234v6.234h6.234Zm0,9.962h-6.234v6.234h6.234Zm25.9-9.834a.128.128,0,0,0-.128-.128H217.985v6.234h22.174Zm0,9.834H217.985v6.234h22.045a.128.128,0,0,0,.128-.128Z" transform="translate(-168.43 -108.425)"/>
        <path id="Trazado_1279373" data-name="Trazado 1279373" d="M226.083,260.242H186.234a1.864,1.864,0,1,1,0-3.728h39.849a1.864,1.864,0,1,1,0,3.728Z" transform="translate(-152.491 -192.756)"/>
        <path id="Trazado_1279374" data-name="Trazado 1279374" d="M210.144,292.306H186.234a1.864,1.864,0,1,1,0-3.728h23.909a1.864,1.864,0,1,1,0,3.728Z" transform="translate(-136.551 -216.85)"/>
        <path id="Trazado_1279375" data-name="Trazado 1279375" d="M210.144,324.371H186.234a1.864,1.864,0,1,1,0-3.728h23.909a1.864,1.864,0,1,1,0,3.728Z" transform="translate(-136.551 -240.945)"/>
      </g>
    </g>
  </g>
</svg>
