<svg xmlns="http://www.w3.org/2000/svg" width="80" height="80" viewBox="0 0 80 80">
  <g id="Grupo_1191437" data-name="Grupo 1191437" transform="translate(-215.25 -2322)">
    <circle id="Elipse_12310" data-name="Elipse 12310" cx="40" cy="40" r="40" transform="translate(215.25 2322)" fill="#111d96"/>
    <g id="Grupo_1191436" data-name="Grupo 1191436" transform="translate(216.325 2336)">
      <g id="Grupo_1191434" data-name="Grupo 1191434" transform="translate(14.695 0.77)">
        <g id="Grupo_1191433" data-name="Grupo 1191433" transform="translate(0)">
          <g id="Grupo_1191432" data-name="Grupo 1191432">
            <path id="Trazado_1279413" data-name="Trazado 1279413" d="M27.581,209.382H21.938a.513.513,0,0,1-.513-.513V182.048a1.026,1.026,0,0,1,1.026-1.026h4.1a1.026,1.026,0,0,1,1.026,1.026v27.334Z" transform="translate(-21.425 -163.214)" fill="#d9b1ee"/>
            <path id="Trazado_1279414" data-name="Trazado 1279414" d="M244.874,226.415a.829.829,0,0,1,.244-.59l.971-.971V222.9a1.032,1.032,0,0,0-.84-.43h-1.521a.835.835,0,0,1-.834-.834v-3.094a.835.835,0,0,1,.834-.834h1.521a1.032,1.032,0,0,0,.84-.43v-1.955l-.971-.971a.834.834,0,0,1,0-1.18l.971-.971V201.328a1.026,1.026,0,0,0-1.026-1.026h-4.1a1.026,1.026,0,0,0-1.026,1.026v25.355h4.985A.837.837,0,0,1,244.874,226.415Z" transform="translate(-217.509 -180.516)" fill="#fedf30"/>
            <g id="Grupo_1191426" data-name="Grupo 1191426" transform="translate(22.424 19.786)">
              <path id="Trazado_1279415" data-name="Trazado 1279415" d="M244.874,415.923a.829.829,0,0,1,.244-.59l.971-.971v-1.955a1.032,1.032,0,0,0-.84-.43h-1.521a.835.835,0,0,1-.762-.5v.281a.785.785,0,0,1-.785.785h-2.248v3.643h4.985A.836.836,0,0,1,244.874,415.923Z" transform="translate(-239.933 -389.81)" fill="#fed402"/>
              <path id="Trazado_1279416" data-name="Trazado 1279416" d="M270.253,217.707h1.521a1.032,1.032,0,0,0,.84-.43v-1.955l-.971-.971a.834.834,0,0,1,0-1.18l.971-.971V201.328a1.026,1.026,0,0,0-1.026-1.026h-2.1v17.9A.835.835,0,0,1,270.253,217.707Z" transform="translate(-266.458 -200.302)" fill="#fed402"/>
            </g>
            <path id="Trazado_1279417" data-name="Trazado 1279417" d="M322.17,49.616h1.818a.513.513,0,0,1,.513.513V69.4l.019-.007a1.039,1.039,0,0,0,.678-.974V66.9a.835.835,0,0,1,.834-.834h3.094a.835.835,0,0,1,.834.834v1.521a1.039,1.039,0,0,0,.678.974l.019.007V50.129a.513.513,0,0,1,.513-.513h1.818a.491.491,0,0,0,.4-.782l-5.409-7.349a.491.491,0,0,0-.791,0l-5.409,7.349a.491.491,0,0,0,.4.782Z" transform="translate(-290.865 -37.818)" fill="#86e8d0"/>
            <path id="Trazado_1279418" data-name="Trazado 1279418" d="M380.337,139.39a.835.835,0,0,1,.834.834v1.521a1.039,1.039,0,0,0,.678.974l.019.007V123.458a.511.511,0,0,1,.286-.458h-1.869a1.539,1.539,0,0,0-1.539,1.539V139.39Z" transform="translate(-342.076 -111.147)" fill="#5de1c4"/>
            <g id="Grupo_1191428" data-name="Grupo 1191428" transform="translate(5.496)">
              <g id="Grupo_1191427" data-name="Grupo 1191427">
                <circle id="Elipse_12355" data-name="Elipse 12355" cx="8.794" cy="8.794" r="8.794" fill="#eaf6ff"/>
                <path id="Trazado_1279419" data-name="Trazado 1279419" d="M129.419,7.66a8.794,8.794,0,0,1-3.633,16.8c-.174,0-.346-.006-.517-.016A8.793,8.793,0,1,0,129.419,7.66Z" transform="translate(-120.107 -7.644)" fill="#d8ecfe"/>
                <path id="Trazado_1279420" data-name="Trazado 1279420" d="M103.2,139.13H88.352a8.791,8.791,0,0,0,14.843,0Z" transform="translate(-86.98 -125.621)" fill="#86e8d0"/>
              </g>
              <circle id="Elipse_12356" data-name="Elipse 12356" cx="4.715" cy="4.715" r="4.715" transform="translate(4.079 4.079)" fill="#ffdfcf"/>
            </g>
            <path id="Trazado_1279421" data-name="Trazado 1279421" d="M136.835,281.472h-6.156v-19.09a1.026,1.026,0,0,1,1.026-1.026h4.1a1.026,1.026,0,0,1,1.026,1.026Z" transform="translate(-119.467 -235.304)" fill="#fdb97e"/>
            <g id="Grupo_1191431" data-name="Grupo 1191431" transform="translate(25.282 28.14)">
              <g id="Grupo_1191429" data-name="Grupo 1191429">
                <path id="Trazado_1279422" data-name="Trazado 1279422" d="M290.646,294.686v-3.094a.937.937,0,0,0-.937-.937h-1.521a.943.943,0,0,1-.879-.612q-.085-.223-.182-.439a.943.943,0,0,1,.188-1.055l1.075-1.075a.937.937,0,0,0,0-1.325l-2.188-2.188a.937.937,0,0,0-1.325,0l-1.075,1.075a.944.944,0,0,1-1.055.188q-.216-.1-.439-.182a.943.943,0,0,1-.612-.879v-1.521a.937.937,0,0,0-.937-.937h-3.094a.937.937,0,0,0-.937.937v1.521a.943.943,0,0,1-.612.879q-.223.085-.439.182a.943.943,0,0,1-1.055-.188l-1.075-1.075a.937.937,0,0,0-1.325,0l-2.188,2.188a.937.937,0,0,0,0,1.325l1.075,1.075a.943.943,0,0,1,.188,1.055q-.1.216-.182.439a.943.943,0,0,1-.879.612h-1.521a.937.937,0,0,0-.937.937v3.094a.937.937,0,0,0,.937.937h1.521a.943.943,0,0,1,.879.612q.085.223.182.439a.943.943,0,0,1-.188,1.055l-1.075,1.075a.937.937,0,0,0,0,1.325l2.188,2.188a.937.937,0,0,0,1.325,0l1.075-1.075a.943.943,0,0,1,1.055-.188q.216.1.439.182a.943.943,0,0,1,.612.879v1.521a.937.937,0,0,0,.937.937h3.094a.937.937,0,0,0,.937-.937v-1.521a.943.943,0,0,1,.612-.879q.223-.085.439-.182a.943.943,0,0,1,1.055.188l1.075,1.075a.937.937,0,0,0,1.325,0l2.188-2.188a.937.937,0,0,0,0-1.325l-1.075-1.075a.943.943,0,0,1-.188-1.055q.1-.216.182-.439a.943.943,0,0,1,.879-.612h1.521A.937.937,0,0,0,290.646,294.686Z" transform="translate(-267.782 -281.707)" fill="#a79ba7"/>
                <path id="Trazado_1279423" data-name="Trazado 1279423" d="M335.148,342.225h-3.254a1.294,1.294,0,0,0-.915.379l-2.3,2.3a1.294,1.294,0,0,0-.379.915v3.254a1.294,1.294,0,0,0,.379.915l2.3,2.3a1.294,1.294,0,0,0,.915.379h3.254a1.294,1.294,0,0,0,.915-.379l2.3-2.3a1.294,1.294,0,0,0,.379-.915v-3.254a1.294,1.294,0,0,0-.379-.915l-2.3-2.3A1.294,1.294,0,0,0,335.148,342.225Z" transform="translate(-322.089 -336.014)" fill="#7a6d79"/>
                <circle id="Elipse_12357" data-name="Elipse 12357" cx="2.263" cy="2.263" r="2.263" transform="translate(9.169 9.169)" fill="#685e68"/>
                <path id="Trazado_1279424" data-name="Trazado 1279424" d="M361.624,373.253a2.259,2.259,0,0,1-3.1,2.824,2.262,2.262,0,1,0,3.1-2.824Z" transform="translate(-349.211 -363.858)" fill="#554e56"/>
              </g>
              <path id="Trazado_1279425" data-name="Trazado 1279425" d="M354.693,350.643l-2.023-2.023a5.951,5.951,0,0,1-5.3,8.659,6,6,0,0,1-.873-.064l.812.812a1.294,1.294,0,0,0,.915.379h3.254a1.293,1.293,0,0,0,.915-.379l2.3-2.3a1.294,1.294,0,0,0,.379-.915v-3.254A1.294,1.294,0,0,0,354.693,350.643Z" transform="translate(-338.418 -341.753)" fill="#7a6d79"/>
              <g id="Grupo_1191430" data-name="Grupo 1191430" transform="translate(8.648 1.98)">
                <path id="Trazado_1279426" data-name="Trazado 1279426" d="M365.328,307.969h-1.521a.943.943,0,0,1-.879-.612q-.085-.223-.182-.439a.943.943,0,0,1,.188-1.055l1.075-1.075a.937.937,0,0,0,0-1.325l-2.188-2.188a.937.937,0,0,0-1.325,0l-1.013,1.013a10.244,10.244,0,0,1-7.436,16.458.931.931,0,0,1,.3.682v1.521a.937.937,0,0,0,.937.937h3.094a.937.937,0,0,0,.937-.937v-1.521a.943.943,0,0,1,.612-.879q.223-.085.439-.182a.943.943,0,0,1,1.055.188l1.075,1.075a.937.937,0,0,0,1.325,0l2.188-2.188a.937.937,0,0,0,0-1.325l-1.075-1.075a.943.943,0,0,1-.188-1.055q.1-.216.182-.439a.943.943,0,0,1,.879-.612h1.521a.937.937,0,0,0,.937-.937v-3.094A.937.937,0,0,0,365.328,307.969Z" transform="translate(-352.049 -301.001)" fill="#918291"/>
              </g>
            </g>
            <path id="Trazado_1279427" data-name="Trazado 1279427" d="M132.635,139.13a8.775,8.775,0,0,1-6.872,3.31c-.175,0-.348-.007-.52-.017A8.793,8.793,0,0,0,136.3,139.13Z" transform="translate(-114.589 -125.621)" fill="#5de1c4"/>
            <path id="Trazado_1279428" data-name="Trazado 1279428" d="M26.554,181.022h-2.1v23.932a.785.785,0,0,1-.785.785H21.425v3.13a.513.513,0,0,0,.513.513h5.643V182.048a1.026,1.026,0,0,0-1.026-1.026Z" transform="translate(-21.425 -163.214)" fill="#cb97e7"/>
            <path id="Trazado_1279429" data-name="Trazado 1279429" d="M137.751,47.25a4.774,4.774,0,0,0-.495.026,4.715,4.715,0,0,1-2.126,8.608,4.715,4.715,0,1,0,2.621-8.634Z" transform="translate(-123.461 -43.171)" fill="#ffcebf"/>
            <path id="Trazado_1279430" data-name="Trazado 1279430" d="M135.809,261.356h-2.1v15.688a.785.785,0,0,1-.785.785h-2.248v3.643h6.156v-19.09A1.026,1.026,0,0,0,135.809,261.356Z" transform="translate(-119.467 -235.304)" fill="#fea95c"/>
          </g>
        </g>
      </g>
      <g id="Grupo_1191435" data-name="Grupo 1191435" transform="translate(13.925 0)">
        <path id="Trazado_1279431" data-name="Trazado 1279431" d="M76.273,19.1v4.428a.77.77,0,1,0,1.539,0V19.1a9.563,9.563,0,1,0-6.4-17.259.77.77,0,0,0,.908,1.243A8.02,8.02,0,0,1,84.026,13.508H80.847a5.484,5.484,0,1,0-7.608,0H70.059a8.007,8.007,0,0,1,.056-7.993.77.77,0,0,0-1.328-.778A9.562,9.562,0,0,0,76.273,19.1ZM73.1,9.564a3.945,3.945,0,1,1,3.945,3.945A3.949,3.949,0,0,1,73.1,9.564Zm9.795,5.484a8.006,8.006,0,0,1-11.7,0Z" transform="translate(-61.983 0)"/>
        <path id="Trazado_1279432" data-name="Trazado 1279432" d="M61.9,67.406h-1.52a.173.173,0,0,1-.16-.117c-.061-.16-.128-.321-.2-.478a.174.174,0,0,1,.03-.2l1.075-1.075a1.707,1.707,0,0,0,0-2.414l-2.188-2.188a1.707,1.707,0,0,0-2.414,0l-1.075,1.075a.174.174,0,0,1-.2.03h0V43.655h1.562a1.26,1.26,0,0,0,1.015-2.008L52.424,34.3a1.261,1.261,0,0,0-2.03,0l-5.409,7.349A1.26,1.26,0,0,0,46,43.655h1.562v4.93a.77.77,0,1,0,1.539,0V43.4a1.284,1.284,0,0,0-1.283-1.283H46.551l4.858-6.6,4.858,6.6H55A1.284,1.284,0,0,0,53.717,43.4V58.64a1.693,1.693,0,0,0-.761-.181H49.862a1.694,1.694,0,0,0-.761.181V52.177a.77.77,0,1,0-1.539,0v9.866h0a.174.174,0,0,1-.2-.03l-1.075-1.075a1.7,1.7,0,0,0-2.244-.147V51.9a1.8,1.8,0,0,0-1.8-1.8h-4.1a1.8,1.8,0,0,0-1.8,1.8V76.486H32.832V58.166a1.8,1.8,0,0,0-1.8-1.8h-4.1a1.8,1.8,0,0,0-1.8,1.8v7.558a.77.77,0,1,0,1.539,0V58.166a.257.257,0,0,1,.257-.257h4.1a.257.257,0,0,1,.257.257v18.32H26.677v-7.17a.77.77,0,0,0-1.539,0v7.171H21.62V49.921a1.8,1.8,0,0,0-1.8-1.8h-4.1a1.8,1.8,0,0,0-1.8,1.8V77.255a.77.77,0,0,0,.77.77H41.541a1.719,1.719,0,0,0,.146.169l2.188,2.188a1.707,1.707,0,0,0,2.414,0l1.075-1.075a.174.174,0,0,1,.2-.03c.156.07.317.137.478.2a.174.174,0,0,1,.117.16v1.521a1.709,1.709,0,0,0,1.707,1.707h3.094a1.709,1.709,0,0,0,1.707-1.707V79.634a.173.173,0,0,1,.117-.16c.16-.061.321-.128.478-.2a.174.174,0,0,1,.2.03l1.075,1.075a1.707,1.707,0,0,0,2.414,0l2.188-2.188a1.707,1.707,0,0,0,0-2.414l-1.075-1.075a.174.174,0,0,1-.03-.2c.071-.158.137-.319.2-.478a.174.174,0,0,1,.16-.117H61.9a1.709,1.709,0,0,0,1.707-1.707V69.113A1.709,1.709,0,0,0,61.9,67.406ZM20.081,76.486H15.464V49.921a.257.257,0,0,1,.257-.257h4.1a.257.257,0,0,1,.257.257Zm21.181,0H37.889V51.9a.257.257,0,0,1,.257-.257h4.1a.257.257,0,0,1,.257.257V62.308l-.818.818a1.707,1.707,0,0,0,0,2.414l1.075,1.075a.174.174,0,0,1,.03.2c-.07.156-.136.317-.2.479a.174.174,0,0,1-.16.117H40.914a1.709,1.709,0,0,0-1.707,1.707v3.094a1.709,1.709,0,0,0,1.707,1.707h1.521a.173.173,0,0,1,.16.117c.062.161.128.322.2.478a.174.174,0,0,1-.03.2L41.687,75.78a1.7,1.7,0,0,0-.425.705Zm20.809-4.279a.168.168,0,0,1-.167.167h-1.52a1.7,1.7,0,0,0-1.6,1.107c-.051.133-.107.268-.166.4a1.7,1.7,0,0,0,.347,1.913l1.075,1.075a.167.167,0,0,1,0,.237l-2.188,2.188a.167.167,0,0,1-.237,0l-1.075-1.075a1.7,1.7,0,0,0-1.913-.347c-.131.059-.266.114-.4.166a1.7,1.7,0,0,0-1.107,1.6v1.521a.168.168,0,0,1-.167.167H49.863a.168.168,0,0,1-.167-.167V79.634a1.7,1.7,0,0,0-1.107-1.6c-.135-.051-.269-.107-.4-.166a1.742,1.742,0,0,0-.711-.153,1.693,1.693,0,0,0-1.2.5L45.2,79.293a.167.167,0,0,1-.237,0l-2.188-2.188a.167.167,0,0,1,0-.237l1.075-1.075a1.7,1.7,0,0,0,.347-1.913c-.058-.131-.114-.265-.166-.4a1.7,1.7,0,0,0-1.6-1.107H40.915a.168.168,0,0,1-.167-.167V69.113a.168.168,0,0,1,.167-.167h1.521a1.7,1.7,0,0,0,1.6-1.107c.052-.135.107-.27.166-.4a1.7,1.7,0,0,0-.347-1.913l-1.075-1.075a.167.167,0,0,1,0-.237l2.188-2.188a.167.167,0,0,1,.237,0L46.276,63.1a1.7,1.7,0,0,0,1.913.347c.13-.058.265-.114.4-.166a1.7,1.7,0,0,0,1.107-1.6V60.165A.168.168,0,0,1,49.863,60h3.094a.168.168,0,0,1,.167.167v1.521a1.7,1.7,0,0,0,1.107,1.6c.135.051.269.107.4.166a1.7,1.7,0,0,0,1.913-.347l1.075-1.075a.167.167,0,0,1,.237,0l2.188,2.188a.167.167,0,0,1,0,.237l-1.075,1.075a1.7,1.7,0,0,0-.347,1.913c.059.132.115.267.166.4a1.7,1.7,0,0,0,1.6,1.107H61.9a.168.168,0,0,1,.167.167v3.094Z" transform="translate(-13.925 -30.318)"/>
        <path id="Trazado_1279433" data-name="Trazado 1279433" d="M329.877,335.329a2.05,2.05,0,0,0-1.459-.6h-3.254a2.049,2.049,0,0,0-1.459.6l-2.3,2.3a2.05,2.05,0,0,0-.6,1.459v3.254a2.05,2.05,0,0,0,.6,1.459l2.3,2.3a2.05,2.05,0,0,0,1.459.6h3.254a2.05,2.05,0,0,0,1.459-.6l2.3-2.3a2.049,2.049,0,0,0,.6-1.459v-3.254a2.049,2.049,0,0,0-.6-1.459Zm1.366,7.014a.52.52,0,0,1-.153.37l-2.3,2.3a.521.521,0,0,1-.37.153h-3.254a.52.52,0,0,1-.37-.153l-2.3-2.3a.521.521,0,0,1-.153-.37v-3.254a.52.52,0,0,1,.153-.37l2.3-2.3a.52.52,0,0,1,.37-.153h3.254a.52.52,0,0,1,.37.153l2.3,2.3a.52.52,0,0,1,.153.37Z" transform="translate(-289.307 -300.374)"/>
        <path id="Trazado_1279434" data-name="Trazado 1279434" d="M352.66,363.551a3.033,3.033,0,1,0,3.033,3.033A3.036,3.036,0,0,0,352.66,363.551Zm0,4.526a1.493,1.493,0,1,1,1.494-1.493A1.5,1.5,0,0,1,352.66,368.077Z" transform="translate(-315.176 -326.242)"/>
      </g>
    </g>
  </g>
</svg>
