<svg xmlns="http://www.w3.org/2000/svg" xmlns:xlink="http://www.w3.org/1999/xlink" width="400" height="471" viewBox="0 0 400 471">
  <defs>
    <clipPath id="clip-path">
      <rect id="Rectángulo_412014" data-name="Rectángulo 412014" width="400" height="471" rx="7" transform="translate(1018.25 4026)" fill="#31ba5c"/>
    </clipPath>
    <linearGradient id="linear-gradient" x1="0.607" y1="0.434" x2="0.284" y2="0.705" gradientUnits="objectBoundingBox">
      <stop offset="0" stop-color="#31ba5c"/>
      <stop offset="0.565" stop-color="#31ba5c" stop-opacity="0.337"/>
      <stop offset="1" stop-color="#31ba5c" stop-opacity="0"/>
    </linearGradient>
    <filter id="Rectángulo_412010" x="4" y="5.304" width="312.549" height="213.349" filterUnits="userSpaceOnUse">
      <feOffset dy="3" input="SourceAlpha"/>
      <feGaussianBlur stdDeviation="3" result="blur"/>
      <feFlood flood-opacity="0.412"/>
      <feComposite operator="in" in2="blur"/>
      <feComposite in="SourceGraphic"/>
    </filter>
    <clipPath id="clip-path-2">
      <path id="Trazado_1279445" data-name="Trazado 1279445" d="M694.053,230.926l-85.078,8.216s-12.091,8.865-24.182,54.814c-14.735,55.988-36.8,201.68-44.06,411.68l55.023,1.65,45.066-320.509a4.108,4.108,0,0,1,8.051,1.319l14.781,322.788,54.219-2.108s16.313-351.156,2.013-405.97C706.409,251.143,694.053,230.926,694.053,230.926Z" transform="translate(-540.733 -230.926)" fill="none"/>
    </clipPath>
  </defs>
  <g id="Grupo_1191465" data-name="Grupo 1191465" transform="translate(-1018.25 -4026)">
    <g id="Enmascarar_grupo_1099240" data-name="Enmascarar grupo 1099240" clip-path="url(#clip-path)">
      <rect id="Rectángulo_411762" data-name="Rectángulo 411762" width="400" height="471" rx="7" transform="translate(1018.25 4026)" fill="#070e4a"/>
      <g id="Grupo_1191466" data-name="Grupo 1191466" transform="translate(151 62)">
        <path id="Trazado_1273761" data-name="Trazado 1273761" d="M0,228.228C47.066,354.878,144.057,462.2,265.31,521.808c31.89,15.675,71.85,27.6,101.26,7.654,14.352-9.732,23.5-25.8,27.954-42.555,14.224-53.489-15.314-110.391-5.45-164.852,8.111-44.774,43.65-82.21,86.527-97.443s91.623-9.658,132.561,10.208c54.251,26.327,95.035,75.49,149.869,100.58,52.227,23.9,115.478,23.04,166.365-3.595s87.893-78.855,94.705-135.886-17.377-117.139-62.7-152.424C919.182,14.509,871.006,3,823.905.312c-29.169-1.664-63.712,2.718-78.1,28.148-14.889,26.323.553,58.836,15.792,84.956q24.02,41.174,48.041,82.345c9.5,16.29,19.184,33.063,22.159,51.686s-2.218,39.789-17.566,50.748c-17.671,12.617-43.318,7.718-60.53-5.518s-27.945-32.98-38.233-52.1c-25.055-46.566-50.807-93.518-86.919-132.145S544.317,39.784,491.572,36.041c-70.464-5-139.131,39.784-172.513,102.039s-34.449,138.5-13.421,205.94c8.713,27.945,21.167,55.884,19.164,85.087s-25.575,59.776-54.632,56.238c-16.464-2-29.771-14.058-40.963-26.3-54.549-59.653-86.934-137.3-101.067-216.884S117.256,80.792,127.315.587" transform="translate(741.131 3816.713)" fill="#111d96"/>
        <path id="Trazado_1273760" data-name="Trazado 1273760" d="M-8708.8-13837.081a352.713,352.713,0,0,0-61.531,5.918c-96.885,17.322-192.424,86.473-283.967,205.531-65.1,84.676-103.713,163.543-107.621,171.66-4.965,8.77-53.064,96.418-30.18,160.975,9.09,25.641,27.674,44.2,55.232,55.158a56.853,56.853,0,0,0,21.113,4.045c46.8,0,92.184-54.674,149.639-123.9,71.625-86.3,160.77-193.7,263.994-193.7a162.156,162.156,0,0,1,53.646,9.426c89.887,31.5,140.344,92.83,189.141,152.145,57.59,70,111.988,136.127,220.967,136.127,31.441,0,65.344-5.467,103.645-16.707,126.23-37.043,199.193-135.293,195.183-262.812-3.905-124.113-78.282-237.633-169.324-258.434a202.55,202.55,0,0,0-44.966-5.246c-71.493-.006-122.206,41.365-166.95,77.863-37.568,30.643-70.012,57.105-108.207,57.105a86.737,86.737,0,0,1-16.883-1.7c-39.152-7.791-60.691-36.844-85.631-70.479C-8567.281-13782.368-8607.84-13837.081-8708.8-13837.081Zm-406.953,569.967a22.217,22.217,0,0,1-8.383-1.611c-18.359-7.3-30.115-18.824-35.932-35.232-15.436-43.545,14.973-111.611,27.99-134.162l.609-1.16c1.527-3.205,155.285-321.211,367.209-359.1a318.169,318.169,0,0,1,55.459-5.379c83.7,0,115.848,43.365,149.883,89.273,26.666,35.965,54.24,73.158,106.316,83.521a121.344,121.344,0,0,0,23.615,2.359c50.443,0,90.82-32.936,129.871-64.791,42.3-34.5,86.041-70.184,145.284-70.182a168.252,168.252,0,0,1,37.283,4.389c75.515,17.252,139.712,119.086,143.106,227.006,1.685,53.529-11.605,183.08-170.988,229.855-35.1,10.3-65.832,15.311-93.937,15.311-92.783,0-139.959-57.35-194.588-123.748-49.334-59.971-105.252-127.937-204.125-162.586a196.5,196.5,0,0,0-65.041-11.363c-119.332,0-214.119,114.2-290.283,205.967C-9040.051-13321.341-9085.055-13267.114-9115.752-13267.114Z" transform="translate(9540.057 17882.992)" fill="url(#linear-gradient)"/>
        <path id="Trazado_1273760-2" data-name="Trazado 1273760" d="M-8708.8-13837.081a352.713,352.713,0,0,0-61.531,5.918c-96.885,17.322-192.424,86.473-283.967,205.531-65.1,84.676-103.713,163.543-107.621,171.66-4.965,8.77-53.064,96.418-30.18,160.975,9.09,25.641,27.674,44.2,55.232,55.158a56.853,56.853,0,0,0,21.113,4.045c46.8,0,92.184-54.674,149.639-123.9,71.625-86.3,160.77-193.7,263.994-193.7a162.156,162.156,0,0,1,53.646,9.426c89.887,31.5,140.344,92.83,189.141,152.145,57.59,70,111.988,136.127,220.967,136.127,31.441,0,65.344-5.467,103.645-16.707,126.23-37.043,199.193-135.293,195.183-262.812-3.905-124.113-78.282-237.633-169.324-258.434a202.55,202.55,0,0,0-44.966-5.246c-71.493-.006-122.206,41.365-166.95,77.863-37.568,30.643-70.012,57.105-108.207,57.105a86.737,86.737,0,0,1-16.883-1.7c-39.152-7.791-60.691-36.844-85.631-70.479C-8567.281-13782.368-8607.84-13837.081-8708.8-13837.081Zm-406.953,569.967a22.217,22.217,0,0,1-8.383-1.611c-18.359-7.3-30.115-18.824-35.932-35.232-15.436-43.545,14.973-111.611,27.99-134.162l.609-1.16c1.527-3.205,155.285-321.211,367.209-359.1a318.169,318.169,0,0,1,55.459-5.379c83.7,0,115.848,43.365,149.883,89.273,26.666,35.965,54.24,73.158,106.316,83.521a121.344,121.344,0,0,0,23.615,2.359c50.443,0,90.82-32.936,129.871-64.791,42.3-34.5,86.041-70.184,145.284-70.182a168.252,168.252,0,0,1,37.283,4.389c75.515,17.252,139.712,119.086,143.106,227.006,1.685,53.529-11.605,183.08-170.988,229.855-35.1,10.3-65.832,15.311-93.937,15.311-92.783,0-139.959-57.35-194.588-123.748-49.334-59.971-105.252-127.937-204.125-162.586a196.5,196.5,0,0,0-65.041-11.363c-119.332,0-214.119,114.2-290.283,205.967C-9040.051-13321.341-9085.055-13267.114-9115.752-13267.114Z" transform="translate(9902.057 17608.992)" fill="url(#linear-gradient)"/>
      </g>
      <g id="Grupo_1191464" data-name="Grupo 1191464" transform="translate(670.81 3762.135)">
        <g transform="matrix(1, 0, 0, 1, 347.44, 263.86)" filter="url(#Rectángulo_412010)">
          <path id="Rectángulo_412010-2" data-name="Rectángulo 412010" d="M9.376,0h275.8a9.376,9.376,0,0,1,9.376,9.376V195.349a0,0,0,0,1,0,0H0a0,0,0,0,1,0,0V9.376A9.376,9.376,0,0,1,9.376,0Z" transform="translate(13 11.3)" fill="#fff"/>
        </g>
        <line id="Línea_608" data-name="Línea 608" x2="294.549" transform="translate(360.44 298.061)" fill="none" stroke="#f5c679" stroke-miterlimit="10" stroke-width="1"/>
        <circle id="Elipse_12359" data-name="Elipse 12359" cx="6.105" cy="6.105" r="6.105" transform="translate(375.702 280.765)" fill="#f5c679"/>
        <circle id="Elipse_12360" data-name="Elipse 12360" cx="6.105" cy="6.105" r="6.105" transform="translate(398.085 280.765)" fill="#e37059"/>
        <circle id="Elipse_12361" data-name="Elipse 12361" cx="6.105" cy="6.105" r="6.105" transform="translate(420.469 280.765)" fill="#4475ab"/>
        <path id="Trazado_1279474" data-name="Trazado 1279474" d="M384.383,314.741v110.9H617.377" transform="translate(12.685 20.965)" fill="none" stroke="#f5c679" stroke-miterlimit="10" stroke-width="1"/>
        <path id="Trazado_1279475" data-name="Trazado 1279475" d="M384.383,387.5s14.923-49.628,38.663-48.837c30.524,1.017,28.488,52.908,46.8,50.872,33.354-3.705,24.419-81.394,60.029-73.256,15.766,3.6,10.315,74.344,25.436,85.465,9.515,7,30.359-19.871,39.68-25.436s19.332-3.052,19.332-3.052l1.017,50.872-230.96,1.017Z" transform="translate(12.685 21.463)" fill="#f5c679"/>
        <g id="Grupo_1191463" data-name="Grupo 1191463" transform="translate(526.242 315.377)">
          <path id="Trazado_1279476" data-name="Trazado 1279476" d="M475.936,315.678H509.56a7.113,7.113,0,0,0,7.112-7.114h0a7.111,7.111,0,0,0-7.112-7.112H475.936a7.112,7.112,0,0,0-7.114,7.112h0A7.114,7.114,0,0,0,475.936,315.678Z" transform="translate(-468.822 -301.452)" fill="#4475ab"/>
          <g id="Grupo_1191462" data-name="Grupo 1191462" transform="translate(26.334 22.083)">
            <rect id="Rectángulo_412011" data-name="Rectángulo 412011" width="6.27" height="6.27" fill="#f5c679"/>
            <rect id="Rectángulo_412012" data-name="Rectángulo 412012" width="6.27" height="6.27" transform="translate(9.976)" fill="#f5c679"/>
            <rect id="Rectángulo_412013" data-name="Rectángulo 412013" width="6.27" height="6.27" transform="translate(9.976 9.305)" fill="#f5c679"/>
          </g>
        </g>
      </g>
      <g id="Grupo_1191461" data-name="Grupo 1191461" transform="translate(620.297 3959.324)">
        <g id="Grupo_1191449" data-name="Grupo 1191449" transform="translate(523.049 407.607)">
          <g id="Grupo_1191448" data-name="Grupo 1191448">
            <g id="Grupo_1191441" data-name="Grupo 1191441" transform="translate(0 464.447)">
              <g id="Grupo_1191440" data-name="Grupo 1191440">
                <path id="Trazado_1279435" data-name="Trazado 1279435" d="M603.967,413.443l-4.043,49.735-71.56,15.206,36.907-36.749,8.911-31.17Z" transform="translate(-514.613 -410.464)" fill="#ffa47e"/>
                <path id="Trazado_1279436" data-name="Trazado 1279436" d="M573.683,420.826l-50.634,44.613,95.808.993L612.4,421.323,593.539,439.69Z" transform="translate(-523.049 -394.02)" fill="#d4603f"/>
                <g id="Grupo_1191439" data-name="Grupo 1191439" transform="translate(33.272 32.497)">
                  <line id="Línea_603" data-name="Línea 603" x2="8.827" y2="5.661" transform="translate(7.878)" fill="none" stroke="#fff" stroke-miterlimit="10" stroke-width="0.527"/>
                  <line id="Línea_604" data-name="Línea 604" x2="8.827" y2="5.661" transform="translate(0 3.711)" fill="none" stroke="#fff" stroke-miterlimit="10" stroke-width="0.527"/>
                </g>
              </g>
            </g>
            <g id="Grupo_1191444" data-name="Grupo 1191444" transform="translate(164.854 475.294)">
              <g id="Grupo_1191443" data-name="Grupo 1191443">
                <path id="Trazado_1279437" data-name="Trazado 1279437" d="M594.829,416.335l-6.613,42.214,74.29,16.55L622.75,437.6l2.515-22.945Z" transform="translate(-584.489 -414.657)" fill="#ffa47e"/>
                <path id="Trazado_1279438" data-name="Trazado 1279438" d="M628.429,422.553l44.226,42.261-85.88-.993,6.6-39.459,13.213,18.048Z" transform="translate(-586.775 -402.126)" fill="#d4603f"/>
                <g id="Grupo_1191442" data-name="Grupo 1191442" transform="translate(41.141 25.799)">
                  <line id="Línea_605" data-name="Línea 605" x1="9.083" y2="5.241" fill="none" stroke="#fff" stroke-miterlimit="10" stroke-width="0.527"/>
                  <line id="Línea_606" data-name="Línea 606" x1="9.083" y2="5.241" transform="translate(7.696 4.076)" fill="none" stroke="#fff" stroke-miterlimit="10" stroke-width="0.527"/>
                </g>
              </g>
            </g>
            <g id="Grupo_1191445" data-name="Grupo 1191445" transform="translate(45.747)">
              <path id="Trazado_1279439" data-name="Trazado 1279439" d="M694.053,230.926l-85.078,8.216s-12.091,8.865-24.182,54.814c-14.735,55.988-36.8,201.68-44.06,411.68l55.023,1.65,45.066-320.509a4.108,4.108,0,0,1,8.051,1.319l14.781,322.788,54.219-2.108s16.313-351.156,2.013-405.97C706.409,251.143,694.053,230.926,694.053,230.926Z" transform="translate(-540.733 -230.926)" fill="#25334c"/>
            </g>
            <g id="Grupo_1191447" data-name="Grupo 1191447" transform="translate(45.747)">
              <g id="Grupo_1191446" data-name="Grupo 1191446" clip-path="url(#clip-path-2)">
                <path id="Trazado_1279440" data-name="Trazado 1279440" d="M546.6,252.637c5.471,13.066,11.206,26.524,21.44,36.315s26.27,14.989,38.9,8.576c10.138-5.148,16.7-16.81,27.835-19.125,19.7-4.1,33.4,23.342,53.51,24.1,11.951.45,21.769-8.617,31.767-15.18s25.039-10.213,32.678-1.009" transform="translate(-531.427 -196.473)" fill="none" stroke="#4475ab" stroke-miterlimit="10" stroke-width="0.245"/>
                <path id="Trazado_1279441" data-name="Trazado 1279441" d="M540.071,281.68c10.133,16.222,20.874,33.053,37.3,42.847,4.672,2.783,9.851,4.967,15.283,5.21,20.118.905,33.617-23.6,53.691-25.207,17.307-1.389,30.425,14.241,42.964,26.249,3.384,3.244,7.254,6.46,11.915,6.959,8.8.942,15.18-7.652,22.245-12.978,11.124-8.384,26.562-9.124,39.957-5.3S788.67,331.1,800.274,338.8" transform="translate(-541.784 -150.384)" fill="none" stroke="#4475ab" stroke-miterlimit="10" stroke-width="0.245"/>
                <path id="Trazado_1279442" data-name="Trazado 1279442" d="M538.958,312.086a217.7,217.7,0,0,0,43.429,53.725c2.16,1.94,4.6,3.937,7.5,4.051,2.339.093,4.543-1.076,6.46-2.421,7-4.91,11.7-12.376,17.619-18.538s14.288-11.315,22.622-9.411c12,2.737,16.6,17.71,26.987,24.314,9.947,6.322,23.1,3.717,33.937-.921s21.215-11.173,32.942-12.347,25.515,5.647,26.578,17.387" transform="translate(-543.55 -102.133)" fill="none" stroke="#4475ab" stroke-miterlimit="10" stroke-width="0.245"/>
                <path id="Trazado_1279443" data-name="Trazado 1279443" d="M535.915,344.386c9.287,12.262,13.858,27.556,22.974,39.95s26.1,21.678,39.74,14.559c8.18-4.271,13.01-13.379,21.238-17.547,8.513-4.315,19.1-2.362,27.331,2.478s14.613,12.187,21.011,19.27c2.2,2.439,4.7,5.013,7.952,5.471,8.426,1.19,11.209-10.6,15.653-17.857,7.456-12.166,25.01-13.25,38.667-9.114s26.363,12.039,40.594,13.072" transform="translate(-548.379 -50.876)" fill="none" stroke="#4475ab" stroke-miterlimit="10" stroke-width="0.245"/>
                <path id="Trazado_1279444" data-name="Trazado 1279444" d="M531.21,373.581c6.2,14.546,14.293,28.686,26.324,38.948s28.547,16.173,43.954,12.616c13.765-3.177,25-13.258,38.5-17.418a47.751,47.751,0,0,1,38.93,5.132c6.672,4.193,13.982,10.371,21.376,7.647,4.377-1.612,7.039-5.906,10.035-9.478A42.376,42.376,0,0,1,753.678,397.9c15.658,4.592,28.823,18.388,45.118,17.552" transform="translate(-555.845 -4.547)" fill="none" stroke="#4475ab" stroke-miterlimit="10" stroke-width="0.245"/>
              </g>
            </g>
          </g>
        </g>
        <g id="Grupo_1191450" data-name="Grupo 1191450" transform="translate(563.755 862.477)">
          <path id="Trazado_1279446" data-name="Trazado 1279446" d="M603.318,427.26l2.856-18.252-66.265-2.246-1.124,22.484Z" transform="translate(-538.784 -406.762)" fill="#4475ab"/>
          <path id="Trazado_1279447" data-name="Trazado 1279447" d="M588.79,430.781c1.1-1.115-2.248-21.339-2.248-21.339l62.9-2.245-.29,23.347Z" transform="translate(-462.997 -406.073)" fill="#4475ab"/>
        </g>
        <g id="Grupo_1191452" data-name="Grupo 1191452" transform="translate(538.765 237.893)">
          <g id="Grupo_1191451" data-name="Grupo 1191451" transform="translate(3.663)">
            <path id="Trazado_1279448" data-name="Trazado 1279448" d="M530.814,205.349S571.2,324.6,591.332,318.762l-.308-59.043c-.745,1.172-34.382-65.63-34.382-65.63s-10.135-16.768-14.686-19.4h0a5.672,5.672,0,0,0-6.325,4.47l-5.091,24.568" transform="translate(-530.54 -150.543)" fill="#ffa47e"/>
            <line id="Línea_607" data-name="Línea 607" y1="51.222" x2="10.395" transform="translate(12.904)" fill="none" stroke="#fff" stroke-linecap="round" stroke-miterlimit="10" stroke-width="3.045"/>
            <path id="Trazado_1279449" data-name="Trazado 1279449" d="M550.97,192.643s-.119-17.048-2.509-17.371-13.687.53-14.776,4.406,8.485,3.679,8.485,3.679-4.493,7.952-.631,10.534S550.97,192.643,550.97,192.643Z" transform="translate(-525.686 -149.63)" fill="#ffa47e"/>
          </g>
          <path id="Trazado_1279450" data-name="Trazado 1279450" d="M665.275,167.669s-34.093,20.62-45.778,32.264-24.39,70.726-24.39,70.726L566.75,208.325l-37.626,25.551s44.042,98.52,63.177,99.117S706.865,224.332,665.275,167.669Z" transform="translate(-529.124 -161.594)" fill="#fff"/>
        </g>
        <g id="Grupo_1191454" data-name="Grupo 1191454" transform="translate(623.745 149.786)">
          <path id="Trazado_1279451" data-name="Trazado 1279451" d="M563.681,162.771c-.567,17.436,5.143,35.663,20.09,46.013,14.086,9.753,33.824,7.427,46.7-3.529,21.068-17.93,14.665-59.074-8.692-68.6-3.216-1.312-12.164-2.217-13.514-4.747-18.295-3.112-38.144,5.233-42.4,19.138-.52,1.7-1.6,4.341-2.76,7.311A13.015,13.015,0,0,1,563.681,162.771Z" transform="translate(-560.184 -131.262)" fill="#1e2f4d"/>
          <path id="Trazado_1279452" data-name="Trazado 1279452" d="M617.672,167.507a1.3,1.3,0,0,0,1.671.851c2.923-1.019,9.468-3.966,13.054,3.366,3.627,7.411-2.253,14.3-6.609,16.072-1.257.51-4.124,1.788-4.667,3.032-1.674,3.823-.745,10.6-.083,19.218,1.469,19.032,17.937,22.294,17.937,22.294s-42.461,36.217-49.79,13.514c2.882-4.843,1.143-41.321-4.33-39.347-7.184,2.592-21.378-.626-22.819-33.2-1.337-30.179,19.438-35.138,24.857-35.989C591.467,136.6,606.761,132.39,617.672,167.507Z" transform="translate(-561.974 -122.495)" fill="#ffa47e"/>
          <path id="Trazado_1279453" data-name="Trazado 1279453" d="M565.782,141.443s40.855,27.483,46.807,28.88C612.589,170.323,616.162,118.415,565.782,141.443Z" transform="translate(-555.931 -124.455)" fill="#1e2f4d"/>
          <g id="Grupo_1191453" data-name="Grupo 1191453" transform="translate(0.428 38.292)">
            <path id="Trazado_1279454" data-name="Trazado 1279454" d="M593.916,152.939s-7.939-8.125-9.308,6.889" transform="translate(-526.484 -138.639)" fill="#e07b51"/>
            <path id="Trazado_1279455" data-name="Trazado 1279455" d="M576.782,152.266a7.272,7.272,0,1,0,9.137,4.721A7.275,7.275,0,0,0,576.782,152.266Z" transform="translate(-546.943 -136.769)" fill="#e07b51"/>
            <path id="Trazado_1279456" data-name="Trazado 1279456" d="M564.21,165.109a7.273,7.273,0,0,0-2.057-13.457S561.833,160.269,564.21,165.109Z" transform="translate(-562.139 -137.197)" fill="#e07b51"/>
            <path id="Trazado_1279457" data-name="Trazado 1279457" d="M569.671,151.187l.916,8.053-4.2-.357a1.025,1.025,0,0,1-.766-1.586Z" transform="translate(-556.88 -137.935)" fill="#e07b51"/>
            <path id="Trazado_1279458" data-name="Trazado 1279458" d="M575.724,150.255c1.345.957-.706-3.3-2.551-3.8a3.257,3.257,0,0,0-4.134,1.969A10.179,10.179,0,0,1,575.724,150.255Z" transform="translate(-551.189 -145.674)"/>
            <path id="Trazado_1279459" data-name="Trazado 1279459" d="M563.253,149.957c-1.361.942.75-3.285,2.6-3.764a3.252,3.252,0,0,1,4.1,2.026A10.167,10.167,0,0,0,563.253,149.957Z" transform="translate(-561.06 -146.064)"/>
            <path id="Trazado_1279460" data-name="Trazado 1279460" d="M571.226,153.25c-.078,1.428-.7,2.553-1.389,2.517s-1.193-1.221-1.117-2.649.7-2.553,1.389-2.517S571.3,151.824,571.226,153.25Z" transform="translate(-551.709 -138.867)"/>
            <path id="Trazado_1279461" data-name="Trazado 1279461" d="M566.335,152.887c-.07,1.363-.665,2.439-1.325,2.406s-1.138-1.169-1.066-2.533.665-2.437,1.324-2.4S566.407,151.524,566.335,152.887Z" transform="translate(-559.286 -139.252)"/>
            <path id="Trazado_1279462" data-name="Trazado 1279462" d="M571.449,167.6s10.123-3.446,16.572-6.139S578.268,185,571.449,167.6Z" transform="translate(-547.366 -121.943)" fill="#e07b51"/>
          </g>
        </g>
        <path id="Trazado_1279463" data-name="Trazado 1279463" d="M586.427,173.5s7.111-1.963,5.919-.471-3.728,3.141-6.263,4.786Z" transform="translate(100.029 83.918)" fill="#c20600"/>
        <path id="Trazado_1279464" data-name="Trazado 1279464" d="M590.51,177.725c.768,1.925-31.237,61.936-30.52,80.753.722,18.959,13.281,79.8,12.241,82.636,0,0,29.123,14.913,110.375,3.115,7.862-70.757,10.058-130.755-16.285-153.028,0,0-28.51-20.47-35.378-21.057C630.944,170.143,600.77,207.454,590.51,177.725Z" transform="translate(58.604 80.225)" fill="#fff"/>
        <path id="Trazado_1279465" data-name="Trazado 1279465" d="M635.4,183.548c-11.869-5.883-27.043-13.061-31.069-13.405a86.816,86.816,0,0,1-12.081,11.866,13.393,13.393,0,0,1-.135,4.977c-11.147,52.778-19.637,126.562-13.056,180.266,16.776.711,67.815,6.749,96.871,2.527-3.7-53-1.5-112.121-10.371-148.757A56.914,56.914,0,0,0,635.4,183.548Z" transform="translate(85.22 80.225)" fill="#d4603f"/>
        <path id="Trazado_1279466" data-name="Trazado 1279466" d="M598.458,367.866c-6.084-53.906-5.831-131.565,4.892-184.757-1.146-1.632-2.483-8.669-3.368-11.23.768,1.925-33.6,65.024-32.885,83.841.722,18.959-10.557,108.464-11.6,111.3C555.5,367.023,586.889,365.711,598.458,367.866Z" transform="translate(51.497 82.981)" fill="#d4603f"/>
        <g id="Grupo_1191456" data-name="Grupo 1191456" transform="translate(606.743 344.854)">
          <g id="Grupo_1191455" data-name="Grupo 1191455">
            <path id="Trazado_1279467" data-name="Trazado 1279467" d="M569.957,215.761a17.63,17.63,0,0,0-1.474-5.671,5.974,5.974,0,0,0-4.5-3.4c-2.579-.233-4.825,1.816-6.152,4.041a16.166,16.166,0,0,0-1.5,3.3c-.1.308-.16.714.106.9a.815.815,0,0,0,.556.062c3.989-.466,7.967,1.55,11.949,1.037" transform="translate(-554.058 -206.668)" fill="#35445c"/>
            <path id="Trazado_1279468" data-name="Trazado 1279468" d="M557.068,213.07l14.329.171a1.687,1.687,0,0,0,1.707-1.666h0a1.686,1.686,0,0,0-1.666-1.7l-14.329-.171a1.687,1.687,0,0,0-1.708,1.666h0A1.688,1.688,0,0,0,557.068,213.07Z" transform="translate(-555.402 -201.858)" fill="#adbede"/>
          </g>
        </g>
        <g id="Grupo_1191460" data-name="Grupo 1191460" transform="translate(529.195 273.459)">
          <g id="Grupo_1191457" data-name="Grupo 1191457" transform="translate(0 0.79)">
            <path id="Trazado_1279469" data-name="Trazado 1279469" d="M604.142,279.638l-21.663-70.9a14.034,14.034,0,0,0-7.649-8.757l-45.848-20.457a1.743,1.743,0,0,0-2.315,2.181l21.914,69.469a14.045,14.045,0,0,0,7.251,8.464l45.946,22.147A1.742,1.742,0,0,0,604.142,279.638Z" transform="translate(-523.593 -179.375)" fill="#f5c679"/>
            <path id="Trazado_1279470" data-name="Trazado 1279470" d="M602.986,281.361l-21.66-70.9a14.045,14.045,0,0,0-7.652-8.757l-45.847-20.46a1.744,1.744,0,0,0-2.313,2.186L547.427,252.9a14.041,14.041,0,0,0,7.248,8.464l45.949,22.146A1.741,1.741,0,0,0,602.986,281.361Z" transform="translate(-525.425 -176.643)" fill="#4475ab"/>
          </g>
          <g id="Grupo_1191459" data-name="Grupo 1191459" transform="translate(34.244)">
            <g id="Grupo_1191458" data-name="Grupo 1191458" transform="translate(0 42.837)">
              <path id="Trazado_1279471" data-name="Trazado 1279471" d="M581.8,239.754s71.678,83.839,87.551,70.144l-24.873-53.551C644.29,257.725,585.883,211,585.883,211s-39.818-16.147-40.824-10.987c-.7,3.585,23.854,6.428,21.526,6.4-.251,0-21.65-3.87-23.743-1.829-3.094,3.019,21.95,7.89,21.642,9.582,0,0-25.02.166-25.8,2.667s24.966,4.351,24.457,5.1-21.448-1.775-18.4.129C548.1,224.17,581.8,239.754,581.8,239.754Z" transform="translate(-538.662 -190.281)" fill="#ffa47e"/>
              <path id="Trazado_1279472" data-name="Trazado 1279472" d="M555.29,212.763s-9.5-19.252-5.259-16.942S576,222.109,576,222.109" transform="translate(-522.349 -195.629)" fill="#ffa47e"/>
            </g>
            <path id="Trazado_1279473" data-name="Trazado 1279473" d="M684.454,185.179c-5.846-8.8-19.12-7.9-24.048,1.449-5.43,10.3-9.742,28.909-12.847,37.215-5.776,15.452-30.36,61.444-30.36,61.444l-48.722-38.315-14.189,33.061s71.2,73.807,88.839,66.38C658.851,339.8,715.311,231.639,684.454,185.179Z" transform="translate(-513.864 -179.069)" fill="#fff"/>
          </g>
        </g>
        <circle id="Elipse_12358" data-name="Elipse 12358" cx="21.273" cy="21.273" r="21.273" transform="translate(660.693 119.589)" fill="#1e2f4d"/>
      </g>
    </g>
  </g>
</svg>
