<svg xmlns="http://www.w3.org/2000/svg" xmlns:xlink="http://www.w3.org/1999/xlink" width="105.211" height="105.211" viewBox="0 0 105.211 105.211">
  <defs>
    <filter id="Elipse_12115" x="0" y="0" width="105.211" height="105.211" filterUnits="userSpaceOnUse">
      <feOffset dy="3" input="SourceAlpha"/>
      <feGaussianBlur stdDeviation="3" result="blur"/>
      <feFlood flood-opacity="0.161"/>
      <feComposite operator="in" in2="blur"/>
      <feComposite in="SourceGraphic"/>
    </filter>
  </defs>
  <g id="Grupo_1191473" data-name="Grupo 1191473" transform="translate(-905.25 -6482)">
    <g id="Grupo_1181949" data-name="Grupo 1181949" transform="translate(914.25 6488)">
      <g transform="matrix(1, 0, 0, 1, -9, -6)" filter="url(#Elipse_12115)">
        <g id="Elipse_12115-2" data-name="Elipse 12115" transform="translate(9 6)" fill="#f6bc1c" stroke="#ab8212" stroke-width="1.5">
          <circle cx="43.605" cy="43.605" r="43.605" stroke="none"/>
          <circle cx="43.605" cy="43.605" r="42.855" fill="none"/>
        </g>
      </g>
    </g>
    <g id="layer1" transform="translate(929.72 6223.404)">
      <path id="path13065" d="M14.415,281.919A13.621,13.621,0,1,0,28.036,295.54H14.415Z" transform="translate(0.641 3.218)" fill="#ffbc42"/>
      <path id="path13067" d="M5.821,280.86v13.621H19.442A13.621,13.621,0,0,0,5.821,280.86Z" transform="translate(12.867 0.643)" fill="#ff6b6b"/>
      <path id="path13629" d="M7.938,294.619H11.57v5.448H7.938Z" transform="translate(18.015 34.105)" fill="#33b9ef"/>
      <path id="path13631" d="M10.054,293.56h3.632v9.081H10.054Z" transform="translate(23.163 31.531)" fill="#33b9ef"/>
      <path id="path13633" d="M12.171,294.089H15.8v7.265H12.171Z" transform="translate(28.311 32.818)" fill="#33b9ef"/>
      <path id="path13635" d="M14.288,292.5H17.92v12.713H14.288Z" transform="translate(33.459 28.957)" fill="#33b9ef"/>
      <g id="Grupo_1191472" data-name="Grupo 1191472" transform="translate(25.953 312.378)">
        <path id="path13637" d="M11.57,294.318A1.816,1.816,0,1,1,9.754,292.5,1.816,1.816,0,0,1,11.57,294.318Z" transform="translate(-7.938 -283.421)" fill="#ffbc42"/>
        <path id="path13639" d="M13.686,292.731a1.816,1.816,0,1,1-1.816-1.816A1.816,1.816,0,0,1,13.686,292.731Z" transform="translate(-2.79 -287.282)" fill="#ffbc42"/>
        <path id="path13641" d="M15.8,293.26a1.816,1.816,0,1,1-1.816-1.816A1.816,1.816,0,0,1,15.8,293.26Z" transform="translate(2.358 -285.995)" fill="#ffbc42"/>
        <path id="path13643" d="M17.92,291.672a1.816,1.816,0,1,1-1.816-1.816A1.816,1.816,0,0,1,17.92,291.672Z" transform="translate(7.506 -289.856)" fill="#ffbc42"/>
      </g>
      <path id="path6950-0" d="M18.688,280.6a.908.908,0,0,0-.908.908v13.621a.908.908,0,0,0,.908.908H32.309a.908.908,0,0,0,.908-.908,14.514,14.514,0,0,0-.835-4.868.908.908,0,1,0-1.712.608,12.941,12.941,0,0,1,.7,3.352H19.6V282.44a12.7,12.7,0,0,1,7.958,3.6H25.043a.908.908,0,1,0,0,1.816H44.114v2.73a.909.909,0,0,0,1.818,0v-3.634a.908.908,0,0,0-.913-.912h-15A14.5,14.5,0,0,0,18.688,280.6Zm-3.632,3.636a14.522,14.522,0,0,0-4.539,28.317v5.28a.909.909,0,0,0,1.818,0V305.112a.909.909,0,1,0-1.818,0v5.516a12.706,12.706,0,0,1,3.634-24.546v12.676a.907.907,0,0,0,.9.9H27.74a12.751,12.751,0,0,1-12.685,11.812.9.9,0,0,0,0,1.809,14.537,14.537,0,0,0,14.526-14.526.908.908,0,0,0-.9-.9H15.96V285.136a.908.908,0,0,0-.9-.9Zm26.338,10.892a.909.909,0,1,0,0,1.818H52.285a.909.909,0,1,0,0-1.818Zm-3.634,5.45h9.077a.908.908,0,1,0,0-1.816H37.712a.908.908,0,0,0,.047,1.816Zm12.709,0h1.816a.908.908,0,1,0,0-1.816h-1.86a.908.908,0,0,0,.043,1.816Zm-12.709,3.634H52.285a.908.908,0,1,0,0-1.816H37.712a.908.908,0,0,0,.047,1.816Zm0,3.632h1.818a.908.908,0,0,0,0-1.816H37.712a.908.908,0,0,0,.047,1.816Zm5.443,0h9.083a.908.908,0,0,0,0-1.816H43.159a.908.908,0,0,0,.043,1.816Zm6.362,3.634a2.738,2.738,0,0,0-2.728,2.721,2.648,2.648,0,0,0,.138.809L43.8,317.376a2.688,2.688,0,0,0-1.5-.459,2.724,2.724,0,0,0-2.263,1.226l-2.3-.576a2.717,2.717,0,0,0-5.422.263,2.663,2.663,0,0,0,.135.8l-3.173,2.382a2.684,2.684,0,0,0-1.5-.461,2.725,2.725,0,1,0,2.721,2.729,2.667,2.667,0,0,0-.138-.81l3.173-2.377a2.7,2.7,0,0,0,1.5.458,2.738,2.738,0,0,0,2.267-1.218l2.306.576a2.713,2.713,0,0,0,5.415-.263,2.67,2.67,0,0,0-.137-.805l3.175-2.384a2.719,2.719,0,1,0,1.508-4.982Zm0,1.809a.908.908,0,1,1-.912.912A.895.895,0,0,1,49.564,313.283Zm-14.533,3.634a.908.908,0,1,1,0,1.816.908.908,0,0,1,0-1.816Zm7.266,1.816a.908.908,0,1,1-.9.912A.895.895,0,0,1,42.3,318.733ZM23.227,335.082H54.1a.908.908,0,1,0,0-1.816H52.285v-11.8a.908.908,0,0,0-.9-.912H47.748a.908.908,0,0,0-.912.912v11.8H45.019V326.9a.908.908,0,0,0-.9-.9H40.482a.908.908,0,0,0-.9.9v6.362H37.759v-8.171a.908.908,0,0,0-.912-.912H33.215a.908.908,0,0,0-.9.912v8.171H30.493V328.72a.908.908,0,0,0-.912-.9H25.956a.908.908,0,0,0-.913.9v4.546h-1.86a.908.908,0,0,0,.043,1.816ZM6.885,322.365a.909.909,0,1,0,0,1.818H17.776a.909.909,0,1,0,0-1.818Zm20.887,0a.909.909,0,1,1-.912.913A.9.9,0,0,1,27.772,322.365Zm20.88,0h1.816v10.9H48.653Zm-45.4,5.45h9.084a.908.908,0,0,0,0-1.816H3.2a.908.908,0,0,0,.047,1.816Zm12.709,0h1.816a.908.908,0,0,0,0-1.816h-1.86a.908.908,0,0,0,.043,1.816ZM34.127,326h1.816v7.266H34.127Zm7.266,1.816H43.2v5.45H41.393ZM3.251,331.449H17.776a.908.908,0,1,0,0-1.816H3.2a.908.908,0,0,0,.047,1.816Zm23.61-1.816h1.816v3.632H26.861Zm-23.61,5.448H5.067a.908.908,0,1,0,0-1.816H3.2a.908.908,0,0,0,.047,1.816Zm5.45,0h9.075a.908.908,0,1,0,0-1.816H8.654a.908.908,0,0,0,.047,1.816Z" transform="translate(0)"/>
    </g>
  </g>
</svg>
