<svg xmlns="http://www.w3.org/2000/svg" xmlns:xlink="http://www.w3.org/1999/xlink" width="105.211" height="105.211" viewBox="0 0 105.211 105.211">
  <defs>
    <filter id="Elipse_12115" x="0" y="0" width="105.211" height="105.211" filterUnits="userSpaceOnUse">
      <feOffset dy="3" input="SourceAlpha"/>
      <feGaussianBlur stdDeviation="3" result="blur"/>
      <feFlood flood-opacity="0.161"/>
      <feComposite operator="in" in2="blur"/>
      <feComposite in="SourceGraphic"/>
    </filter>
  </defs>
  <g id="Grupo_1191478" data-name="Grupo 1191478" transform="translate(-1219.25 -6481.969)">
    <g id="Grupo_1181949" data-name="Grupo 1181949" transform="translate(1228.25 6487.969)">
      <g transform="matrix(1, 0, 0, 1, -9, -6)" filter="url(#Elipse_12115)">
        <g id="Elipse_12115-2" data-name="Elipse 12115" transform="translate(9 6)" fill="#f6bc1c" stroke="#ab8212" stroke-width="1.5">
          <circle cx="43.605" cy="43.605" r="43.605" stroke="none"/>
          <circle cx="43.605" cy="43.605" r="42.855" fill="none"/>
        </g>
      </g>
    </g>
    <g id="Grupo_1191477" data-name="Grupo 1191477" transform="translate(1231.719 6491.574)">
      <path id="Trazado_1279541" data-name="Trazado 1279541" d="M80,25.6A1.6,1.6,0,0,1,81.6,24h37.649a1.6,1.6,0,0,1,1.6,1.6V52.036a1.6,1.6,0,0,1-1.6,1.6H80Z" transform="translate(-57.592 -7.199)" fill="#548aff"/>
      <path id="Trazado_1279542" data-name="Trazado 1279542" d="M316.016,362.414,320.822,352H308.806L304,362.414Z" transform="translate(-259.163 -302.356)" fill="#8be0e8"/>
      <path id="Trazado_1279543" data-name="Trazado 1279543" d="M240,456h18.424v1.6a1.6,1.6,0,0,1-1.6,1.6H241.6a1.6,1.6,0,0,1-1.6-1.6Z" transform="translate(-201.571 -395.943)" fill="#548aff"/>
      <path id="Trazado_1279544" data-name="Trazado 1279544" d="M64,280h5.51v7.209H64Z" transform="translate(-43.194 -237.566)" fill="#ffceb6"/>
      <path id="Trazado_1279545" data-name="Trazado 1279545" d="M100.005,240v6.311a1.7,1.7,0,0,1-2.9,1.2l-1.1-1.1V240Z" transform="translate(-71.99 -201.571)" fill="#ffceb6"/>
      <path id="Trazado_1279546" data-name="Trazado 1279546" d="M42.4,224.811,40.536,221.7A3.764,3.764,0,0,1,40,219.764h0A3.764,3.764,0,0,1,43.764,216h5.849a1.6,1.6,0,1,1,0,3.2h-2.4l-1.6,2.4v3.2Z" transform="translate(-21.597 -179.974)" fill="#c47220"/>
      <path id="Trazado_1279547" data-name="Trazado 1279547" d="M48.832,349.618H42.249a3.2,3.2,0,0,1-2.382-1.061l-3.051-3.39v6.853H24V340.806A4.806,4.806,0,0,1,28.806,336h5.353a5.607,5.607,0,0,1,4.34,2.057l5.527,6.755h4.806Z" transform="translate(-7.199 -287.958)" fill="#ffb401"/>
      <path id="Trazado_1279548" data-name="Trazado 1279548" d="M272,421.607V416.8h1.6l3.2-.8,3.57,2.142a.9.9,0,0,1-.637,1.649l-2.932-.586-2.777,2.083a1.6,1.6,0,0,1-.961.32Z" transform="translate(-230.367 -359.948)" fill="#ffceb6"/>
      <path id="Trazado_1279549" data-name="Trazado 1279549" d="M343.209,459.2H337.6a1.6,1.6,0,0,1-1.6-1.6V456h8.811v1.6A1.6,1.6,0,0,1,343.209,459.2Z" transform="translate(-287.958 -395.943)" fill="#4367e0"/>
      <path id="Trazado_1279550" data-name="Trazado 1279550" d="M192,248h4.806v4.005H192Z" transform="translate(-158.377 -208.77)" fill="#ffa100"/>
      <path id="Trazado_1279551" data-name="Trazado 1279551" d="M240,216h4.806v7.209H240Z" transform="translate(-201.571 -179.974)" fill="#ffb401"/>
      <path id="Trazado_1279552" data-name="Trazado 1279552" d="M288,176h4.806v11.215H288Z" transform="translate(-244.765 -143.979)" fill="#ffc431"/>
      <path id="Trazado_1279553" data-name="Trazado 1279553" d="M336,136h4.806v15.22H336Z" transform="translate(-287.958 -107.984)" fill="#ffcc4d"/>
      <path id="Trazado_1279554" data-name="Trazado 1279554" d="M384,104h4.806v18.424H384Z" transform="translate(-331.152 -79.189)" fill="#ffd873"/>
      <g id="Grupo_1191476" data-name="Grupo 1191476" transform="translate(32.822 20.005)">
        <circle id="Elipse_12363" data-name="Elipse 12363" cx="1.5" cy="1.5" r="1.5" transform="translate(0.21 11.026)" fill="#c5dafa"/>
        <circle id="Elipse_12364" data-name="Elipse 12364" cx="1.5" cy="1.5" r="1.5" transform="translate(8.21 6.026)" fill="#c5dafa"/>
        <circle id="Elipse_12365" data-name="Elipse 12365" cx="1.5" cy="1.5" r="1.5" transform="translate(15.21 0.026)" fill="#c5dafa"/>
      </g>
      <path id="Trazado_1279555" data-name="Trazado 1279555" d="M61.659,221.618H49.644a.8.8,0,0,0-.727.465l-2.765,5.99-3.015.754h-5.93l-5.286-6.461a6.381,6.381,0,0,0-4.8-2.346v-.137a2.5,2.5,0,0,0,1.7-2.368v-4.847a2.4,2.4,0,0,0-.8-4.668H22.167a4.565,4.565,0,0,0-3.914,6.913l1.753,2.921v2.416A5.616,5.616,0,0,0,16,225.623v11.215h1.6V225.623a4.01,4.01,0,0,1,4.005-4.005h5.353a4.789,4.789,0,0,1,3.72,1.763l5.527,6.755a.8.8,0,0,0,.62.294h4.005v3.2H35.05a2.407,2.407,0,0,1-1.786-.8l-6.255-6.95-1.191,1.072,3,3.332v6.546h1.6v-4.766l1.654,1.838a4.011,4.011,0,0,0,2.977,1.326h2.716a2.407,2.407,0,0,0,2.265,1.6h15.22a2.406,2.406,0,0,0,2.4-2.4v-1.426l4.733-10.254a.8.8,0,0,0-.727-1.137Zm-35.343-3.2a.892.892,0,0,1-.635-.263l-.87-.87v-2.63l1.23-1.845h1.173v4.709A.9.9,0,0,1,26.316,218.414ZM19.2,212.565a2.966,2.966,0,0,1,2.963-2.963h5.849a.8.8,0,1,1,0,1.6h-2.4a.8.8,0,0,0-.666.357l-1.6,2.4a.8.8,0,0,0-.135.444v2.4H21.26l-1.633-2.722a2.963,2.963,0,0,1-.422-1.524Zm2.4,5.849h2.071l.87.87a2.489,2.489,0,0,0,.967.6v.131H21.607Zm20.827,12.016h.8a.8.8,0,0,0,.194-.024l2.882-.721,3.285,1.971a.1.1,0,0,1-.068.176l-2.932-.586a.8.8,0,0,0-.638.145l-2.777,2.083a.806.806,0,0,1-.481.16h-.267Zm1.709,4.326,1.5-1.121h1.6v.8a2.391,2.391,0,0,0,.138.8H42.7A2.419,2.419,0,0,0,44.143,234.755Zm11.909-.32a.8.8,0,0,1-.8.8H49.644a.8.8,0,0,1-.8-.8v-.8h7.209Zm.289-2.4H51.218a1.678,1.678,0,0,0-.8-1.749l-2.76-1.656,2.5-5.406H60.407Z" transform="translate(0 -172.775)"/>
      <path id="Trazado_1279556" data-name="Trazado 1279556" d="M112.052,16H74.4A2.406,2.406,0,0,0,72,18.4v15.22h1.6V18.4a.8.8,0,0,1,.8-.8h37.649a.8.8,0,0,1,.8.8V44.838a.8.8,0,0,1-.8.8H80.811v1.6h31.241a2.406,2.406,0,0,0,2.4-2.4V18.4a2.406,2.406,0,0,0-2.4-2.4Z" transform="translate(-50.393)"/>
      <circle id="Elipse_12366" data-name="Elipse 12366" cx="1" cy="1" r="1" transform="translate(24.031 18.031)"/>
      <circle id="Elipse_12367" data-name="Elipse 12367" cx="1" cy="1" r="1" transform="translate(26.031 18.031)"/>
      <ellipse id="Elipse_12368" data-name="Elipse 12368" cx="0.5" cy="1" rx="0.5" ry="1" transform="translate(29.031 18.031)"/>
      <path id="Trazado_1279557" data-name="Trazado 1279557" d="M194.434,96h-4.806a.8.8,0,0,0-.8.8v2.4h-4.005a.8.8,0,0,0-.8.8v3.2h-4.005a.8.8,0,0,0-.8.8v3.2h-4.005a.8.8,0,0,0-.8.8v2.4H170.4a.8.8,0,0,0-.8.8v3.2H168v1.6h28.838v-1.6h-1.6V96.8A.8.8,0,0,0,194.434,96ZM171.2,112.021h3.2v2.4h-3.2Zm4.806-3.2h3.2v5.607h-3.2Zm4.806-4.005h3.2v9.613h-3.2Zm4.806-4.005h3.2v13.618h-3.2Zm8.01,13.618h-3.2V97.6h3.2Z" transform="translate(-136.78 -71.99)"/>
      <path id="Trazado_1279558" data-name="Trazado 1279558" d="M144,62.413h3.342a2.4,2.4,0,0,0,4.564-1.5l4.166-3.07a2.4,2.4,0,0,0,3.76-2.771l3.646-2.687a2.4,2.4,0,0,0,3.613-1.187h4.944V49.6h-4.944a2.4,2.4,0,0,0-4.564,1.5l-3.782,2.787a2.4,2.4,0,0,0-3.488,2.57l-4.3,3.17a2.4,2.4,0,0,0-3.613,1.187H144ZM164.827,49.6a.8.8,0,1,1-.8.8A.8.8,0,0,1,164.827,49.6ZM157.618,55.2a.8.8,0,1,1-.8.8A.8.8,0,0,1,157.618,55.2Zm-8.01,5.607a.8.8,0,1,1-.8.8.8.8,0,0,1,.8-.8Z" transform="translate(-115.183 -28.79)"/>
      <path id="Trazado_1279559" data-name="Trazado 1279559" d="M440,64h1.6v1.6H440Z" transform="translate(-381.545 -43.194)"/>
      <path id="Trazado_1279560" data-name="Trazado 1279560" d="M112,176h1.6v1.6H112Z" transform="translate(-86.388 -143.979)"/>
    </g>
  </g>
</svg>
