<svg xmlns="http://www.w3.org/2000/svg" width="505.75" height="262.74" viewBox="0 0 505.75 262.74">
  <g id="Grupo_1191707" data-name="Grupo 1191707" transform="translate(-180.051 -992)">
    <rect id="Rectángulo_411784" data-name="Rectángulo 411784" width="505" height="113" rx="6" transform="translate(180.051 1141)" fill="#111d96"/>
    <rect id="Rectángulo_412016" data-name="Rectángulo 412016" width="454" height="176" rx="6" transform="translate(200.051 992)" fill="#cfd1ea"/>
    <g id="Grupo_1191706" data-name="Grupo 1191706" transform="translate(43.346)">
      <g id="Grupo_1191705" data-name="Grupo 1191705" transform="translate(172.198 953.599)">
        <g id="Chart">
          <g id="Chart-2" data-name="Chart">
            <rect id="Rectángulo_412017" data-name="Rectángulo 412017" width="169.134" height="134.634" rx="9.336" transform="translate(236.853 48.401)" fill="#fff" stroke="#ff95fb" stroke-linecap="round" stroke-linejoin="round" stroke-width="1.5"/>
            <g id="Grupo_1191677" data-name="Grupo 1191677">
              <rect id="Rectángulo_412018" data-name="Rectángulo 412018" width="8.906" height="8.906" rx="1.145" transform="translate(248.011 63.986)" fill="#ff95fb"/>
              <rect id="Rectángulo_412019" data-name="Rectángulo 412019" width="8.906" height="8.906" rx="1.145" transform="translate(248.011 87.36)" fill="#f55571"/>
              <rect id="Rectángulo_412020" data-name="Rectángulo 412020" width="8.906" height="8.906" rx="1.145" transform="translate(248.011 110.734)" fill="#fff" stroke="#303030" stroke-linecap="round" stroke-linejoin="round" stroke-width="1.5"/>
              <rect id="Rectángulo_412021" data-name="Rectángulo 412021" width="8.906" height="8.906" rx="1.145" transform="translate(248.011 134.108)" fill="#00826f"/>
              <rect id="Rectángulo_412022" data-name="Rectángulo 412022" width="8.906" height="8.906" rx="1.145" transform="translate(248.011 156.006)" fill="#303030"/>
            </g>
            <g id="Grupo_1191678" data-name="Grupo 1191678">
              <rect id="Rectángulo_412023" data-name="Rectángulo 412023" width="15.85" height="49.34" transform="translate(278.552 115.573)" fill="#ff95fb"/>
              <rect id="Rectángulo_412024" data-name="Rectángulo 412024" width="15.85" height="68.646" transform="translate(302.259 96.266)" fill="#f55571"/>
              <rect id="Rectángulo_412025" data-name="Rectángulo 412025" width="15.85" height="33.239" transform="translate(325.967 131.673)" fill="#fff" stroke="#303030" stroke-linecap="round" stroke-linejoin="round" stroke-width="1.5"/>
              <rect id="Rectángulo_412026" data-name="Rectángulo 412026" width="15.85" height="86.924" transform="translate(349.674 77.989)" fill="#00826f"/>
              <rect id="Rectángulo_412027" data-name="Rectángulo 412027" width="15.85" height="57.476" transform="translate(373.382 107.436)" fill="#303030"/>
            </g>
            <g id="Grupo_1191679" data-name="Grupo 1191679">
              <line id="Línea_609" data-name="Línea 609" x2="132.452" transform="translate(264.658 164.912)" fill="none" stroke="#ff95fb" stroke-linecap="round" stroke-linejoin="round" stroke-width="1.5"/>
              <line id="Línea_610" data-name="Línea 610" y1="102.668" transform="translate(270.242 62.244)" fill="none" stroke="#ff95fb" stroke-linecap="round" stroke-linejoin="round" stroke-width="1.5"/>
            </g>
          </g>
        </g>
        <g id="Calculator">
          <g id="Calculator-2" data-name="Calculator">
            <rect id="Rectángulo_412028" data-name="Rectángulo 412028" width="82.635" height="120.133" rx="5.259" transform="translate(386.872 145.51)" fill="#303030" stroke="#303030" stroke-linecap="round" stroke-linejoin="round" stroke-width="1.5"/>
            <path id="Trazado_1279739" data-name="Trazado 1279739" d="M383.01,233.658V150.769a5.259,5.259,0,0,1,5.259-5.259h72.117a5.258,5.258,0,0,1,5.259,5.259V260.384a5.258,5.258,0,0,1-5.259,5.259H388.269a5.259,5.259,0,0,1-5.259-5.259V246.649c-3.542,1.133-12.094,1.511-17.956-2.967C373.193,242.884,379.744,240.031,383.01,233.658Z" fill="#00826f" stroke="#303030" stroke-linecap="round" stroke-linejoin="round" stroke-width="1.5"/>
            <rect id="Rectángulo_412029" data-name="Rectángulo 412029" width="66.86" height="15.774" rx="2.244" transform="translate(457.758 169.585) rotate(180)" fill="#fff" stroke="#303030" stroke-linecap="round" stroke-linejoin="round" stroke-width="1.5"/>
            <g id="Grupo_1191684" data-name="Grupo 1191684">
              <g id="Grupo_1191680" data-name="Grupo 1191680">
                <rect id="Rectángulo_412030" data-name="Rectángulo 412030" width="12.077" height="12.078" rx="1.481" transform="translate(457.758 189.881) rotate(180)" fill="#303030" stroke="#303030" stroke-linecap="round" stroke-linejoin="round" stroke-width="1.5"/>
                <rect id="Rectángulo_412031" data-name="Rectángulo 412031" width="12.077" height="12.078" rx="1.481" transform="translate(456.785 189.881) rotate(180)" fill="#fff" stroke="#303030" stroke-linecap="round" stroke-linejoin="round" stroke-width="1.5"/>
              </g>
              <g id="Grupo_1191681" data-name="Grupo 1191681">
                <rect id="Rectángulo_412032" data-name="Rectángulo 412032" width="12.077" height="12.078" rx="1.481" transform="translate(439.821 189.881) rotate(180)" fill="#303030" stroke="#303030" stroke-linecap="round" stroke-linejoin="round" stroke-width="1.5"/>
                <rect id="Rectángulo_412033" data-name="Rectángulo 412033" width="12.077" height="12.078" rx="1.481" transform="translate(438.848 189.881) rotate(180)" fill="#fff" stroke="#303030" stroke-linecap="round" stroke-linejoin="round" stroke-width="1.5"/>
              </g>
              <g id="Grupo_1191682" data-name="Grupo 1191682">
                <rect id="Rectángulo_412034" data-name="Rectángulo 412034" width="12.078" height="12.078" rx="1.481" transform="translate(421.885 189.881) rotate(180)" fill="#303030" stroke="#303030" stroke-linecap="round" stroke-linejoin="round" stroke-width="1.5"/>
                <rect id="Rectángulo_412035" data-name="Rectángulo 412035" width="12.078" height="12.078" rx="1.481" transform="translate(420.912 189.881) rotate(180)" fill="#f55571" stroke="#303030" stroke-linecap="round" stroke-linejoin="round" stroke-width="1.5"/>
              </g>
              <g id="Grupo_1191683" data-name="Grupo 1191683">
                <rect id="Rectángulo_412036" data-name="Rectángulo 412036" width="12.078" height="12.078" rx="1.481" transform="translate(403.948 189.881) rotate(180)" fill="#303030" stroke="#303030" stroke-linecap="round" stroke-linejoin="round" stroke-width="1.5"/>
                <rect id="Rectángulo_412037" data-name="Rectángulo 412037" width="12.078" height="12.078" rx="1.481" transform="translate(402.975 189.881) rotate(180)" fill="#f55571" stroke="#303030" stroke-linecap="round" stroke-linejoin="round" stroke-width="1.5"/>
              </g>
            </g>
            <g id="Grupo_1191689" data-name="Grupo 1191689">
              <g id="Grupo_1191685" data-name="Grupo 1191685">
                <rect id="Rectángulo_412038" data-name="Rectángulo 412038" width="12.077" height="12.078" rx="1.481" transform="translate(457.758 206.904) rotate(180)" fill="#303030" stroke="#303030" stroke-linecap="round" stroke-linejoin="round" stroke-width="1.5"/>
                <rect id="Rectángulo_412039" data-name="Rectángulo 412039" width="12.077" height="12.078" rx="1.481" transform="translate(456.785 206.904) rotate(180)" fill="#fff" stroke="#303030" stroke-linecap="round" stroke-linejoin="round" stroke-width="1.5"/>
              </g>
              <g id="Grupo_1191686" data-name="Grupo 1191686">
                <rect id="Rectángulo_412040" data-name="Rectángulo 412040" width="12.077" height="12.078" rx="1.481" transform="translate(439.821 206.904) rotate(180)" fill="#303030" stroke="#303030" stroke-linecap="round" stroke-linejoin="round" stroke-width="1.5"/>
                <rect id="Rectángulo_412041" data-name="Rectángulo 412041" width="12.077" height="12.078" rx="1.481" transform="translate(438.848 206.904) rotate(180)" fill="#fff" stroke="#303030" stroke-linecap="round" stroke-linejoin="round" stroke-width="1.5"/>
              </g>
              <g id="Grupo_1191687" data-name="Grupo 1191687">
                <rect id="Rectángulo_412042" data-name="Rectángulo 412042" width="12.078" height="12.078" rx="1.481" transform="translate(421.885 206.904) rotate(180)" fill="#303030" stroke="#303030" stroke-linecap="round" stroke-linejoin="round" stroke-width="1.5"/>
                <rect id="Rectángulo_412043" data-name="Rectángulo 412043" width="12.078" height="12.078" rx="1.481" transform="translate(420.912 206.904) rotate(180)" fill="#fff" stroke="#303030" stroke-linecap="round" stroke-linejoin="round" stroke-width="1.5"/>
              </g>
              <g id="Grupo_1191688" data-name="Grupo 1191688">
                <rect id="Rectángulo_412044" data-name="Rectángulo 412044" width="12.078" height="12.078" rx="1.481" transform="translate(403.948 206.904) rotate(180)" fill="#303030" stroke="#303030" stroke-linecap="round" stroke-linejoin="round" stroke-width="1.5"/>
                <rect id="Rectángulo_412045" data-name="Rectángulo 412045" width="12.078" height="12.078" rx="1.481" transform="translate(402.975 206.904) rotate(180)" fill="#ff95fb" stroke="#303030" stroke-linecap="round" stroke-linejoin="round" stroke-width="1.5"/>
              </g>
            </g>
            <g id="Grupo_1191694" data-name="Grupo 1191694">
              <g id="Grupo_1191690" data-name="Grupo 1191690">
                <rect id="Rectángulo_412046" data-name="Rectángulo 412046" width="12.077" height="12.077" rx="1.481" transform="translate(457.758 223.928) rotate(180)" fill="#303030" stroke="#303030" stroke-linecap="round" stroke-linejoin="round" stroke-width="1.5"/>
                <rect id="Rectángulo_412047" data-name="Rectángulo 412047" width="12.077" height="12.077" rx="1.481" transform="translate(456.785 223.928) rotate(180)" fill="#fff" stroke="#303030" stroke-linecap="round" stroke-linejoin="round" stroke-width="1.5"/>
              </g>
              <g id="Grupo_1191691" data-name="Grupo 1191691">
                <rect id="Rectángulo_412048" data-name="Rectángulo 412048" width="12.077" height="12.077" rx="1.481" transform="translate(439.821 223.928) rotate(180)" fill="#303030" stroke="#303030" stroke-linecap="round" stroke-linejoin="round" stroke-width="1.5"/>
                <rect id="Rectángulo_412049" data-name="Rectángulo 412049" width="12.077" height="12.077" rx="1.481" transform="translate(438.848 223.928) rotate(180)" fill="#fff" stroke="#303030" stroke-linecap="round" stroke-linejoin="round" stroke-width="1.5"/>
              </g>
              <g id="Grupo_1191692" data-name="Grupo 1191692">
                <rect id="Rectángulo_412050" data-name="Rectángulo 412050" width="12.078" height="12.077" rx="1.481" transform="translate(421.885 223.928) rotate(180)" fill="#303030" stroke="#303030" stroke-linecap="round" stroke-linejoin="round" stroke-width="1.5"/>
                <rect id="Rectángulo_412051" data-name="Rectángulo 412051" width="12.078" height="12.077" rx="1.481" transform="translate(420.912 223.928) rotate(180)" fill="#fff" stroke="#303030" stroke-linecap="round" stroke-linejoin="round" stroke-width="1.5"/>
              </g>
              <g id="Grupo_1191693" data-name="Grupo 1191693">
                <rect id="Rectángulo_412052" data-name="Rectángulo 412052" width="12.078" height="12.077" rx="1.481" transform="translate(403.948 223.928) rotate(180)" fill="#303030" stroke="#303030" stroke-linecap="round" stroke-linejoin="round" stroke-width="1.5"/>
                <rect id="Rectángulo_412053" data-name="Rectángulo 412053" width="12.078" height="12.077" rx="1.481" transform="translate(402.975 223.928) rotate(180)" fill="#ff95fb" stroke="#303030" stroke-linecap="round" stroke-linejoin="round" stroke-width="1.5"/>
              </g>
            </g>
            <g id="Grupo_1191699" data-name="Grupo 1191699">
              <g id="Grupo_1191695" data-name="Grupo 1191695">
                <rect id="Rectángulo_412054" data-name="Rectángulo 412054" width="12.077" height="12.077" rx="1.481" transform="translate(457.758 240.952) rotate(180)" fill="#303030" stroke="#303030" stroke-linecap="round" stroke-linejoin="round" stroke-width="1.5"/>
                <rect id="Rectángulo_412055" data-name="Rectángulo 412055" width="12.077" height="12.077" rx="1.481" transform="translate(456.785 240.952) rotate(180)" fill="#fff" stroke="#303030" stroke-linecap="round" stroke-linejoin="round" stroke-width="1.5"/>
              </g>
              <g id="Grupo_1191696" data-name="Grupo 1191696">
                <rect id="Rectángulo_412056" data-name="Rectángulo 412056" width="12.077" height="12.077" rx="1.481" transform="translate(439.821 240.952) rotate(180)" fill="#303030" stroke="#303030" stroke-linecap="round" stroke-linejoin="round" stroke-width="1.5"/>
                <rect id="Rectángulo_412057" data-name="Rectángulo 412057" width="12.077" height="12.077" rx="1.481" transform="translate(438.848 240.952) rotate(180)" fill="#fff" stroke="#303030" stroke-linecap="round" stroke-linejoin="round" stroke-width="1.5"/>
              </g>
              <g id="Grupo_1191697" data-name="Grupo 1191697">
                <rect id="Rectángulo_412058" data-name="Rectángulo 412058" width="12.078" height="12.077" rx="1.481" transform="translate(421.885 240.952) rotate(180)" fill="#303030" stroke="#303030" stroke-linecap="round" stroke-linejoin="round" stroke-width="1.5"/>
                <rect id="Rectángulo_412059" data-name="Rectángulo 412059" width="12.078" height="12.077" rx="1.481" transform="translate(420.912 240.952) rotate(180)" fill="#fff" stroke="#303030" stroke-linecap="round" stroke-linejoin="round" stroke-width="1.5"/>
              </g>
              <g id="Grupo_1191698" data-name="Grupo 1191698">
                <rect id="Rectángulo_412060" data-name="Rectángulo 412060" width="12.078" height="12.077" rx="1.481" transform="translate(403.948 240.952) rotate(180)" fill="#303030" stroke="#303030" stroke-linecap="round" stroke-linejoin="round" stroke-width="1.5"/>
                <rect id="Rectángulo_412061" data-name="Rectángulo 412061" width="12.078" height="12.077" rx="1.481" transform="translate(402.975 240.952) rotate(180)" fill="#ff95fb" stroke="#303030" stroke-linecap="round" stroke-linejoin="round" stroke-width="1.5"/>
              </g>
            </g>
            <g id="Grupo_1191704" data-name="Grupo 1191704">
              <g id="Grupo_1191700" data-name="Grupo 1191700">
                <rect id="Rectángulo_412062" data-name="Rectángulo 412062" width="12.077" height="12.078" rx="1.481" transform="translate(457.758 257.975) rotate(180)" fill="#303030" stroke="#303030" stroke-linecap="round" stroke-linejoin="round" stroke-width="1.5"/>
                <rect id="Rectángulo_412063" data-name="Rectángulo 412063" width="12.077" height="12.078" rx="1.481" transform="translate(456.785 257.975) rotate(180)" fill="#ff95fb" stroke="#303030" stroke-linecap="round" stroke-linejoin="round" stroke-width="1.5"/>
              </g>
              <g id="Grupo_1191701" data-name="Grupo 1191701">
                <rect id="Rectángulo_412064" data-name="Rectángulo 412064" width="12.077" height="12.078" rx="1.481" transform="translate(439.821 257.975) rotate(180)" fill="#303030" stroke="#303030" stroke-linecap="round" stroke-linejoin="round" stroke-width="1.5"/>
                <rect id="Rectángulo_412065" data-name="Rectángulo 412065" width="12.077" height="12.078" rx="1.481" transform="translate(438.848 257.975) rotate(180)" fill="#fff" stroke="#303030" stroke-linecap="round" stroke-linejoin="round" stroke-width="1.5"/>
              </g>
              <g id="Grupo_1191702" data-name="Grupo 1191702">
                <rect id="Rectángulo_412066" data-name="Rectángulo 412066" width="12.078" height="12.078" rx="1.481" transform="translate(421.885 257.975) rotate(180)" fill="#303030" stroke="#303030" stroke-linecap="round" stroke-linejoin="round" stroke-width="1.5"/>
                <rect id="Rectángulo_412067" data-name="Rectángulo 412067" width="12.078" height="12.078" rx="1.481" transform="translate(420.912 257.975) rotate(180)" fill="#ff95fb" stroke="#303030" stroke-linecap="round" stroke-linejoin="round" stroke-width="1.5"/>
              </g>
              <g id="Grupo_1191703" data-name="Grupo 1191703">
                <rect id="Rectángulo_412068" data-name="Rectángulo 412068" width="12.078" height="12.078" rx="1.481" transform="translate(403.948 257.975) rotate(180)" fill="#303030" stroke="#303030" stroke-linecap="round" stroke-linejoin="round" stroke-width="1.5"/>
                <rect id="Rectángulo_412069" data-name="Rectángulo 412069" width="12.078" height="12.078" rx="1.481" transform="translate(402.975 257.975) rotate(180)" fill="#ff95fb" stroke="#303030" stroke-linecap="round" stroke-linejoin="round" stroke-width="1.5"/>
              </g>
            </g>
          </g>
        </g>
      </g>
    </g>
    <g id="Grupo_1191676" data-name="Grupo 1191676" transform="translate(186.193 914.208)">
      <g id="Character" transform="translate(29.617 87.792)">
        <g id="Character-2" data-name="Character">
          <g id="Legs" transform="translate(0 132.912)">
            <g id="Grupo_1191654" data-name="Grupo 1191654" transform="translate(34.119)">
              <path id="Trazado_1279660" data-name="Trazado 1279660" d="M177.962,294.561c-.568-15.673-6.622-15.018-38.336-13.514s-34.751-3.625-48.495,19.026l-11.247,2.72s17.745,50.561,69.14,51.861S177.962,294.561,177.962,294.561Z" transform="translate(-79.885 -280.318)" fill="#f55571"/>
              <path id="Trazado_1279661" data-name="Trazado 1279661" d="M179.69,280.883c3.584,20.707-3.586,54.232-8.868,65.069" transform="translate(-108.043 -280.493)" fill="none" stroke="#303030" stroke-linecap="round" stroke-linejoin="round" stroke-width="1.5"/>
            </g>
            <g id="Leg" transform="translate(48.47 14.159)">
              <g id="Grupo_1191659" data-name="Grupo 1191659" transform="translate(0 10.879)">
                <path id="Trazado_1279662" data-name="Trazado 1279662" d="M147.968,396.575c6.407-4.228,15.554-9.77,25.5-15.181s23-8.15,38.423-15.5,21.345-10.861,25.338-19.267c3.166-6.667,4.919-19.195.307-24.263-12.988-14.269-34.9,1.412-44.078,9.323-6.426,5.542-11.343,12.425-16.937,18.74-5.673,6.4-13.848,10.806-21.579,14.105-4.574,1.952-9.932,2.851-14.573,4.634-6.054,2.325-12.635,2.4-18.844,4.187a16.892,16.892,0,0,0-4.569,1.968,11.857,11.857,0,0,0-4.929,6.991,29.309,29.309,0,0,0-1.167,9.308,13.326,13.326,0,0,0,1.115,4.561,16.3,16.3,0,0,0,15.363,9.115C134.952,405.043,141.8,400.643,147.968,396.575Z" transform="translate(-103.808 -316.587)" fill="#d48983"/>
                <g id="Grupo_1191655" data-name="Grupo 1191655" transform="translate(7.787 33.119)">
                  <path id="Trazado_1279663" data-name="Trazado 1279663" d="M174.18,368.608c.035,4.035,2.988,16.861,12.395,22.018L192.152,389s.135,2.8-3.817,4.712-4.7.478-8.7,2.83c-3.542,2.083-17.658,9.5-21.057,11.416a165.988,165.988,0,0,1-17.218,8.415c-5.214,2.185-10.841,4.513-16.624,3.936-7.3-.728-10.939-6.893-12.255-13.51-1.061-5.333-.781-11.609,3.289-15.215,3.508-3.108,5.883-4.289,12.183-4.94,4.206-.436,9.125-.978,12.841-2.267a100.4,100.4,0,0,0,17.017-7.5,36.981,36.981,0,0,0,12.035-9.281c2.7-3.186,5.405-3.6,6.442-2.438Z" transform="translate(-111.952 -364.56)" fill="#fff" stroke="#303030" stroke-linecap="round" stroke-linejoin="round" stroke-width="1.5"/>
                </g>
                <g id="Grupo_1191658" data-name="Grupo 1191658" transform="translate(0 38.375)">
                  <g id="Grupo_1191656" data-name="Grupo 1191656">
                    <path id="Trazado_1279664" data-name="Trazado 1279664" d="M108.6,412.917c-2.266-10.25.74-21.034,9.892-23.821s10.28-1.062,19.224-4.438c4.552-1.718,7.476-3.326,10.141-4.264,2.572-.906,4.764-1.947,8.045-3.325s4.714-2.886,7.619-4.563c1.789-1.033,2.267.561,2.609,1.718,1.857,6.29,5.658,19.586,14.8,23.342,2.781,1.142,3.516,3.8,2.508,4.317-7.834,4.021-15.463,7.924-24.872,12.368-9.064,4.282-22.8,10.959-32.024,11.341S110.27,423.154,108.6,412.917Z" transform="translate(-102.902 -372.173)" fill="#303030"/>
                    <path id="Trazado_1279665" data-name="Trazado 1279665" d="M110.921,434.055c7.965,2.627,13.949-.341,21.341-2.949a29.126,29.126,0,0,1-7.952,1.709c-9.226.387-16.27-2.427-17.941-12.667-2.271-10.256.734-21.037,9.887-23.821,1.054-.326,2.011-.583,2.878-.81-5.661.3-9.8,1.7-13.565,4.558-3.872,2.953-4.875,10.367-4.9,15.287S102.961,431.414,110.921,434.055Z" transform="translate(-100.673 -379.402)" fill="#fff" stroke="#303030" stroke-linecap="round" stroke-linejoin="round" stroke-width="1.5"/>
                  </g>
                  <g id="Grupo_1191657" data-name="Grupo 1191657" transform="translate(31.589 10.256)">
                    <path id="Trazado_1279666" data-name="Trazado 1279666" d="M146.431,404.931c3.448,3.365,6.494,12.163,6.9,17" transform="translate(-146.431 -392.572)" fill="none" stroke="#fff" stroke-linecap="round" stroke-linejoin="round" stroke-width="1.5"/>
                    <path id="Trazado_1279667" data-name="Trazado 1279667" d="M158.675,398.814c2.418,4.185,6.376,12.411,7.665,16.761" transform="translate(-150.222 -390.678)" fill="none" stroke="#fff" stroke-linecap="round" stroke-linejoin="round" stroke-width="1.5"/>
                    <path id="Trazado_1279668" data-name="Trazado 1279668" d="M169.985,393.047c2.073,4.374,6.366,12.734,8.543,16.595" transform="translate(-153.724 -388.892)" fill="none" stroke="#fff" stroke-linecap="round" stroke-linejoin="round" stroke-width="1.5"/>
                    <path id="Trazado_1279669" data-name="Trazado 1279669" d="M181.6,387.029c1.729,4.563,6.138,12.908,9.2,16.279" transform="translate(-157.32 -387.029)" fill="none" stroke="#fff" stroke-linecap="round" stroke-linejoin="round" stroke-width="1.5"/>
                  </g>
                </g>
              </g>
              <path id="Trazado_1279670" data-name="Trazado 1279670" d="M286.133,315.223c-10.685-16.094-48-18.212-81.96-8.753v41.8s1.888,14.684,18.879,24.543c0,0,24.09-7.624,37.529-13.63C285.851,347.886,297.392,332.181,286.133,315.223Z" transform="translate(-132.721 -300.828)" fill="#f55571"/>
              <path id="Trazado_1279671" data-name="Trazado 1279671" d="M236.873,324.147c-8.81.951-14.811,9.037-18.964,14.153-5.153,6.346-8.971,10.932-12.766,16.307" transform="translate(-133.021 -308.049)" fill="none" stroke="#303030" stroke-linecap="round" stroke-linejoin="round" stroke-width="1.5"/>
            </g>
            <g id="Leg-2" data-name="Leg" transform="translate(0 16.354)">
              <path id="Trazado_1279672" data-name="Trazado 1279672" d="M45.709,334.738C65,319,98.037,333.851,110.675,338.286s54.016,21.463,60.668,23.236a253.43,253.43,0,0,0,32.236,5.367c12.428.9,35.768-2.773,41.787,3.979,4.426,4.966-1.565,16.626-8.661,21.726s-14.826,5.284-30.243,2.011c-8.3-1.762-19.955-3.769-32.372-5.321s-31.929-2.217-50.776-3.548S72.7,381.71,53.408,371.164,32.2,345.763,45.709,334.738Z" transform="translate(-32.485 -311.336)" fill="#d48983"/>
              <path id="Trazado_1279673" data-name="Trazado 1279673" d="M67.831,304.007c-10.74,5.588-38.13,16.351-37.352,38.853.491,14.19,9.744,21.623,21.891,26.6,11.637,4.765,29.755,7.941,44.892,9.556,11.84,1.263,27.944,1.736,27.944,1.736s5.052-6.315,8.841-17.84a39.359,39.359,0,0,0,.2-22.357C116.81,330.53,67.831,304.007,67.831,304.007Z" transform="translate(-30.462 -304.007)" fill="#f55571"/>
              <g id="Grupo_1191660" data-name="Grupo 1191660" transform="translate(86.751 32.012)">
                <path id="Trazado_1279674" data-name="Trazado 1279674" d="M168.109,352.165l3.614,1.939s2.306,12.4,0,21.338c-3.236,12.548-9.851,19.59-9.851,19.59l-5.749-.243s.151,2.75,3.713,3.627,5.87-.822,12.912-.877,8.947.293,11.633-.164c4.7-.8,7.08-4.812,10.23-15.222s1.37-19.86-1.507-23.01-7.3-1.89-9.907-3.4S173.929,347.1,168.109,352.165Z" transform="translate(-156.123 -350.377)" fill="#f55571"/>
                <path id="Trazado_1279675" data-name="Trazado 1279675" d="M180.2,366.137a9.8,9.8,0,0,1,8.4,1.425c1.634,1.071,3.026,2.614,4.907,3.141,1.777.5,2.806,0,4.651.063a7.291,7.291,0,0,1,5.9,2.886" transform="translate(-163.58 -355.133)" fill="none" stroke="#303030" stroke-linecap="round" stroke-linejoin="round" stroke-width="1.5"/>
                <path id="Trazado_1279676" data-name="Trazado 1279676" d="M193.718,386.246c3.463-6.039,5.515-19.631,1.121-28.091" transform="translate(-167.764 -352.785)" fill="none" stroke="#303030" stroke-linecap="round" stroke-linejoin="round" stroke-width="1.5"/>
                <path id="Trazado_1279677" data-name="Trazado 1279677" d="M198.481,359.143c-2.876-3.15-7.3-1.89-9.907-3.4s-9.269-8.643-15.089-3.582" transform="translate(-161.499 -350.377)" fill="none" stroke="#303030" stroke-linecap="round" stroke-linejoin="round" stroke-width="1.5"/>
              </g>
              <path id="Trazado_1279678" data-name="Trazado 1279678" d="M100.672,339.184c8.217-2.717,17.205-2.344,25.636-.388s24.631,9.3,24.631,9.3l3.614,1.939s2.306,12.4,0,21.338c-3.236,12.548-9.851,19.59-9.851,19.59" transform="translate(-52.202 -314.296)" fill="none" stroke="#303030" stroke-linecap="round" stroke-linejoin="round" stroke-width="1.5"/>
              <g id="Grupo_1191661" data-name="Grupo 1191661" transform="translate(136.454 47.985)">
                <path id="Trazado_1279679" data-name="Trazado 1279679" d="M236.174,377.683c1.413,3.865,2.854,17.614-4.277,25.911l-3.775-.481s-.275,3.223,4.183,3.629,6.857.416,11.682,1c4.16.5,16.4,1.578,20.326,2.184a169.323,169.323,0,0,0,19.454,1.858c5.762.215,11.969.419,17.282-2.206,6.7-3.312,7.971-10.5,6.854-17.292-.9-5.472-3.419-11.363-8.6-13.345-4.464-1.709-7.155-1.984-13.4-.347-4.171,1.094-9.062,2.34-13.073,2.442a102.325,102.325,0,0,1-18.935-1.057c-6.244-.79-12.9-3.483-17.559-5.548s-5.242-.2-5.815,1.285Z" transform="translate(-228.119 -373.515)" fill="#fff" stroke="#303030" stroke-linecap="round" stroke-linejoin="round" stroke-width="1.5"/>
              </g>
              <g id="Grupo_1191664" data-name="Grupo 1191664" transform="translate(145.065 49.035)">
                <g id="Grupo_1191662" data-name="Grupo 1191662">
                  <path id="Trazado_1279680" data-name="Trazado 1279680" d="M315.618,395.925c-1.514-10.6-8.251-19.814-17.987-19.192s-10.195,2.674-19.943,2.659c-4.962-.008-8.329-.493-11.21-.433-2.78.058-5.245-.15-8.872-.289s-5.535-1.065-8.91-1.623c-2.078-.344-1.963,1.348-1.874,2.575.484,6.67,1.254,20.349-5.757,27.591a1.417,1.417,0,0,0,.59,2.448c9.592,1.785,16.749,2.467,25.736,3.394,10.168,1.05,26.7,4.349,35.647,1.4S317.69,406.3,315.618,395.925Z" transform="translate(-240.593 -375.551)" fill="#303030"/>
                  <path id="Trazado_1279681" data-name="Trazado 1279681" d="M340.479,410.321c-6.661,5.365-13.439,4.678-21.43,4.84a29.712,29.712,0,0,0,8.2-1.221c8.946-2.939,14.661-8.152,12.584-18.526-1.511-10.606-8.246-19.82-17.982-19.194-1.123.067-2.129.164-3.038.26,5.51-1.749,9.965-1.894,14.584-.515,4.756,1.43,8.373,8.148,10.158,12.837S347.131,404.945,340.479,410.321Z" transform="translate(-264.814 -375.035)" fill="#fff" stroke="#303030" stroke-linecap="round" stroke-linejoin="round" stroke-width="1.5"/>
                </g>
                <g id="Grupo_1191663" data-name="Grupo 1191663" transform="translate(13.654 9.535)">
                  <path id="Trazado_1279682" data-name="Trazado 1279682" d="M304.471,393.322c-1.2,4.806-1.406,12.4-.721,17.967" transform="translate(-273.682 -390.232)" fill="none" stroke="#fff" stroke-linecap="round" stroke-linejoin="round" stroke-width="1.5"/>
                  <path id="Trazado_1279683" data-name="Trazado 1279683" d="M289.823,391.874a97,97,0,0,0-1.013,18.011" transform="translate(-269.146 -389.784)" fill="none" stroke="#fff" stroke-linecap="round" stroke-linejoin="round" stroke-width="1.5"/>
                  <path id="Trazado_1279684" data-name="Trazado 1279684" d="M276.6,390.425c-.41,4.919-1.22,13.7-1.912,18.167" transform="translate(-264.804 -389.335)" fill="none" stroke="#fff" stroke-linecap="round" stroke-linejoin="round" stroke-width="1.5"/>
                  <path id="Trazado_1279685" data-name="Trazado 1279685" d="M263.025,388.846c-.013,4.976-.939,13.784-2.654,18.1" transform="translate(-260.371 -388.846)" fill="none" stroke="#fff" stroke-linecap="round" stroke-linejoin="round" stroke-width="1.5"/>
                </g>
              </g>
            </g>
          </g>
          <g id="Head" transform="translate(59.332)">
            <g id="Grupo_1191665" data-name="Grupo 1191665" transform="translate(7.383)">
              <path id="Trazado_1279686" data-name="Trazado 1279686" d="M178.821,116.429c-.846,13.888-12.337,22.612-26.878,21.726s-25.643-12.863-24.8-26.751,13.318-22.7,27.861-23.543C175.945,86.656,190.307,101.135,178.821,116.429Z" transform="translate(-127.101 -87.792)" fill="#303030"/>
            </g>
            <path id="Trazado_1279687" data-name="Trazado 1279687" d="M134.26,95.084c-5.068,1.832-8.284,5.66-10.006,10.75-1.965,5.807-.371,11.615-1.321,17.475-.223,1.375-.44,2.773-.684,4.161-2.937,14.023.247,25.991,9.916,36.633,4.657,5.28,12.89,7.6,19.579,8.968,6.917,1.419,16.044,1.689,22.4-1.85,14.8-8.574,12.784-18.975,5.555-32.3-1.085-2.291-3.619-5.259-3.378-9.911.371-7.164,1.673-14.556-.839-21.427C167.962,89.262,151.156,88.68,134.26,95.084Z" transform="translate(-117.89 -88.905)" fill="#303030"/>
            <path id="Trazado_1279688" data-name="Trazado 1279688" d="M199.5,132.074a26,26,0,0,0,1.348,8.7,60.655,60.655,0,0,0,4.861,9.909,36.332,36.332,0,0,1,4.235,10.162,14.13,14.13,0,0,1-1.645,10.639" transform="translate(-142.133 -101.503)" fill="none" stroke="#303030" stroke-linecap="round" stroke-linejoin="round" stroke-width="1.5"/>
            <path id="Trazado_1279689" data-name="Trazado 1279689" d="M175.594,120.266a34.274,34.274,0,0,0-2.96-12.4C165.286,94.013,151.1,95.875,145.1,98.853c-.786,17.369-13.089,20.543-13.089,20.543,1.087,1.424,1.172,4.185.327,6.175a11.64,11.64,0,0,0-7.753-5.3c-3.238-.46-6.866,1.2-7.889,4.168-1.012,2.929.785,6.3,3.573,7.883a11.821,11.821,0,0,0,10.395.327l0,0a16.507,16.507,0,0,0,6.491,7.675l-2.917,10.7-7.1,1.76s7.7,19.706,26.152,18.257S164,153.612,164,153.612l-7.463-1.488-.336-6.906C163.252,144.981,176.972,141.192,175.594,120.266Z" transform="translate(-116.407 -90.563)" fill="#d48983"/>
            <g id="Grupo_1191672" data-name="Grupo 1191672" transform="translate(4.806 16.946)">
              <path id="Trazado_1279690" data-name="Trazado 1279690" d="M137.058,148.788a2.154,2.154,0,1,1-1.894-2.385A2.153,2.153,0,0,1,137.058,148.788Z" transform="translate(-126.278 -122.882)" fill="#fff" stroke="#303030" stroke-linecap="round" stroke-linejoin="round" stroke-width="1.5"/>
              <g id="Grupo_1191666" data-name="Grupo 1191666" transform="translate(0 16.582)">
                <path id="Trazado_1279691" data-name="Trazado 1279691" d="M123.369,136.8a5.979,5.979,0,0,1,4.468-.04,5.7,5.7,0,0,1,3.6,4.05" transform="translate(-123.369 -136.358)" fill="none" stroke="#303030" stroke-linecap="round" stroke-linejoin="round" stroke-width="1.5"/>
                <path id="Trazado_1279692" data-name="Trazado 1279692" d="M127.689,140.051a4.414,4.414,0,0,1,4.4.05" transform="translate(-124.707 -137.324)" fill="none" stroke="#303030" stroke-linecap="round" stroke-linejoin="round" stroke-width="1.5"/>
              </g>
              <g id="Grupo_1191671" data-name="Grupo 1191671" transform="translate(19.099)">
                <path id="Trazado_1279693" data-name="Trazado 1279693" d="M156.34,163.824a29.114,29.114,0,0,0,12.227,2.166l.113,2.315S158.9,168.332,156.34,163.824Z" transform="translate(-152.677 -128.281)" fill="#303030"/>
                <path id="Trazado_1279694" data-name="Trazado 1279694" d="M173.094,117.345a98.669,98.669,0,0,1,4.528,9.764c.918,2.2.242,4.1-3.373,5.225" transform="translate(-157.865 -113.889)" fill="none" stroke="#303030" stroke-linecap="round" stroke-linejoin="round" stroke-width="1.5"/>
                <g id="Grupo_1191668" data-name="Grupo 1191668" transform="translate(20.743 1.163)">
                  <g id="Grupo_1191667" data-name="Grupo 1191667" transform="translate(0 4.452)">
                    <path id="Trazado_1279695" data-name="Trazado 1279695" d="M181.087,126.205a7.478,7.478,0,0,1,4.787-3.01c2.131-.214,5.225.881,5.661,3C190.8,129.211,184.053,130.251,181.087,126.205Z" transform="translate(-181.082 -121.307)" fill="#fff"/>
                    <path id="Trazado_1279696" data-name="Trazado 1279696" d="M181.085,125.37c-.15-2.5,3.386-5.419,7.408-4.819,3.452.516,5.385,2.755,3.961,3.8s-1.265-.172-2.83-1.034C186.669,121.686,184.37,122.289,181.085,125.37Z" transform="translate(-181.08 -120.472)" fill="#ad6163"/>
                    <path id="Trazado_1279697" data-name="Trazado 1279697" d="M191.526,127.662a2.972,2.972,0,0,1-4.1.794,2.923,2.923,0,0,1-.973-4.037,2.972,2.972,0,0,1,4.1-.795A2.924,2.924,0,0,1,191.526,127.662Z" transform="translate(-182.605 -121.295)" fill="#303030"/>
                    <path id="Trazado_1279698" data-name="Trazado 1279698" d="M186.1,124.844l2.736,1.727-3.332-.179Z" transform="translate(-182.449 -121.826)" fill="#fff"/>
                    <path id="Trazado_1279699" data-name="Trazado 1279699" d="M191.535,126.243c-.621-2.973-6.067-4.685-10.448.014" transform="translate(-181.082 -121.36)" fill="none" stroke="#303030" stroke-linecap="round" stroke-linejoin="round" stroke-width="1.5"/>
                    <path id="Trazado_1279700" data-name="Trazado 1279700" d="M198.181,124.771a1.777,1.777,0,0,1-1.64,1.06" transform="translate(-185.868 -121.803)" fill="none" stroke="#303030" stroke-linecap="round" stroke-linejoin="round" stroke-width="1.5"/>
                  </g>
                  <path id="Trazado_1279701" data-name="Trazado 1279701" d="M183.6,114.451a9.976,9.976,0,0,1,9,1.651" transform="translate(-181.861 -114.024)" fill="none" stroke="#303030" stroke-linecap="round" stroke-linejoin="round" stroke-width="1.5"/>
                </g>
                <g id="Grupo_1191670" data-name="Grupo 1191670">
                  <path id="Trazado_1279702" data-name="Trazado 1279702" d="M163.43,123.739c.158-2.581-2.672-5.366-6.708-4.861-3.464.434-5.684,2.68-4.285,3.753s1.268-.142,2.853-.966C158.284,120.108,161.782,120.847,163.43,123.739Z" transform="translate(-151.337 -114.345)" fill="#ad6163"/>
                  <g id="Grupo_1191669" data-name="Grupo 1191669" transform="translate(1.644 6.49)">
                    <path id="Trazado_1279703" data-name="Trazado 1279703" d="M153.416,124.673a6.516,6.516,0,0,1,4.82-2.861c2.13-.215,5.229.981,5.628,2.846C163.134,127.679,156.383,128.72,153.416,124.673Z" transform="translate(-153.416 -121.755)" fill="#fff"/>
                    <path id="Trazado_1279704" data-name="Trazado 1279704" d="M163.858,126.38a2.971,2.971,0,0,1-4.1.838,2.923,2.923,0,0,1-1.016-4.025,2.972,2.972,0,0,1,4.1-.839A2.924,2.924,0,0,1,163.858,126.38Z" transform="translate(-154.934 -121.783)" fill="#303030"/>
                    <path id="Trazado_1279705" data-name="Trazado 1279705" d="M158.391,123.632l2.754,1.7-3.333-.144Z" transform="translate(-154.777 -122.326)" fill="#fff"/>
                    <path id="Trazado_1279706" data-name="Trazado 1279706" d="M163.865,124.644c-2.242-3.261-7.684-4.445-10.449.014" transform="translate(-153.416 -121.74)" fill="none" stroke="#303030" stroke-linecap="round" stroke-linejoin="round" stroke-width="1.5"/>
                  </g>
                  <path id="Trazado_1279707" data-name="Trazado 1279707" d="M151.034,122.875a2.285,2.285,0,0,0,2.074,1.15" transform="translate(-151.034 -115.601)" fill="none" stroke="#303030" stroke-linecap="round" stroke-linejoin="round" stroke-width="1.5"/>
                  <path id="Trazado_1279708" data-name="Trazado 1279708" d="M162.377,113.048a10.043,10.043,0,0,0-10.273,1.785" transform="translate(-151.365 -112.339)" fill="none" stroke="#303030" stroke-linecap="round" stroke-linejoin="round" stroke-width="1.5"/>
                </g>
                <path id="Trazado_1279709" data-name="Trazado 1279709" d="M164.372,142.449a11.883,11.883,0,0,0,11.1,1.687" transform="translate(-155.164 -121.662)" fill="none" stroke="#303030" stroke-linecap="round" stroke-linejoin="round" stroke-width="1.5"/>
                <path id="Trazado_1279710" data-name="Trazado 1279710" d="M167.616,148.319a6.7,6.7,0,0,0,4.8.909" transform="translate(-156.168 -123.48)" fill="none" stroke="#303030" stroke-linecap="round" stroke-linejoin="round" stroke-width="1.5"/>
              </g>
            </g>
          </g>
          <g id="Arm" transform="translate(122.434 67.021)">
            <g id="Grupo_1191673" data-name="Grupo 1191673">
              <path id="Trazado_1279711" data-name="Trazado 1279711" d="M207.811,184.874s7.846,1.618,13.477,5.566c5.069,3.554,9.178,9.489,14.553,15.675,5.27,6.067,10.33,11.144,10.33,11.144s14.471.255,20.56.035c1.1-.055,2.1-.1,2.916-.139,6.079-.552,8.223-1.842,9.449-4.048.748-1.346,1.118-2.925,1.814-4.316a32.482,32.482,0,0,1,2.525-4.165,78.865,78.865,0,0,1,6.222-7.461c.625-.687,1.689-1.231,2.473-.417,1.332,1.381.853,3.063.069,4.633-.521,1.045-1.178,2.022-1.632,3.1a2.514,2.514,0,0,0-.217,1.767c1.053,3.029,13.833-4.106,15.479-4.85,1.7-.77,4.036-1.673,5.889-.975,1.06.4,2.277,1.231,1.8,2.474,0,0,2.724-.7,3.81,1.205,1.022,1.794-.961,3.372-.961,3.372s2.253,2.275-3.023,6.011c-1.8,2.162-4.019,5.325-7.765,7.792-3.016,1.985-8.533,3.394-14.79,7.149-4.717,2.831-9.566,4.466-15.086,6.414-5.116,1.805-10.007,3.294-14.515,4.456-5.174,1.406-12.669,2.785-14.973,3.145-6.645,1.04-10.765-.273-15.879-4.125-3.983-3-22.524-21.053-22.524-21.053Z" transform="translate(-207.811 -184.874)" fill="#ad6163"/>
              <path id="Trazado_1279712" data-name="Trazado 1279712" d="M324.8,228.852c-5.3-.436-7.918,1.748-10.048,4.07" transform="translate(-240.925 -198.474)" fill="none" stroke="#303030" stroke-linecap="round" stroke-linejoin="round" stroke-width="1.5"/>
              <path id="Trazado_1279713" data-name="Trazado 1279713" d="M332.386,229.536s4.157-2.929,6.184-4.3c1.013-.686,2.708-1.247,3.809-.713,1.255.61.492,1.655-.092,2.316a36.177,36.177,0,0,1-7.678,6.624,89.177,89.177,0,0,1-12.712,6.855,181.419,181.419,0,0,1-18.662,7.428" transform="translate(-237.358 -197.085)" fill="none" stroke="#303030" stroke-linecap="round" stroke-linejoin="round" stroke-width="1.5"/>
              <path id="Trazado_1279714" data-name="Trazado 1279714" d="M357.933,217.413c-1.855-1.4-6.25.624-15.875,6.3" transform="translate(-249.379 -194.818)" fill="none" stroke="#303030" stroke-linecap="round" stroke-linejoin="round" stroke-width="1.5"/>
              <path id="Trazado_1279715" data-name="Trazado 1279715" d="M353.706,210.8c-3.743.635-15.12,7.336-15.12,7.336" transform="translate(-248.304 -192.902)" fill="none" stroke="#303030" stroke-linecap="round" stroke-linejoin="round" stroke-width="1.5"/>
            </g>
            <path id="Trazado_1279716" data-name="Trazado 1279716" d="M252.272,236.853a11.4,11.4,0,0,1,7.666-5.069" transform="translate(-221.578 -199.399)" fill="none" stroke="#303030" stroke-linecap="round" stroke-linejoin="round" stroke-width="1.5"/>
          </g>
          <path id="Chest" d="M177.48,244.175s.862-6.438,2.349-20.071c1.794-16.443.971-31.589-10.744-41.932L152.369,178.1s5.572,10.032-7.179,11.2-26.46-12.339-26.46-12.339a86.22,86.22,0,0,0-17.78,4.593c-8.31,4.877-7.959,20.591-6.144,33.85,2.087,15.243,2.8,27.348,2.8,27.348l-14.084,20.72s1.473,6.73,7.174,9.367c8.3,3.836,13.055-1.28,18.891.356s6.13,6.766,13.363,7.84c9,1.336,9.75-3.489,18.708-3.385s11.025,6.03,18.831,4.9,5.846-5.345,12.617-9.176,13.443-.717,17.161-9.9Z" transform="translate(-46.893 -115.403)" fill="#fff" stroke="#303030" stroke-linecap="round" stroke-linejoin="round" stroke-width="1.5"/>
          <g id="Coin" transform="translate(128.037 50.239)">
            <g id="Grupo_1191674" data-name="Grupo 1191674" transform="translate(0 0)">
              <circle id="Elipse_12369" data-name="Elipse 12369" cx="27.187" cy="27.187" r="27.187" transform="translate(0 38.448) rotate(-45)" fill="#303030" stroke="#303030" stroke-linecap="round" stroke-linejoin="round" stroke-width="1.5"/>
              <circle id="Elipse_12370" data-name="Elipse 12370" cx="27.187" cy="27.187" r="27.187" transform="translate(7.742 56.066) rotate(-72.602)" fill="#ff95fb" stroke="#303030" stroke-linecap="round" stroke-linejoin="round" stroke-width="1.5"/>
              <circle id="Elipse_12371" data-name="Elipse 12371" cx="21.358" cy="21.358" r="21.358" transform="translate(13.331 48.3) rotate(-64.432)" fill="#00826f" stroke="#303030" stroke-linecap="round" stroke-linejoin="round" stroke-width="1.5"/>
              <path id="Trazado_1279717" data-name="Trazado 1279717" d="M288.236,205.142a21.355,21.355,0,0,1-20.067,22.571c-.567.033-1.131.045-1.69.03a21.356,21.356,0,0,1-2.49-42.505c.554-.08,1.115-.135,1.682-.168A21.355,21.355,0,0,1,288.236,205.142Z" transform="translate(-225.103 -168.14)" fill="#303030" stroke="#303030" stroke-linecap="round" stroke-linejoin="round" stroke-width="1.5"/>
              <path id="Trazado_1279718" data-name="Trazado 1279718" d="M284.874,205.431a21.356,21.356,0,0,1-18.4,22.4,21.356,21.356,0,0,1-2.49-42.505A21.356,21.356,0,0,1,284.874,205.431Z" transform="translate(-225.103 -168.232)" fill="#ff95fb" stroke="#303030" stroke-linecap="round" stroke-linejoin="round" stroke-width="1.5"/>
            </g>
            <path id="Trazado_1279719" data-name="Trazado 1279719" d="M276.6,208.393a6.827,6.827,0,0,0-2.338-1.515,9.359,9.359,0,0,0-2.611-.575q-1.349-.1-2.648-.067t-2.409.012a5.814,5.814,0,0,1-1.881-.3,1.741,1.741,0,0,1-1.071-1.079,1.485,1.485,0,0,1,.217-1.545,3.95,3.95,0,0,1,1.741-1.13,5.41,5.41,0,0,1,2.5-.332,6.014,6.014,0,0,1,.643.1,2.761,2.761,0,1,0,.9-5.443q-.45-.05-.919-.064a12.138,12.138,0,0,0-3.142.334l-1.174-3.118-4.161,1.566,1.223,3.25a9.626,9.626,0,0,0-1.651,1.32,7.7,7.7,0,0,0,.1,10.567,6.41,6.41,0,0,0,2.284,1.421,10.471,10.471,0,0,0,2.6.559,21.265,21.265,0,0,0,2.647.067q1.293-.049,2.4.01a6.023,6.023,0,0,1,1.912.382,1.919,1.919,0,0,1,1.119,1.156,1.742,1.742,0,0,1-.254,1.749,4.445,4.445,0,0,1-2.07,1.368,6.872,6.872,0,0,1-3.276.435,9.046,9.046,0,0,1-1.082-.2,2.768,2.768,0,0,0-3.23,1.54l-.067.153a2.721,2.721,0,0,0,1.841,3.748,10.757,10.757,0,0,0,1.933.267,12.246,12.246,0,0,0,3.845-.489l1.15,3.056,4.161-1.566-1.216-3.231A9.388,9.388,0,0,0,278,217.6a7.042,7.042,0,0,0,.358-6.369A7.6,7.6,0,0,0,276.6,208.393Z" transform="translate(-228.851 -170.816)" fill="#303030" stroke="#303030" stroke-linecap="round" stroke-linejoin="round" stroke-width="1.5"/>
            <path id="Trazado_1279720" data-name="Trazado 1279720" d="M280.149,207.058a6.817,6.817,0,0,0-2.338-1.515,9.335,9.335,0,0,0-2.611-.575q-1.349-.1-2.648-.068t-2.409.013a5.834,5.834,0,0,1-1.881-.3,1.744,1.744,0,0,1-1.071-1.079,1.485,1.485,0,0,1,.217-1.545,3.951,3.951,0,0,1,1.741-1.131,5.428,5.428,0,0,1,2.5-.332,6.427,6.427,0,0,1,.643.1,2.761,2.761,0,1,0,.9-5.442q-.45-.05-.919-.065a12.171,12.171,0,0,0-3.143.335l-1.174-3.118-4.161,1.566,1.224,3.25a9.653,9.653,0,0,0-1.651,1.319,7.705,7.705,0,0,0,.1,10.568,6.41,6.41,0,0,0,2.284,1.421,10.5,10.5,0,0,0,2.6.558,21.265,21.265,0,0,0,2.647.068q1.293-.05,2.4.01a5.985,5.985,0,0,1,1.912.382,1.918,1.918,0,0,1,1.119,1.156,1.742,1.742,0,0,1-.254,1.749,4.45,4.45,0,0,1-2.07,1.368,6.88,6.88,0,0,1-3.276.435,9.048,9.048,0,0,1-1.082-.2,2.769,2.769,0,0,0-3.229,1.541l-.067.153a2.721,2.721,0,0,0,1.841,3.748,10.69,10.69,0,0,0,1.933.266,12.207,12.207,0,0,0,3.845-.489l1.15,3.057,4.161-1.567-1.216-3.23a9.4,9.4,0,0,0,3.373-3.207,7.044,7.044,0,0,0,.358-6.369A7.6,7.6,0,0,0,280.149,207.058Z" transform="translate(-229.949 -170.403)" fill="#ff95fb" stroke="#303030" stroke-linecap="round" stroke-linejoin="round" stroke-width="1.5"/>
            <g id="Grupo_1191675" data-name="Grupo 1191675" transform="translate(16.71 13.147)">
              <path id="Trazado_1279721" data-name="Trazado 1279721" d="M274.938,180.455a.9.9,0,1,1-.953-.847A.9.9,0,0,1,274.938,180.455Z" transform="translate(-250.351 -179.607)" fill="#303030"/>
              <path id="Trazado_1279722" data-name="Trazado 1279722" d="M257.537,185.737a.9.9,0,1,1-1.249-.258A.9.9,0,0,1,257.537,185.737Z" transform="translate(-245.009 -181.379)" fill="#303030"/>
              <path id="Trazado_1279723" data-name="Trazado 1279723" d="M245.107,199.011a.9.9,0,1,1-1.21.4A.9.9,0,0,1,245.107,199.011Z" transform="translate(-241.268 -185.585)" fill="#303030"/>
              <path id="Trazado_1279724" data-name="Trazado 1279724" d="M240.98,216.721a.9.9,0,1,1-.847.953A.9.9,0,0,1,240.98,216.721Z" transform="translate(-240.132 -191.098)" fill="#303030"/>
              <path id="Trazado_1279725" data-name="Trazado 1279725" d="M246.262,234.123a.9.9,0,1,1-.257,1.249A.9.9,0,0,1,246.262,234.123Z" transform="translate(-241.904 -196.441)" fill="#303030"/>
              <path id="Trazado_1279726" data-name="Trazado 1279726" d="M259.536,246.552a.9.9,0,1,1,.4,1.21A.9.9,0,0,1,259.536,246.552Z" transform="translate(-246.11 -200.182)" fill="#303030"/>
              <path id="Trazado_1279727" data-name="Trazado 1279727" d="M277.247,250.679a.9.9,0,1,1,.953.847A.9.9,0,0,1,277.247,250.679Z" transform="translate(-251.624 -201.318)" fill="#303030"/>
              <path id="Trazado_1279728" data-name="Trazado 1279728" d="M294.648,245.4a.9.9,0,1,1,1.249.258A.9.9,0,0,1,294.648,245.4Z" transform="translate(-256.966 -199.546)" fill="#303030"/>
              <path id="Trazado_1279729" data-name="Trazado 1279729" d="M307.078,232.123a.9.9,0,1,1,1.21-.4A.9.9,0,0,1,307.078,232.123Z" transform="translate(-260.707 -195.339)" fill="#303030"/>
              <path id="Trazado_1279730" data-name="Trazado 1279730" d="M311.2,214.413a.9.9,0,1,1,.848-.953A.9.9,0,0,1,311.2,214.413Z" transform="translate(-261.843 -189.826)" fill="#303030"/>
              <path id="Trazado_1279731" data-name="Trazado 1279731" d="M305.923,197.011a.9.9,0,1,1,.257-1.249A.9.9,0,0,1,305.923,197.011Z" transform="translate(-260.071 -184.483)" fill="#303030"/>
              <path id="Trazado_1279732" data-name="Trazado 1279732" d="M292.648,184.582a.9.9,0,1,1-.4-1.21A.9.9,0,0,1,292.648,184.582Z" transform="translate(-255.864 -180.743)" fill="#303030"/>
            </g>
          </g>
          <g id="Arm-2" data-name="Arm" transform="translate(41.081 65.594)">
            <path id="Trazado_1279733" data-name="Trazado 1279733" d="M199.655,224.745c2.966-1.252,8.144-3.881,10.714-5.2,2.973-1.525,6.783-4.6,6.349-6.919s-1.631-2.02-2.5-1.77c.7-.948,2-2.551.014-4.037s-6.436,1.41-8.992,3.07a49.553,49.553,0,0,1-8.4,3.889,43.964,43.964,0,0,0,9.508-7.575c1.676-1.833,3.459-3.736,1.821-5.155s-4.289.565-6.022,1.971a64.955,64.955,0,0,1-7.773,5.452,6.71,6.71,0,0,1-4.455.874,2.177,2.177,0,0,1-1.686-1.854c-.411-3.205-.048-5.127.471-8.963-1.2.755-2.182,2.214-3.526,3.836-1.93,2.328-3.842,5.9-5.474,8.483-2.568,4.054-4.36,4.661-9.954,7.111-4.232,1.855-21.67,5.744-29.21,7.956-4.752-6.415-12.714-18.4-19.445-26.959-9.408-11.968-17.983-16.147-17.983-16.147-11.6,3.876-18.6,17.714-7.725,33.326,11.313,16.239,15,21.039,23.019,29.66,8.908,9.58,14.99,10.238,20.572,9.637,6.277-.676,12.674-3.568,16.117-5.289,10.261-5.125,22.408-13.148,25.975-15.013s7.022-1.856,11.187-2.389a61.814,61.814,0,0,0,11.014-2.162c.141-.043.288-.087.429-.137,3.121-1.017,9.236-2.993,9.029-6.3-.152-2.5-2.628-1.487-5.967-.549C203.791,224.422,197.312,225.738,199.655,224.745Z" transform="translate(-89.97 -182.806)" fill="#d48983"/>
            <path id="Trazado_1279734" data-name="Trazado 1279734" d="M221.319,242.178c3.567-1.864,7.022-1.856,11.187-2.389a61.814,61.814,0,0,0,11.014-2.162c.141-.044.288-.087.429-.137,3.121-1.017,9.236-2.993,9.029-6.3-.152-2.5-2.628-1.487-5.967-.549-2.971.827-9.451,2.143-7.108,1.149,2.966-1.252,8.144-3.88,10.714-5.2,2.973-1.525,6.564-4.565,6.349-6.919-.158-1.722-1.343-1.88-2.5-1.77.8-.916,2-2.551.014-4.037s-6.436,1.41-8.992,3.07a49.553,49.553,0,0,1-8.4,3.889,43.965,43.965,0,0,0,9.508-7.575c1.676-1.833,3.459-3.736,1.821-5.155s-4.289.565-6.022,1.971a64.957,64.957,0,0,1-7.773,5.452,6.71,6.71,0,0,1-4.455.874,2.177,2.177,0,0,1-1.686-1.854c-.411-3.205-.048-5.127.471-8.963-1.2.755-2.182,2.214-3.526,3.836-1.93,2.328-3.842,5.9-5.474,8.483" transform="translate(-130.218 -189.857)" fill="none" stroke="#303030" stroke-linecap="round" stroke-linejoin="round" stroke-width="1.5"/>
            <path id="Trazado_1279735" data-name="Trazado 1279735" d="M158.652,245.246c-6.413,1.368-9.374,6.985-10.191,8.9" transform="translate(-108.081 -202.14)" fill="none" stroke="#303030" stroke-linecap="round" stroke-linejoin="round" stroke-width="1.5"/>
            <path id="Trazado_1279736" data-name="Trazado 1279736" d="M248.414,231.2a57.973,57.973,0,0,0,14.808-7.695" transform="translate(-139.031 -195.408)" fill="none" stroke="#303030" stroke-linecap="round" stroke-linejoin="round" stroke-width="1.5"/>
          </g>
        </g>
      </g>
      <g id="Speech_Bubble" data-name="Speech Bubble" transform="translate(27.731 90.573)">
        <g id="Speech_Bubble-2" data-name="Speech Bubble">
          <path id="Speech_Bubble-3" data-name="Speech Bubble" d="M83.294,141.545c-2.674-.516-7.212-2.878-7.975-6.148h0c0-.019,0-.037.007-.057a26.737,26.737,0,1,0-7.178,6.244,18.726,18.726,0,0,0,10.77,2.176C83.409,143.393,84.652,141.808,83.294,141.545Z" transform="translate(-27.731 -91.821)" fill="#fff" stroke="#303030" stroke-linecap="round" stroke-linejoin="round" stroke-width="1.5"/>
          <g id="Pie_Chart" data-name="Pie Chart" transform="translate(9.051 9.15)">
            <path id="Trazado_1279737" data-name="Trazado 1279737" d="M65.051,106.356q-.606-.244-1.226-.443a17.614,17.614,0,1,0,12.244,16.776H58.455Z" transform="translate(-40.841 -105.074)" fill="#00826f" stroke="#303030" stroke-linecap="round" stroke-linejoin="round" stroke-width="1.5"/>
            <path id="Trazado_1279738" data-name="Trazado 1279738" d="M87.527,119.887a13.161,13.161,0,0,0-8.266-12.218l-4.9,12.218Z" transform="translate(-51.221 -105.878)" fill="#f55571" stroke="#303030" stroke-linecap="round" stroke-linejoin="round" stroke-width="1.5"/>
          </g>
        </g>
      </g>
    </g>
  </g>
</svg>
