<svg xmlns="http://www.w3.org/2000/svg" width="80" height="80" viewBox="0 0 80 80">
  <g id="Grupo_1192277" data-name="Grupo 1192277" transform="translate(-821.051 -7947)">
    <circle id="Elipse_12319" data-name="Elipse 12319" cx="40" cy="40" r="40" transform="translate(821.051 7947)" fill="#fff"/>
    <g id="Grupo_1192276" data-name="Grupo 1192276" transform="translate(829.86 7962.99)">
      <g id="Grupo_1192275" data-name="Grupo 1192275" transform="translate(7.948 0.768)">
        <g id="Grupo_1192271" data-name="Grupo 1192271" transform="translate(0)">
          <path id="Trazado_1280074" data-name="Trazado 1280074" d="M17.17,8.01H58.823a1.99,1.99,0,0,1,1.985,1.985V42.352a1.991,1.991,0,0,1-1.985,1.985H17.17a1.991,1.991,0,0,1-1.985-1.985V9.995A1.99,1.99,0,0,1,17.17,8.01Z" transform="translate(-15.185 -8.01)" fill="#eceff1" fill-rule="evenodd"/>
          <path id="Trazado_1280075" data-name="Trazado 1280075" d="M455.861,8.01h1.895a1.99,1.99,0,0,1,1.985,1.985V42.352a1.991,1.991,0,0,1-1.985,1.985h-1.895a1.991,1.991,0,0,0,1.985-1.985V9.995A1.99,1.99,0,0,0,455.861,8.01Z" transform="translate(-414.118 -8.01)" fill="#d1d1d6" fill-rule="evenodd"/>
          <path id="Trazado_1280076" data-name="Trazado 1280076" d="M17.17,8.01H58.823a1.99,1.99,0,0,1,1.985,1.985v5.1H15.185v-5.1A1.99,1.99,0,0,1,17.17,8.01Z" transform="translate(-15.185 -8.01)" fill="#a79ba7" fill-rule="evenodd"/>
          <path id="Trazado_1280077" data-name="Trazado 1280077" d="M455.861,8.01h1.895a1.99,1.99,0,0,1,1.985,1.985v5.1h-1.895v-5.1A1.99,1.99,0,0,0,455.861,8.01Z" transform="translate(-414.118 -8.01)" fill="#837683" fill-rule="evenodd"/>
          <path id="Trazado_1280078" data-name="Trazado 1280078" d="M61.093,35.5a1.16,1.16,0,1,0-1.16-1.16A1.162,1.162,0,0,0,61.093,35.5Z" transform="translate(-55.694 -30.794)" fill="#fe646f" fill-rule="evenodd"/>
          <path id="Trazado_1280079" data-name="Trazado 1280079" d="M108.1,35.5a1.16,1.16,0,1,0-1.16-1.16A1.162,1.162,0,0,0,108.1,35.5Z" transform="translate(-98.246 -30.794)" fill="#ffe177" fill-rule="evenodd"/>
          <path id="Trazado_1280080" data-name="Trazado 1280080" d="M155.1,35.5a1.16,1.16,0,1,0-1.16-1.16A1.162,1.162,0,0,0,155.1,35.5Z" transform="translate(-140.796 -30.794)" fill="#6cf5c2" fill-rule="evenodd"/>
        </g>
        <g id="Grupo_1192272" data-name="Grupo 1192272" transform="translate(3.739 8.932)">
          <circle id="Elipse_12387" data-name="Elipse 12387" cx="6.446" cy="6.446" r="6.446" transform="matrix(0.94, -0.34, 0.34, 0.94, 0, 4.383)" fill="#60b7ff"/>
          <circle id="Elipse_12388" data-name="Elipse 12388" cx="5.645" cy="5.645" r="5.645" transform="matrix(0.94, -0.34, 0.34, 0.94, 1.025, 4.864)" fill="#8ac9fe"/>
          <path id="Trazado_1280081" data-name="Trazado 1280081" d="M141.877,189.393h6.446a6.443,6.443,0,0,1-3.223,5.583Z" transform="translate(-133.615 -181.143)" fill="#fd4755" fill-rule="evenodd"/>
          <path id="Trazado_1280082" data-name="Trazado 1280082" d="M141.877,189.393h5.645a5.643,5.643,0,0,1-2.822,4.89Z" transform="translate(-133.615 -181.143)" fill="#fe646f" fill-rule="evenodd"/>
          <path id="Trazado_1280083" data-name="Trazado 1280083" d="M148.322,127.789h-6.446v-6.446A6.446,6.446,0,0,1,148.322,127.789Z" transform="translate(-133.614 -119.539)" fill="#ffd064" fill-rule="evenodd"/>
          <path id="Trazado_1280084" data-name="Trazado 1280084" d="M147.521,135.443h-5.645V129.8A5.645,5.645,0,0,1,147.521,135.443Z" transform="translate(-133.614 -127.193)" fill="#ffe177" fill-rule="evenodd"/>
        </g>
        <g id="Grupo_1192273" data-name="Grupo 1192273" transform="translate(28.868 17.878)">
          <path id="Trazado_1280085" data-name="Trazado 1280085" d="M320.415,246.969h1.269a.475.475,0,0,1,.474.474v7.5a.475.475,0,0,1-.474.474h-1.269a.475.475,0,0,1-.474-.474v-7.5A.475.475,0,0,1,320.415,246.969Z" transform="translate(-319.941 -242.211)" fill="#ffe177" fill-rule="evenodd"/>
          <path id="Trazado_1280086" data-name="Trazado 1280086" d="M328.341,246.969h.947a.475.475,0,0,1,.474.474v7.5a.475.475,0,0,1-.474.474h-.947a.475.475,0,0,0,.474-.474v-7.5A.475.475,0,0,0,328.341,246.969Z" transform="translate(-327.545 -242.211)" fill="#ffd064" fill-rule="evenodd"/>
          <path id="Trazado_1280087" data-name="Trazado 1280087" d="M370.754,221.854h1.269a.475.475,0,0,1,.474.474v9.88a.475.475,0,0,1-.474.474h-1.269a.475.475,0,0,1-.474-.474v-9.88A.475.475,0,0,1,370.754,221.854Z" transform="translate(-365.512 -219.475)" fill="#6cf5c2" fill-rule="evenodd"/>
          <path id="Trazado_1280088" data-name="Trazado 1280088" d="M378.68,221.854h.947a.475.475,0,0,1,.474.474v9.88a.475.475,0,0,1-.474.474h-.947a.475.475,0,0,0,.474-.474v-9.88A.475.475,0,0,0,378.68,221.854Z" transform="translate(-373.116 -219.475)" fill="#00e499" fill-rule="evenodd"/>
          <path id="Trazado_1280089" data-name="Trazado 1280089" d="M421.093,196.74h1.269a.475.475,0,0,1,.474.474v12.259a.475.475,0,0,1-.474.474h-1.269a.475.475,0,0,1-.474-.474V197.214A.475.475,0,0,1,421.093,196.74Z" transform="translate(-411.082 -196.74)" fill="#8ac9fe" fill-rule="evenodd"/>
          <path id="Trazado_1280090" data-name="Trazado 1280090" d="M429.019,196.74h.947a.475.475,0,0,1,.474.474v12.259a.475.475,0,0,1-.474.474h-.947a.475.475,0,0,0,.474-.474V197.214A.475.475,0,0,0,429.019,196.74Z" transform="translate(-418.687 -196.74)" fill="#60b7ff" fill-rule="evenodd"/>
        </g>
        <g id="Grupo_1192274" data-name="Grupo 1192274" transform="translate(9.474 20.349)">
          <path id="Trazado_1280091" data-name="Trazado 1280091" d="M293.449,392.841a8.451,8.451,0,0,1-1.425,1.569l3.876,3.8,1.475-1.521Z" transform="translate(-275.274 -376.736)" fill="#a79ba7" fill-rule="evenodd"/>
          <path id="Trazado_1280092" data-name="Trazado 1280092" d="M303.316,392.565a.973.973,0,0,1-.422.566l3.85,3.825.472-.517Z" transform="translate(-285.114 -376.486)" fill="#837683" fill-rule="evenodd"/>
          <path id="Trazado_1280093" data-name="Trazado 1280093" d="M328.147,430.031l1.665-1.716a.766.766,0,0,0-.016-1.08l-4.612-4.476a.766.766,0,0,0-1.08.016l-1.665,1.716a.766.766,0,0,0,.016,1.08l4.612,4.475A.766.766,0,0,0,328.147,430.031Z" transform="translate(-302.613 -403.626)" fill="#f1ba84" fill-rule="evenodd"/>
          <path id="Trazado_1280094" data-name="Trazado 1280094" d="M344.444,422.761l4.612,4.476a.766.766,0,0,1,.016,1.08l-1.665,1.716a.757.757,0,0,1-.207.151.767.767,0,0,0,.889-.151l1.665-1.716a.766.766,0,0,0-.016-1.08l-4.612-4.476a.766.766,0,0,0-.873-.135A.754.754,0,0,1,344.444,422.761Z" transform="translate(-322.556 -403.628)" fill="#e3a76f" fill-rule="evenodd"/>
          <ellipse id="Elipse_12389" data-name="Elipse 12389" cx="8.399" cy="8.399" rx="8.399" ry="8.399" transform="translate(0 11.876) rotate(-45)" fill="#8ac9fe"/>
          <path id="Trazado_1280095" data-name="Trazado 1280095" d="M236.733,259.543a8.4,8.4,0,0,1,0,16.8q-.205,0-.408-.01a8.4,8.4,0,0,0,0-16.777q.2-.01.408-.01Z" transform="translate(-224.851 -256.065)" fill="#60b7ff" fill-rule="evenodd"/>
          <circle id="Elipse_12390" data-name="Elipse 12390" cx="6.031" cy="6.031" r="6.031" transform="translate(4.013 8.611) rotate(-22.514)" fill="#eceff1"/>
          <path id="Trazado_1280096" data-name="Trazado 1280096" d="M182.994,284.541c.137,0,.273.005.408.014a6.031,6.031,0,0,0,0,12.034c-.135.009-.271.014-.408.014a6.031,6.031,0,1,1,0-12.062Z" transform="translate(-171.112 -278.695)" fill="#d1d1d6" fill-rule="evenodd"/>
        </g>
      </g>
      <path id="Trazado_1280097" data-name="Trazado 1280097" d="M29.3,38.266a5.273,5.273,0,1,1,5.273-5.272A5.279,5.279,0,0,1,29.3,38.266Zm0-12.061a6.789,6.789,0,1,0,6.788,6.789A6.8,6.8,0,0,0,29.3,26.2ZM40.431,15.673a.758.758,0,0,1-.758.758h-7.4a.758.758,0,1,1,0-1.515h7.4A.758.758,0,0,1,40.431,15.673Zm-8.916-3.2a.758.758,0,0,1,.758-.758h14.8a.758.758,0,1,1,0,1.516h-14.8A.758.758,0,0,1,31.516,12.47Zm16.3,18.623h-.7V19.4h.7Zm.757-13.206H46.354a.757.757,0,0,0-.758.758V31.851a.758.758,0,0,0,.758.758H48.57a.758.758,0,0,0,.758-.758V18.646A.757.757,0,0,0,48.57,17.888ZM43.044,31.093h-.7V21.782h.7ZM43.8,20.266H41.585a.758.758,0,0,0-.758.758V31.851a.758.758,0,0,0,.758.758H43.8a.757.757,0,0,0,.757-.758V21.024A.758.758,0,0,0,43.8,20.266ZM16.726,31.787a.757.757,0,0,1-.757.757H13.5a.758.758,0,1,1,0-1.515h2.465A.758.758,0,0,1,16.726,31.787Zm0-3.311a.758.758,0,0,1-.757.758H13.5a.758.758,0,1,1,0-1.515h2.465A.757.757,0,0,1,16.726,28.476Zm6.732-6.054-2.184-3.714,4.312,0a5.688,5.688,0,0,1-2.128,3.712Zm-9.2-4.473a5.688,5.688,0,0,0,7.892,5.244L19.3,18.334a.758.758,0,0,1-.1-.385V12.313a5.7,5.7,0,0,0-4.931,5.636Zm11.325-.755-4.878,0V12.313A5.7,5.7,0,0,1,25.586,17.194Zm-5.636-6.449a7.2,7.2,0,1,0,7.2,7.2,7.212,7.212,0,0,0-7.2-7.2Zm1.143-6.434a1.16,1.16,0,1,1,1.16,1.16A1.162,1.162,0,0,1,21.092,4.312Zm-4.452,0a1.16,1.16,0,1,1,1.16,1.16A1.162,1.162,0,0,1,16.64,4.312Zm-4.453,0a1.16,1.16,0,1,1,1.16,1.16,1.162,1.162,0,0,1-1.16-1.16Zm39.4,32.025a1.228,1.228,0,0,0,1.227-1.227V8.614H8.707v26.5a1.228,1.228,0,0,0,1.227,1.227H20.779a9.1,9.1,0,0,1-.631-3.343q0-.226.01-.449h-1.29a.758.758,0,1,1,0-1.515H20.36a9.159,9.159,0,0,1,.595-1.8H18.868a.758.758,0,1,1,0-1.515h2.955a9.145,9.145,0,0,1,14.235-.9V23.4a.758.758,0,0,1,.758-.758h2.217a.758.758,0,0,1,.758.758v8.448a.758.758,0,0,1-.758.758h-.582c.006.128.009.256.009.385a9.1,9.1,0,0,1-.632,3.343ZM39.465,40.793l4.613,4.484-1.665,1.715H42.4l-4.612-4.484Zm-2.139.019-1.472-1.429c.14-.144.277-.292.408-.445l1.485,1.441Zm.949-9.719h-.013a9.07,9.07,0,0,0-.688-2.026V24.161h.7v6.932Zm-16.612,1.9A7.641,7.641,0,1,0,29.3,25.352a7.649,7.649,0,0,0-7.641,7.642ZM9.933,1.526A1.228,1.228,0,0,0,8.707,2.752V7.1H52.813V2.752a1.228,1.228,0,0,0-1.227-1.227H9.933ZM51.586.01H9.933A2.745,2.745,0,0,0,7.191,2.752V35.109a2.745,2.745,0,0,0,2.742,2.743H21.546a9.145,9.145,0,0,0,13.16,2.529l1.661,1.612a1.524,1.524,0,0,0,.369,1.612l4.612,4.476a1.524,1.524,0,0,0,2.151-.033l1.665-1.715a1.524,1.524,0,0,0-.032-2.152L40.52,39.706a1.521,1.521,0,0,0-1.622-.32l-1.58-1.534H51.586a2.745,2.745,0,0,0,2.742-2.743V2.752A2.745,2.745,0,0,0,51.586.01Z" fill-rule="evenodd"/>
    </g>
  </g>
</svg>
