<svg xmlns="http://www.w3.org/2000/svg" width="80" height="80" viewBox="0 0 80 80">
  <g id="Grupo_1192289" data-name="Grupo 1192289" transform="translate(-821.051 -8076)">
    <circle id="Elipse_12321" data-name="Elipse 12321" cx="40" cy="40" r="40" transform="translate(821.051 8076)" fill="#fff"/>
    <g id="Grupo_1192288" data-name="Grupo 1192288" transform="translate(824.025 8079.828)">
      <g id="Grupo_1192287" data-name="Grupo 1192287" transform="translate(8.934 10.812)">
        <g id="Grupo_1192284" data-name="Grupo 1192284" transform="translate(0)">
          <circle id="Elipse_12392" data-name="Elipse 12392" cx="3.025" cy="3.025" r="3.025" transform="translate(29.111)" fill="#8ac9fe"/>
          <path id="Trazado_1280118" data-name="Trazado 1280118" d="M287.529,17.881a3.025,3.025,0,1,1-.4,6.024,3.026,3.026,0,0,0,0-6A3.053,3.053,0,0,1,287.529,17.881Z" transform="translate(-255.392 -17.881)" fill="#60b7ff" fill-rule="evenodd"/>
          <circle id="Elipse_12393" data-name="Elipse 12393" cx="3.025" cy="3.025" r="3.025" transform="translate(0 35.562)" fill="#8ac9fe"/>
          <path id="Trazado_1280119" data-name="Trazado 1280119" d="M38.794,321.731a3.025,3.025,0,1,1-.4,6.024,3.026,3.026,0,0,0,0-6A3.053,3.053,0,0,1,38.794,321.731Z" transform="translate(-35.768 -286.169)" fill="#60b7ff" fill-rule="evenodd"/>
          <circle id="Elipse_12394" data-name="Elipse 12394" cx="3.025" cy="3.025" r="3.025" transform="translate(45.36 42.988)" fill="#8ac9fe"/>
          <path id="Trazado_1280120" data-name="Trazado 1280120" d="M426.356,385.179a3.025,3.025,0,0,1,0,6.051,3.063,3.063,0,0,1-.4-.027,3.026,3.026,0,0,0,0-6,3.074,3.074,0,0,1,.4-.027Z" transform="translate(-377.971 -342.191)" fill="#60b7ff" fill-rule="evenodd"/>
        </g>
        <g id="Grupo_1192285" data-name="Grupo 1192285" transform="translate(9.166 6.852)">
          <path id="Trazado_1280121" data-name="Trazado 1280121" d="M142.879,209.958a8.323,8.323,0,0,0,1.4,1.546l-3.819,3.743-1.454-1.5Z" transform="translate(-133.777 -194.33)" fill="#a79ba7" fill-rule="evenodd"/>
          <path id="Trazado_1280122" data-name="Trazado 1280122" d="M142.853,209.738a.958.958,0,0,0,.416.557l-3.793,3.768-.465-.509Z" transform="translate(-133.777 -194.135)" fill="#837683" fill-rule="evenodd"/>
          <path id="Trazado_1280123" data-name="Trazado 1280123" d="M96.144,241.02,94.5,239.33a.754.754,0,0,1,.016-1.064l4.544-4.409a.755.755,0,0,1,1.064.016l1.641,1.691a.755.755,0,0,1-.016,1.064l-4.544,4.409A.755.755,0,0,1,96.144,241.02Z" transform="translate(-94.292 -215.244)" fill="#f1ba84" fill-rule="evenodd"/>
          <path id="Trazado_1280124" data-name="Trazado 1280124" d="M99.736,233.854l-4.544,4.409a.754.754,0,0,0-.016,1.064l1.641,1.691a.744.744,0,0,0,.2.149.755.755,0,0,1-.876-.149L94.5,239.327a.755.755,0,0,1,.016-1.064l4.544-4.409a.755.755,0,0,1,.86-.133A.753.753,0,0,0,99.736,233.854Z" transform="translate(-94.292 -215.242)" fill="#e3a76f" fill-rule="evenodd"/>
          <circle id="Elipse_12395" data-name="Elipse 12395" cx="8.275" cy="8.275" r="8.275" transform="translate(3.851 13.819) rotate(-56.58)" fill="#8ac9fe"/>
          <path id="Trazado_1280125" data-name="Trazado 1280125" d="M162.614,103.664a8.275,8.275,0,0,0,0,16.55c.135,0,.269,0,.4-.01a8.275,8.275,0,0,1,0-16.53Q162.816,103.664,162.614,103.664Z" transform="translate(-147.311 -100.476)" fill="#60b7ff" fill-rule="evenodd"/>
          <circle id="Elipse_12396" data-name="Elipse 12396" cx="5.942" cy="5.942" r="5.942" transform="translate(6.896 11.463) rotate(-45)" fill="#eceff1"/>
          <path id="Trazado_1280126" data-name="Trazado 1280126" d="M222.01,123.6c-.135,0-.269.005-.4.014a5.942,5.942,0,0,1,0,11.856c.133.009.267.014.4.014a5.942,5.942,0,1,0,0-11.884Z" transform="translate(-206.707 -118.077)" fill="#d1d1d6" fill-rule="evenodd"/>
        </g>
        <g id="Grupo_1192286" data-name="Grupo 1192286" transform="translate(14.13 23.33)">
          <path id="Trazado_1280127" data-name="Trazado 1280127" d="M137.306,325.963h3.05a.6.6,0,0,1,.6.6v6.948a.6.6,0,0,1-.6.6h-3.05a.6.6,0,0,1-.6-.6V326.56A.6.6,0,0,1,137.306,325.963Z" transform="translate(-136.709 -313.236)" fill="#fe646f" fill-rule="evenodd"/>
          <path id="Trazado_1280128" data-name="Trazado 1280128" d="M159.1,325.963h1.027a.6.6,0,0,1,.6.6v6.948a.6.6,0,0,1-.6.6H159.1a.6.6,0,0,0,.6-.6V326.56A.6.6,0,0,0,159.1,325.963Z" transform="translate(-156.479 -313.236)" fill="#fd4755" fill-rule="evenodd"/>
          <path id="Trazado_1280129" data-name="Trazado 1280129" d="M207.688,289.515h-3.05a.6.6,0,0,0-.6.6v11.214a.6.6,0,0,0,.6.6h3.05a.6.6,0,0,0,.6-.6V290.112A.6.6,0,0,0,207.688,289.515Z" transform="translate(-196.161 -281.054)" fill="#ffe177" fill-rule="evenodd"/>
          <path id="Trazado_1280130" data-name="Trazado 1280130" d="M227.459,289.515h-1.027a.6.6,0,0,1,.6.6v11.214a.6.6,0,0,1-.6.6h1.027a.6.6,0,0,0,.6-.6V290.112A.6.6,0,0,0,227.459,289.515Z" transform="translate(-215.931 -281.054)" fill="#ffd064" fill-rule="evenodd"/>
          <path id="Trazado_1280131" data-name="Trazado 1280131" d="M275.019,251.456h-3.05a.6.6,0,0,0-.6.6v15.668a.6.6,0,0,0,.6.6h3.05a.6.6,0,0,0,.6-.6V252.053A.6.6,0,0,0,275.019,251.456Z" transform="translate(-255.611 -247.449)" fill="#6cf5c2" fill-rule="evenodd"/>
          <path id="Trazado_1280132" data-name="Trazado 1280132" d="M294.79,251.456h-1.027a.6.6,0,0,1,.6.6v15.668a.6.6,0,0,1-.6.6h1.027a.6.6,0,0,0,.6-.6V252.053A.6.6,0,0,0,294.79,251.456Z" transform="translate(-275.382 -247.449)" fill="#00e499" fill-rule="evenodd"/>
          <path id="Trazado_1280133" data-name="Trazado 1280133" d="M339.3,217.219h3.05a.6.6,0,0,1,.6.6v19.675a.6.6,0,0,1-.6.6H339.3a.6.6,0,0,1-.6-.6V217.816A.6.6,0,0,1,339.3,217.219Z" transform="translate(-315.062 -217.219)" fill="#8ac9fe" fill-rule="evenodd"/>
          <path id="Trazado_1280134" data-name="Trazado 1280134" d="M361.093,217.219h1.027a.6.6,0,0,1,.6.6v19.675a.6.6,0,0,1-.6.6h-1.027a.6.6,0,0,0,.6-.6V217.816A.6.6,0,0,0,361.093,217.219Z" transform="translate(-334.831 -217.219)" fill="#60b7ff" fill-rule="evenodd"/>
        </g>
      </g>
      <path id="Trazado_1280135" data-name="Trazado 1280135" d="M26.374,54.074H24V47.8h2.371Zm-3.308-8.142a.936.936,0,0,0-.936.937v8.142a.936.936,0,0,0,.936.937h4.244a.936.936,0,0,0,.936-.937V46.869a.936.936,0,0,0-.936-.937ZM47.645,35.077h2.371v19H47.645Zm3.308,20.87a.937.937,0,0,0,.936-.937V34.14a.937.937,0,0,0-.936-.936H46.708a.937.937,0,0,0-.936.936v20.87a.936.936,0,0,0,.936.937Zm-16.7-1.873H31.884V43.539h2.371ZM30.947,41.666a.936.936,0,0,0-.936.937V55.011a.936.936,0,0,0,.936.937h4.244a.936.936,0,0,0,.937-.937V42.6a.936.936,0,0,0-.937-.937Zm8.817-2.581h2.371v14.99H39.764Zm-1.873-.937V55.011a.936.936,0,0,0,.936.937h4.244a.936.936,0,0,0,.936-.937V38.148a.937.937,0,0,0-.936-.937H38.828a.937.937,0,0,0-.936.937Zm-4.486-4.107a4.915,4.915,0,1,1,4.915-4.916A4.921,4.921,0,0,1,33.405,34.041Zm0-11.7a6.787,6.787,0,1,0,6.788,6.786A6.795,6.795,0,0,0,33.405,22.339Zm0,14.126a7.339,7.339,0,1,0-7.339-7.34A7.347,7.347,0,0,0,33.405,36.465ZM20.5,42.655l-1.384-1.426,4.28-4.153L24.778,38.5Zm6.187-7.239L25.5,36.562l-.15-.154,1.184-1.15c.048.054.1.105.146.158Zm6.72-15.5A9.2,9.2,0,0,0,25.43,33.726l-1.524,1.48a1.684,1.684,0,0,0-1.683.4l-4.544,4.41a1.69,1.69,0,0,0-.036,2.388l1.641,1.69a1.689,1.689,0,0,0,2.388.036l4.544-4.409a1.691,1.691,0,0,0,.449-1.671l1.439-1.4a9.209,9.209,0,1,0,5.3-16.736ZM11.962,51.488A2.09,2.09,0,1,1,14.052,49.4,2.092,2.092,0,0,1,11.962,51.488Zm0-6.052c-.065,0-.129,0-.193.006A25.6,25.6,0,0,1,30.258,15.267l-1.313,1.759a.935.935,0,0,0,.19,1.309.925.925,0,0,0,.559.186.936.936,0,0,0,.751-.376l2.8-3.756a.936.936,0,0,0-.437-1.442l-4.344-1.542a.936.936,0,0,0-.626,1.765l1.3.461A27.473,27.473,0,0,0,9.969,45.977a3.958,3.958,0,1,0,1.993-.541Zm45.36,13.479a2.09,2.09,0,1,1,2.089-2.089A2.092,2.092,0,0,1,57.322,58.914Zm0-6.052a3.959,3.959,0,0,0-3.331,6.1q-.519.472-1.062.914a25.455,25.455,0,0,1-34.113-1.632l1.8.332a.936.936,0,1,0,.34-1.841L16.426,55.9a.936.936,0,0,0-1.1,1.031l.55,4.655a.937.937,0,0,0,.929.826.856.856,0,0,0,.111-.007.936.936,0,0,0,.82-1.04L17.527,59.6a27.3,27.3,0,0,0,16.822,7.774q1.243.111,2.477.111A27.3,27.3,0,0,0,54.11,61.333c.423-.344.838-.7,1.242-1.073a3.961,3.961,0,1,0,1.97-7.4ZM41.074,15.926a2.089,2.089,0,1,1,2.089-2.089A2.092,2.092,0,0,1,41.074,15.926ZM65.827,45.8a.936.936,0,0,0-1.32-.1l-1.052.9a27.433,27.433,0,0,0-5.354-23.9,27.283,27.283,0,0,0-13.067-8.875,3.965,3.965,0,1,0-.437,1.826,25.6,25.6,0,0,1,16.887,31.1l-.867-2.017a.936.936,0,0,0-1.721.738l1.851,4.306a.933.933,0,0,0,.647.542.965.965,0,0,0,.213.024.934.934,0,0,0,.608-.224l3.507-2.991A.936.936,0,0,0,65.827,45.8Z" fill-rule="evenodd"/>
    </g>
  </g>
</svg>
