<svg xmlns="http://www.w3.org/2000/svg" width="295" height="92" viewBox="0 0 295 92">
  <g id="Grupo_1191708" data-name="Grupo 1191708" transform="translate(-1022.051 -1162)">
    <rect id="Rectángulo_412071" data-name="Rectángulo 412071" width="295" height="92" rx="7" transform="translate(1022.051 1162)" fill="#fae700"/>
    <g id="Speech_Bubble" data-name="Speech Bubble" transform="translate(1053.609 1086.295)">
      <path id="Speech_Bubble-2" data-name="Speech Bubble" d="M89.771,147.342c-2.985-.577-8.053-3.214-8.9-6.865l0,0c0-.022,0-.041.008-.063a29.855,29.855,0,1,0-8.014,6.971,20.909,20.909,0,0,0,12.025,2.43C89.9,149.406,91.288,147.636,89.771,147.342Z" transform="translate(0 0)" fill="#fff" stroke="#303030" stroke-linecap="round" stroke-linejoin="round" stroke-width="1.5"/>
      <g id="Pie_Chart" data-name="Pie Chart" transform="translate(37.837 102.037)">
        <path id="Trazado_1279740" data-name="Trazado 1279740" d="M67.874,106.505q-.676-.273-1.369-.495a19.668,19.668,0,1,0,13.672,18.731H60.509Z" transform="translate(-40.841 -105.074)" fill="#00826f" stroke="#303030" stroke-linecap="round" stroke-linejoin="round" stroke-width="1.5"/>
        <path id="Trazado_1279741" data-name="Trazado 1279741" d="M89.062,121.311a14.7,14.7,0,0,0-9.229-13.642l-5.468,13.642Z" transform="translate(-48.523 -105.669)" fill="#f55571" stroke="#303030" stroke-linecap="round" stroke-linejoin="round" stroke-width="1.5"/>
      </g>
    </g>
    <g id="Speech_Bubble-3" data-name="Speech Bubble" transform="translate(1030.861 1143.121)">
      <path id="Trazado_1279742" data-name="Trazado 1279742" d="M216.634,28.084H139.246a6.267,6.267,0,0,0-6.267,6.267V83.234a6.267,6.267,0,0,0,6.267,6.267h30.375l5.088,10.175a3.613,3.613,0,0,0,6.463,0L186.259,89.5h30.374a6.267,6.267,0,0,0,6.267-6.267V34.351A6.267,6.267,0,0,0,216.634,28.084Z" fill="#f55571" stroke="#303030" stroke-linecap="round" stroke-linejoin="round" stroke-width="2"/>
      <path id="Trazado_1279743" data-name="Trazado 1279743" d="M168.068,55.13a9.188,9.188,0,0,1-8.01-4.59,9.232,9.232,0,0,1-1.231-4.714,8.9,8.9,0,0,1,1.231-4.651,9.311,9.311,0,0,1,3.327-3.3,9.067,9.067,0,0,1,4.683-1.232,9.348,9.348,0,0,1,4.774,1.232,9.236,9.236,0,0,1,3.358,3.3,8.9,8.9,0,0,1,1.232,4.651,9.059,9.059,0,0,1-1.263,4.714,9.394,9.394,0,0,1-3.358,3.358A9.178,9.178,0,0,1,168.068,55.13Zm-1.791,17.633,24.835-33.431a5.126,5.126,0,0,1,4.115-2.069h0a5.125,5.125,0,0,1,4.114,8.181L174.506,78.876a5.127,5.127,0,0,1-4.114,2.069h0A5.126,5.126,0,0,1,166.277,72.763Zm1.771-23.86a2.892,2.892,0,0,0,2.2-.856,3.008,3.008,0,0,0,.815-2.159,2.925,2.925,0,0,0-3.014-3.015,2.7,2.7,0,0,0-2.038.856,3.269,3.269,0,0,0,0,4.318A2.7,2.7,0,0,0,168.049,48.9Zm28.986,32.658a9.232,9.232,0,0,1-4.713-1.232,9.08,9.08,0,0,1-3.359-3.359,9.22,9.22,0,0,1-1.232-4.713,8.894,8.894,0,0,1,1.232-4.651,9.311,9.311,0,0,1,3.327-3.3,9.067,9.067,0,0,1,4.683-1.232,9.348,9.348,0,0,1,4.774,1.232,9.245,9.245,0,0,1,3.359,3.3,8.9,8.9,0,0,1,1.232,4.651,9.149,9.149,0,0,1-9.3,9.3Zm-.01-6.3a3,3,0,0,0,2.159-.815,2.792,2.792,0,0,0,.856-2.118,2.926,2.926,0,0,0-3.015-3.015,2.791,2.791,0,0,0-2.119.856,3,3,0,0,0-.815,2.159,2.793,2.793,0,0,0,.856,2.118A2.9,2.9,0,0,0,197.025,75.263Z" transform="translate(-4.644 -1.538)" fill="#fff"/>
    </g>
  </g>
</svg>
