<svg xmlns="http://www.w3.org/2000/svg" width="71" height="71" viewBox="0 0 71 71">
  <g id="Grupo_1191754" data-name="Grupo 1191754" transform="translate(-510.051 -3732)">
    <circle id="Elipse_12314" data-name="Elipse 12314" cx="35.5" cy="35.5" r="35.5" transform="translate(510.051 3732)" fill="#fff"/>
    <g id="Grupo_1191753" data-name="Grupo 1191753" transform="translate(516.05 3738.001)">
      <g id="Grupo_1191752" data-name="Grupo 1191752" transform="translate(8.686 8.684)">
        <path id="Trazado_1279846" data-name="Trazado 1279846" d="M18.305,54.822H57.127v2.305H16V16h2.305Z" transform="translate(-16 -16)" fill="#a79ba7" fill-rule="evenodd"/>
        <g id="Grupo_1191749" data-name="Grupo 1191749" transform="translate(6.835 22.837)">
          <path id="Trazado_1279847" data-name="Trazado 1279847" d="M113.247,286.451l-4.538-3.853a.28.28,0,0,0-.461.213v1.795H96.335a.561.561,0,0,0-.56.56v3a.561.561,0,0,0,.56.56h11.913v1.795a.28.28,0,0,0,.461.213l4.538-3.853A.28.28,0,0,0,113.247,286.451Z" transform="translate(-95.775 -282.531)" fill="#fe646f" fill-rule="evenodd"/>
          <path id="Trazado_1279848" data-name="Trazado 1279848" d="M113.247,324.86l-.378-.321-4.16,3.532a.28.28,0,0,1-.461-.213v1.069a.28.28,0,0,0,.461.213l4.538-3.853A.28.28,0,0,0,113.247,324.86Zm-17.472.643a.561.561,0,0,0,.56.56h11.913v1.069H96.335a.561.561,0,0,1-.56-.56Z" transform="translate(-95.775 -320.94)" fill="#fd4755" fill-rule="evenodd"/>
        </g>
        <g id="Grupo_1191750" data-name="Grupo 1191750" transform="translate(6.835 13.594)">
          <path id="Trazado_1279849" data-name="Trazado 1279849" d="M118.908,178.579l-4.538-3.853a.28.28,0,0,0-.461.213v1.795H96.335a.561.561,0,0,0-.56.56v3a.561.561,0,0,0,.56.56h17.574v1.795a.28.28,0,0,0,.461.213l4.538-3.853A.28.28,0,0,0,118.908,178.579Z" transform="translate(-95.775 -174.658)" fill="#ffe177" fill-rule="evenodd"/>
          <path id="Trazado_1279850" data-name="Trazado 1279850" d="M118.908,216.988l-.378-.321-4.16,3.532a.28.28,0,0,1-.461-.213v1.069a.28.28,0,0,0,.461.213l4.538-3.853A.28.28,0,0,0,118.908,216.988Zm-23.133.643a.561.561,0,0,0,.56.56h17.574v1.069H96.335a.561.561,0,0,1-.56-.56Z" transform="translate(-95.775 -213.068)" fill="#ffd064" fill-rule="evenodd"/>
        </g>
        <g id="Grupo_1191751" data-name="Grupo 1191751" transform="translate(6.835 4.351)">
          <path id="Trazado_1279851" data-name="Trazado 1279851" d="M124.569,70.707l-4.538-3.853a.28.28,0,0,0-.461.213v1.795H96.335a.561.561,0,0,0-.56.56v3a.561.561,0,0,0,.56.56H119.57v1.795a.28.28,0,0,0,.461.213l4.538-3.853A.28.28,0,0,0,124.569,70.707Z" transform="translate(-95.775 -66.787)" fill="#8ac9fe" fill-rule="evenodd"/>
          <path id="Trazado_1279852" data-name="Trazado 1279852" d="M124.569,109.116l-.378-.321-4.16,3.532a.28.28,0,0,1-.461-.213v1.069a.28.28,0,0,0,.461.213l4.538-3.853A.28.28,0,0,0,124.569,109.116Zm-28.795.643a.561.561,0,0,0,.56.56H119.57v1.069H96.335a.561.561,0,0,1-.56-.56Z" transform="translate(-95.775 -105.196)" fill="#60b7ff" fill-rule="evenodd"/>
        </g>
      </g>
      <path id="Trazado_1279853" data-name="Trazado 1279853" d="M45,27.793a.686.686,0,0,1-1.371,0V26.42a.686.686,0,0,1,1.371,0Zm0-3.906a.686.686,0,0,1-1.371,0V22.513a.686.686,0,0,1,1.371,0Zm0,11.719a.686.686,0,0,1-1.371,0V34.232a.686.686,0,0,1,1.371,0ZM45,31.7a.686.686,0,0,1-1.371,0V30.326a.686.686,0,0,1,1.371,0Zm0,10.345v1.374a.686.686,0,0,1-1.371,0V42.045a.686.686,0,0,1,1.371,0Zm0-2.533a.686.686,0,0,1-1.371,0V38.138a.686.686,0,0,1,1.371,0Zm-11.323,0a.685.685,0,1,1-1.371,0V38.138a.685.685,0,1,1,1.371,0Zm0,2.533v1.374a.685.685,0,1,1-1.371,0V42.045a.685.685,0,1,1,1.371,0Zm5.662,0v1.374a.685.685,0,1,1-1.371,0V42.045a.685.685,0,1,1,1.371,0Zm0-6.439a.685.685,0,1,1-1.371,0V34.232a.685.685,0,1,1,1.371,0Zm0-3.906a.685.685,0,1,1-1.371,0V30.326a.685.685,0,1,1,1.371,0Zm0,7.812a.685.685,0,1,1-1.371,0V38.138a.685.685,0,1,1,1.371,0ZM16.208,15.8h23.11A.686.686,0,0,0,40,15.112v-.919l3.506,2.977L40,20.147v-.918a.686.686,0,0,0-.686-.686H16.208Zm-.126,4.117h22.55v1.109a.955.955,0,0,0,.56.876.967.967,0,0,0,.408.091.955.955,0,0,0,.622-.231l4.539-3.853a.964.964,0,0,0,0-1.471L40.221,12.58a.965.965,0,0,0-1.589.736v1.11H16.081a1.246,1.246,0,0,0-1.245,1.245v3A1.246,1.246,0,0,0,16.081,19.914Zm.126,14.368H27.995a.686.686,0,0,0,.686-.685v-.918l3.506,2.977L28.68,38.632v-.918a.686.686,0,0,0-.686-.685H16.208ZM16.081,38.4H27.309v1.11a.957.957,0,0,0,.559.877.97.97,0,0,0,.408.091.958.958,0,0,0,.622-.231l4.539-3.853a.965.965,0,0,0,0-1.472L28.9,31.066a.965.965,0,0,0-1.59.736v1.109H16.081a1.247,1.247,0,0,0-1.245,1.246v3A1.246,1.246,0,0,0,16.081,38.4Zm.126-13.359H33.656a.685.685,0,0,0,.686-.685v-.919l3.506,2.977-3.506,2.977v-.919a.685.685,0,0,0-.686-.685H16.208Zm-.126,4.117H32.97v1.11A.964.964,0,0,0,34.56,31L39.1,27.149a.965.965,0,0,0,0-1.472l-4.538-3.853a.966.966,0,0,0-1.591.735v1.109H16.082a1.247,1.247,0,0,0-1.245,1.245v3A1.246,1.246,0,0,0,16.081,29.156Zm33.047,19.97v-.934H10.992a.686.686,0,0,1-.686-.685V9.37H9.372V49.126Zm.686-2.3H45v-.871a.686.686,0,0,0-1.371,0v.871H39.34v-.871a.685.685,0,1,0-1.371,0v.871H33.678v-.871a.685.685,0,1,0-1.371,0v.871H28.315v-.871a.685.685,0,1,0-1.371,0v.871H22.769v-.871a.686.686,0,0,0-1.371,0v.871H17.223v-.871a.685.685,0,1,0-1.371,0v.871H11.677V42.646h.87a.686.686,0,0,0,0-1.371h-.87V37.1h.87a.685.685,0,0,0,0-1.371h-.87V31.554h.87a.685.685,0,0,0,0-1.371h-.87V26.008h.87a.686.686,0,0,0,0-1.371h-.87V20.462h.87a.685.685,0,0,0,0-1.371h-.87V14.916h.87a.685.685,0,0,0,0-1.371h-.87V8.685A.685.685,0,0,0,10.992,8H8.687A.686.686,0,0,0,8,8.685V49.811a.686.686,0,0,0,.686.686H49.813a.685.685,0,0,0,.685-.686v-2.3a.685.685,0,0,0-.685-.685Z" fill-rule="evenodd"/>
    </g>
  </g>
</svg>
