<svg xmlns="http://www.w3.org/2000/svg" width="71" height="71" viewBox="0 0 71 71">
  <g id="Grupo_1191748" data-name="Grupo 1191748" transform="translate(-932.051 -3732)">
    <circle id="Elipse_12315" data-name="Elipse 12315" cx="35.5" cy="35.5" r="35.5" transform="translate(932.051 3732)" fill="#fff"/>
    <g id="Grupo_1191747" data-name="Grupo 1191747" transform="translate(940.731 3724.6)">
      <g id="Grupo_1191746" data-name="Grupo 1191746" transform="translate(8.606 26.007)">
        <path id="Trazado_1279834" data-name="Trazado 1279834" d="M18.042,65.147H52.426v2.042H16V33.4h2.042Z" transform="translate(-16 -33.404)" fill="#a79ba7" fill-rule="evenodd"/>
        <g id="Grupo_1191740" data-name="Grupo 1191740" transform="translate(14.126 6.794)">
          <circle id="Elipse_12374" data-name="Elipse 12374" cx="1.707" cy="1.707" r="1.707" transform="translate(0 0)" fill="#ffe177"/>
          <path id="Trazado_1279835" data-name="Trazado 1279835" d="M221.174,122.924a1.707,1.707,0,1,1-.285,3.391,1.708,1.708,0,0,0,0-3.367A1.716,1.716,0,0,1,221.174,122.924Z" transform="translate(-219.466 -122.924)" fill="#ffd064" fill-rule="evenodd"/>
        </g>
        <g id="Grupo_1191741" data-name="Grupo 1191741" transform="translate(22.604 9.541)">
          <circle id="Elipse_12375" data-name="Elipse 12375" cx="1.707" cy="1.707" r="1.707" fill="#6cf5c2"/>
          <path id="Trazado_1279836" data-name="Trazado 1279836" d="M332.887,159.131a1.707,1.707,0,1,1-.285,3.391,1.708,1.708,0,0,0,0-3.367A1.715,1.715,0,0,1,332.887,159.131Z" transform="translate(-331.179 -159.131)" fill="#00e499" fill-rule="evenodd"/>
        </g>
        <g id="Grupo_1191742" data-name="Grupo 1191742" transform="translate(5.073 19.833)">
          <path id="Trazado_1279837" data-name="Trazado 1279837" d="M83.652,294.742H86.6a.811.811,0,0,1,.81.81v7.3a.811.811,0,0,1-.81.81H83.652a.811.811,0,0,1-.81-.81v-7.3A.811.811,0,0,1,83.652,294.742Z" transform="translate(-82.842 -294.742)" fill="#fe646f" fill-rule="evenodd"/>
          <path id="Trazado_1279838" data-name="Trazado 1279838" d="M118.327,294.742h1.063a.811.811,0,0,1,.81.81v7.3a.811.811,0,0,1-.81.81h-1.063a.811.811,0,0,0,.81-.81v-7.3A.811.811,0,0,0,118.327,294.742Z" transform="translate(-115.634 -294.742)" fill="#fd4755" fill-rule="evenodd"/>
        </g>
        <g id="Grupo_1191743" data-name="Grupo 1191743" transform="translate(13.55 14.18)">
          <path id="Trazado_1279839" data-name="Trazado 1279839" d="M195.365,220.254h2.946a.811.811,0,0,1,.81.81v12.954a.811.811,0,0,1-.81.81h-2.946a.811.811,0,0,1-.81-.81V221.064A.811.811,0,0,1,195.365,220.254Z" transform="translate(-194.555 -220.254)" fill="#ffe177" fill-rule="evenodd"/>
          <path id="Trazado_1279840" data-name="Trazado 1279840" d="M230.04,220.254H231.1a.811.811,0,0,1,.81.81v12.954a.811.811,0,0,1-.81.81H230.04a.811.811,0,0,0,.81-.81V221.064A.811.811,0,0,0,230.04,220.254Z" transform="translate(-227.347 -220.254)" fill="#ffd064" fill-rule="evenodd"/>
        </g>
        <g id="Grupo_1191744" data-name="Grupo 1191744" transform="translate(22.028 16.083)">
          <path id="Trazado_1279841" data-name="Trazado 1279841" d="M307.079,245.329h2.946a.811.811,0,0,1,.81.81v11.051a.811.811,0,0,1-.81.81h-2.946a.811.811,0,0,1-.81-.81V246.139A.811.811,0,0,1,307.079,245.329Z" transform="translate(-306.269 -245.329)" fill="#6cf5c2" fill-rule="evenodd"/>
          <path id="Trazado_1279842" data-name="Trazado 1279842" d="M341.754,245.329h1.063a.811.811,0,0,1,.81.81v11.051a.811.811,0,0,1-.81.81h-1.063a.811.811,0,0,0,.81-.81V246.139A.811.811,0,0,0,341.754,245.329Z" transform="translate(-339.061 -245.329)" fill="#00e499" fill-rule="evenodd"/>
        </g>
        <g id="Grupo_1191745" data-name="Grupo 1191745" transform="translate(30.506 8.191)">
          <path id="Trazado_1279843" data-name="Trazado 1279843" d="M418.79,141.334h2.946a.811.811,0,0,1,.81.81v18.943a.811.811,0,0,1-.81.81H418.79a.811.811,0,0,1-.81-.81V142.144A.811.811,0,0,1,418.79,141.334Z" transform="translate(-417.98 -141.334)" fill="#8ac9fe" fill-rule="evenodd"/>
          <path id="Trazado_1279844" data-name="Trazado 1279844" d="M453.466,141.335h1.063a.811.811,0,0,1,.81.81v18.943a.811.811,0,0,1-.81.81h-1.063a.811.811,0,0,0,.81-.81V142.145A.811.811,0,0,0,453.466,141.335Z" transform="translate(-450.773 -141.335)" fill="#60b7ff" fill-rule="evenodd"/>
        </g>
      </g>
      <path id="Trazado_1279845" data-name="Trazado 1279845" d="M44.426,59.186H9.213V26.614h.828V57.751a.607.607,0,0,0,.607.607H44.426v.828Zm.607-2.042H11.256V26.007a.608.608,0,0,0-.607-.607H8.606A.608.608,0,0,0,8,26.007V59.793a.608.608,0,0,0,.607.607H45.033a.608.608,0,0,0,.607-.607V57.751A.607.607,0,0,0,45.033,57.143ZM24.439,33.408a1.1,1.1,0,1,0,1.1,1.1A1.1,1.1,0,0,0,24.439,33.408Zm8.478,2.748a1.1,1.1,0,1,0,1.1,1.1A1.1,1.1,0,0,0,32.917,36.156ZM15.963,41.717a.6.6,0,0,0,.372-.128l6.717-5.229a2.311,2.311,0,0,0,3.324-.585l4.229,1.371c0,.036,0,.074,0,.111A2.315,2.315,0,1,0,34.92,36.1L40.6,30.372l-.114,1.02a.608.608,0,0,0,.536.671c.023,0,.046,0,.069,0a.608.608,0,0,0,.6-.54L42,28.774a.607.607,0,0,0-.656-.672l-2.76.242a.607.607,0,0,0,.106,1.21l1.108-.1-5.738,5.788a2.31,2.31,0,0,0-3.077.747l-4.23-1.371c0-.037,0-.074,0-.111A2.314,2.314,0,1,0,22.3,35.4l-6.716,5.229a.607.607,0,0,0,.374,1.086Zm-1.676,4.73v7.706h3.351V46.447Zm-.607,8.92h4.566a.607.607,0,0,0,.607-.607V45.84a.607.607,0,0,0-.607-.607H13.679a.607.607,0,0,0-.607.607v8.92a.607.607,0,0,0,.607.607ZM39.719,34.8V54.153h3.352V34.8ZM38.5,34.2V54.76a.607.607,0,0,0,.607.607h4.566a.607.607,0,0,0,.607-.607V34.2a.607.607,0,0,0-.607-.607H39.112A.608.608,0,0,0,38.5,34.2ZM34.593,54.153V42.7H31.242V54.153Zm-3.959-12.67a.607.607,0,0,0-.607.607V54.76a.607.607,0,0,0,.607.607H35.2a.607.607,0,0,0,.607-.607V42.09a.607.607,0,0,0-.607-.607Zm-4.519,12.67V40.794H22.764V54.152h3.351ZM22.157,39.58a.607.607,0,0,0-.607.607V54.76a.607.607,0,0,0,.607.607h4.565a.607.607,0,0,0,.607-.607V40.187a.607.607,0,0,0-.607-.607Z" transform="translate(0 0)" fill-rule="evenodd"/>
    </g>
  </g>
</svg>
