<svg xmlns="http://www.w3.org/2000/svg" width="71" height="71" viewBox="0 0 71 71">
  <g id="Grupo_1191739" data-name="Grupo 1191739" transform="translate(-514.051 -3857)">
    <circle id="Elipse_12316" data-name="Elipse 12316" cx="35.5" cy="35.5" r="35.5" transform="translate(514.051 3857)" fill="#fff"/>
    <g id="Grupo_1191738" data-name="Grupo 1191738" transform="translate(517.057 3849.474)">
      <g id="Grupo_1191737" data-name="Grupo 1191737" transform="translate(8.797 20.328)">
        <path id="Trazado_1279818" data-name="Trazado 1279818" d="M18.3,120.2H57.856v2.3H16V84.155h2.3Z" transform="translate(-16 -78.477)" fill="#a79ba7" fill-rule="evenodd"/>
        <g id="Grupo_1191734" data-name="Grupo 1191734" transform="translate(6.678 13.458)">
          <path id="Trazado_1279819" data-name="Trazado 1279819" d="M83.307,313.157h3.639a.713.713,0,0,1,.712.712v8.289a.713.713,0,0,1-.712.712H83.307a.713.713,0,0,1-.712-.712v-8.289A.713.713,0,0,1,83.307,313.157Z" transform="translate(-82.595 -297.974)" fill="#fe646f" fill-rule="evenodd"/>
          <path id="Trazado_1279820" data-name="Trazado 1279820" d="M113.769,313.157h1.225a.713.713,0,0,1,.712.712v8.289a.713.713,0,0,1-.712.712h-1.225a.713.713,0,0,0,.712-.712v-8.289A.713.713,0,0,0,113.769,313.157Z" transform="translate(-110.643 -297.974)" fill="#fd4755" fill-rule="evenodd"/>
          <path id="Trazado_1279821" data-name="Trazado 1279821" d="M180.7,262.406H177.06a.713.713,0,0,0-.712.712V276.5a.713.713,0,0,0,.712.712H180.7a.713.713,0,0,0,.712-.712V263.118A.713.713,0,0,0,180.7,262.406Z" transform="translate(-166.947 -252.312)" fill="#ffe177" fill-rule="evenodd"/>
          <path id="Trazado_1279822" data-name="Trazado 1279822" d="M208.748,262.406h-1.225a.713.713,0,0,1,.712.712V276.5a.713.713,0,0,1-.712.712h1.225a.713.713,0,0,0,.712-.712V263.118A.713.713,0,0,0,208.748,262.406Z" transform="translate(-194.996 -252.312)" fill="#ffd064" fill-rule="evenodd"/>
          <path id="Trazado_1279823" data-name="Trazado 1279823" d="M274.452,209.413h-3.639a.713.713,0,0,0-.712.712v18.691a.713.713,0,0,0,.712.712h3.639a.713.713,0,0,0,.712-.712V210.125A.713.713,0,0,0,274.452,209.413Z" transform="translate(-251.299 -204.633)" fill="#6cf5c2" fill-rule="evenodd"/>
          <path id="Trazado_1279824" data-name="Trazado 1279824" d="M302.5,209.413h-1.225a.713.713,0,0,1,.712.712v18.691a.713.713,0,0,1-.712.712H302.5a.713.713,0,0,0,.712-.712V210.125A.713.713,0,0,0,302.5,209.413Z" transform="translate(-279.349 -204.633)" fill="#00e499" fill-rule="evenodd"/>
          <path id="Trazado_1279825" data-name="Trazado 1279825" d="M364.564,161.741H368.2a.713.713,0,0,1,.712.712v23.471a.713.713,0,0,1-.712.712h-3.639a.713.713,0,0,1-.712-.712V162.453A.713.713,0,0,1,364.564,161.741Z" transform="translate(-335.65 -161.741)" fill="#8ac9fe" fill-rule="evenodd"/>
          <path id="Trazado_1279826" data-name="Trazado 1279826" d="M395.027,161.741h1.225a.713.713,0,0,1,.712.712v23.471a.713.713,0,0,1-.712.712h-1.225a.713.713,0,0,0,.712-.712V162.453A.713.713,0,0,0,395.027,161.741Z" transform="translate(-363.699 -161.741)" fill="#60b7ff" fill-rule="evenodd"/>
        </g>
        <g id="Grupo_1191735" data-name="Grupo 1191735" transform="translate(5.277 0)">
          <path id="Trazado_1279827" data-name="Trazado 1279827" d="M83.257,61.324a7.315,7.315,0,1,1-7.315-7.315v7.315Z" transform="translate(-68.628 -51.353)" fill="#ffd064" fill-rule="evenodd"/>
          <path id="Trazado_1279828" data-name="Trazado 1279828" d="M84.931,64v6.313h6.313A6.313,6.313,0,1,1,84.931,64Z" transform="translate(-77.616 -60.341)" fill="#ffe177" fill-rule="evenodd"/>
          <path id="Trazado_1279829" data-name="Trazado 1279829" d="M168.06,27.524a7.315,7.315,0,0,1,7.315,7.315H168.06Z" transform="translate(-158.09 -27.524)" fill="#fd4755" fill-rule="evenodd"/>
          <path id="Trazado_1279830" data-name="Trazado 1279830" d="M174.373,43.826H168.06V37.513A6.313,6.313,0,0,1,174.373,43.826Z" transform="translate(-158.09 -36.511)" fill="#fe646f" fill-rule="evenodd"/>
        </g>
        <g id="Grupo_1191736" data-name="Grupo 1191736" transform="translate(31.754 29.443)">
          <circle id="Elipse_12373" data-name="Elipse 12373" cx="8.188" cy="8.188" r="8.188" fill="#eceff1"/>
          <path id="Trazado_1279831" data-name="Trazado 1279831" d="M408.847,321.16a8.188,8.188,0,0,1,0,16.376q-.309,0-.612-.023a8.188,8.188,0,0,0,0-16.33Q408.538,321.16,408.847,321.16Z" transform="translate(-400.659 -321.16)" fill="#d1d1d6" fill-rule="evenodd"/>
          <path id="Trazado_1279832" data-name="Trazado 1279832" d="M368.6,370.726l3.981-4.021a1.212,1.212,0,1,1,1.72,1.708c-1.614,1.629-3.218,3.27-4.84,4.892a1.215,1.215,0,0,1-1.718,0l-2.691-2.691a1.214,1.214,0,0,1,1.718-1.718Z" transform="translate(-361.486 -361.816)" fill="#8ac9fe" fill-rule="evenodd"/>
        </g>
      </g>
      <path id="Trazado_1279833" data-name="Trazado 1279833" d="M52.8,55.8q-.9.908-1.8,1.82c-1,1.009-2.025,2.052-3.039,3.068a.415.415,0,0,1-.585,0L44.685,58a.414.414,0,0,1,0-.584.409.409,0,0,1,.293-.12.417.417,0,0,1,.293.12l1.827,1.83a.813.813,0,0,0,.571.235.8.8,0,0,0,.566-.238l3.983-4.021a.405.405,0,0,1,.576,0A.414.414,0,0,1,52.8,55.8Zm1.128-1.719a1.994,1.994,0,0,0-1.421-.585h0a2.006,2.006,0,0,0-1.425.6l-3.412,3.448L46.4,56.285a2.016,2.016,0,0,0-2.851,2.852l2.69,2.691a2.018,2.018,0,0,0,2.851,0c1.024-1.022,2.053-2.067,3.049-3.077.6-.606,1.194-1.212,1.793-1.817a2.015,2.015,0,0,0-.009-2.848Zm-5.187,11.26a7.386,7.386,0,1,0-7.386-7.386A7.395,7.395,0,0,0,48.739,65.345ZM9.6,26.809h.7V62.051a.8.8,0,0,0,.8.8H41.2c.156.24.326.472.505.7H9.6Zm34.883,7.779h3.455V49a8.888,8.888,0,0,0-3.455,1.04ZM38.54,57.879V39.368H35.08V57.879Zm11-8.874V33.786a.8.8,0,0,0-.8-.8H43.679a.8.8,0,0,0-.8.8V51.151a9,9,0,0,0-2.733,4.182V38.565a.8.8,0,0,0-.8-.8H34.278a.8.8,0,0,0-.8.8V58.681a.8.8,0,0,0,.8.8h5.064a.8.8,0,0,0,.51-.184,8.731,8.731,0,0,0,.524,1.949H11.9V26.007a.8.8,0,0,0-.8-.8H8.8a.805.805,0,0,0-.8.8V64.351a.8.8,0,0,0,.8.8H43.354A8.989,8.989,0,1,0,49.541,49Zm-24.7-27.826v5.669h5.673A6.539,6.539,0,0,0,24.838,21.178Zm-.8,7.274h7.325a.8.8,0,0,0,.8-.8,8.133,8.133,0,0,0-8.127-8.124.8.8,0,0,0-.8.8V27.65a.8.8,0,0,0,.8.8ZM20.6,23.82a6.52,6.52,0,1,0,7.273,7.273H21.4a.8.8,0,0,1-.8-.8Zm.8,14.595A8.132,8.132,0,0,0,29.52,30.29a.8.8,0,0,0-.8-.8H22.2v-6.52a.8.8,0,0,0-.8-.8,8.124,8.124,0,0,0,0,16.248ZM40.711,26.983a.8.8,0,0,0,.8.8H43.33a96.008,96.008,0,0,1-28.653,15.63.8.8,0,0,0,.264,1.56.773.773,0,0,0,.264-.045,97.581,97.581,0,0,0,29.13-15.894L43.977,30.8a.8.8,0,0,0,.628.944.819.819,0,0,0,.16.016.809.809,0,0,0,.788-.644l.8-3.975a.8.8,0,0,0-.783-.961H41.513A.8.8,0,0,0,40.711,26.983Zm-20.974,30.9V49.771h-3.46v8.108Zm-4.262-9.712a.8.8,0,0,0-.8.8v9.712a.8.8,0,0,0,.8.8h5.064a.8.8,0,0,0,.8-.8V48.969a.8.8,0,0,0-.8-.8Zm13.663,9.712v-13.2H25.679v13.2Zm-4.262-14.8a.8.8,0,0,0-.8.8v14.8a.8.8,0,0,0,.8.8H29.94a.8.8,0,0,0,.8-.8V43.88a.8.8,0,0,0-.8-.8Z" fill-rule="evenodd"/>
    </g>
  </g>
</svg>
