<svg xmlns="http://www.w3.org/2000/svg" width="63" height="63" viewBox="0 0 63 63">
  <g id="Grupo_1191316" data-name="Grupo 1191316" transform="translate(-1089.051 -4419)">
    <circle id="Elipse_12301" data-name="Elipse 12301" cx="31.5" cy="31.5" r="31.5" transform="translate(1089.051 4419)" fill="#fff"/>
    <g id="computer" transform="translate(1097.051 4427)">
      <path id="Trazado_1279060" data-name="Trazado 1279060" d="M44.567,16.433V36.5H3V16.433A1.438,1.438,0,0,1,4.433,15h38.7A1.438,1.438,0,0,1,44.567,16.433Z" transform="translate(-0.283 -3.683)" fill="#57a4ff"/>
      <path id="Trazado_1279061" data-name="Trazado 1279061" d="M44.567,16.433V36.5H3V33.633H33.1a8.6,8.6,0,0,0,8.6-8.6v-8.6A1.438,1.438,0,0,0,40.267,15h2.867A1.438,1.438,0,0,1,44.567,16.433Z" transform="translate(-0.283 -3.683)" fill="#2488ff"/>
      <path id="Trazado_1279062" data-name="Trazado 1279062" d="M53,27h2.867V37.033H53Z" transform="translate(-14.45 -7.083)" fill="#ff7956"/>
      <path id="Trazado_1279063" data-name="Trazado 1279063" d="M45,29h2.867v8.6H45Z" transform="translate(-12.183 -7.65)" fill="#ffde55"/>
      <path id="Trazado_1279064" data-name="Trazado 1279064" d="M37.2,59.867H20L22.15,57h12.9Z" transform="translate(-5.1 -15.583)" fill="#c6c5ca"/>
      <path id="Trazado_1279065" data-name="Trazado 1279065" d="M37,33h2.867v5.733H37Z" transform="translate(-9.917 -8.783)" fill="#00ddc2"/>
      <path id="Trazado_1279066" data-name="Trazado 1279066" d="M37.16,5.58a6.424,6.424,0,0,1,1.29,3.87,5.922,5.922,0,0,1-.043.717H32V3a6.444,6.444,0,0,1,5.16,2.58Z" transform="translate(-8.5 -0.283)" fill="#ff7956"/>
      <path id="Trazado_1279067" data-name="Trazado 1279067" d="M25.021,14.137A6.449,6.449,0,0,1,29.45,3v7.167h6.407a6.042,6.042,0,0,1-.33,1.433,6.445,6.445,0,0,1-10.506,2.537Z" transform="translate(-5.95 -0.283)" fill="#ffde55"/>
      <path id="Trazado_1279068" data-name="Trazado 1279068" d="M35.857,15.292a6.042,6.042,0,0,1-.33,1.433A6.448,6.448,0,0,1,23,14.575a6.661,6.661,0,0,1,.086-1.075,6.583,6.583,0,0,0,.287,1.075,6.333,6.333,0,0,0,1.648,2.537,6.439,6.439,0,0,0,10.2-1.82Z" transform="translate(-5.95 -3.258)" fill="#2488ff"/>
      <path id="Trazado_1279069" data-name="Trazado 1279069" d="M35.033,55.3H25l.717-4.3h8.6Z" transform="translate(-6.517 -13.883)" fill="#57a4ff"/>
      <path id="Trazado_1279070" data-name="Trazado 1279070" d="M44.567,45v2.867A1.438,1.438,0,0,1,43.133,49.3H4.433A1.438,1.438,0,0,1,3,47.867V45Z" transform="translate(-0.283 -12.183)" fill="#c6c5ca"/>
      <path id="Trazado_1279071" data-name="Trazado 1279071" d="M26,51h8.6v2.15H26Z" transform="translate(-6.8 -13.883)" fill="#2488ff"/>
      <path id="Trazado_1279072" data-name="Trazado 1279072" d="M10.583,22.583h3.583A3.583,3.583,0,1,1,10.583,19Z" transform="translate(-1.417 -4.817)" fill="#ffde55"/>
      <path id="Trazado_1279073" data-name="Trazado 1279073" d="M37,33h2.867v5.733H37Z" transform="translate(-9.917 -8.783)" fill="#00d7df"/>
      <path id="Trazado_1279074" data-name="Trazado 1279074" d="M53,27h2.867v1.433H53Z" transform="translate(-14.45 -7.083)" fill="#ff5023"/>
      <path id="Trazado_1279075" data-name="Trazado 1279075" d="M45,29h2.867v1.433H45Z" transform="translate(-12.183 -7.65)" fill="#ebbf00"/>
      <path id="Trazado_1279076" data-name="Trazado 1279076" d="M37,33h2.867v1.433H37Z" transform="translate(-9.917 -8.783)" fill="#009698"/>
      <path id="Trazado_1279077" data-name="Trazado 1279077" d="M42.85,10.6H30.523a7.31,7.31,0,0,0,.143-1.433,7.141,7.141,0,0,0-1.039-3.7l2.709-2.035h5.5V2H32.1a.705.705,0,0,0-.43.143l-2.9,2.179a7.136,7.136,0,0,0-10.535,0l-2.9-2.179A.705.705,0,0,0,14.9,2H9.167V3.433h5.5l2.709,2.035a7.141,7.141,0,0,0-1.039,3.7,7.31,7.31,0,0,0,.143,1.433H4.15A2.156,2.156,0,0,0,2,12.75V35.683a2.156,2.156,0,0,0,2.15,2.15H18.483V40.7h-2.15a.727.727,0,0,0-.573.287l-2.15,2.867A.717.717,0,0,0,14.183,45H32.817a.717.717,0,0,0,.573-1.147l-2.15-2.867a.727.727,0,0,0-.573-.287h-2.15V37.833H42.85A2.156,2.156,0,0,0,45,35.683V12.75a2.156,2.156,0,0,0-2.15-2.15ZM24.217,3.483a5.718,5.718,0,0,1,3.4,1.7L25.937,6.443,26.8,7.59l1.677-1.261a5.694,5.694,0,0,1,.76,2.838H24.217Zm-5.69,2.845L20.2,7.59l.86-1.147L19.386,5.182a5.718,5.718,0,0,1,3.4-1.7v6.4a.717.717,0,0,0,.717.717h5.547A5.73,5.73,0,1,1,18.526,6.329Zm11.782,35.8,1.075,1.433H15.617l1.075-1.433ZM19.917,40.7V37.833h7.167V40.7Zm23.65-5.017a.717.717,0,0,1-.717.717H4.15a.717.717,0,0,1-.717-.717v-2.15H43.567Zm0-3.583H3.433V12.75a.717.717,0,0,1,.717-.717H16.935a7.161,7.161,0,0,0,13.129,0H42.85a.717.717,0,0,1,.717.717Z" transform="translate(0 0)"/>
      <path id="Trazado_1279078" data-name="Trazado 1279078" d="M54,2h2.867V3.433H54Z" transform="translate(-14.733 0)"/>
      <path id="Trazado_1279079" data-name="Trazado 1279079" d="M44,6h1.433V7.433H44Z" transform="translate(-11.9 -1.133)"/>
      <path id="Trazado_1279080" data-name="Trazado 1279080" d="M48,6h7.167V7.433H48Z" transform="translate(-13.033 -1.133)"/>
      <path id="Trazado_1279081" data-name="Trazado 1279081" d="M44,10h5.733v1.433H44Z" transform="translate(-11.9 -2.267)"/>
      <path id="Trazado_1279082" data-name="Trazado 1279082" d="M54,10h2.867v1.433H54Z" transform="translate(-14.733 -2.267)"/>
      <path id="Trazado_1279083" data-name="Trazado 1279083" d="M6,2H8.867V3.433H6Z" transform="translate(-1.133 0)"/>
      <path id="Trazado_1279084" data-name="Trazado 1279084" d="M18,6h1.433V7.433H18Z" transform="translate(-4.533 -1.133)"/>
      <path id="Trazado_1279085" data-name="Trazado 1279085" d="M6,6h7.167V7.433H6Z" transform="translate(-1.133 -1.133)"/>
      <path id="Trazado_1279086" data-name="Trazado 1279086" d="M12,10h5.733v1.433H12Z" transform="translate(-2.833 -2.267)"/>
      <path id="Trazado_1279087" data-name="Trazado 1279087" d="M6,10H8.867v1.433H6Z" transform="translate(-1.133 -2.267)"/>
      <path id="Trazado_1279088" data-name="Trazado 1279088" d="M6,32H9.583v1.433H6Z" transform="translate(-1.133 -8.5)"/>
      <path id="Trazado_1279089" data-name="Trazado 1279089" d="M13,32H26.617v1.433H13Z" transform="translate(-3.117 -8.5)"/>
      <path id="Trazado_1279090" data-name="Trazado 1279090" d="M6,36H17.467v1.433H6Z" transform="translate(-1.133 -9.633)"/>
      <path id="Trazado_1279091" data-name="Trazado 1279091" d="M24,36h5.733v1.433H24Z" transform="translate(-6.233 -9.633)"/>
      <path id="Trazado_1279092" data-name="Trazado 1279092" d="M6,40h7.167v1.433H6Z" transform="translate(-1.133 -10.767)"/>
      <path id="Trazado_1279093" data-name="Trazado 1279093" d="M18,40H28.033v1.433H18Z" transform="translate(-4.533 -10.767)"/>
      <path id="Trazado_1279094" data-name="Trazado 1279094" d="M36.717,39.167h2.867a.717.717,0,0,0,.717-.717V32.717A.717.717,0,0,0,39.583,32H36.717a.717.717,0,0,0-.717.717V38.45A.717.717,0,0,0,36.717,39.167Zm.717-5.733h1.433v4.3H37.433Z" transform="translate(-9.633 -8.5)"/>
      <path id="Trazado_1279095" data-name="Trazado 1279095" d="M47.583,28H44.717a.717.717,0,0,0-.717.717v8.6a.717.717,0,0,0,.717.717h2.867a.717.717,0,0,0,.717-.717v-8.6A.717.717,0,0,0,47.583,28Zm-.717,8.6H45.433V29.433h1.433Z" transform="translate(-11.9 -7.367)"/>
      <path id="Trazado_1279096" data-name="Trazado 1279096" d="M55.583,26H52.717a.717.717,0,0,0-.717.717V36.75a.717.717,0,0,0,.717.717h2.867a.717.717,0,0,0,.717-.717V26.717A.717.717,0,0,0,55.583,26Zm-.717,10.033H53.433v-8.6h1.433Z" transform="translate(-14.167 -6.8)"/>
      <path id="Trazado_1279097" data-name="Trazado 1279097" d="M10.3,26.6a4.3,4.3,0,0,0,4.3-4.3.717.717,0,0,0-.717-.717H11.017V18.717A.717.717,0,0,0,10.3,18a4.3,4.3,0,1,0,0,8.6Zm-.717-7.076V22.3a.717.717,0,0,0,.717.717h2.776a2.867,2.867,0,1,1-3.492-3.493Z" transform="translate(-1.133 -4.533)"/>
      <path id="Trazado_1279098" data-name="Trazado 1279098" d="M20,24h1.433v1.433H20Z" transform="translate(-5.1 -6.233)"/>
      <path id="Trazado_1279099" data-name="Trazado 1279099" d="M24,24h5.733v1.433H24Z" transform="translate(-6.233 -6.233)"/>
      <path id="Trazado_1279100" data-name="Trazado 1279100" d="M20,28h8.6v1.433H20Z" transform="translate(-5.1 -7.367)"/>
      <path id="Trazado_1279101" data-name="Trazado 1279101" d="M40.228,26.2l1.231-2.47h3.857a.717.717,0,0,0,.551-.258l3.368-4.042h2.531V18H48.9a.717.717,0,0,0-.551.258L44.981,22.3H41.017a.717.717,0,0,0-.645.4l-1.231,2.47H36V26.6h3.583a.717.717,0,0,0,.645-.4Z" transform="translate(-9.633 -4.533)"/>
    </g>
  </g>
</svg>
