<svg xmlns="http://www.w3.org/2000/svg" width="71" height="71" viewBox="0 0 71 71">
  <g id="Grupo_1191756" data-name="Grupo 1191756" transform="translate(-926.051 -3861)">
    <circle id="Elipse_12317" data-name="Elipse 12317" cx="35.5" cy="35.5" r="35.5" transform="translate(926.051 3861)" fill="#fff"/>
    <g id="Grupo_1191755" data-name="Grupo 1191755" transform="translate(940.051 3875)">
      <circle id="Elipse_12376" data-name="Elipse 12376" cx="11.185" cy="11.185" r="11.185" transform="translate(0.635 14.453)" fill="#ffe177"/>
      <path id="Trazado_1279854" data-name="Trazado 1279854" d="M7.5,403.722a1.271,1.271,0,0,0,1.271,1.271H48.339a1.271,1.271,0,0,0,1.271-1.271V397.1l-21.055-1.316L7.5,397.1Z" transform="translate(-6.865 -362.247)" fill="#eaf6ff"/>
      <path id="Trazado_1279855" data-name="Trazado 1279855" d="M47.915,410.062V415.1a1.271,1.271,0,0,1-1.271,1.271H7.5v.424a1.271,1.271,0,0,0,1.271,1.271H48.339a1.271,1.271,0,0,0,1.271-1.271v-6.625Z" transform="translate(-6.865 -375.318)" fill="#d8ecfe"/>
      <path id="Trazado_1279856" data-name="Trazado 1279856" d="M48.339,364.719H8.771A1.271,1.271,0,0,0,7.5,365.99v2.677H49.61V365.99A1.271,1.271,0,0,0,48.339,364.719Z" transform="translate(-6.865 -333.817)" fill="#8ac9fe"/>
      <path id="Trazado_1279857" data-name="Trazado 1279857" d="M484.924,364.719H484.5v3.948h1.695V365.99A1.271,1.271,0,0,0,484.924,364.719Z" transform="translate(-443.449 -333.817)" fill="#60b7ff"/>
      <path id="Trazado_1279858" data-name="Trazado 1279858" d="M224.938,217.347a1.271,1.271,0,0,0,1.271,1.271h21.145a1.271,1.271,0,0,0,1.271-1.271v-6.625l-21.055-1.316-2.632,1.316Z" transform="translate(-205.88 -191.663)" fill="#eaf6ff"/>
      <path id="Trazado_1279859" data-name="Trazado 1279859" d="M246.93,223.688v5.036a1.271,1.271,0,0,1-1.271,1.271H224.938v.424a1.271,1.271,0,0,0,1.271,1.271h21.145a1.271,1.271,0,0,0,1.271-1.271v-6.625Z" transform="translate(-205.88 -204.735)" fill="#d8ecfe"/>
      <path id="Trazado_1279860" data-name="Trazado 1279860" d="M247.354,178.344H226.209a1.271,1.271,0,0,0-1.271,1.271v2.677h23.687v-2.677A1.271,1.271,0,0,0,247.354,178.344Z" transform="translate(-205.88 -163.233)" fill="#bbec6c"/>
      <path id="Trazado_1279861" data-name="Trazado 1279861" d="M484.924,178.344H484.5v3.948h1.695v-2.677A1.271,1.271,0,0,0,484.924,178.344Z" transform="translate(-443.449 -163.233)" fill="#a2e62e"/>
      <path id="Trazado_1279862" data-name="Trazado 1279862" d="M224.938,46.5a1.271,1.271,0,0,0,1.271,1.271h21.145a1.271,1.271,0,0,0,1.271-1.271V39.878L227.57,38.562l-2.632,1.316Z" transform="translate(-205.88 -35.295)" fill="#eaf6ff"/>
      <path id="Trazado_1279863" data-name="Trazado 1279863" d="M246.93,52.844V57.88a1.271,1.271,0,0,1-1.271,1.271H224.938v.424a1.271,1.271,0,0,0,1.271,1.271h21.145a1.271,1.271,0,0,0,1.271-1.271V52.95Z" transform="translate(-205.88 -48.367)" fill="#d8ecfe"/>
      <path id="Trazado_1279864" data-name="Trazado 1279864" d="M247.354,7.5H226.209a1.271,1.271,0,0,0-1.271,1.271v2.677h23.687V8.771A1.271,1.271,0,0,0,247.354,7.5Z" transform="translate(-205.88 -6.865)" fill="#fd9468"/>
      <path id="Trazado_1279865" data-name="Trazado 1279865" d="M484.924,7.5H484.5v3.948h1.695V8.771A1.271,1.271,0,0,0,484.924,7.5Z" transform="translate(-443.449 -6.865)" fill="#fe7d43"/>
      <path id="Trazado_1279866" data-name="Trazado 1279866" d="M41.474,0H20.329a1.909,1.909,0,0,0-1.906,1.906V5.264H4.583a.635.635,0,0,0-.635.635V16.821A11.829,11.829,0,0,0,1.034,30.478,1.908,1.908,0,0,0,0,32.173v9.3a1.909,1.909,0,0,0,1.906,1.906H41.474a1.909,1.909,0,0,0,1.906-1.906v-9.3a1.909,1.909,0,0,0-1.906-1.906H22.7a11.7,11.7,0,0,0,.78-2.677H35.553a.635.635,0,1,0,0-1.271H27.59V23.642H42.11v2.041a.636.636,0,0,1-.635.635H38.518a.635.635,0,1,0,0,1.271h2.956a1.909,1.909,0,0,0,1.906-1.906v-9.3a1.909,1.909,0,0,0-1.906-1.906H20.329a1.91,1.91,0,0,0-1.839,1.4A11.848,11.848,0,0,0,8.984,14.16a.635.635,0,0,0,.3,1.234,10.575,10.575,0,0,1,9.135,2.015v2.33H15.111a.635.635,0,0,0-.635.635v6.361l-.231-.231a.635.635,0,1,0-.9.9l1.316,1.316a.635.635,0,0,0,.9,0L16.876,27.4a.635.635,0,1,0-.9-.9l-.231.231V21.01h2.677v4.673a1.909,1.909,0,0,0,1.906,1.906h1.861a10.436,10.436,0,0,1-.887,2.677H2.338a10.556,10.556,0,0,1,1.61-11.649v8.118L3.717,26.5a.635.635,0,0,0-.9.9l1.316,1.316a.635.635,0,0,0,.9,0L6.348,27.4a.635.635,0,1,0-.9-.9l-.231.231V17.409a10.553,10.553,0,0,1,1.449-.979.635.635,0,1,0-.622-1.108q-.426.239-.828.51v-9.3h13.2v4.673a1.909,1.909,0,0,0,1.906,1.906H41.474a1.909,1.909,0,0,0,1.906-1.906v-9.3A1.909,1.909,0,0,0,41.474,0ZM27.59,22.371V19.694H42.11v2.677Zm-7.9-2.677h6.625v2.677H19.694Zm0-3.312a.636.636,0,0,1,.635-.635H41.474a.636.636,0,0,1,.635.635v2.041H19.694Zm0,9.3V23.642h6.625v2.677H20.329A.636.636,0,0,1,19.694,25.683Zm-18.423,9.8H6.58v2.677H1.271Zm0,5.989V39.433H6.58V42.11H1.906A.636.636,0,0,1,1.271,41.474Zm6.58-2.041H23.687V42.11H7.851ZM41.474,42.11H24.958V39.433H42.11v2.041A.636.636,0,0,1,41.474,42.11Zm.635-6.625v2.677H24.958V35.485Zm0-3.312v2.041H16.143a.635.635,0,1,0,0,1.271h7.544v2.677H7.851V35.485h5.327a.635.635,0,1,0,0-1.271H1.271V32.173a.636.636,0,0,1,.635-.635H41.474A.636.636,0,0,1,42.11,32.173ZM24.958,7.9V5.219H32.9V7.9ZM32.9,9.167v2.677H24.958V9.167Zm-13.2-3.948h3.993V7.9H19.694Zm14.475,0H42.11V7.9H34.169ZM19.694,1.906a.636.636,0,0,1,.635-.635H41.474a.636.636,0,0,1,.635.635V3.948H19.694Zm0,9.3V9.166h3.993v2.677H20.329a.636.636,0,0,1-.635-.635Zm21.78.635H34.169V9.166H42.11v2.041A.636.636,0,0,1,41.474,11.843Z"/>
    </g>
  </g>
</svg>
