<svg xmlns="http://www.w3.org/2000/svg" xmlns:xlink="http://www.w3.org/1999/xlink" width="505" height="188.046" viewBox="0 0 505 188.046">
  <defs>
    <clipPath id="clip-path">
      <rect id="Rectángulo_412073" data-name="Rectángulo 412073" width="505" height="152.297" rx="14" transform="translate(914.8 1760)" fill="#111d96"/>
    </clipPath>
    <linearGradient id="linear-gradient" x1="0.607" y1="0.434" x2="0.284" y2="0.705" gradientUnits="objectBoundingBox">
      <stop offset="0" stop-color="#31ba5c"/>
      <stop offset="0.565" stop-color="#31ba5c" stop-opacity="0.337"/>
      <stop offset="1" stop-color="#31ba5c" stop-opacity="0"/>
    </linearGradient>
  </defs>
  <g id="Grupo_1191732" data-name="Grupo 1191732" transform="translate(-914.8 -1725)">
    <rect id="Rectángulo_411786" data-name="Rectángulo 411786" width="505" height="152.297" rx="14" transform="translate(914.8 1760)" fill="#111d96"/>
    <g id="Enmascarar_grupo_1099242" data-name="Enmascarar grupo 1099242" clip-path="url(#clip-path)">
      <g id="Grupo_1191733" data-name="Grupo 1191733" transform="translate(648.629 184.564)">
        <path id="Trazado_1279817" data-name="Trazado 1279817" d="M0,148.209c30.564,82.245,93.549,151.94,172.29,190.647,20.709,10.179,46.659,17.922,65.757,4.97,9.32-6.32,15.259-16.752,18.153-27.635,9.237-34.735-9.945-71.687-3.539-107.053,5.267-29.076,28.346-53.386,56.19-63.279s59.5-6.272,86.084,6.629c35.23,17.1,61.715,49.022,97.323,65.316,33.916,15.518,74.99,14.962,108.036-2.335s57.077-51.208,61.5-88.243S650.509,51.159,621.08,28.245C596.907,9.422,565.622,1.948,535.035.2c-18.942-1.081-41.374,1.765-50.714,18.279-9.669,17.094.359,38.208,10.255,55.17q15.6,26.738,31.2,53.474c6.171,10.579,12.458,21.471,14.39,33.564s-1.44,25.839-11.407,32.955c-11.475,8.193-28.13,5.012-39.308-3.583s-18.147-21.417-24.828-33.833c-16.27-30.24-32.994-60.73-56.444-85.814s-54.7-44.579-88.955-47.01c-45.759-3.246-90.35,25.835-112.028,66.263s-22.371,89.941-8.715,133.735c5.658,18.147,13.746,36.291,12.445,55.255s-16.608,38.818-35.477,36.52c-10.692-1.3-19.333-9.129-26.6-17.078-35.424-38.738-56.454-89.159-65.632-140.842S76.145,52.466,82.677.381" transform="translate(131.921 1470.713)" fill="#0b1468"/>
        <path id="Trazado_1273760" data-name="Trazado 1273760" d="M-8877.981-13837.08a230.9,230.9,0,0,0-40.263,3.871c-63.395,11.336-125.908,56.583-185.807,134.485-42.6,55.406-67.863,107.013-70.421,112.323-3.249,5.738-34.721,63.089-19.747,105.331,5.948,16.777,18.107,28.92,36.141,36.093a37.217,37.217,0,0,0,13.814,2.646c30.625,0,60.318-35.775,97.913-81.069,46.866-56.469,105.2-126.744,172.739-126.744a106.11,106.11,0,0,1,35.1,6.167c58.815,20.61,91.832,60.742,123.761,99.554,37.684,45.806,73.276,89.07,144.586,89.07,20.573,0,42.757-3.576,67.818-10.932,82.6-24.238,130.338-88.526,127.713-171.966-2.555-81.211-51.222-155.49-110.794-169.1a132.579,132.579,0,0,0-29.422-3.434c-46.779,0-79.964,27.067-109.241,50.949-24.583,20.05-45.81,37.365-70.8,37.365a56.765,56.765,0,0,1-11.047-1.11c-25.619-5.1-39.712-24.107-56.031-46.117C-8785.383-13801.281-8811.922-13837.08-8877.981-13837.08Zm-266.282,372.945a14.555,14.555,0,0,1-5.484-1.053c-12.015-4.777-19.706-12.317-23.511-23.055-10.1-28.492,9.8-73.031,18.313-87.785l.4-.76c1-2.1,101.608-210.179,240.275-234.97a208.2,208.2,0,0,1,36.289-3.52c54.768,0,75.8,28.374,98.072,58.413,17.45,23.534,35.492,47.87,69.566,54.652a79.443,79.443,0,0,0,15.452,1.543c33.007,0,59.427-21.551,84.979-42.395,27.678-22.576,56.3-45.924,95.063-45.922a110.078,110.078,0,0,1,24.4,2.871c49.412,11.289,91.418,77.921,93.639,148.538,1.1,35.025-7.594,119.794-111.883,150.4-22.969,6.742-43.074,10.019-61.465,10.019-60.711,0-91.58-37.525-127.325-80.972-32.281-39.242-68.87-83.714-133.565-106.385a128.562,128.562,0,0,0-42.559-7.436c-78.083,0-140.105,74.725-189.94,134.77C-9094.729-13499.615-9124.178-13464.135-9144.264-13464.135Z" transform="translate(9249.569 15339.886)" fill="url(#linear-gradient)"/>
      </g>
    </g>
    <g id="Character" transform="translate(1178.212 1726)">
      <g id="Head" transform="translate(116.485 0)">
        <g id="Hair">
          <path id="Trazado_1279744" data-name="Trazado 1279744" d="M77.646,243.385c-.526,10.3,7.593,18.954,18.38,19.5s19.958-7.355,20.484-17.658-3.774-14.379-9.666-18.114C87.69,216.248,71.442,226.931,77.646,243.385Z" transform="translate(-69.899 -222.71)" fill="#303030"/>
          <path id="Trazado_1279745" data-name="Trazado 1279745" d="M75.568,249.266c2.1.917,3.278-.678,4.168-2.336l12.977-18.183c14.969,4.282,15.14,16.772,13.338,26.289,14.579,4.028,12.725,30.2-3.586,28.421-.921.039-.918.123-1.695.843a25.013,25.013,0,0,1-6.594,4.336c-6.691,3.346-30.861.505-23.256-10.717C49.364,276.873,56.838,244.868,75.568,249.266Z" transform="translate(-55.767 -224.339)" fill="#303030"/>
          <g id="Hair-2" data-name="Hair" transform="translate(0 27.18)">
            <path id="Trazado_1279746" data-name="Trazado 1279746" d="M135.189,259.934c-5.989.684-9.624,5.433-10.721,10.665-.821,3.917.333,13.2,11.431,14.353" transform="translate(-124.258 -259.934)" fill="none" stroke="#303030" stroke-linecap="round" stroke-linejoin="round" stroke-width="1.5"/>
          </g>
        </g>
        <path id="Trazado_1279747" data-name="Trazado 1279747" d="M99.284,234.207c-.859,12.863,5.611,15.986,5.611,15.986a22.963,22.963,0,0,0-2.212,5.139,8.63,8.63,0,0,1,6.152-3.267c2.424-.071,4.959,1.456,5.468,3.724.5,2.242-1.1,4.578-3.285,5.513a8.763,8.763,0,0,1-7.686-.62l0,0a12.6,12.6,0,0,1-6.38,5.567l.743,9.494,5.925,1.85s-2.448,12.061-23.946,12.256c-16.049.146-4.791-14.359-4.791-14.359l7.336-.808,1.257-6.847c-4.028-.611-15.611-4.875-12.864-20.179a22.193,22.193,0,0,1,3.274-8.236h0C80.441,229.819,91.9,230.407,99.284,234.207Z" transform="translate(-63.276 -225.118)" fill="#ffc4b0"/>
        <g id="Grupo_1191717" data-name="Grupo 1191717" transform="translate(9.476 13.982)">
          <g id="Grupo_1191709" data-name="Grupo 1191709" transform="translate(31.933 15.853)">
            <path id="Trazado_1279748" data-name="Trazado 1279748" d="M81.168,264.108a4.435,4.435,0,0,0-3.289-.4,4.229,4.229,0,0,0-2.989,2.686" transform="translate(-74.891 -263.571)" fill="none" stroke="#303030" stroke-linecap="round" stroke-linejoin="round" stroke-width="1.5"/>
            <path id="Trazado_1279749" data-name="Trazado 1279749" d="M81.406,266.039a3.271,3.271,0,0,0-3.246-.327" transform="translate(-77.516 -264.066)" fill="none" stroke="#303030" stroke-linecap="round" stroke-linejoin="round" stroke-width="1.5"/>
          </g>
          <g id="Grupo_1191716" data-name="Grupo 1191716" transform="translate(0)">
            <path id="Trazado_1279750" data-name="Trazado 1279750" d="M109.8,280.722a19.973,19.973,0,0,1-8.523.357l-.411,2.239S106.028,283.9,109.8,280.722Z" transform="translate(-90.563 -252.346)" fill="#303030"/>
            <g id="Grupo_1191715" data-name="Grupo 1191715">
              <path id="Trazado_1279751" data-name="Trazado 1279751" d="M91.232,257.984a.627.627,0,1,0,.632-.621A.627.627,0,0,0,91.232,257.984Z" transform="translate(-66.207 -246.043)" fill="#303030"/>
              <path id="Trazado_1279752" data-name="Trazado 1279752" d="M112.49,248.907a10.76,10.76,0,0,1-2.177,5.235,2.947,2.947,0,0,0-.479.87,1.774,1.774,0,0,0,.3,1.419,4.879,4.879,0,0,0,1.062,1.047" transform="translate(-99.759 -243.761)" fill="none" stroke="#303030" stroke-linecap="round" stroke-linejoin="round" stroke-width="1.5"/>
              <g id="Grupo_1191711" data-name="Grupo 1191711">
                <g id="Grupo_1191710" data-name="Grupo 1191710" transform="translate(1.238 4.332)">
                  <path id="Trazado_1279753" data-name="Trazado 1279753" d="M115.343,249.7a3.966,3.966,0,0,1,3.9-1.878c1.552.2,3.59,1.384,3.539,3.6C121.756,253.454,116.781,253.073,115.343,249.7Z" transform="translate(-115.343 -247.792)" fill="#fff"/>
                  <path id="Trazado_1279754" data-name="Trazado 1279754" d="M119.677,251.011a2.067,2.067,0,0,0,2.8.791,2.034,2.034,0,0,0,.911-2.742,2.067,2.067,0,0,0-2.8-.791A2.034,2.034,0,0,0,119.677,251.011Z" transform="translate(-119.178 -247.853)" fill="#303030"/>
                  <path id="Trazado_1279755" data-name="Trazado 1279755" d="M121.121,249.362l-2,1.037,2.32.071Z" transform="translate(-116.769 -248.216)" fill="#fff"/>
                  <path id="Trazado_1279756" data-name="Trazado 1279756" d="M122.735,251.538a4.515,4.515,0,0,0-3.334-3.116,4.016,4.016,0,0,0-4.058.862" transform="translate(-115.301 -247.902)" fill="none" stroke="#303030" stroke-linecap="round" stroke-linejoin="round" stroke-width="1.5"/>
                </g>
                <path id="Trazado_1279757" data-name="Trazado 1279757" d="M125.463,248.046a1.669,1.669,0,0,0,1.284,1.163" transform="translate(-125.463 -243.529)" fill="none" stroke="#303030" stroke-linecap="round" stroke-linejoin="round" stroke-width="1.5"/>
                <path id="Trazado_1279758" data-name="Trazado 1279758" d="M121.985,242.082a7.675,7.675,0,0,0-6.151,1.106" transform="translate(-113.67 -241.859)" fill="none" stroke="#303030" stroke-linecap="round" stroke-linejoin="round" stroke-width="1.5"/>
              </g>
              <g id="Grupo_1191713" data-name="Grupo 1191713" transform="translate(15.868 1.128)">
                <g id="Grupo_1191712" data-name="Grupo 1191712" transform="translate(0 4.975)">
                  <path id="Trazado_1279759" data-name="Trazado 1279759" d="M102.672,252.782a3.967,3.967,0,0,0-3.487-2.559c-1.562-.085-3.783.705-4.137,2.9C95.681,255.3,100.642,255.834,102.672,252.782Z" transform="translate(-95.048 -250.218)" fill="#fff"/>
                  <path id="Trazado_1279760" data-name="Trazado 1279760" d="M99.383,253.867a2.171,2.171,0,0,0,2.962.744,2.135,2.135,0,0,0,.872-2.905,2.17,2.17,0,0,0-2.962-.743A2.135,2.135,0,0,0,99.383,253.867Z" transform="translate(-98.83 -250.338)" fill="#303030"/>
                  <path id="Trazado_1279761" data-name="Trazado 1279761" d="M100.834,252l-2.065,1.15,2.437,0Z" transform="translate(-96.299 -250.697)" fill="#fff"/>
                  <path id="Trazado_1279762" data-name="Trazado 1279762" d="M94.974,253.272a4.515,4.515,0,0,1,3.846-2.455,4.016,4.016,0,0,1,3.832,1.589" transform="translate(-94.974 -250.37)" fill="none" stroke="#303030" stroke-linecap="round" stroke-linejoin="round" stroke-width="1.5"/>
                </g>
                <path id="Trazado_1279763" data-name="Trazado 1279763" d="M94.424,251.717a1.67,1.67,0,0,1-1.475.909" transform="translate(-85.267 -245.647)" fill="none" stroke="#303030" stroke-linecap="round" stroke-linejoin="round" stroke-width="1.5"/>
                <path id="Trazado_1279764" data-name="Trazado 1279764" d="M93.774,243.421c2.76-.126,4.477.379,6.345,2.334" transform="translate(-91.565 -243.403)" fill="none" stroke="#303030" stroke-linecap="round" stroke-linejoin="round" stroke-width="1.5"/>
              </g>
              <g id="Grupo_1191714" data-name="Grupo 1191714" transform="translate(7.5 16.838)">
                <path id="Trazado_1279765" data-name="Trazado 1279765" d="M113.543,265.711c-1.234.082-2.736.344-3.165,1.427a3.347,3.347,0,0,0-1.611-1.661,4.7,4.7,0,0,1,2.444-.542A6.033,6.033,0,0,1,113.543,265.711Z" transform="translate(-107.569 -264.92)" fill="#303030"/>
                <path id="Trazado_1279766" data-name="Trazado 1279766" d="M111.172,266.561a4.716,4.716,0,0,1-4.473,1.679c-.546-.092-.571-.434-.75-.812.085-.518.927-1.5,3.165-1.427A4.384,4.384,0,0,0,111.172,266.561Z" transform="translate(-103.139 -265.211)" fill="#fff"/>
                <path id="Trazado_1279767" data-name="Trazado 1279767" d="M104.469,265.534c1.235.042,2.41-.67,3.643-.6a9.256,9.256,0,0,1,2.718.938,2.8,2.8,0,0,0,2.753-.1" transform="translate(-104.469 -264.923)" fill="none" stroke="#303030" stroke-linecap="round" stroke-linejoin="round" stroke-width="1.5"/>
                <path id="Trazado_1279768" data-name="Trazado 1279768" d="M105.883,265.731a3.754,3.754,0,0,1,1.83,1.858.8.8,0,0,0,.643.579,4.882,4.882,0,0,0,4.521-1.751" transform="translate(-104.796 -265.139)" fill="none" stroke="#303030" stroke-linecap="round" stroke-linejoin="round" stroke-width="1.5"/>
              </g>
            </g>
          </g>
        </g>
      </g>
      <g id="Arm" transform="translate(42.918 10.327)">
        <g id="Arm-2" data-name="Arm">
          <g id="Arm-3" data-name="Arm">
            <path id="Trazado_1279769" data-name="Trazado 1279769" d="M154.248,300.086c-3.314-7.946-7.882-24.718-10.119-26.8-1.935-1.8-4.651-2.3-6.657-7.613a14.015,14.015,0,0,1-.643-4.06,13.75,13.75,0,0,1-2.24-1.9,3.094,3.094,0,0,1-.256-3.5,1.943,1.943,0,0,1,.447-.54,1.738,1.738,0,0,1,1.694-.524,3.216,3.216,0,0,1,.709-2.7c.728-.643,1.4-.977,2.1-.307-.245-1.941,2.619-3.625,3.222-3.743,0,0-1.313-3.332-2.134-5.092a8.75,8.75,0,0,1-1.154-4.252c.322-2.3,1.82-2.645,2.666-1.747a29.254,29.254,0,0,1,2.965,4.317c1.2,1.875,4.248,6.6,5.2,8.086a39.976,39.976,0,0,1,2.486,4.006c1.325,3,1.182,5.814,1.808,8.6.544,2.42,1.98,4.674,3.843,7.651,3.562,5.694,10.423,15.739,10.423,15.739s25.131-5.789,29.217-7.021,14.236-1.448,14.236-1.448l-4.484,22.5s-23.872,3.4-33.606,4.91C164.267,306.158,157.7,308.353,154.248,300.086Z" transform="translate(-133.903 -236.853)" fill="#ffc4b0"/>
            <g id="Grupo_1191718" data-name="Grupo 1191718" transform="translate(2.572 14.457)">
              <path id="Trazado_1279770" data-name="Trazado 1279770" d="M227.479,259.532a5.193,5.193,0,0,1-1.838-2.88" transform="translate(-218.87 -256.652)" fill="none" stroke="#303030" stroke-linecap="round" stroke-linejoin="round" stroke-width="1.5"/>
              <path id="Trazado_1279771" data-name="Trazado 1279771" d="M228.625,257.8c.448,3.1,2.778,3.752,3.618,4.678" transform="translate(-225.813 -256.961)" fill="none" stroke="#303030" stroke-linecap="round" stroke-linejoin="round" stroke-width="1.5"/>
              <path id="Trazado_1279772" data-name="Trazado 1279772" d="M230.481,261.908c.577,2.364,3,4.532,5.075,4.384" transform="translate(-230.481 -258.07)" fill="none" stroke="#303030" stroke-linecap="round" stroke-linejoin="round" stroke-width="1.5"/>
              <path id="Trazado_1279773" data-name="Trazado 1279773" d="M229.832,270.341c.859.947,3.876,1.69,5.274-.078" transform="translate(-229.557 -260.325)" fill="none" stroke="#303030" stroke-linecap="round" stroke-linejoin="round" stroke-width="1.5"/>
              <path id="Trazado_1279774" data-name="Trazado 1279774" d="M227.518,259.105c-.947.213-1.608.3-2.226.426a7.479,7.479,0,0,0-2.558.956,7.99,7.99,0,0,0-1.776,2.339,25.961,25.961,0,0,0-1.352,2.7,1.27,1.27,0,0,0-.028.946,1.457,1.457,0,0,0,1.329.86A3.627,3.627,0,0,0,223.6,266.1a4.209,4.209,0,0,1,2.454-1.365" transform="translate(-214.425 -257.314)" fill="none" stroke="#303030" stroke-linecap="round" stroke-linejoin="round" stroke-width="1.5"/>
              <path id="Trazado_1279775" data-name="Trazado 1279775" d="M222.077,269.2a4.453,4.453,0,0,0,2.9,6.521" transform="translate(-213.356 -260.038)" fill="none" stroke="#303030" stroke-linecap="round" stroke-linejoin="round" stroke-width="1.5"/>
            </g>
          </g>
        </g>
      </g>
      <path id="Chest" d="M130.556,376.569c3.351-2.853,4.149-4.962,2.321-11.221-1.648-5.644-6.107-16.069-5.21-24.531,3.5-33,6.883-37.118-3.185-44.595l-15.084-4.3c-5.757,8.283-22.139,6.217-20.162-1.384L77,291.728s-10.483,11.614-13.574,17.131c-6.566,11.719-5.729,24.271,1.081,32.07-.073,2.691-1.333,9.666-1.333,9.666-3.9,5.045-4.839,7.324-7.111,12.667C65.051,387.217,110.73,389.918,130.556,376.569Z" transform="translate(44.088 -241.013)" fill="#fff" stroke="#303030" stroke-linecap="round" stroke-linejoin="round" stroke-width="1.5"/>
      <g id="Device" transform="translate(41.593 45.672)">
        <path id="Trazado_1279776" data-name="Trazado 1279776" d="M211.495,326.84l-15.291-39.3a1.549,1.549,0,0,0-1.446-.989l-63.011-1.292a2.083,2.083,0,0,0-1.55.684c-.456.486-1.909,2.082-2.305,2.515a2.022,2.022,0,0,0-.467,2.071l15.291,39.3a1.549,1.549,0,0,0,1.446.989l16.038.329,46.973.963a2.108,2.108,0,0,0,1.585-.717c.445-.488,1.868-2.047,2.264-2.476A2.021,2.021,0,0,0,211.495,326.84Z" transform="translate(-127.306 -285.26)" fill="#fff" stroke="#303030" stroke-linecap="round" stroke-linejoin="round" stroke-width="1.5"/>
        <path id="Trazado_1279777" data-name="Trazado 1279777" d="M210.284,333.03l-46.973-.963-16.038-.329a1.55,1.55,0,0,1-1.446-.989l-15.291-39.3a2.153,2.153,0,0,1,2.039-2.778l63.012,1.292A1.566,1.566,0,0,1,197.049,291l15.292,39.3A2.151,2.151,0,0,1,210.284,333.03Z" transform="translate(-130.418 -286.181)" fill="#f55571" stroke="#303030" stroke-linecap="round" stroke-linejoin="round" stroke-width="1.5"/>
        <path id="Trazado_1279778" data-name="Trazado 1279778" d="M185.945,321.075h-.021c-2.765-.057-5.567-1.543-6.258-3.319s.989-3.171,3.755-3.114h.021c2.765.057,5.567,1.543,6.258,3.319S188.71,321.131,185.945,321.075Z" transform="translate(-143.666 -293.188)" fill="#fff"/>
      </g>
      <g id="Arm-4" data-name="Arm" transform="translate(95.026 54.557)">
        <path id="Trazado_1279779" data-name="Trazado 1279779" d="M130.478,336.123c-2.684,5.859-4.989,10.914-7.307,15.111-3.9,7.054-9.936,14.278-20.052,9.249C92.9,355.406,80.682,344.457,74.784,339.34c-6.2-5.375-6.015-9.866-6.849-11.388s-5.371-4.22-9.908-5.954c-4.223-1.615-5.541-4-4.095-5.592-2.687-1.116-3.049-5.056-.9-4.926,2.55.156,15.1,4.745,15.1,4.745a44.185,44.185,0,0,0-6.608-4.158c-1.76-.9-5.5-2.207-6.3-2.51-2.576-.973-2.252-3.5-.844-3.452s6.469.7,8.539,1.608,8.34,4.1,8.34,4.1l-1.9-3.635s-3.889-2.3-6.147-3.746-1.7-4.32.525-3.483c2.372.561,8.183,2.771,9.588,3.851s5.8,5.065,6.3,7.187a41.462,41.462,0,0,1,.934,6.91c.158,2.507-.014,4.991,5.289,7.354,5.174,2.306,16.184,7.232,16.184,7.232l7.862-14.693c4.71-8.457,9.83-19.3,15.29-20.469,9.827,1.225,12.818,10.484,12.565,15.67C137.336,322.365,134.719,326.871,130.478,336.123Z" transform="translate(-51.638 -297.67)" fill="#ffc4b0"/>
        <path id="Trazado_1279780" data-name="Trazado 1279780" d="M158.754,321.834a98.8,98.8,0,0,0-14.229-4.683" transform="translate(-140.453 -302.751)" fill="none" stroke="#303030" stroke-linecap="round" stroke-linejoin="round" stroke-width="1.5"/>
        <path id="Trazado_1279781" data-name="Trazado 1279781" d="M149.036,323.037c.042-.328,1.57-.112,4.368.941,2.473.932,8.344,3.3,8.344,3.3" transform="translate(-146.741 -304.301)" fill="none" stroke="#303030" stroke-linecap="round" stroke-linejoin="round" stroke-width="1.5"/>
        <path id="Trazado_1279782" data-name="Trazado 1279782" d="M92.018,297.429c-5.067,2.019-7.352,6.742-14.562,19.8-6.767,12.257-8.59,16.015-8.59,16.015,6.943,2.834,12.643,9.247,13.453,14.569" transform="translate(-18.474 -297.429)" fill="none" stroke="#303030" stroke-linecap="round" stroke-linejoin="round" stroke-width="1.5"/>
      </g>
      <g id="Leg" transform="translate(4.289 110.806)">
        <path id="Trazado_1279783" data-name="Trazado 1279783" d="M103.707,404.07c9.331-5.985,33.613-17.763,79.157-20.8.743,0,44.777-8.809,44.777-8.809s4.014,18.585,1.487,36.13-17.247,26.114-30.926,25.4-93.042.331-93.042.331Z" transform="translate(-91.121 -374.465)" fill="#00826f"/>
        <g id="Grupo_1191721" data-name="Grupo 1191721" transform="translate(0 29.597)">
          <path id="Trazado_1279784" data-name="Trazado 1279784" d="M218.848,426.55c5.486.372,11.967,7.8,7.274,17.191-5.129,10.261-9.051,13.009-15.4,13.354s-12.232-8.36-8.714-17.555C204.953,431.837,209.451,426.565,218.848,426.55Z" transform="translate(-159.902 -418.117)" fill="#303030"/>
          <path id="Trazado_1279785" data-name="Trazado 1279785" d="M254.757,431.622l-23.728,20.4s-14.036.719-43.52,3.087c-26.392,2.119-33.338-8.485-32.267-17.322,1.227-10.13,12.213-14.431,26.545-16.148,10.828-1.3,11.9,4.347,35.147,6.862C238.248,430.8,254.757,431.622,254.757,431.622Z" transform="translate(-153.468 -416.739)" fill="#ffc4b0"/>
          <g id="Grupo_1191719" data-name="Grupo 1191719" transform="translate(65.557 7.221)">
            <path id="Trazado_1279786" data-name="Trazado 1279786" d="M165.741,430.1c-.049-2.439,2.465-2.48,5.7-2.1a39.014,39.014,0,0,0,10.3-.4c3.706-.625,5.935-3.014,10.841-2.609-3.74,5.811-5.687,11.114-6.447,19.6a27.3,27.3,0,0,0,4.17,17.21c-5.33-1.162-7.217-1.29-10.529-1.858-5.508-.943-7.413-1.078-10.853-1.468-5.386-.612-6.374-2.1-6.374-5.166l2.9-.1s-2.615-.805-3.354-2.657c-1.5-3.758-.021-14.04,2.33-17.758,1.092-1.725,4.641-2.371,4.641-2.371Z" transform="translate(-161.486 -424.905)" fill="#f55571"/>
            <path id="Trazado_1279787" data-name="Trazado 1279787" d="M157.957,424.976c-3.739,5.811-5.687,11.114-6.447,19.6a27.3,27.3,0,0,0,4.17,17.21,19.707,19.707,0,0,0,7.364.806,27.3,27.3,0,0,1-4.171-17.211c.76-8.488,2.707-13.791,6.447-19.6A16,16,0,0,0,157.957,424.976Z" transform="translate(-126.861 -424.89)" fill="#fff" stroke="#303030" stroke-linecap="round" stroke-linejoin="round" stroke-width="1.5"/>
            <path id="Trazado_1279788" data-name="Trazado 1279788" d="M153.959,426.1c-3.739,5.812-5.686,11.115-6.447,19.6a27.3,27.3,0,0,0,4.171,17.211c.894.821,4.052-7.6,4.979-18.423S155.317,425.572,153.959,426.1Z" transform="translate(-115.499 -425.21)" fill="#303030" stroke="#303030" stroke-linecap="round" stroke-linejoin="round" stroke-width="1.5"/>
            <line id="Línea_611" data-name="Línea 611" x2="17.715" y2="0.353" transform="translate(1.064 28.407)" fill="none" stroke="#303030" stroke-linecap="round" stroke-linejoin="round" stroke-width="1.5"/>
            <path id="Trazado_1279789" data-name="Trazado 1279789" d="M177.239,432c6.011,1.117,15.339,3.581,15.339,3.581" transform="translate(-172.984 -426.81)" fill="none" stroke="#303030" stroke-linecap="round" stroke-linejoin="round" stroke-width="1.5"/>
            <path id="Trazado_1279790" data-name="Trazado 1279790" d="M175.191,460.2c-17.152-3.52-12.845-29.994,1.967-30.824" transform="translate(-147.952 -426.099)" fill="none" stroke="#303030" stroke-linecap="round" stroke-linejoin="round" stroke-width="1.5"/>
          </g>
          <g id="Grupo_1191720" data-name="Grupo 1191720">
            <path id="Trazado_1279791" data-name="Trazado 1279791" d="M272.075,423.433c-9.246,1.474-22.15,28.248-8.127,30.545,0,0-26.04,2.007-36.2-.055s-14.6-10.325-14.621-16.727c-.023-6.957,2.5-16.554,12.586-22.187,6-.155,13.477,2.005,19.723,2.887C255.288,419.287,260.428,421.561,272.075,423.433Z" transform="translate(-213.128 -415)" fill="#00826f"/>
            <path id="Trazado_1279792" data-name="Trazado 1279792" d="M248.706,424.691c-11.647-1.873-10.531-3.111-20.374-4.56-9.664-1.423-15.2.842-15.2.842" transform="translate(-189.759 -416.258)" fill="none" stroke="#303030" stroke-linecap="round" stroke-linejoin="round" stroke-width="1.5"/>
            <path id="Trazado_1279793" data-name="Trazado 1279793" d="M238.658,424.177c-10.174,5.459-16.993,28.435-6.723,32.727" transform="translate(-189.725 -417.476)" fill="none" stroke="#303030" stroke-linecap="round" stroke-linejoin="round" stroke-width="1.5"/>
          </g>
          <path id="Trazado_1279794" data-name="Trazado 1279794" d="M233.558,415.011c7.91,1.408,10.027,2.542,13.527,4.825" transform="translate(-203.055 -415.003)" fill="none" stroke="#303030" stroke-linecap="round" stroke-linejoin="round" stroke-width="1.5"/>
        </g>
      </g>
      <g id="Leg-2" data-name="Leg" transform="translate(0 94.955)">
        <path id="Trazado_1279795" data-name="Trazado 1279795" d="M128.99,421.171l34.141-20.562s15.647,20.418,26.523,25.935,22.517,6.123,31.866,0,13.358-16.775,9.35-34.139c0,0-31.493-22.189-40.942-28.043-17.555-10.877-27.586-12.509-35.168-6.1-5.389,4.551-13.491,14.489-26.5,27.491-14.9,14.892-20.718,22.877-24.758,26.268s-6.639,4.691-14.081,7.744-16.931,6.861-21.7,8.4-7.637,3.492-7.629,8.409l50.651,1.072a9.588,9.588,0,0,0,8.7-5.146l2.326-4.454A15.443,15.443,0,0,1,128.99,421.171Z" transform="translate(-57.44 -353.228)" fill="#ffc4b0"/>
        <path id="Trazado_1279796" data-name="Trazado 1279796" d="M236.584,429.792a67.38,67.38,0,0,0,4.959-5.964c1.318-1.552,2.7-3.676,4.438-2.564l-1.485,2.044s1.644,3.794,10.03,9.3a33.748,33.748,0,0,0,12.1,4.786l2.22-1.337s1.3,1.181-1.184,2.226-3.516.6-3.516.6l-1.934,3.415s.1,8.261-.982,10.508-7.981,2.323-18.52,2.44-48.353-.426-48.353-.426-.465-4.649,4.882-6.974,14.723-5.018,22.627-8.514A51.617,51.617,0,0,0,236.584,429.792Z" transform="translate(-192.227 -371.159)" fill="#303030" stroke="#303030" stroke-linecap="round" stroke-linejoin="round" stroke-width="1.5"/>
        <line id="Línea_612" data-name="Línea 612" y1="20.562" x2="34.141" transform="translate(71.55 47.381)" fill="none" stroke="#303030" stroke-linecap="round" stroke-linejoin="round" stroke-width="1.5"/>
        <g id="Grupo_1191725" data-name="Grupo 1191725" transform="translate(0 56.348)">
          <g id="Grupo_1191724" data-name="Grupo 1191724">
            <g id="Grupo_1191723" data-name="Grupo 1191723">
              <path id="Trazado_1279797" data-name="Trazado 1279797" d="M201,454.028a28.3,28.3,0,0,0-1.254,4.348,77.341,77.341,0,0,0,15.75,1.971c10.639-.02,23.364-1.251,28.062-1.214,7.8.062,21.885.875,26.6-1.473a6.9,6.9,0,0,0,.3-.857c.893-3.28.536-5.36-.068-9.472,2.411-1.047,3.081-4.363.73-5.806l-2.956,1.62c-2.628,1.44-6.7,1.053-9.277-.177-3.846-1.836-5.225-3.069-6.049-4.768a6.511,6.511,0,0,0,1.187-3.09c.007-2.915-4.547-3.772-6.873-4.788-3.167-1.384-4.123,1.2-6.623,3.048a53.84,53.84,0,0,1-7.11,4.426c-3.283,1.824-6.458,3.265-14.051,6.206-2.392.926-5.14,1.82-10.546,3.735C204.312,449.33,202.128,451.279,201,454.028Z" transform="translate(-199.565 -429.928)" fill="#f55571"/>
              <path id="Trazado_1279798" data-name="Trazado 1279798" d="M199.811,461.088c.893-3.28.536-5.36-.068-9.472,2.411-1.047,3.081-4.363.73-5.806" transform="translate(-128.923 -434.214)" fill="none" stroke="#303030" stroke-linecap="round" stroke-linejoin="round" stroke-width="1.5"/>
              <g id="Grupo_1191722" data-name="Grupo 1191722" transform="translate(17.287 8.954)">
                <path id="Trazado_1279799" data-name="Trazado 1279799" d="M261.37,442.191c-12.117,8.448-21.114,10.23-30.056,12.407" transform="translate(-228.699 -442.191)" fill="none" stroke="#303030" stroke-linecap="round" stroke-linejoin="round" stroke-width="1.5"/>
                <path id="Trazado_1279800" data-name="Trazado 1279800" d="M225.76,446.124c-3.717,2.81-8.8,3.552-12.335,3.764-2.651.158-8.237.158-10.717-.963" transform="translate(-172.204 -443.252)" fill="none" stroke="#303030" stroke-linecap="round" stroke-linejoin="round" stroke-width="1.5"/>
                <path id="Trazado_1279801" data-name="Trazado 1279801" d="M254.194,453.761c-6.729,3.174-14.086,3.526-21.11,3.366-1.544-.035-3.086-.091-4.645.014-5.911.4-8.076,2.892-13.861,4.929-5.857,2.062-7.991,3.565-11.837,3.572" transform="translate(-200.661 -445.313)" fill="none" stroke="#303030" stroke-linecap="round" stroke-linejoin="round" stroke-width="1.5"/>
                <path id="Trazado_1279802" data-name="Trazado 1279802" d="M272.477,451.04c2.757,3.075,3.113,8.418,2.089,13.106" transform="translate(-272.477 -444.579)" fill="none" stroke="#303030" stroke-linecap="round" stroke-linejoin="round" stroke-width="1.5"/>
              </g>
              <path id="Trazado_1279803" data-name="Trazado 1279803" d="M202.894,470.493a3.343,3.343,0,0,0,2.953,4.359c3.328.256,9.668.339,23.151.314l35.336-.066c4.758-.009,7.529-.171,8.614-2.156a8.014,8.014,0,0,0,.4-5.037c-4.71,2.349-17.666,1.363-26.6,1.473-4.71.058-16.349.062-26.988.082-5.167.01-16.345-.518-16.345-.518A9.747,9.747,0,0,0,202.894,470.493Z" transform="translate(-202.764 -440.177)" fill="#fff" stroke="#303030" stroke-linecap="round" stroke-linejoin="round" stroke-width="1.5"/>
            </g>
          </g>
        </g>
        <g id="Grupo_1191726" data-name="Grupo 1191726" transform="translate(57.561)">
          <path id="Trazado_1279804" data-name="Trazado 1279804" d="M55.269,395.6a90.4,90.4,0,0,0,25.4,19.792c5.719-3.342,22.184-13.787,22.184-13.787S119.5,421.4,123.593,425.369s9.206,9.588,23.3,9.588a29.039,29.039,0,0,0,25.8-15.746,39.329,39.329,0,0,0,2.32-25.713c-2.514-9.293-3.849-8.539-3.849-8.539-4.6-3.835-14.868-7.168-17.941-8.223l-1.3-.856s-26.654-16.989-34.385-20.426c-7.89-3.506-17.634-4.5-25.643,2.63C83.96,365.143,55.269,395.6,55.269,395.6Z" transform="translate(-55.269 -352.757)" fill="#00826f"/>
          <path id="Trazado_1279805" data-name="Trazado 1279805" d="M185.182,375.88S158.528,358.89,150.8,355.453c-7.89-3.506-17.634-4.5-25.643,2.63-7.932,7.06-36.623,37.52-36.623,37.52a90.366,90.366,0,0,0,25.4,19.792c5.719-3.342,22.184-13.787,22.184-13.787s16.646,19.788,20.742,23.761,9.206,9.588,23.3,9.588" transform="translate(-88.531 -352.757)" fill="none" stroke="#303030" stroke-linecap="round" stroke-linejoin="round" stroke-width="1.5"/>
          <path id="Trazado_1279806" data-name="Trazado 1279806" d="M80.125,393.82c-4.6-3.835-14.868-7.168-17.941-8.223" transform="translate(35.764 -361.618)" fill="none" stroke="#303030" stroke-linecap="round" stroke-linejoin="round" stroke-width="1.5"/>
          <path id="Trazado_1279807" data-name="Trazado 1279807" d="M178.362,405.24c3.718,4.961,17.926,15.215,26.779,20.849" transform="translate(-174.082 -366.919)" fill="none" stroke="#303030" stroke-linecap="round" stroke-linejoin="round" stroke-width="1.5"/>
          <path id="Trazado_1279808" data-name="Trazado 1279808" d="M145.87,402.967c-5.531,4.61-10.057,5.679-16.14,7.751,9.494-7.751,13.939-12.914,18.987-24.2" transform="translate(-82.148 -361.867)" fill="none" stroke="#303030" stroke-linecap="round" stroke-linejoin="round" stroke-width="1.5"/>
          <path id="Trazado_1279809" data-name="Trazado 1279809" d="M64.92,384.425c9.064,6.605,15.923,14.634,17.24,25.17" transform="translate(31.731 -361.302)" fill="none" stroke="#303030" stroke-linecap="round" stroke-linejoin="round" stroke-width="1.5"/>
        </g>
      </g>
    </g>
    <g id="Chart" transform="translate(679.716 1462.095)">
      <rect id="Rectángulo_412072" data-name="Rectángulo 412072" width="219.394" height="159.805" rx="7.848" transform="translate(259.335 263.905)" fill="#fff" stroke="#303030" stroke-linecap="round" stroke-linejoin="round" stroke-width="2"/>
      <g id="Grupo_1191728" data-name="Grupo 1191728">
        <g id="Grupo_1191727" data-name="Grupo 1191727">
          <path id="Trazado_1279810" data-name="Trazado 1279810" d="M329.307,370.2l-3.928,30.816a58.561,58.561,0,0,1-47-64.835c2.551-19.949,13.572-35.649,31.206-44.565l12.5,28.418a27.586,27.586,0,0,0,7.223,50.166Z" fill="#00826f"/>
          <path id="Trazado_1279811" data-name="Trazado 1279811" d="M394.851,344.449a58.565,58.565,0,0,1-55.692,57.562,59.313,59.313,0,0,1-6.564-.087l3.9-30.767a27.564,27.564,0,0,0,27.453-25.235Z" fill="#f55571"/>
          <path id="Trazado_1279812" data-name="Trazado 1279812" d="M394.524,337.21l-30.9,1.454a27.626,27.626,0,0,0-17.411-20.9l7.122-30.136A57.058,57.058,0,0,1,394.524,337.21Z" fill="#303030" stroke="#303030" stroke-linecap="round" stroke-linejoin="round" stroke-width="1.5"/>
          <path id="Trazado_1279813" data-name="Trazado 1279813" d="M402.865,335.752,367.847,337.4a31.305,31.305,0,0,0-19.73-23.685l8.07-34.15C382.2,287.3,400.03,308.751,402.865,335.752Z" fill="#fff" stroke="#303030" stroke-linecap="round" stroke-linejoin="round" stroke-width="1.5"/>
          <path id="Trazado_1279814" data-name="Trazado 1279814" d="M346.266,285.953l-7.119,30.162a27.363,27.363,0,0,0-10.436.986l-12.476-28.393A54.831,54.831,0,0,1,346.266,285.953Z" fill="#303030"/>
        </g>
        <circle id="Elipse_12372" data-name="Elipse 12372" cx="19.953" cy="19.953" r="19.953" transform="translate(308.94 337.416) rotate(-32.401)" fill="#ff95fb"/>
      </g>
      <path id="Trazado_1279815" data-name="Trazado 1279815" d="M378.675,311,395.668,294h62.677" fill="none" stroke="#ff95fb" stroke-linecap="round" stroke-linejoin="round" stroke-width="1.5"/>
      <path id="Trazado_1279816" data-name="Trazado 1279816" d="M457.4,288.062H403.783a1.529,1.529,0,0,1-1.529-1.529h0A1.529,1.529,0,0,1,403.783,285H457.4a1.528,1.528,0,0,1,1.529,1.529h0A1.528,1.528,0,0,1,457.4,288.062Z" fill="#f55571"/>
      <g id="Grupo_1191729" data-name="Grupo 1191729">
        <line id="Línea_613" data-name="Línea 613" x1="34.672" transform="translate(423.673 307.25)" fill="none" stroke="#303030" stroke-linecap="round" stroke-linejoin="round" stroke-width="2"/>
        <line id="Línea_614" data-name="Línea 614" x1="34.672" transform="translate(423.673 315.351)" fill="none" stroke="#303030" stroke-linecap="round" stroke-linejoin="round" stroke-width="2"/>
        <line id="Línea_615" data-name="Línea 615" x1="34.672" transform="translate(423.673 323.452)" fill="none" stroke="#303030" stroke-linecap="round" stroke-linejoin="round" stroke-width="2"/>
      </g>
      <g id="Grupo_1191730" data-name="Grupo 1191730">
        <line id="Línea_616" data-name="Línea 616" x1="34.672" transform="translate(423.673 346.321)" fill="none" stroke="#303030" stroke-linecap="round" stroke-linejoin="round" stroke-width="2"/>
        <line id="Línea_617" data-name="Línea 617" x1="34.672" transform="translate(423.673 354.422)" fill="none" stroke="#303030" stroke-linecap="round" stroke-linejoin="round" stroke-width="2"/>
        <line id="Línea_618" data-name="Línea 618" x1="34.672" transform="translate(423.673 362.523)" fill="none" stroke="#303030" stroke-linecap="round" stroke-linejoin="round" stroke-width="2"/>
      </g>
      <g id="Grupo_1191731" data-name="Grupo 1191731">
        <line id="Línea_619" data-name="Línea 619" x1="34.672" transform="translate(423.673 385.392)" fill="none" stroke="#303030" stroke-linecap="round" stroke-linejoin="round" stroke-width="2"/>
        <line id="Línea_620" data-name="Línea 620" x1="34.672" transform="translate(423.673 393.493)" fill="none" stroke="#303030" stroke-linecap="round" stroke-linejoin="round" stroke-width="2"/>
        <line id="Línea_621" data-name="Línea 621" x1="34.672" transform="translate(423.673 401.594)" fill="none" stroke="#303030" stroke-linecap="round" stroke-linejoin="round" stroke-width="2"/>
      </g>
    </g>
  </g>
</svg>
