<svg xmlns="http://www.w3.org/2000/svg" width="63" height="63" viewBox="0 0 63 63">
  <g id="Grupo_1191317" data-name="Grupo 1191317" transform="translate(-772.051 -4419)">
    <circle id="Elipse_12300" data-name="Elipse 12300" cx="31.5" cy="31.5" r="31.5" transform="translate(772.051 4419)" fill="#fff"/>
    <g id="website" transform="translate(782.051 4429)">
      <path id="Trazado_1279102" data-name="Trazado 1279102" d="M41.667,55v3.333L40.333,59h-36L3,58.333V55Z" transform="translate(-0.333 -17.667)" fill="#c6c5ca"/>
      <path id="Trazado_1279103" data-name="Trazado 1279103" d="M58.667,55v3.333L57.333,59H54l1.333-.667V55Z" transform="translate(-17.333 -17.667)" fill="#898890"/>
      <path id="Trazado_1279104" data-name="Trazado 1279104" d="M41,22.333V43.667H25.667V45H20.333V43.667H5V22.333A1.337,1.337,0,0,1,6.333,21H39.667A1.337,1.337,0,0,1,41,22.333Z" transform="translate(-1 -6.333)" fill="#46f8ff"/>
      <path id="Trazado_1279105" data-name="Trazado 1279105" d="M41,22.753V44.087H25.667V45.42H20.333V44.087H5v-.473A58.271,58.271,0,0,0,26.333,35.42,58.125,58.125,0,0,0,40.907,22.26,1.352,1.352,0,0,1,41,22.753Z" transform="translate(-1 -6.753)" fill="#00d7df"/>
      <path id="Trazado_1279106" data-name="Trazado 1279106" d="M39.667,11V36.333a1.337,1.337,0,0,1-1.333,1.333h-28A1.337,1.337,0,0,1,9,36.333V11Z" transform="translate(-2.333 -3)" fill="#57a4ff"/>
      <path id="Trazado_1279107" data-name="Trazado 1279107" d="M39.667,4.333v4H9v-4A1.337,1.337,0,0,1,10.333,3h28a1.337,1.337,0,0,1,1.333,1.333Z" transform="translate(-2.333 -0.333)" fill="#c6c5ca"/>
      <path id="Trazado_1279108" data-name="Trazado 1279108" d="M53,11V36.333a1.337,1.337,0,0,1-1.333,1.333H49a1.337,1.337,0,0,0,1.333-1.333V11Z" transform="translate(-15.667 -3)" fill="#006df0"/>
      <path id="Trazado_1279109" data-name="Trazado 1279109" d="M53,4.333v4H50.333v-4A1.337,1.337,0,0,0,49,3h2.667A1.337,1.337,0,0,1,53,4.333Z" transform="translate(-15.667 -0.333)" fill="#898890"/>
      <path id="Trazado_1279110" data-name="Trazado 1279110" d="M13,31H38.333v4H13Z" transform="translate(-3.667 -9.667)" fill="#ff7956"/>
      <path id="Trazado_1279111" data-name="Trazado 1279111" d="M13,15H29v8H13Z" transform="translate(-3.667 -4.333)" fill="#ffde55"/>
      <path id="Trazado_1279112" data-name="Trazado 1279112" d="M13,41h6.667v4H13Z" transform="translate(-3.667 -13)" fill="#ffde55"/>
      <path id="Trazado_1279113" data-name="Trazado 1279113" d="M33,15h2.667v8H33Z" transform="translate(-10.333 -4.333)" fill="#ebbf00"/>
      <path id="Trazado_1279114" data-name="Trazado 1279114" d="M20,41h2v4H20Z" transform="translate(-6 -13)" fill="#ebbf00"/>
      <path id="Trazado_1279115" data-name="Trazado 1279115" d="M48,31h2v4H48Z" transform="translate(-15.333 -9.667)" fill="#ff5023"/>
      <path id="Trazado_1279116" data-name="Trazado 1279116" d="M41.333,36.667h-.667V16a2.006,2.006,0,0,0-2-2H38V4a2.006,2.006,0,0,0-2-2H8A2.006,2.006,0,0,0,6,4V14H5.333a2.006,2.006,0,0,0-2,2V36.667H2.667A.667.667,0,0,0,2,37.333v3.333a.651.651,0,0,0,.367.593l1.333.667A.667.667,0,0,0,4,42H40a.667.667,0,0,0,.3-.073l1.333-.667A.651.651,0,0,0,42,40.667V37.333A.667.667,0,0,0,41.333,36.667ZM7.333,4A.667.667,0,0,1,8,3.333H36A.667.667,0,0,1,36.667,4V7.333H7.333Zm0,4.667H36.667V33.333A.667.667,0,0,1,36,34H8a.667.667,0,0,1-.667-.667ZM4.667,16a.667.667,0,0,1,.667-.667H6v18a2.006,2.006,0,0,0,2,2H36a2.006,2.006,0,0,0,2-2v-18h.667a.667.667,0,0,1,.667.667V36.667H24.667a.667.667,0,0,0-.667.667V38H20v-.667a.667.667,0,0,0-.667-.667H4.667Zm36,24.253-.827.413H4.16l-.827-.413V38H18.667v.667a.667.667,0,0,0,.667.667h5.333a.667.667,0,0,0,.667-.667V38H40.667Z" transform="translate(0)"/>
      <path id="Trazado_1279117" data-name="Trazado 1279117" d="M50,6h1.333V7.333H50Z" transform="translate(-16 -1.333)"/>
      <path id="Trazado_1279118" data-name="Trazado 1279118" d="M46,6h1.333V7.333H46Z" transform="translate(-14.667 -1.333)"/>
      <path id="Trazado_1279119" data-name="Trazado 1279119" d="M42,6h1.333V7.333H42Z" transform="translate(-13.333 -1.333)"/>
      <path id="Trazado_1279120" data-name="Trazado 1279120" d="M12.667,35.333H38a.667.667,0,0,0,.667-.667v-4A.667.667,0,0,0,38,30H12.667a.667.667,0,0,0-.667.667v4A.667.667,0,0,0,12.667,35.333Zm.667-4h24V34h-24Z" transform="translate(-3.333 -9.333)"/>
      <path id="Trazado_1279121" data-name="Trazado 1279121" d="M12.667,45.333h6.667A.667.667,0,0,0,20,44.667v-4A.667.667,0,0,0,19.333,40H12.667a.667.667,0,0,0-.667.667v4A.667.667,0,0,0,12.667,45.333Zm.667-4h5.333V44H13.333Z" transform="translate(-3.333 -12.667)"/>
      <path id="Trazado_1279122" data-name="Trazado 1279122" d="M12.667,23.333h16a.667.667,0,0,0,.667-.667v-8A.667.667,0,0,0,28.667,14h-16a.667.667,0,0,0-.667.667v8A.667.667,0,0,0,12.667,23.333Zm.667-8H28V22H13.333Z" transform="translate(-3.333 -4)"/>
      <path id="Trazado_1279123" data-name="Trazado 1279123" d="M26,41h2.667v1.333H26Z" transform="translate(-8 -13)"/>
      <path id="Trazado_1279124" data-name="Trazado 1279124" d="M32,41H45.333v1.333H32Z" transform="translate(-10 -13)"/>
      <path id="Trazado_1279125" data-name="Trazado 1279125" d="M26,45H36.667v1.333H26Z" transform="translate(-8 -14.333)"/>
      <path id="Trazado_1279126" data-name="Trazado 1279126" d="M44,45h5.333v1.333H44Z" transform="translate(-14 -14.333)"/>
      <path id="Trazado_1279127" data-name="Trazado 1279127" d="M40,16h4.667v1.333H40Z" transform="translate(-12.667 -4.667)"/>
      <path id="Trazado_1279128" data-name="Trazado 1279128" d="M49,16h2v1.333H49Z" transform="translate(-15.667 -4.667)"/>
      <path id="Trazado_1279129" data-name="Trazado 1279129" d="M40,20h8v1.333H40Z" transform="translate(-12.667 -6)"/>
      <path id="Trazado_1279130" data-name="Trazado 1279130" d="M40,24h2.667v1.333H40Z" transform="translate(-12.667 -7.333)"/>
      <path id="Trazado_1279131" data-name="Trazado 1279131" d="M46,24h4v1.333H46Z" transform="translate(-14.667 -7.333)"/>
    </g>
  </g>
</svg>
