<svg xmlns="http://www.w3.org/2000/svg" width="63" height="63" viewBox="0 0 63 63">
  <g id="Grupo_1191315" data-name="Grupo 1191315" transform="translate(-768.051 -4533)">
    <circle id="Elipse_12302" data-name="Elipse 12302" cx="31.5" cy="31.5" r="31.5" transform="translate(768.051 4533)" fill="#fff"/>
    <g id="Grupo_1191314" data-name="Grupo 1191314" transform="translate(767.019 4547)">
      <path id="Trazado_1279038" data-name="Trazado 1279038" d="M123.243,250.217h-9.59a1.117,1.117,0,0,1-.79-.327l-1.416-1.416a1.675,1.675,0,0,0-1.185-.491H105.37a1.675,1.675,0,0,0-1.676,1.675V264.18a1.675,1.675,0,0,0,1.676,1.675h17.872a1.675,1.675,0,0,0,1.675-1.675V251.893A1.676,1.676,0,0,0,123.243,250.217Z" transform="translate(-81.555 -230.705)" fill="#ffe09f"/>
      <path id="Trazado_1279039" data-name="Trazado 1279039" d="M124.815,264.181H108.162a2.8,2.8,0,0,1-2.793-2.793v-13.4a1.675,1.675,0,0,0-1.676,1.675v14.521a1.675,1.675,0,0,0,1.676,1.675h17.872a1.675,1.675,0,0,0,1.675-1.675h-.1Z" transform="translate(-81.554 -230.706)" fill="#f6d190"/>
      <path id="Trazado_1279040" data-name="Trazado 1279040" d="M128.79,324.371l3.841-11.523a.559.559,0,0,0-.53-.735H112.86a1.675,1.675,0,0,0-1.59,1.146l-3.825,11.474a1.67,1.67,0,0,0,1.414.784H127.2A1.676,1.676,0,0,0,128.79,324.371Z" transform="translate(-85.045 -290.367)" fill="#ecbd83"/>
      <path id="Trazado_1279041" data-name="Trazado 1279041" d="M28.559,7.5H24.091a.559.559,0,0,0-.558.558v8.936a.559.559,0,0,0,.558.558h6.7a.559.559,0,0,0,.558-.558v-6.7Z" transform="translate(-6.977 -6.977)" fill="#eceaec"/>
      <circle id="Elipse_12336" data-name="Elipse 12336" cx="1.117" cy="1.117" r="1.117" transform="translate(31.634 12.81)" fill="#b6b1b7"/>
      <path id="Trazado_1279042" data-name="Trazado 1279042" d="M25.208,14.2V7.5H24.09a.559.559,0,0,0-.558.558v8.936a.559.559,0,0,0,.558.558h6.7a.559.559,0,0,0,.559-.558V15.878H26.883A1.675,1.675,0,0,1,25.208,14.2Z" transform="translate(-6.977 -6.977)" fill="#dad8db"/>
      <path id="Trazado_1279043" data-name="Trazado 1279043" d="M95.677,9.734a.559.559,0,0,0,.558.558H98.47L95.677,7.5Z" transform="translate(-74.096 -6.977)" fill="#dad8db"/>
      <path id="Trazado_1279044" data-name="Trazado 1279044" d="M111.652,435.706a2.8,2.8,0,0,1-2.793-2.793v-.558l-1.414,4.242a1.671,1.671,0,0,0,1.414.784H127.2a1.676,1.676,0,0,0,1.59-1.146l.177-.53Z" transform="translate(-85.044 -402.232)" fill="#e2a975"/>
      <path id="Trazado_1279045" data-name="Trazado 1279045" d="M204.914,7.5h-4.468a.558.558,0,0,0-.558.558v8.936a.558.558,0,0,0,.558.558h6.7a.558.558,0,0,0,.558-.558v-6.7Z" transform="translate(-171.045 -6.977)" fill="#eceaec"/>
      <path id="Trazado_1279046" data-name="Trazado 1279046" d="M201.562,14.2V7.5h-1.117a.559.559,0,0,0-.559.558v8.936a.559.559,0,0,0,.559.558h6.7a.558.558,0,0,0,.558-.558V15.878h-4.468A1.676,1.676,0,0,1,201.562,14.2Z" transform="translate(-171.045 -6.977)" fill="#dad8db"/>
      <path id="Trazado_1279047" data-name="Trazado 1279047" d="M272.032,9.734a.559.559,0,0,0,.559.558h2.234L272.032,7.5Z" transform="translate(-238.164 -6.977)" fill="#dad8db"/>
      <path id="Trazado_1279048" data-name="Trazado 1279048" d="M381.269,7.5H376.8a.559.559,0,0,0-.559.558v8.936a.559.559,0,0,0,.559.558h6.7a.559.559,0,0,0,.559-.558v-6.7Z" transform="translate(-335.113 -6.977)" fill="#eceaec"/>
      <path id="Trazado_1279049" data-name="Trazado 1279049" d="M377.918,14.2V7.5H376.8a.559.559,0,0,0-.559.558v8.936a.559.559,0,0,0,.559.558h6.7a.559.559,0,0,0,.559-.558V15.878h-4.468A1.676,1.676,0,0,1,377.918,14.2Z" transform="translate(-335.113 -6.977)" fill="#dad8db"/>
      <path id="Trazado_1279050" data-name="Trazado 1279050" d="M448.387,9.734a.559.559,0,0,0,.559.558h2.234L448.387,7.5Z" transform="translate(-402.232 -6.977)" fill="#dad8db"/>
      <path id="Trazado_1279051" data-name="Trazado 1279051" d="M317.061,456.919h-3.91a.523.523,0,1,0,0,1.045h3.91a.523.523,0,1,0,0-1.045Z" transform="translate(-275.932 -425.084)"/>
      <path id="Trazado_1279052" data-name="Trazado 1279052" d="M333.093,424.854h-3.91a.523.523,0,0,0,0,1.045h3.91a.523.523,0,1,0,0-1.045Z" transform="translate(-290.847 -395.253)"/>
      <path id="Trazado_1279053" data-name="Trazado 1279053" d="M48.62,73.19h2.793a.523.523,0,0,0,0-1.045H48.62a.523.523,0,0,0,0,1.045Z" transform="translate(-29.831 -67.118)"/>
      <path id="Trazado_1279054" data-name="Trazado 1279054" d="M51.935,104.732a.523.523,0,0,0-.523-.523H48.62a.523.523,0,0,0,0,1.045h2.793A.523.523,0,0,0,51.935,104.732Z" transform="translate(-29.831 -96.948)"/>
      <path id="Trazado_1279055" data-name="Trazado 1279055" d="M224.975,73.19h2.793a.523.523,0,0,0,0-1.045h-2.793a.523.523,0,0,0,0,1.045Z" transform="translate(-193.899 -67.118)"/>
      <path id="Trazado_1279056" data-name="Trazado 1279056" d="M228.289,104.732a.523.523,0,0,0-.523-.523h-2.793a.523.523,0,1,0,0,1.045h2.793A.523.523,0,0,0,228.289,104.732Z" transform="translate(-193.898 -96.948)"/>
      <path id="Trazado_1279057" data-name="Trazado 1279057" d="M49.317,2.946,46.525.153A.522.522,0,0,0,46.155,0H41.687a1.082,1.082,0,0,0-1.081,1.081v8.936A1.082,1.082,0,0,0,41.687,11.1h2.829V12.81a.6.6,0,0,1-.594.594H34.3a1.647,1.647,0,0,0-1.031-1.031V11.1H36.1a1.082,1.082,0,0,0,1.081-1.081v-6.7a.522.522,0,0,0-.153-.369L34.238.153A.522.522,0,0,0,33.868,0H29.4a1.082,1.082,0,0,0-1.081,1.081v8.936A1.082,1.082,0,0,0,29.4,11.1h2.829v1.275A1.647,1.647,0,0,0,31.2,13.4H21.581a.6.6,0,0,1-.594-.594V11.1h2.829A1.082,1.082,0,0,0,24.9,10.017v-6.7a.522.522,0,0,0-.153-.369L21.951.153A.522.522,0,0,0,21.581,0H17.113a1.082,1.082,0,0,0-1.081,1.081v8.936A1.082,1.082,0,0,0,17.113,11.1h2.829V12.81a1.641,1.641,0,0,0,1.64,1.64H31.2a1.647,1.647,0,0,0,1.031,1.031v3.5a1.143,1.143,0,0,1-.716-.333L30.26,17.4a2.184,2.184,0,0,0-1.554-.644H23.815a2.2,2.2,0,0,0-2.2,2.2V33.474a2.2,2.2,0,0,0,2.2,2.2h18.34a2.2,2.2,0,0,0,2.085-1.5l3.841-11.523a1.081,1.081,0,0,0-1.026-1.423H43.885v-.036a2.2,2.2,0,0,0-2.2-2.2h-6.7a.523.523,0,1,0,0,1.045h6.7a1.154,1.154,0,0,1,1.153,1.153v.036H33.274V15.48A1.647,1.647,0,0,0,34.3,14.449h9.616a1.641,1.641,0,0,0,1.64-1.64V11.1h2.829a1.082,1.082,0,0,0,1.081-1.081v-6.7a.522.522,0,0,0-.153-.37ZM34.391,1.784,35.4,2.792h-.972a.036.036,0,0,1-.036-.036Zm-5.027,8.233V1.081a.036.036,0,0,1,.036-.036h3.946V2.757a1.082,1.082,0,0,0,1.081,1.081h1.711v6.18a.036.036,0,0,1-.036.036H29.4a.036.036,0,0,1-.036-.036ZM22.1,1.784l1.008,1.008H22.14a.036.036,0,0,1-.036-.036Zm-5.027,8.233V1.081a.036.036,0,0,1,.036-.036h3.946V2.757A1.082,1.082,0,0,0,22.14,3.838h1.712v6.18a.036.036,0,0,1-.036.036h-6.7A.036.036,0,0,1,17.077,10.017Zm15.674,3.315a.6.6,0,0,1,.594.593h0a.594.594,0,1,1-.594-.6Zm14.334,8.951a.033.033,0,0,1,0,.032L43.249,33.839a1.151,1.151,0,0,1-1.094.788H23.815a1.149,1.149,0,0,1-.832-.357l3.738-11.214a1.151,1.151,0,0,1,1.094-.788H47.056a.033.033,0,0,1,.029.015Zm-19.27-1.06a2.2,2.2,0,0,0-2.085,1.5l-3.068,9.2V18.953A1.154,1.154,0,0,1,23.815,17.8h4.891a1.145,1.145,0,0,1,.815.338l1.253,1.253a2.182,2.182,0,0,0,1.455.641v1.191ZM46.678,1.784l1.008,1.008h-.972a.036.036,0,0,1-.036-.036Zm1.712,8.269h-6.7a.036.036,0,0,1-.036-.036V1.081a.036.036,0,0,1,.036-.036h3.946V2.757a1.082,1.082,0,0,0,1.081,1.081h1.711v6.18a.036.036,0,0,1-.036.036Z"/>
      <path id="Trazado_1279058" data-name="Trazado 1279058" d="M404.121,72.145h-2.793a.523.523,0,0,0,0,1.045h2.793a.523.523,0,1,0,0-1.045Z" transform="translate(-357.966 -67.118)"/>
      <path id="Trazado_1279059" data-name="Trazado 1279059" d="M404.121,104.209h-2.793a.523.523,0,0,0,0,1.045h2.793a.523.523,0,1,0,0-1.045Z" transform="translate(-357.966 -96.948)"/>
    </g>
  </g>
</svg>
