<svg xmlns="http://www.w3.org/2000/svg" width="190.8" height="166.551" viewBox="0 0 190.8 166.551">
  <g id="Grupo_1192471" data-name="Grupo 1192471" transform="translate(-179.2 -9028.373)">
    <rect id="Rectángulo_411909" data-name="Rectángulo 411909" width="190.8" height="166.551" rx="14" transform="translate(179.2 9028.373)" fill="#31ba5c"/>
    <g id="Grupo_1192470" data-name="Grupo 1192470" transform="translate(194.441 9031.461)">
      <path id="Trazado_1280317" data-name="Trazado 1280317" d="M79.537,220.272v64.082a4.271,4.271,0,0,1-4.272,4.272H28.272A4.271,4.271,0,0,1,24,284.354V234.859a4.311,4.311,0,0,1,1.252-3.023l14.584-14.584A4.311,4.311,0,0,1,42.859,216H75.265A4.271,4.271,0,0,1,79.537,220.272Z" transform="translate(-5.865 -146.958)" fill="#548aff"/>
      <path id="Trazado_1280318" data-name="Trazado 1280318" d="M42.151,217.45v12.429a4.271,4.271,0,0,1-4.272,4.272H25.45a4.226,4.226,0,0,1,.865-1.252L40.9,218.315a4.225,4.225,0,0,1,1.252-.865Z" transform="translate(-6.927 -148.02)" fill="#7dafff"/>
      <path id="Trazado_1280319" data-name="Trazado 1280319" d="M280,384h12.816v14.952H280Z" transform="translate(-193.511 -270.1)" fill="#f5714f"/>
      <path id="Trazado_1280320" data-name="Trazado 1280320" d="M328,336h12.816v27.769H328Z" transform="translate(-228.695 -234.917)" fill="#4976f2"/>
      <path id="Trazado_1280321" data-name="Trazado 1280321" d="M376,288h12.816v40.585H376Z" transform="translate(-263.878 -199.733)" fill="#548aff"/>
      <path id="Trazado_1280322" data-name="Trazado 1280322" d="M424,240h12.816v53.4H424Z" transform="translate(-299.062 -164.549)" fill="#639aff"/>
      <g id="Grupo_1192469" data-name="Grupo 1192469" transform="translate(18.135 28.457)">
        <circle id="Elipse_12409" data-name="Elipse 12409" cx="4.272" cy="4.272" r="4.272" transform="translate(0 29.905)" fill="#bed3f7"/>
        <circle id="Elipse_12410" data-name="Elipse 12410" cx="4.272" cy="4.272" r="4.272" transform="translate(14.952 14.952)" fill="#bed3f7"/>
        <circle id="Elipse_12411" data-name="Elipse 12411" cx="4.272" cy="4.272" r="4.272" transform="translate(36.313 14.952)" fill="#bed3f7"/>
        <circle id="Elipse_12412" data-name="Elipse 12412" cx="4.272" cy="4.272" r="4.272" transform="translate(57.673)" fill="#bed3f7"/>
      </g>
      <path id="Trazado_1280323" data-name="Trazado 1280323" d="M347.265,49.632a25.557,25.557,0,1,1-7.485-18.147A25.633,25.633,0,0,1,347.265,49.632Z" transform="translate(-205.239 -6.222)" fill="#ffc431"/>
      <path id="Trazado_1280324" data-name="Trazado 1280324" d="M417.633,49.633H392V24a25.632,25.632,0,0,1,25.633,25.633Z" transform="translate(-275.606 -6.223)" fill="#548aff"/>
      <path id="Trazado_1280325" data-name="Trazado 1280325" d="M417.633,120a25.557,25.557,0,0,1-8.606,19.158L392,120Z" transform="translate(-275.606 -76.59)" fill="#f5714f"/>
      <circle id="Elipse_12413" data-name="Elipse 12413" cx="4.272" cy="4.272" r="4.272" transform="translate(56.584 77.587)" fill="#bed3f7"/>
      <circle id="Elipse_12414" data-name="Elipse 12414" cx="4.272" cy="4.272" r="4.272" transform="translate(58.72 124.58)" fill="#bed3f7"/>
      <path id="Trazado_1280326" data-name="Trazado 1280326" d="M120,264h6.408v4.272H120Z" transform="translate(-76.232 -182.141)"/>
      <path id="Trazado_1280327" data-name="Trazado 1280327" d="M176,304h6.408v4.272H176Z" transform="translate(-117.28 -211.461)"/>
      <path id="Trazado_1280328" data-name="Trazado 1280328" d="M120,304h10.68v4.272H120Z" transform="translate(-76.232 -211.461)"/>
      <path id="Trazado_1280329" data-name="Trazado 1280329" d="M56,304H68.816v4.272H56Z" transform="translate(-29.32 -211.461)"/>
      <path id="Trazado_1280330" data-name="Trazado 1280330" d="M104,344h25.633v4.272H104Z" transform="translate(-64.504 -240.781)"/>
      <path id="Trazado_1280331" data-name="Trazado 1280331" d="M56,344h8.544v4.272H56Z" transform="translate(-29.32 -240.781)"/>
      <path id="Trazado_1280332" data-name="Trazado 1280332" d="M152,384h12.816v4.272H152Z" transform="translate(-99.688 -270.1)"/>
      <path id="Trazado_1280333" data-name="Trazado 1280333" d="M56,384H77.361v4.272H56Z" transform="translate(-29.32 -270.1)"/>
      <path id="Trazado_1280334" data-name="Trazado 1280334" d="M104,424h12.816v4.272H104Z" transform="translate(-64.504 -299.42)"/>
      <path id="Trazado_1280335" data-name="Trazado 1280335" d="M56,424h8.544v4.272H56Z" transform="translate(-29.32 -299.42)"/>
      <path id="Trazado_1280336" data-name="Trazado 1280336" d="M139.891,216.544a2.136,2.136,0,0,0-2.136-2.136H124.939a2.136,2.136,0,0,0-2.136,2.136v10.68h-10.68a2.136,2.136,0,0,0-2.136,2.136v10.68H99.306a2.136,2.136,0,0,0-2.136,2.136v10.68H86.49a2.136,2.136,0,0,0-2.136,2.136v12.816H69.034a6.408,6.408,0,1,0,0,4.272h2.5v6.408a2.138,2.138,0,0,1-2.136,2.136H22.408a2.138,2.138,0,0,1-2.136-2.136V229.36h10.68a6.416,6.416,0,0,0,6.408-6.408v-10.68H69.4a2.139,2.139,0,0,1,2.136,2.136v2.136h4.272v-2.136A6.416,6.416,0,0,0,69.4,208H36.994a6.366,6.366,0,0,0-4.531,1.877L17.877,224.463A6.366,6.366,0,0,0,16,228.994v49.5a6.416,6.416,0,0,0,6.408,6.408H69.4a6.416,6.416,0,0,0,6.408-6.408v-6.408h68.354v-4.272h-4.272Zm-106.8-1.251v7.659a2.139,2.139,0,0,1-2.136,2.136H23.293Zm29.9,56.789a2.136,2.136,0,1,1,2.136-2.136A2.136,2.136,0,0,1,62.993,272.082Zm25.633-14.952H97.17v10.68H88.626Zm12.816-12.816h8.544v23.5h-8.544ZM114.258,231.5H122.8v36.313h-8.544Zm12.816,36.313V218.68h8.544v49.129Z" transform="translate(-0.001 -141.093)"/>
      <path id="Trazado_1280337" data-name="Trazado 1280337" d="M22.408,98.713a6.407,6.407,0,0,0,5.782-9.169L34.6,83.134a6.405,6.405,0,0,0,8.8-3.646H52.68a6.407,6.407,0,0,0,12.36-1.077L77.1,68.071A6.408,6.408,0,1,0,74.2,64.935L63.978,73.694a6.4,6.4,0,0,0-11.3,1.522H43.4a6.407,6.407,0,1,0-11.823,4.9l-6.409,6.409a6.408,6.408,0,1,0-2.761,12.19ZM80.081,60.264A2.136,2.136,0,1,1,77.945,62.4a2.136,2.136,0,0,1,2.136-2.136ZM58.72,75.216a2.136,2.136,0,1,1-2.136,2.136,2.136,2.136,0,0,1,2.136-2.136Zm-21.361,0a2.136,2.136,0,1,1-2.136,2.136A2.136,2.136,0,0,1,37.36,75.216ZM22.408,90.169A2.136,2.136,0,1,1,20.271,92.3a2.136,2.136,0,0,1,2.136-2.136Z" transform="translate(0 -29.67)"/>
      <path id="Trazado_1280338" data-name="Trazado 1280338" d="M205.272,65.6,191.153,79.723H172.446a6.408,6.408,0,1,0,0,4.272h4.64v38.449h4.272V83.995h10.68a2.136,2.136,0,0,0,1.511-.626l15.416-15.416a27.845,27.845,0,1,0-3.693-2.349ZM166.406,83.995a2.136,2.136,0,1,1,2.136-2.136A2.136,2.136,0,0,1,166.406,83.995ZM239.077,59.47,226.7,45.546h18.642A23.418,23.418,0,0,1,239.077,59.47Zm6.264-18.2H224.079V20.011a23.535,23.535,0,0,1,21.262,21.262ZM219.807,20.011v23.4a2.125,2.125,0,0,0,.541,1.418l0,0L235.885,62.31a23.492,23.492,0,1,1-16.079-42.3Z" transform="translate(-105.549)"/>
    </g>
  </g>
</svg>
