<svg xmlns="http://www.w3.org/2000/svg" width="80" height="80" viewBox="0 0 80 80">
  <g id="Grupo_1192270" data-name="Grupo 1192270" transform="translate(-510.051 -7955)">
    <circle id="Elipse_12318" data-name="Elipse 12318" cx="40" cy="40" r="40" transform="translate(510.051 7955)" fill="#fff"/>
    <g id="Grupo_1192269" data-name="Grupo 1192269" transform="translate(509.755 7967)">
      <g id="Grupo_1192267" data-name="Grupo 1192267" transform="translate(15.111 0.816)">
        <g id="Grupo_1192260" data-name="Grupo 1192260" transform="translate(0 6.627)">
          <circle id="Elipse_12383" data-name="Elipse 12383" cx="23.722" cy="23.722" r="23.722" transform="translate(0 0)" fill="#fc5a95"/>
          <path id="Trazado_1280044" data-name="Trazado 1280044" d="M244.317,92.142A23.722,23.722,0,0,1,220.6,115.863q-1.188,0-2.348-.115a23.723,23.723,0,0,0,0-47.213q1.159-.114,2.348-.115A23.722,23.722,0,0,1,244.317,92.142Z" transform="translate(-196.874 -68.42)" fill="#fb3a82"/>
          <path id="Trazado_1280045" data-name="Trazado 1280045" d="M263.554,92.139a23.62,23.62,0,0,1-2.819,11.225l-20.9-11.225V68.417A23.722,23.722,0,0,1,263.554,92.139Z" transform="translate(-216.11 -68.417)" fill="#72f4c3"/>
          <path id="Trazado_1280046" data-name="Trazado 1280046" d="M380.37,149.063a23.621,23.621,0,0,1-2.819,11.225l-3.737-2.007a23.749,23.749,0,0,0-2.906-23.478l2.513-2.513a23.647,23.647,0,0,1,6.949,16.773Z" transform="translate(-332.926 -125.341)" fill="#23f1a8"/>
          <path id="Trazado_1280047" data-name="Trazado 1280047" d="M62.284,75.368h0L45.51,92.142H21.788a23.722,23.722,0,0,1,40.5-16.774Z" transform="translate(-21.788 -68.42)" fill="#8dcafc"/>
          <path id="Trazado_1280048" data-name="Trazado 1280048" d="M237.37,75.368h0l-2.513,2.512a23.7,23.7,0,0,0-16.609-9.345q1.159-.114,2.348-.115A23.647,23.647,0,0,1,237.37,75.368Z" transform="translate(-196.874 -68.42)" fill="#64b9fc"/>
        </g>
        <g id="Grupo_1192262" data-name="Grupo 1192262" transform="translate(4.553 34.145)">
          <g id="Grupo_1192261" data-name="Grupo 1192261">
            <circle id="Elipse_12384" data-name="Elipse 12384" cx="2.89" cy="2.89" r="2.89" transform="translate(1.807)" fill="#ffcec0"/>
            <path id="Trazado_1280049" data-name="Trazado 1280049" d="M99.514,324.236a2.891,2.891,0,0,1-4.133,2.61,2.892,2.892,0,0,0,0-5.219,2.891,2.891,0,0,1,4.133,2.61Z" transform="translate(-91.927 -321.346)" fill="#fdb0a0"/>
            <path id="Trazado_1280050" data-name="Trazado 1280050" d="M73.024,381.523l-.4-4.462a2.848,2.848,0,0,0-2.836-2.6H66.869a2.848,2.848,0,0,0-2.836,2.6l-.4,4.462a.57.57,0,0,0,.567.62h1.352v5.331a1.139,1.139,0,0,0,1.139,1.139h3.272a1.139,1.139,0,0,0,1.139-1.139v-5.331h1.352A.57.57,0,0,0,73.024,381.523Z" transform="translate(-63.633 -368.687)" fill="#fb3a82"/>
            <path id="Trazado_1280051" data-name="Trazado 1280051" d="M99.22,382.146H97.868v5.331a1.14,1.14,0,0,1-1.139,1.139h-2.89a1.139,1.139,0,0,0,1.139-1.139v-5.331h1.352a.569.569,0,0,0,.567-.62l-.4-4.462a2.848,2.848,0,0,0-2.837-2.595h2.89a2.848,2.848,0,0,1,2.837,2.595l.4,4.462A.569.569,0,0,1,99.22,382.146Z" transform="translate(-90.397 -368.69)" fill="#fb1466"/>
          </g>
        </g>
        <g id="Grupo_1192264" data-name="Grupo 1192264" transform="translate(41.568 17.593)">
          <g id="Grupo_1192263" data-name="Grupo 1192263">
            <circle id="Elipse_12385" data-name="Elipse 12385" cx="2.89" cy="2.89" r="2.89" transform="translate(1.807)" fill="#ffcec0"/>
            <path id="Trazado_1280052" data-name="Trazado 1280052" d="M439.745,172.1a2.891,2.891,0,0,1-4.133,2.61,2.892,2.892,0,0,0,0-5.219,2.891,2.891,0,0,1,4.133,2.61Z" transform="translate(-432.158 -169.211)" fill="#fdb0a0"/>
            <path id="Trazado_1280053" data-name="Trazado 1280053" d="M413.254,229.388l-.4-4.462a2.848,2.848,0,0,0-2.836-2.6H407.1a2.848,2.848,0,0,0-2.836,2.6l-.4,4.462a.57.57,0,0,0,.567.62h1.352v5.331a1.139,1.139,0,0,0,1.139,1.139H410.2a1.139,1.139,0,0,0,1.139-1.139v-5.331h1.352A.57.57,0,0,0,413.254,229.388Z" transform="translate(-403.863 -216.552)" fill="#26d192"/>
            <path id="Trazado_1280054" data-name="Trazado 1280054" d="M439.451,230.012H438.1v5.331a1.14,1.14,0,0,1-1.139,1.139h-2.89a1.139,1.139,0,0,0,1.139-1.139v-5.331h1.352a.569.569,0,0,0,.567-.62l-.4-4.462a2.848,2.848,0,0,0-2.837-2.595h2.89a2.848,2.848,0,0,1,2.837,2.595l.4,4.462A.569.569,0,0,1,439.451,230.012Z" transform="translate(-430.628 -216.556)" fill="#1ec186"/>
          </g>
        </g>
        <g id="Grupo_1192266" data-name="Grupo 1192266" transform="translate(20.113)">
          <g id="Grupo_1192265" data-name="Grupo 1192265">
            <circle id="Elipse_12386" data-name="Elipse 12386" cx="2.89" cy="2.89" r="2.89" transform="translate(1.807)" fill="#ffcec0"/>
            <path id="Trazado_1280055" data-name="Trazado 1280055" d="M242.543,10.392A2.891,2.891,0,0,1,238.41,13a2.892,2.892,0,0,0,0-5.219,2.891,2.891,0,0,1,4.133,2.61Z" transform="translate(-234.956 -7.502)" fill="#fdb0a0"/>
            <path id="Trazado_1280056" data-name="Trazado 1280056" d="M216.052,67.679l-.4-4.462a2.848,2.848,0,0,0-2.837-2.6H209.9a2.848,2.848,0,0,0-2.837,2.6l-.4,4.462a.57.57,0,0,0,.567.62h1.352V73.63a1.139,1.139,0,0,0,1.139,1.139h3.272a1.139,1.139,0,0,0,1.139-1.139V68.3h1.352A.57.57,0,0,0,216.052,67.679Z" transform="translate(-206.661 -54.843)" fill="#31a7fb"/>
            <path id="Trazado_1280057" data-name="Trazado 1280057" d="M242.249,68.3H240.9v5.331a1.14,1.14,0,0,1-1.139,1.139h-2.89a1.139,1.139,0,0,0,1.139-1.139V68.3h1.352a.569.569,0,0,0,.567-.62l-.4-4.462a2.848,2.848,0,0,0-2.837-2.595h2.89a2.848,2.848,0,0,1,2.837,2.595l.4,4.462A.569.569,0,0,1,242.249,68.3Z" transform="translate(-233.426 -54.847)" fill="#1c96f9"/>
          </g>
        </g>
      </g>
      <g id="Grupo_1192268" data-name="Grupo 1192268" transform="translate(14.296)">
        <path id="Trazado_1280058" data-name="Trazado 1280058" d="M66.883,31.173l-.4-4.462a3.643,3.643,0,0,0-2.246-3.064,3.7,3.7,0,0,0-4.66-5.589A24.585,24.585,0,0,0,44.322,7.247a3.633,3.633,0,0,0-1.537-1.193,3.706,3.706,0,1,0-5.728,0,3.632,3.632,0,0,0-1.143.746A24.556,24.556,0,0,0,15.862,22.527a.816.816,0,1,0,1.527.575A23.09,23.09,0,0,1,34.894,8.6a3.761,3.761,0,0,0-.083.519l-.4,4.462a1.386,1.386,0,0,0,1.38,1.508h.536V19.6a1.957,1.957,0,0,0,1.955,1.955h3.272A1.957,1.957,0,0,0,43.512,19.6v-.3a.816.816,0,1,0-1.632,0v.3a.324.324,0,0,1-.323.323h-.82V14.219a.816.816,0,1,0-1.632,0v5.707h-.82a.323.323,0,0,1-.323-.323V14.272a.816.816,0,0,0-.816-.816H36.063l.373-4.193A2.021,2.021,0,0,1,38.46,7.411h2.922a2.021,2.021,0,0,1,2.024,1.852l.373,4.193H42.7a.816.816,0,0,0-.816.816v1.156a.816.816,0,1,0,1.632,0v-.341h.536a1.385,1.385,0,0,0,1.38-1.508l-.4-4.462V9.111A22.913,22.913,0,0,1,54.442,14.4L38.495,30.349H15.944a22.959,22.959,0,0,1,.421-3.653.816.816,0,0,0-1.6-.318,24.651,24.651,0,0,0-.468,4.787,24.319,24.319,0,0,0,4.741,14.5l-.184,2.061a1.386,1.386,0,0,0,1.38,1.508h.536v4.515A1.957,1.957,0,0,0,22.724,55.7H26a1.957,1.957,0,0,0,1.955-1.955v-.586A24.565,24.565,0,0,0,38.834,55.7c.8,0,1.624-.04,2.437-.12a.816.816,0,1,0-.159-1.624c-.76.075-1.527.112-2.278.112a22.908,22.908,0,0,1-10.882-2.749v-2.09h.536a1.386,1.386,0,0,0,1.38-1.508l-.4-4.462A3.643,3.643,0,0,0,27.224,40.2a3.706,3.706,0,1,0-5.728,0,3.64,3.64,0,0,0-2.226,2.888,22.657,22.657,0,0,1-3.327-11.106H38.628L58.61,42.712A23.112,23.112,0,0,1,44.759,53.3a.816.816,0,1,0,.421,1.577A24.58,24.58,0,0,0,62.039,39.151h.972A1.957,1.957,0,0,0,64.967,37.2V32.681H65.5a1.386,1.386,0,0,0,1.38-1.508ZM39.921,1.632a2.074,2.074,0,1,1-2.074,2.074,2.076,2.076,0,0,1,2.074-2.074ZM63.449,21.3a2.074,2.074,0,1,1-2.074-2.074A2.076,2.076,0,0,1,63.449,21.3ZM24.36,35.776a2.074,2.074,0,1,1-2.074,2.074A2.076,2.076,0,0,1,24.36,35.776ZM22.9,41.556h2.922a2.021,2.021,0,0,1,2.024,1.852l.373,4.193H27.136a.816.816,0,0,0-.816.816v5.331a.323.323,0,0,1-.323.323h-.82V48.363a.816.816,0,0,0-1.632,0v5.707h-.82a.323.323,0,0,1-.323-.323V48.417a.816.816,0,0,0-.816-.816H20.5l.373-4.193A2.021,2.021,0,0,1,22.9,41.556Zm17.287-10.59L55.6,15.557a22.96,22.96,0,0,1,2.753,3.609,3.7,3.7,0,0,0,.164,4.482,3.643,3.643,0,0,0-2.246,3.064l-.4,4.461a1.386,1.386,0,0,0,1.38,1.509h.536V37.2a1.957,1.957,0,0,0,1.955,1.955H60.3a22.487,22.487,0,0,1-.92,2.125Zm23.964.084a.816.816,0,0,0-.816.816V37.2a.324.324,0,0,1-.323.323h-.82V31.812a.816.816,0,1,0-1.632,0v5.707h-.82a.324.324,0,0,1-.323-.323V31.865a.816.816,0,0,0-.816-.816H57.518l.373-4.193A2.021,2.021,0,0,1,59.915,25h2.922a2.021,2.021,0,0,1,2.024,1.852l.373,4.193Z" transform="translate(-14.296)"/>
        <path id="Trazado_1280059" data-name="Trazado 1280059" d="M183.7,404.115a.816.816,0,0,0-.816-.816H175.5a.816.816,0,1,0,0,1.632h7.381A.816.816,0,0,0,183.7,404.115Z" transform="translate(-157.236 -359.422)"/>
        <path id="Trazado_1280060" data-name="Trazado 1280060" d="M175.5,429.052a.816.816,0,0,0,0,1.632h2.781a.816.816,0,0,0,0-1.632Z" transform="translate(-157.236 -382.373)"/>
        <path id="Trazado_1280061" data-name="Trazado 1280061" d="M175.5,338.624a.816.816,0,0,0-.816.816v.011a.816.816,0,1,0,1.632,0v-.011A.816.816,0,0,0,175.5,338.624Z" transform="translate(-157.236 -301.784)"/>
        <path id="Trazado_1280062" data-name="Trazado 1280062" d="M183.951,338.807a.816.816,0,0,0-1.148.116l-2.752,3.369a.816.816,0,1,0,1.264,1.032l2.752-3.369A.816.816,0,0,0,183.951,338.807Z" transform="translate(-161.854 -301.783)"/>
        <path id="Trazado_1280063" data-name="Trazado 1280063" d="M210.339,370.3v.011a.816.816,0,0,0,1.632,0V370.3a.816.816,0,0,0-1.632,0Z" transform="translate(-189.011 -329.286)"/>
        <path id="Trazado_1280064" data-name="Trazado 1280064" d="M330.108,277.961H324.9a.816.816,0,0,0,0,1.632h5.206a.816.816,0,0,0,0-1.632Z" transform="translate(-290.383 -247.72)"/>
        <path id="Trazado_1280065" data-name="Trazado 1280065" d="M349.97,303.714h-2.781a.816.816,0,1,0,0,1.632h2.781a.816.816,0,1,0,0-1.632Z" transform="translate(-310.245 -270.672)"/>
        <path id="Trazado_1280066" data-name="Trazado 1280066" d="M337.1,214.929a.816.816,0,0,0,.816-.816V214.1a.816.816,0,1,0-1.632,0v.011A.816.816,0,0,0,337.1,214.929Z" transform="translate(-301.251 -190.082)"/>
        <path id="Trazado_1280067" data-name="Trazado 1280067" d="M341.762,218.1a.816.816,0,0,0,1.148-.116l2.751-3.369a.816.816,0,0,0-1.264-1.032l-2.751,3.369A.816.816,0,0,0,341.762,218.1Z" transform="translate(-305.868 -190.081)"/>
        <path id="Trazado_1280068" data-name="Trazado 1280068" d="M372.75,244.146a.816.816,0,0,0-.816.816v.011a.816.816,0,1,0,1.632,0v-.011A.816.816,0,0,0,372.75,244.146Z" transform="translate(-333.025 -217.584)"/>
        <path id="Trazado_1280069" data-name="Trazado 1280069" d="M128.321,213.21a.816.816,0,0,0,.816.816h5.206a.816.816,0,0,0,0-1.632h-5.206A.816.816,0,0,0,128.321,213.21Z" transform="translate(-115.916 -189.287)"/>
        <path id="Trazado_1280070" data-name="Trazado 1280070" d="M154.2,238.146h-2.781a.816.816,0,0,0,0,1.632H154.2a.816.816,0,0,0,0-1.632Z" transform="translate(-135.776 -212.237)"/>
        <path id="Trazado_1280071" data-name="Trazado 1280071" d="M141.331,147.719a.816.816,0,0,0-.816.816v.011a.816.816,0,1,0,1.632,0v-.011A.816.816,0,0,0,141.331,147.719Z" transform="translate(-126.783 -131.648)"/>
        <path id="Trazado_1280072" data-name="Trazado 1280072" d="M149.779,147.9a.816.816,0,0,0-1.148.116l-2.751,3.369a.816.816,0,1,0,1.264,1.032l2.751-3.369a.816.816,0,0,0-.116-1.148Z" transform="translate(-131.4 -131.648)"/>
        <path id="Trazado_1280073" data-name="Trazado 1280073" d="M176.167,179.395v.011a.816.816,0,0,0,1.632,0v-.011a.816.816,0,0,0-1.632,0Z" transform="translate(-158.556 -159.151)"/>
      </g>
    </g>
  </g>
</svg>
