<svg xmlns="http://www.w3.org/2000/svg" width="80" height="80" viewBox="0 0 80 80">
  <g id="Grupo_1192283" data-name="Grupo 1192283" transform="translate(-506.051 -8076)">
    <circle id="Elipse_12320" data-name="Elipse 12320" cx="40" cy="40" r="40" transform="translate(506.051 8076)" fill="#fff"/>
    <g id="Grupo_1192282" data-name="Grupo 1192282" transform="translate(513.051 8069.583)">
      <g id="Grupo_1192281" data-name="Grupo 1192281" transform="translate(8.811 23.228)">
        <g id="Grupo_1192278" data-name="Grupo 1192278" transform="translate(10.446 9.664)">
          <path id="Trazado_1280098" data-name="Trazado 1280098" d="M121.514,288.322a2.524,2.524,0,1,0-2.524-2.524A2.529,2.529,0,0,0,121.514,288.322Z" transform="translate(-118.99 -267.29)" fill="#fe646f" fill-rule="evenodd"/>
          <path id="Trazado_1280099" data-name="Trazado 1280099" d="M140.906,283.274a2.524,2.524,0,1,1-.335,5.026,2.524,2.524,0,0,0,0-5A2.551,2.551,0,0,1,140.906,283.274Z" transform="translate(-138.382 -267.29)" fill="#fd4755" fill-rule="evenodd"/>
          <circle id="Elipse_12391" data-name="Elipse 12391" cx="2.524" cy="2.524" r="2.524" transform="translate(9.875 10.001) rotate(-45)" fill="#6cf5c2"/>
          <path id="Trazado_1280100" data-name="Trazado 1280100" d="M248.614,199.406a2.524,2.524,0,1,1-.335,5.026,2.524,2.524,0,0,0,0-5A2.553,2.553,0,0,1,248.614,199.406Z" transform="translate(-235.165 -191.929)" fill="#00e499" fill-rule="evenodd"/>
          <path id="Trazado_1280101" data-name="Trazado 1280101" d="M336.931,227.069a2.524,2.524,0,1,0-2.524-2.524A2.529,2.529,0,0,0,336.931,227.069Z" transform="translate(-312.557 -212.25)" fill="#ffe177" fill-rule="evenodd"/>
          <path id="Trazado_1280102" data-name="Trazado 1280102" d="M356.322,222.021a2.524,2.524,0,1,1-.335,5.026,2.524,2.524,0,0,0,0-5A2.535,2.535,0,0,1,356.322,222.021Z" transform="translate(-331.949 -212.25)" fill="#ffd064" fill-rule="evenodd"/>
          <path id="Trazado_1280103" data-name="Trazado 1280103" d="M444.636,130.738a2.524,2.524,0,1,0-2.524-2.524A2.529,2.529,0,0,0,444.636,130.738Z" transform="translate(-409.338 -125.69)" fill="#8ac9fe" fill-rule="evenodd"/>
          <path id="Trazado_1280104" data-name="Trazado 1280104" d="M464.028,125.69a2.524,2.524,0,1,1-.335,5.026,2.524,2.524,0,0,0,0-5A2.553,2.553,0,0,1,464.028,125.69Z" transform="translate(-428.73 -125.69)" fill="#60b7ff" fill-rule="evenodd"/>
        </g>
        <g id="Grupo_1192279" data-name="Grupo 1192279" transform="translate(10.028 19.265)">
          <path id="Trazado_1280105" data-name="Trazado 1280105" d="M115.638,394.3h4.347a.77.77,0,0,1,.768.768v7.316a.77.77,0,0,1-.768.768h-4.347a.77.77,0,0,1-.768-.768V395.07A.77.77,0,0,1,115.638,394.3Z" transform="translate(-114.87 -376.658)" fill="#fe646f" fill-rule="evenodd"/>
          <path id="Trazado_1280106" data-name="Trazado 1280106" d="M153.072,394.3h1.24a.77.77,0,0,1,.768.768v7.316a.77.77,0,0,1-.768.768h-1.24a.77.77,0,0,0,.768-.768V395.07A.77.77,0,0,0,153.072,394.3Z" transform="translate(-149.197 -376.658)" fill="#fd4755" fill-rule="evenodd"/>
          <path id="Trazado_1280107" data-name="Trazado 1280107" d="M223.346,296.438h4.347a.77.77,0,0,1,.768.768v17.243a.77.77,0,0,1-.768.768h-4.347a.77.77,0,0,1-.768-.768V297.206A.77.77,0,0,1,223.346,296.438Z" transform="translate(-211.653 -288.72)" fill="#6cf5c2" fill-rule="evenodd"/>
          <path id="Trazado_1280108" data-name="Trazado 1280108" d="M260.78,296.438h1.24a.77.77,0,0,1,.768.768v17.243a.77.77,0,0,1-.768.768h-1.24a.77.77,0,0,0,.768-.768V297.206A.77.77,0,0,0,260.78,296.438Z" transform="translate(-245.98 -288.72)" fill="#00e499" fill-rule="evenodd"/>
          <path id="Trazado_1280109" data-name="Trazado 1280109" d="M331.055,336H335.4a.77.77,0,0,1,.768.768V350a.77.77,0,0,1-.768.768h-4.347a.77.77,0,0,1-.768-.768v-13.23A.77.77,0,0,1,331.055,336Z" transform="translate(-308.437 -324.267)" fill="#ffe177" fill-rule="evenodd"/>
          <path id="Trazado_1280110" data-name="Trazado 1280110" d="M368.49,336h1.24a.77.77,0,0,1,.768.768V350a.77.77,0,0,1-.768.768h-1.24a.77.77,0,0,0,.768-.768v-13.23A.77.77,0,0,0,368.49,336Z" transform="translate(-342.765 -324.267)" fill="#ffd064" fill-rule="evenodd"/>
          <path id="Trazado_1280111" data-name="Trazado 1280111" d="M438.761,220.348h4.347a.77.77,0,0,1,.768.768v24.96a.77.77,0,0,1-.768.768h-4.347a.77.77,0,0,1-.768-.768v-24.96A.77.77,0,0,1,438.761,220.348Z" transform="translate(-405.219 -220.348)" fill="#8ac9fe" fill-rule="evenodd"/>
          <path id="Trazado_1280112" data-name="Trazado 1280112" d="M476.2,220.348h1.24a.77.77,0,0,1,.768.768v24.96a.77.77,0,0,1-.768.768H476.2a.77.77,0,0,0,.768-.768v-24.96A.77.77,0,0,0,476.2,220.348Z" transform="translate(-439.548 -220.348)" fill="#60b7ff" fill-rule="evenodd"/>
        </g>
        <g id="Grupo_1192280" data-name="Grupo 1192280" transform="translate(0 0)">
          <path id="Trazado_1280113" data-name="Trazado 1280113" d="M35.934,62.211a9.967,9.967,0,1,1-9.967-9.967v9.967Z" transform="translate(-16 -50.03)" fill="#60b7ff" fill-rule="evenodd"/>
          <path id="Trazado_1280114" data-name="Trazado 1280114" d="M42.379,70.509v8.114h8.114a8.114,8.114,0,1,1-8.114-8.114Z" transform="translate(-32.412 -66.442)" fill="#8ac9fe" fill-rule="evenodd"/>
          <path id="Trazado_1280115" data-name="Trazado 1280115" d="M136.093,30.416a9.967,9.967,0,0,1,9.967,9.967h-9.967Z" transform="translate(-123.912 -30.416)" fill="#ffd064" fill-rule="evenodd"/>
          <path id="Trazado_1280116" data-name="Trazado 1280116" d="M144.207,56.8h-8.114V48.681A8.114,8.114,0,0,1,144.207,56.8Z" transform="translate(-123.912 -46.828)" fill="#ffe177" fill-rule="evenodd"/>
        </g>
      </g>
      <path id="Trazado_1280117" data-name="Trazado 1280117" d="M21.8,24.075a9.171,9.171,0,0,1,8.309,8.308H21.8Zm-.812,9.931H30.96a.811.811,0,0,0,.812-.811A10.791,10.791,0,0,0,20.992,22.417a.811.811,0,0,0-.811.812V33.2a.811.811,0,0,0,.811.811Zm-11.369,1.4A9.156,9.156,0,0,0,27.9,36.22H18.778a.811.811,0,0,1-.811-.811v-9.12a9.168,9.168,0,0,0-8.344,9.12Zm19.934,0a.812.812,0,0,0-.812-.812H19.589V25.442a.811.811,0,0,0-.812-.811A10.778,10.778,0,1,0,29.557,35.409Zm3.15,5.771a1.712,1.712,0,1,1-1.713,1.713A1.715,1.715,0,0,1,32.706,41.18Zm10.925,2.294a1.712,1.712,0,1,1-1.712,1.713A1.714,1.714,0,0,1,43.631,43.474ZM54.556,33.7a1.712,1.712,0,1,1-1.713,1.713A1.714,1.714,0,0,1,54.556,33.7ZM21.781,53.112A1.712,1.712,0,1,1,23.494,51.4,1.714,1.714,0,0,1,21.781,53.112Zm7.59-10.219a3.31,3.31,0,0,0,.285,1.346l-5.822,4.533a3.332,3.332,0,1,0,1,1.28l5.822-4.534a3.332,3.332,0,0,0,5.051-1.168l4.594.964a3.335,3.335,0,1,0,6.284-1.68l6.1-5.459A3.339,3.339,0,1,0,51.6,36.967l-6.1,5.459a3.332,3.332,0,0,0-4.867,1.3l-4.6-.964a3.335,3.335,0,0,0-6.667.13Zm5.466,25.285H30.576V51.022h4.261ZM35.649,49.4a.812.812,0,0,1,.811.811V68.99a.812.812,0,0,1-.811.812H29.765a.811.811,0,0,1-.811-.812V50.211a.811.811,0,0,1,.811-.811ZM23.912,68.178H19.651V60.949h4.261Zm.811-8.853H18.84a.812.812,0,0,0-.812.812V68.99a.812.812,0,0,0,.812.812h5.884a.812.812,0,0,0,.812-.812V60.137A.812.812,0,0,0,24.724,59.326Zm21.037,8.853H41.5V55.035h4.26Zm.812-14.767a.812.812,0,0,1,.812.812V68.99a.812.812,0,0,1-.812.812H40.69a.812.812,0,0,1-.812-.812V54.223a.812.812,0,0,1,.812-.812ZM56.686,68.178H52.425V43.3h4.261Zm.812-26.5a.811.811,0,0,1,.811.812v26.5a.811.811,0,0,1-.811.812H51.614a.812.812,0,0,1-.812-.812v-26.5a.812.812,0,0,1,.812-.812Z" fill-rule="evenodd"/>
    </g>
  </g>
</svg>
