<svg xmlns="http://www.w3.org/2000/svg" width="294.949" height="140" viewBox="0 0 294.949 140">
  <g id="Grupo_1192302" data-name="Grupo 1192302" transform="translate(-810 -9673)">
    <rect id="BG" width="294.949" height="140" rx="10" transform="translate(810 9673)" fill="#31ba5c"/>
    <g id="Grupo_1192301" data-name="Grupo 1192301" transform="translate(892.009 9645.105)">
      <g id="Grupo_1192299" data-name="Grupo 1192299" transform="translate(1.918 45.489)">
        <g id="Grupo_1192298" data-name="Grupo 1192298">
          <path id="Trazado_1280136" data-name="Trazado 1280136" d="M117.436,200.149V125.531a6.393,6.393,0,0,0-6.393-6.393H13.893A6.393,6.393,0,0,0,7.5,125.531v74.618a6.393,6.393,0,0,0,6.393,6.393h97.15A6.393,6.393,0,0,0,117.436,200.149Z" transform="translate(-7.5 -101.731)" fill="#9facba"/>
          <path id="Trazado_1280137" data-name="Trazado 1280137" d="M109.292,278.629v37.2a1.279,1.279,0,0,1-1.279,1.279H16.923a1.279,1.279,0,0,1-1.279-1.279v-3.033H7.5v6.063a6.393,6.393,0,0,0,6.393,6.393h97.15a6.393,6.393,0,0,0,6.393-6.393V278.629Z" transform="translate(-7.5 -220.437)" fill="#8d9ca8"/>
          <path id="Trazado_1280138" data-name="Trazado 1280138" d="M39.348,220.822V152.264a1.279,1.279,0,0,1,1.279-1.279h91.091A1.279,1.279,0,0,1,133,152.264v68.559a1.279,1.279,0,0,1-1.279,1.279H40.627A1.279,1.279,0,0,1,39.348,220.822Z" transform="translate(-31.204 -125.434)" fill="#fff"/>
          <path id="Trazado_1280139" data-name="Trazado 1280139" d="M108.782,226.977V260.9h45.071a1.279,1.279,0,0,0,1.279-1.279V226.977Z" transform="translate(-82.882 -181.993)" fill="#f5f8f9"/>
          <path id="Trazado_1280140" data-name="Trazado 1280140" d="M149.415,226.977V253.9a1.279,1.279,0,0,1-1.279,1.279H108.782V260.9h45.071a1.279,1.279,0,0,0,1.279-1.279V226.977Z" transform="translate(-82.882 -181.993)" fill="#e8edf2"/>
          <path id="Trazado_1280141" data-name="Trazado 1280141" d="M131.717,150.985h-4.788V216.51a1.279,1.279,0,0,1-1.279,1.279h-86.3v3.033a1.279,1.279,0,0,0,1.279,1.279h91.091A1.279,1.279,0,0,0,133,220.822V152.264A1.279,1.279,0,0,0,131.717,150.985Z" transform="translate(-31.204 -125.434)" fill="#f5f8f9"/>
          <path id="Trazado_1280142" data-name="Trazado 1280142" d="M133,396.406H39.348v7.077a1.279,1.279,0,0,0,1.279,1.279h91.091A1.279,1.279,0,0,0,133,403.483v-7.077Z" transform="translate(-31.204 -308.095)" fill="#5de1c4"/>
          <path id="Trazado_1280143" data-name="Trazado 1280143" d="M126.929,396.406v2.765a1.279,1.279,0,0,1-1.279,1.279h-86.3v3.033a1.279,1.279,0,0,0,1.279,1.279h91.091A1.279,1.279,0,0,0,133,403.483v-7.077Z" transform="translate(-31.204 -308.095)" fill="#0ed2b3"/>
          <g id="Grupo_1192292" data-name="Grupo 1192292" transform="translate(17.274 34.681)">
            <path id="Trazado_1280144" data-name="Trazado 1280144" d="M130.026,196.992H75.051v-9.024a1.279,1.279,0,0,1,1.279-1.279h52.418a1.279,1.279,0,0,1,1.279,1.279Z" transform="translate(-75.051 -186.689)" fill="#fd8087"/>
            <g id="Grupo_1192290" data-name="Grupo 1192290" transform="translate(49.259)">
              <path id="Trazado_1280145" data-name="Trazado 1280145" d="M272.114,186.688h-4.438v10.3h5.716v-9.024A1.279,1.279,0,0,0,272.114,186.688Z" transform="translate(-267.676 -186.688)" fill="#fe646f"/>
            </g>
            <path id="Trazado_1280146" data-name="Trazado 1280146" d="M75.051,226.977V259.62A1.279,1.279,0,0,0,76.33,260.9h7.347V226.977Z" transform="translate(-75.051 -216.674)" fill="#0593fc"/>
            <path id="Trazado_1280147" data-name="Trazado 1280147" d="M75.051,226.977V259.62A1.279,1.279,0,0,0,76.33,260.9h7.347V226.977Z" transform="translate(-75.051 -216.674)" fill="#0593fc"/>
            <g id="Grupo_1192291" data-name="Grupo 1192291" transform="translate(0 38.508)">
              <path id="Trazado_1280148" data-name="Trazado 1280148" d="M75.051,337.273v4.438a1.279,1.279,0,0,0,1.279,1.279h7.347v-5.716Z" transform="translate(-75.051 -337.273)" fill="#0182fc"/>
            </g>
          </g>
          <g id="Grupo_1192293" data-name="Grupo 1192293" transform="translate(0)">
            <path id="Trazado_1280149" data-name="Trazado 1280149" d="M246.965,59.654h2.3a3.388,3.388,0,0,0,1.27-.247l8.451-3.416a.678.678,0,0,0,0-1.257l-8.451-3.416a3.388,3.388,0,0,0-1.27-.247h-2.3Z" transform="translate(-185.728 -51.07)" fill="#d9e7ec"/>
            <path id="Trazado_1280150" data-name="Trazado 1280150" d="M258.98,60.366,254.7,58.638l-4.176,1.688a3.388,3.388,0,0,1-1.27.247h-2.3v4.713h2.3a3.388,3.388,0,0,0,1.27-.247l8.451-3.416A.677.677,0,0,0,258.98,60.366Z" transform="translate(-185.727 -56.703)" fill="#c5d3dd"/>
            <path id="Trazado_1280151" data-name="Trazado 1280151" d="M7.5,55.363a4.292,4.292,0,0,0,4.292,4.292H68.967V51.071H11.792A4.292,4.292,0,0,0,7.5,55.363Z" transform="translate(-7.5 -51.071)" fill="#e8edf2"/>
            <path id="Trazado_1280152" data-name="Trazado 1280152" d="M7.521,66.206c-.014.139-.021.279-.021.421a4.292,4.292,0,0,0,4.292,4.292H68.967V66.206Z" transform="translate(-7.5 -62.335)" fill="#d9e7ec"/>
          </g>
          <g id="Grupo_1192297" data-name="Grupo 1192297" transform="translate(81.164 0)">
            <g id="Grupo_1192295" data-name="Grupo 1192295">
              <g id="Grupo_1192294" data-name="Grupo 1192294">
                <path id="Trazado_1280153" data-name="Trazado 1280153" d="M370.82,63.612v-7.2a5.339,5.339,0,0,0-5.339-5.339H330.228a5.339,5.339,0,0,0-5.339,5.339v7.2H370.82Z" transform="translate(-324.889 -51.071)" fill="#0593fc"/>
                <path id="Trazado_1280154" data-name="Trazado 1280154" d="M476.833,51.071H474.5V63.612h7.672v-7.2A5.339,5.339,0,0,0,476.833,51.071Z" transform="translate(-436.241 -51.071)" fill="#0182fc"/>
                <path id="Trazado_1280155" data-name="Trazado 1280155" d="M365.481,144.949H330.228a5.339,5.339,0,0,1-5.339-5.339V99.018H370.82V139.61a5.339,5.339,0,0,1-5.339,5.339Z" transform="translate(-324.889 -86.757)" fill="#e8edf2"/>
                <path id="Trazado_1280156" data-name="Trazado 1280156" d="M363.148,99.018v35.7a2.557,2.557,0,0,1-2.557,2.557h-35.7v2.333a5.339,5.339,0,0,0,5.339,5.339h35.253a5.339,5.339,0,0,0,5.339-5.339V99.018Z" transform="translate(-324.889 -86.757)" fill="#d9e7ec"/>
              </g>
            </g>
            <g id="Grupo_1192296" data-name="Grupo 1192296" transform="translate(10.062 21.996)">
              <circle id="Elipse_12397" data-name="Elipse 12397" cx="12.903" cy="12.903" r="12.903" fill="#fd8087"/>
              <path id="Trazado_1280157" data-name="Trazado 1280157" d="M387.96,143.289a12.905,12.905,0,0,1-17.518,17.518,12.9,12.9,0,1,0,17.518-17.518Z" transform="translate(-368.855 -141.702)" fill="#fe646f"/>
              <path id="Trazado_1280158" data-name="Trazado 1280158" d="M414.694,153.673l5.575-11.637a12.9,12.9,0,0,1,7.328,11.637Z" transform="translate(-401.791 -140.77)" fill="#5de1c4"/>
              <path id="Trazado_1280159" data-name="Trazado 1280159" d="M440.553,149.523a12.853,12.853,0,0,1-1.056,5.114h6.17a12.883,12.883,0,0,0-6.7-11.306,12.845,12.845,0,0,1,1.581,6.191Z" transform="translate(-419.86 -141.734)" fill="#0ed2b3"/>
            </g>
          </g>
          <path id="Trazado_1280160" data-name="Trazado 1280160" d="M335.885,323.9h-9.717a1.279,1.279,0,0,1-1.279-1.279v-9.718a1.279,1.279,0,0,1,1.279-1.279h9.717a1.279,1.279,0,0,1,1.279,1.279v9.718A1.279,1.279,0,0,1,335.885,323.9Z" transform="translate(-243.725 -244.997)" fill="#ffe177"/>
          <path id="Trazado_1280161" data-name="Trazado 1280161" d="M335.885,311.627h-3.836v5.882a1.279,1.279,0,0,1-1.279,1.279h-5.882v3.836a1.279,1.279,0,0,0,1.279,1.279h9.717a1.279,1.279,0,0,0,1.279-1.279v-9.717A1.279,1.279,0,0,0,335.885,311.627Z" transform="translate(-243.725 -244.996)" fill="#ffd15b"/>
        </g>
      </g>
      <g id="Grupo_1192300" data-name="Grupo 1192300" transform="translate(0 43.571)">
        <path id="Trazado_1280162" data-name="Trazado 1280162" d="M6.209,55.991H65.45a5.278,5.278,0,0,0,1.989-.387l8.451-3.416a2.6,2.6,0,0,0,0-4.813h0l-8.451-3.416a5.285,5.285,0,0,0-1.989-.387H6.209a6.21,6.21,0,0,0,0,12.419ZM65.3,47.408h.147a1.469,1.469,0,0,1,.551.107l5.607,2.266L66,52.048a1.46,1.46,0,0,1-.55.107H65.3V47.408Zm-59.093,0H61.467v4.748H6.209a2.374,2.374,0,0,1,0-4.748Z" transform="translate(0 -43.572)"/>
        <path id="Trazado_1280163" data-name="Trazado 1280163" d="M371.557,159.226a14.821,14.821,0,1,0-14.821-14.821A14.838,14.838,0,0,0,371.557,159.226Zm6.4-23.741a11,11,0,0,1,4.414,7H374.6Zm-6.4-2.065a10.949,10.949,0,0,1,2.943.4l-4.673,9.753a1.918,1.918,0,0,0,1.729,2.746h10.814a10.984,10.984,0,1,1-10.814-12.9Z" transform="translate(-265.51 -107.588)"/>
        <path id="Trazado_1280164" data-name="Trazado 1280164" d="M330.3,320.238a3.2,3.2,0,0,0,3.2-3.2v-9.718a3.2,3.2,0,0,0-3.2-3.2h-9.718a3.2,3.2,0,0,0-3.2,3.2v9.718a3.2,3.2,0,0,0,3.2,3.2Zm-9.078-12.275h8.439V316.4h-8.439Z" transform="translate(-236.225 -237.497)"/>
        <path id="Trazado_1280165" data-name="Trazado 1280165" d="M123.166,227.249a3.2,3.2,0,0,0,3.2-3.2V182.385a3.2,3.2,0,0,0-3.2-3.2H70.748a3.2,3.2,0,0,0-3.2,3.2v41.667a3.2,3.2,0,0,0,3.2,3.2h52.418Zm-31.539-3.836H80.013v-7.471H91.627Zm0-11.307H80.013v-7.472H91.627Zm0-11.308H80.013v-7.471H91.627Zm15.45,22.615H95.462v-7.471h11.614Zm0-11.307H95.462v-7.472h11.614Zm0-11.308H95.462v-7.471h11.614Zm15.45,22.615H110.912v-7.471h11.614Zm0-11.307H110.912v-7.472h11.614Zm0-11.308H110.912v-7.471h11.614ZM71.387,183.024h51.139v6.467H71.387Zm0,10.3h4.79v30.086h-4.79Z" transform="translate(-50.277 -144.507)"/>
        <path id="Trazado_1280166" data-name="Trazado 1280166" d="M123.674,43.571H102.923a1.918,1.918,0,0,0,0,3.836h20.751a3.425,3.425,0,0,1,3.421,3.421v5H85v-5a3.425,3.425,0,0,1,3.421-3.421h5.552a1.918,1.918,0,1,0,0-3.836H88.421a7.265,7.265,0,0,0-7.257,7.257V60.977H8.311A8.32,8.32,0,0,0,0,69.288v74.618a8.32,8.32,0,0,0,8.311,8.311h97.15a8.32,8.32,0,0,0,8.311-8.311v-9.544a1.918,1.918,0,0,0-3.836,0v9.544a4.48,4.48,0,0,1-4.475,4.475H8.311a4.48,4.48,0,0,1-4.475-4.475V69.288a4.48,4.48,0,0,1,4.475-4.475H81.164v4.308H11.341a3.2,3.2,0,0,0-3.2,3.2v8.346a1.918,1.918,0,0,0,3.836,0V72.957H81.164V98.342a7.265,7.265,0,0,0,7.257,7.257h13.371v26.283H11.98V89.614a1.918,1.918,0,0,0-3.836,0v51.262a3.2,3.2,0,0,0,3.2,3.2h91.091a3.2,3.2,0,0,0,3.2-3.2V105.6h4.308v19.813a1.918,1.918,0,0,0,3.836,0V105.6h9.9a7.265,7.265,0,0,0,7.257-7.257V50.828a7.266,7.266,0,0,0-7.257-7.257Zm-21.882,96.666H11.98v-4.52h89.812v4.52Zm25.3-41.9a3.425,3.425,0,0,1-3.421,3.421H88.421A3.425,3.425,0,0,1,85,98.342V59.668h42.095Z" transform="translate(0 -43.571)"/>
      </g>
    </g>
  </g>
</svg>
