<svg xmlns="http://www.w3.org/2000/svg" xmlns:xlink="http://www.w3.org/1999/xlink" width="118" height="118" viewBox="0 0 118 118">
  <defs>
    <filter id="Elipse_12115" x="0" y="0" width="118" height="118" filterUnits="userSpaceOnUse">
      <feOffset dy="3" input="SourceAlpha"/>
      <feGaussianBlur stdDeviation="3" result="blur"/>
      <feFlood flood-opacity="0.161"/>
      <feComposite operator="in" in2="blur"/>
      <feComposite in="SourceGraphic"/>
    </filter>
  </defs>
  <g id="Grupo_1191375" data-name="Grupo 1191375" transform="translate(-751.277 -327)">
    <g id="Grupo_1181949" data-name="Grupo 1181949" transform="translate(-48.504 -2216)">
      <g transform="matrix(1, 0, 0, 1, 799.78, 2543)" filter="url(#Elipse_12115)">
        <g id="Elipse_12115-2" data-name="Elipse 12115" transform="translate(9 6)" fill="#f6bc1c" stroke="#ab8212" stroke-width="1.5">
          <circle cx="50" cy="50" r="50" stroke="none"/>
          <circle cx="50" cy="50" r="49.25" fill="none"/>
        </g>
      </g>
    </g>
    <g id="Grupo_1191374" data-name="Grupo 1191374" transform="translate(773.717 282.954)">
      <rect id="Rectángulo_411993" data-name="Rectángulo 411993" width="57.158" height="11.432" transform="translate(7.981 75.485)" fill="#fb9138"/>
      <rect id="Rectángulo_411994" data-name="Rectángulo 411994" width="57.158" height="37.724" transform="translate(7.981 86.616)" fill="#acf0f2"/>
      <g id="Grupo_1191370" data-name="Grupo 1191370" transform="translate(8.13 75.473)">
        <path id="Trazado_1279268" data-name="Trazado 1279268" d="M85.5,86.031H56.93V97.4h4.487v-6.88H85.5Z" transform="translate(-56.93 -85.732)" fill="#fdb275"/>
        <path id="Trazado_1279269" data-name="Trazado 1279269" d="M284.493,83.936H255.925V95.3h4.487v-6.88h24.081Z" transform="translate(-227.506 -83.936)" fill="#fdb275"/>
      </g>
      <g id="Grupo_1191371" data-name="Grupo 1191371" transform="translate(7.981 87.14)">
        <path id="Trazado_1279270" data-name="Trazado 1279270" d="M84.451,165.629H55.883v11.517H60.37v-6.88H84.451Z" transform="translate(-55.883 -165.629)" fill="#02e7e7"/>
        <path id="Trazado_1279271" data-name="Trazado 1279271" d="M284.493,165.629H255.925v11.517h4.487v-6.88h24.081Z" transform="translate(-227.357 -165.629)" fill="#02e7e7"/>
        <path id="Trazado_1279272" data-name="Trazado 1279272" d="M84.451,348.913H55.883v11.367H60.37V353.55H84.451Z" transform="translate(-55.883 -322.738)" fill="#02e7e7"/>
        <path id="Trazado_1279273" data-name="Trazado 1279273" d="M284.493,349.961H255.925v11.367h4.487V354.6h24.081Z" transform="translate(-227.357 -323.636)" fill="#02e7e7"/>
      </g>
      <rect id="Rectángulo_411995" data-name="Rectángulo 411995" width="70.876" height="14.862" transform="translate(1.122 98.048)" fill="#acf0f2"/>
      <g id="Grupo_1191372" data-name="Grupo 1191372" transform="translate(1.1 98.657)">
        <path id="Trazado_1279274" data-name="Trazado 1279274" d="M43.154,246.274H7.7v14.808h4.637V250.761H43.154Z" transform="translate(-7.705 -246.274)" fill="#1595a3"/>
        <path id="Trazado_1279275" data-name="Trazado 1279275" d="M291.374,246.274H255.925v14.808h4.487V250.761h30.961Z" transform="translate(-220.476 -246.274)" fill="#1595a3"/>
      </g>
      <path id="Trazado_1279276" data-name="Trazado 1279276" d="M50.272,88.336h26.25v8.077h2.244V88.336h26.421v7.425h2.244v-21.7h-59.4v21.7h2.244Zm54.914-2.244H78.765V76.307h26.421ZM76.521,76.307v9.786H50.272V76.307Z" transform="translate(-41.169)"/>
      <path id="Trazado_1279277" data-name="Trazado 1279277" d="M0,234.156v17.1H73.119v-17.1Zm35.352,14.861H2.244V236.4H35.352Zm35.523,0H37.6V236.4h33.28Z" transform="translate(0 -137.23)"/>
      <path id="Trazado_1279278" data-name="Trazado 1279278" d="M105.539,373.748H79.214v-8.077H76.971v8.077H50.8v-8.077H48.552v10.32h59.231v-10.32h-2.244Z" transform="translate(-41.618 -249.963)"/>
      <g id="Grupo_1191373" data-name="Grupo 1191373" transform="translate(4.69 79.212)">
        <path id="Trazado_1279279" data-name="Trazado 1279279" d="M35.085,275H32.841v-4.637h6.731v2.244H35.085Z" transform="translate(-32.841 -247.478)" fill="#fff"/>
        <rect id="Rectángulo_411996" data-name="Rectángulo 411996" width="4.637" height="2.244" transform="translate(8.975 22.885)" fill="#fff"/>
        <rect id="Rectángulo_411997" data-name="Rectángulo 411997" width="2.244" height="2.244" transform="translate(15.855 22.885)" fill="#fff"/>
        <path id="Trazado_1279280" data-name="Trazado 1279280" d="M282.258,275h-2.244v-4.637h10.321v2.244h-8.077Z" transform="translate(-244.715 -247.478)" fill="#fff"/>
        <rect id="Rectángulo_411998" data-name="Rectángulo 411998" width="2.393" height="2.244" transform="translate(47.864 22.885)" fill="#fff"/>
        <path id="Trazado_1279281" data-name="Trazado 1279281" d="M82.216,113.56H79.972v-3.44h4.487v2.244H82.216Z" transform="translate(-73.241 -110.12)" fill="#fff"/>
        <rect id="Rectángulo_411999" data-name="Rectángulo 411999" width="2.244" height="2.244" transform="translate(13.612)" fill="#fff"/>
        <path id="Trazado_1279282" data-name="Trazado 1279282" d="M282.258,193.307h-2.244v-3.59h6.88v2.244h-4.637Z" transform="translate(-244.715 -178.349)" fill="#fff"/>
      </g>
    </g>
  </g>
</svg>
