<svg xmlns="http://www.w3.org/2000/svg" xmlns:xlink="http://www.w3.org/1999/xlink" width="118" height="118" viewBox="0 0 118 118">
  <defs>
    <filter id="Elipse_12115" x="0" y="0" width="118" height="118" filterUnits="userSpaceOnUse">
      <feOffset dy="3" input="SourceAlpha"/>
      <feGaussianBlur stdDeviation="3" result="blur"/>
      <feFlood flood-opacity="0.161"/>
      <feComposite operator="in" in2="blur"/>
      <feComposite in="SourceGraphic"/>
    </filter>
  </defs>
  <g id="Grupo_1191383" data-name="Grupo 1191383" transform="translate(9 6)">
    <g id="Grupo_1181949" data-name="Grupo 1181949">
      <g transform="matrix(1, 0, 0, 1, -9, -6)" filter="url(#Elipse_12115)">
        <g id="Elipse_12115-2" data-name="Elipse 12115" transform="translate(9 6)" fill="#f6bc1c" stroke="#ab8212" stroke-width="1.5">
          <circle cx="50" cy="50" r="50" stroke="none"/>
          <circle cx="50" cy="50" r="49.25" fill="none"/>
        </g>
      </g>
    </g>
    <g id="Grupo_1191382" data-name="Grupo 1191382" transform="translate(21 20.324)">
      <path id="Trazado_1279283" data-name="Trazado 1279283" d="M284.322,75.6v9.541l-15.493,2.043L258.26,85.144,256,81.671,258.26,75.6,270.4,73.56Z" transform="translate(-226.821 -65.745)" fill="#e8edf2"/>
      <path id="Trazado_1279284" data-name="Trazado 1279284" d="M284.322,14.614v6.878H258.26L256,17.777l2.261-5.289H282.2A2.126,2.126,0,0,1,284.322,14.614Z" transform="translate(-226.821 -11.634)" fill="#82aee3"/>
      <path id="Trazado_1279285" data-name="Trazado 1279285" d="M276.812,223.913v9.541l-14.161,2.675-11.9-2.675-3.227-4.771,3.227-4.77,11.652-4.5Z" transform="translate(-219.311 -194.972)" fill="#e8edf2"/>
      <g id="Grupo_1191376" data-name="Grupo 1191376" transform="translate(5.378 7.992)">
        <path id="Trazado_1279286" data-name="Trazado 1279286" d="M284.322,175.2v9.541H258.26L256,179.967l2.261-4.77Z" transform="translate(-232.199 -163.79)" fill="#d9e7ec"/>
        <path id="Trazado_1279287" data-name="Trazado 1279287" d="M284.322,342.616v7.417a2.126,2.126,0,0,1-2.126,2.126H258.26L256,346.679l2.261-4.063Z" transform="translate(-232.199 -312.127)" fill="#d9e7ec"/>
        <path id="Trazado_1279288" data-name="Trazado 1279288" d="M73.243,76.979V86.52L60.212,88.386,47.181,86.52V76.979l13.031-1.866Z" transform="translate(-47.181 -75.113)" fill="#d9e7ec"/>
      </g>
      <path id="Trazado_1279289" data-name="Trazado 1279289" d="M73.243,12.487v9H47.181V14.613a2.126,2.126,0,0,1,2.126-2.126H73.243Z" transform="translate(-41.803 -11.633)" fill="#fe646f"/>
      <path id="Trazado_1279290" data-name="Trazado 1279290" d="M51.881,12.491a2.126,2.126,0,0,0-2.126,2.126V21.5H47.181V14.617a2.126,2.126,0,0,1,2.126-2.126Z" transform="translate(-41.803 -11.636)" fill="#fd4755"/>
      <path id="Trazado_1279291" data-name="Trazado 1279291" d="M47.181,175.2H73.243v9.541H47.181Z" transform="translate(-41.803 -155.797)" fill="#e8edf2"/>
      <path id="Trazado_1279292" data-name="Trazado 1279292" d="M47.18,175.2h2.575v9.541H47.18Z" transform="translate(-41.803 -155.798)" fill="#d9e7ec"/>
      <path id="Trazado_1279293" data-name="Trazado 1279293" d="M49.755,88.257V98.534l-2.575-.368V88.625Z" transform="translate(-41.803 -78.767)" fill="#c5d3dd"/>
      <path id="Trazado_1279294" data-name="Trazado 1279294" d="M73.243,258.907V277.99H49.307a2.126,2.126,0,0,1-2.126-2.126V258.907Z" transform="translate(-41.803 -229.966)" fill="#d9e7ec"/>
      <path id="Trazado_1279295" data-name="Trazado 1279295" d="M47.18,258.908h2.575v17.933H47.417a2.109,2.109,0,0,1-.237-.976Z" transform="translate(-41.803 -229.967)" fill="#c5d3dd"/>
      <path id="Trazado_1279296" data-name="Trazado 1279296" d="M47.181,342.616v7.417a2.126,2.126,0,0,0,2.126,2.126H73.243v-9.542Z" transform="translate(-41.803 -304.135)" fill="#e8edf2"/>
      <g id="Grupo_1191380" data-name="Grupo 1191380" transform="translate(0.855 32.133)">
        <path id="Trazado_1279297" data-name="Trazado 1279297" d="M29.185,405.329H9.544A2.042,2.042,0,0,1,7.5,403.287v-3.992a2.042,2.042,0,0,1,2.042-2.042l9.82-4.038,9.82,4.038a2.042,2.042,0,0,1,2.042,2.042v3.992A2.042,2.042,0,0,1,29.185,405.329Z" transform="translate(-7.502 -381.099)" fill="#7a8c98"/>
        <path id="Trazado_1279298" data-name="Trazado 1279298" d="M29.185,295l-9.82,4.038L9.544,295A2.042,2.042,0,0,1,7.5,292.954v-3.992a2.042,2.042,0,0,1,2.042-2.042H29.185a2.042,2.042,0,0,1,2.042,2.042v3.992A2.042,2.042,0,0,1,29.185,295Z" transform="translate(-7.502 -286.92)" fill="#7a8c98"/>
        <path id="Trazado_1279299" data-name="Trazado 1279299" d="M12.633,295H9.544A2.042,2.042,0,0,1,7.5,292.957v-3.992a2.042,2.042,0,0,1,2.042-2.042h3.089a2.042,2.042,0,0,0-2.042,2.042v3.992A2.042,2.042,0,0,0,12.633,295Z" transform="translate(-7.502 -286.923)" fill="#596c76"/>
        <path id="Trazado_1279300" data-name="Trazado 1279300" d="M29.185,365.86H9.544A2.042,2.042,0,0,1,7.5,363.817v-3.992a2.042,2.042,0,0,1,2.042-2.042H29.185a2.042,2.042,0,0,1,2.042,2.042v3.992A2.042,2.042,0,0,1,29.185,365.86Z" transform="translate(-7.502 -349.706)" fill="#8d9ca8"/>
        <path id="Trazado_1279301" data-name="Trazado 1279301" d="M12.633,365.861H9.544A2.042,2.042,0,0,1,7.5,363.819v-3.992a2.042,2.042,0,0,1,2.042-2.042h3.089a2.042,2.042,0,0,0-2.042,2.042v3.992A2.042,2.042,0,0,0,12.633,365.861Z" transform="translate(-7.502 -349.708)" fill="#7a8c98"/>
        <path id="Trazado_1279302" data-name="Trazado 1279302" d="M12.633,436.723H9.544A2.042,2.042,0,0,1,7.5,434.681v-3.992a2.042,2.042,0,0,1,2.042-2.042h3.089a2.042,2.042,0,0,0-2.042,2.042v3.992A2.042,2.042,0,0,0,12.633,436.723Z" transform="translate(-7.502 -412.493)" fill="#596c76"/>
        <g id="Grupo_1191377" data-name="Grupo 1191377" transform="translate(2.808 2.335)">
          <circle id="Elipse_12346" data-name="Elipse 12346" cx="1.704" cy="1.704" r="1.704" transform="translate(0)" fill="#ffe177"/>
          <circle id="Elipse_12347" data-name="Elipse 12347" cx="1.704" cy="1.704" r="1.704" transform="translate(5.647)" fill="#9be69d"/>
        </g>
        <g id="Grupo_1191378" data-name="Grupo 1191378" transform="translate(2.808 10.411)">
          <circle id="Elipse_12348" data-name="Elipse 12348" cx="1.704" cy="1.704" r="1.704" transform="translate(5.647)" fill="#ffe177"/>
          <circle id="Elipse_12349" data-name="Elipse 12349" cx="1.704" cy="1.704" r="1.704" transform="translate(0)" fill="#9be69d"/>
        </g>
        <g id="Grupo_1191379" data-name="Grupo 1191379" transform="translate(2.808 18.488)">
          <circle id="Elipse_12350" data-name="Elipse 12350" cx="1.704" cy="1.704" r="1.704" transform="translate(0)" fill="#ffe177"/>
          <circle id="Elipse_12351" data-name="Elipse 12351" cx="1.704" cy="1.704" r="1.704" transform="translate(5.647)" fill="#9be69d"/>
        </g>
      </g>
      <g id="Grupo_1191381" data-name="Grupo 1191381">
        <path id="Trazado_1279303" data-name="Trazado 1279303" d="M58.356,7.971a2.984,2.984,0,0,0-2.98-2.98H7.5a2.984,2.984,0,0,0-2.98,2.98v28.3H2.9a2.9,2.9,0,0,0-2.9,2.9v3.992A2.888,2.888,0,0,0,.844,45.2,2.888,2.888,0,0,0,0,47.243v3.993a2.888,2.888,0,0,0,.844,2.042A2.888,2.888,0,0,0,0,55.32v3.992a2.9,2.9,0,0,0,2.9,2.9H22.538a2.9,2.9,0,0,0,2.9-2.9V55.32a2.879,2.879,0,0,0-.391-1.45H55.375a2.984,2.984,0,0,0,2.98-2.98V7.971ZM51.22,25.245h5.426v7.832H32.294V25.245H47.231a.855.855,0,1,0,0-1.71H32.294V15.7H56.646v7.831H51.22a.855.855,0,0,0,0,1.71Zm5.426,9.541v7.831H32.294V34.787ZM6.232,25.245H30.584v7.832H6.232Zm0-1.71V15.7H30.584v7.831ZM56.646,7.971V14H32.294V6.7H55.375a1.272,1.272,0,0,1,1.271,1.271ZM7.5,6.7H30.584V14H6.232V7.971A1.272,1.272,0,0,1,7.5,6.7ZM6.232,34.787H30.584v7.831H25.435V39.167a2.9,2.9,0,0,0-2.9-2.9H6.232ZM24.591,45.2a2.909,2.909,0,0,0,.6-.873h5.4V52.16h-5.3a2.883,2.883,0,0,0,.152-.924V47.243a2.888,2.888,0,0,0-.844-2.042ZM1.71,39.167A1.189,1.189,0,0,1,2.9,37.979H22.538a1.189,1.189,0,0,1,1.187,1.187v3.992a1.189,1.189,0,0,1-1.182,1.187H2.891A1.189,1.189,0,0,1,1.71,43.159V39.167ZM23.725,59.312A1.189,1.189,0,0,1,22.538,60.5H2.9A1.189,1.189,0,0,1,1.71,59.312V55.32a1.189,1.189,0,0,1,1.182-1.187H5.527a.855.855,0,1,0,0-1.71H2.891A1.189,1.189,0,0,1,1.71,51.236V47.243a1.189,1.189,0,0,1,1.182-1.187H22.544a1.189,1.189,0,0,1,1.182,1.187v3.993a1.189,1.189,0,0,1-1.182,1.187H9.479a.855.855,0,1,0,0,1.71H22.544a1.189,1.189,0,0,1,1.182,1.187v3.992Zm31.65-7.152H32.294V44.328H56.646v6.561A1.272,1.272,0,0,1,55.375,52.16Z" transform="translate(0 -4.991)"/>
        <path id="Trazado_1279304" data-name="Trazado 1279304" d="M27.2,305.021a2.558,2.558,0,1,0-2.559-2.559A2.561,2.561,0,0,0,27.2,305.021Zm0-3.407a.849.849,0,1,1-.849.849A.85.85,0,0,1,27.2,301.614Z" transform="translate(-21.829 -266.291)"/>
        <path id="Trazado_1279305" data-name="Trazado 1279305" d="M76.744,305.021a2.558,2.558,0,1,0-2.558-2.559A2.561,2.561,0,0,0,76.744,305.021Zm0-3.407a.849.849,0,1,1-.849.849A.85.85,0,0,1,76.744,301.614Z" transform="translate(-65.731 -266.291)"/>
        <path id="Trazado_1279306" data-name="Trazado 1279306" d="M27.2,370.766a2.558,2.558,0,1,0,2.558,2.558A2.561,2.561,0,0,0,27.2,370.766Zm0,3.407a.849.849,0,1,1,.849-.849A.85.85,0,0,1,27.2,374.173Z" transform="translate(-21.829 -329.076)"/>
        <path id="Trazado_1279307" data-name="Trazado 1279307" d="M76.744,375.883a2.558,2.558,0,1,0-2.558-2.559A2.561,2.561,0,0,0,76.744,375.883Zm0-3.407a.849.849,0,1,1-.849.849A.85.85,0,0,1,76.744,372.476Z" transform="translate(-65.731 -329.076)"/>
        <path id="Trazado_1279308" data-name="Trazado 1279308" d="M27.2,441.628a2.558,2.558,0,1,0,2.558,2.558A2.561,2.561,0,0,0,27.2,441.628Zm0,3.407a.849.849,0,1,1,.849-.849A.85.85,0,0,1,27.2,445.035Z" transform="translate(-21.829 -391.862)"/>
        <path id="Trazado_1279309" data-name="Trazado 1279309" d="M76.744,441.628a2.558,2.558,0,1,0,2.559,2.558A2.561,2.561,0,0,0,76.744,441.628Zm0,3.407a.849.849,0,1,1,.849-.849A.85.85,0,0,1,76.744,445.035Z" transform="translate(-65.731 -391.862)"/>
        <path id="Trazado_1279310" data-name="Trazado 1279310" d="M135.107,387.423h5.344a.855.855,0,1,0,0-1.71h-5.344a.855.855,0,1,0,0,1.71Z" transform="translate(-118.95 -342.32)"/>
        <path id="Trazado_1279311" data-name="Trazado 1279311" d="M140.451,456.576h-5.344a.855.855,0,0,0,0,1.71h5.344a.855.855,0,0,0,0-1.71Z" transform="translate(-118.95 -405.106)"/>
        <path id="Trazado_1279312" data-name="Trazado 1279312" d="M135.107,316.561h5.344a.855.855,0,1,0,0-1.71h-5.344a.855.855,0,1,0,0,1.71Z" transform="translate(-118.95 -279.534)"/>
        <path id="Trazado_1279313" data-name="Trazado 1279313" d="M83.756,45.2h4.2a.855.855,0,1,0,0-1.71h-4.2a.855.855,0,0,0,0,1.71Z" transform="translate(-73.452 -39.099)"/>
        <path id="Trazado_1279314" data-name="Trazado 1279314" d="M302.59,45.2h4.2a.855.855,0,1,0,0-1.71h-4.2a.855.855,0,1,0,0,1.71Z" transform="translate(-267.344 -39.099)"/>
        <path id="Trazado_1279315" data-name="Trazado 1279315" d="M365.754,45.2h4.2a.855.855,0,1,0,0-1.71h-4.2a.855.855,0,1,0,0,1.71Z" transform="translate(-323.309 -39.099)"/>
        <path id="Trazado_1279316" data-name="Trazado 1279316" d="M429.957,45.2h4.2a.855.855,0,0,0,0-1.71h-4.2a.855.855,0,0,0,0,1.71Z" transform="translate(-380.194 -39.099)"/>
        <path id="Trazado_1279317" data-name="Trazado 1279317" d="M150.88,45.2h8.8a.855.855,0,0,0,0-1.71h-8.8a.855.855,0,1,0,0,1.71Z" transform="translate(-132.926 -39.099)"/>
        <path id="Trazado_1279318" data-name="Trazado 1279318" d="M143.046,105.61h-1.008a.855.855,0,0,0,0,1.71h.153v3.86a.855.855,0,1,0,1.71,0v-4.715A.855.855,0,0,0,143.046,105.61Z" transform="translate(-125.091 -94.142)"/>
        <path id="Trazado_1279319" data-name="Trazado 1279319" d="M142.1,194.151l-.76.008c.208-.285.454-.63.746-1.047a3.841,3.841,0,0,0,.634-1.321.83.83,0,0,0,.015-.085l.023-.182a.838.838,0,0,0,.007-.108,2.061,2.061,0,0,0-4.084-.4.855.855,0,1,0,1.678.329.352.352,0,0,1,.695.031l-.008.062a2.329,2.329,0,0,1-.36.692c-.743,1.061-1.186,1.642-1.424,1.953-.308.4-.53.694-.391,1.148a.885.885,0,0,0,.567.576,3.61,3.61,0,0,0,1.133.064c.367,0,.866,0,1.55-.012a.855.855,0,0,0-.022-1.71Z" transform="translate(-122.857 -168.342)"/>
      </g>
    </g>
  </g>
</svg>
