<svg xmlns="http://www.w3.org/2000/svg" xmlns:xlink="http://www.w3.org/1999/xlink" width="118" height="118" viewBox="0 0 118 118">
  <defs>
    <filter id="Elipse_12115" x="0" y="0" width="118" height="118" filterUnits="userSpaceOnUse">
      <feOffset dy="3" input="SourceAlpha"/>
      <feGaussianBlur stdDeviation="3" result="blur"/>
      <feFlood flood-opacity="0.161"/>
      <feComposite operator="in" in2="blur"/>
      <feComposite in="SourceGraphic"/>
    </filter>
  </defs>
  <g id="Grupo_1191387" data-name="Grupo 1191387" transform="translate(9 6)">
    <g id="Grupo_1181949" data-name="Grupo 1181949">
      <g transform="matrix(1, 0, 0, 1, -9, -6)" filter="url(#Elipse_12115)">
        <g id="Elipse_12115-2" data-name="Elipse 12115" transform="translate(9 6)" fill="#f6bc1c" stroke="#ab8212" stroke-width="1.5">
          <circle cx="50" cy="50" r="50" stroke="none"/>
          <circle cx="50" cy="50" r="49.25" fill="none"/>
        </g>
      </g>
    </g>
    <g id="Grupo_1191386" data-name="Grupo 1191386" transform="translate(22.82 24.468)">
      <path id="Trazado_1279332" data-name="Trazado 1279332" d="M7.5,86.805v38.571a2.654,2.654,0,0,0,2.654,2.654H57.614a2.654,2.654,0,0,0,2.654-2.654V86.805L28.937,85.156Z" transform="translate(-6.704 -77.764)" fill="#eaf6ff"/>
      <path id="Trazado_1279333" data-name="Trazado 1279333" d="M57.891,99.477v36.257a2.654,2.654,0,0,1-2.654,2.654H7.778q-.1,0-.2-.008a2.655,2.655,0,0,0,2.647,2.45H57.679a2.654,2.654,0,0,0,2.654-2.654V99.606Z" transform="translate(-6.769 -90.564)" fill="#d8ecfe"/>
      <path id="Trazado_1279334" data-name="Trazado 1279334" d="M60.268,25.154a2.123,2.123,0,0,0-2.123-2.123H10.154A2.654,2.654,0,0,0,7.5,25.685v5.591H60.268Z" transform="translate(-6.704 -22.235)" fill="#8ac9fe"/>
      <path id="Trazado_1279335" data-name="Trazado 1279335" d="M481.819,23.031H481.5v8.245h2.442V25.154A2.123,2.123,0,0,0,481.819,23.031Z" transform="translate(-430.378 -22.235)" fill="#60b7ff"/>
      <path id="Trazado_1279336" data-name="Trazado 1279336" d="M280.385,232.2l-3.163-3.163a1.593,1.593,0,0,0-2.252,0l-2.412,2.412a1.593,1.593,0,0,0,0,2.252l6.325,6.325a2.654,2.654,0,0,0,3.754,0l8.657-8.657a1.593,1.593,0,0,0,0-2.252l-2.412-2.412a1.593,1.593,0,0,0-2.252,0l-5.495,5.495A.531.531,0,0,1,280.385,232.2Z" transform="translate(-243.203 -203.865)" fill="#bbec6c"/>
      <path id="Trazado_1279337" data-name="Trazado 1279337" d="M335.063,239.939l-1.593-1.593a1.593,1.593,0,0,1,0,2.252l-8.657,8.657a2.654,2.654,0,0,1-3.754,0l1.592,1.592a2.654,2.654,0,0,0,3.754,0l8.657-8.657A1.593,1.593,0,0,0,335.063,239.939Z" transform="translate(-286.972 -214.689)" fill="#a2e62e"/>
      <path id="Trazado_1279338" data-name="Trazado 1279338" d="M51.441,15.531H3.451A3.455,3.455,0,0,0,0,18.982V63.143a3.455,3.455,0,0,0,3.451,3.451H15.765a.8.8,0,0,0,0-1.593H9.838V58.349H23.086V65h-3.6a.8.8,0,0,0,0,1.593H50.91a3.455,3.455,0,0,0,3.451-3.451V36.115a.8.8,0,0,0-1.593,0V63.143A1.86,1.86,0,0,1,50.91,65H24.679V25.369H52.768V32.4a.8.8,0,0,0,1.593,0V18.451a2.923,2.923,0,0,0-2.92-2.92ZM1.593,50.1H8.245v6.652H1.593Zm0-1.593V41.859H8.245v6.652Zm8.245-6.652H23.086v6.652H9.838Zm13.248-1.593H9.838V33.614H23.086v6.652Zm-14.841,0H1.593V33.614H8.245ZM1.593,32.021V25.369H8.245v6.652ZM8.245,65H3.451a1.86,1.86,0,0,1-1.858-1.858V58.349H8.245Zm1.593-8.245V50.1H23.086v6.652ZM23.086,32.021H9.838V25.369h1.937a.8.8,0,0,0,0-1.593H1.593V18.982a1.86,1.86,0,0,1,1.858-1.858h47.99a1.329,1.329,0,0,1,1.327,1.327v5.325H15.491a.8.8,0,0,0,0,1.593h7.6v6.652Z" transform="translate(0 -15.531)"/>
      <path id="Trazado_1279339" data-name="Trazado 1279339" d="M281.053,218.736a2.374,2.374,0,0,0-1.689.7l-5.307,5.307-2.975-2.975a2.389,2.389,0,0,0-3.378,0l-2.412,2.412a2.389,2.389,0,0,0,0,3.378l6.325,6.325a3.451,3.451,0,0,0,4.88,0l8.657-8.657a2.389,2.389,0,0,0,0-3.378l-2.412-2.412A2.373,2.373,0,0,0,281.053,218.736Zm3.208,4.8a.791.791,0,0,1-.233.563l-8.657,8.657a1.858,1.858,0,0,1-2.628,0l-6.325-6.325a.8.8,0,0,1,0-1.126l2.412-2.412a.8.8,0,0,1,1.126,0l3.163,3.163a1.327,1.327,0,0,0,1.877,0l5.495-5.495a.8.8,0,0,1,1.126,0l2.412,2.412A.792.792,0,0,1,284.261,223.537Z" transform="translate(-236.5 -197.161)"/>
    </g>
  </g>
</svg>
