<svg xmlns="http://www.w3.org/2000/svg" xmlns:xlink="http://www.w3.org/1999/xlink" width="118" height="118" viewBox="0 0 118 118">
  <defs>
    <filter id="Elipse_12115" x="0" y="0" width="118" height="118" filterUnits="userSpaceOnUse">
      <feOffset dy="3" input="SourceAlpha"/>
      <feGaussianBlur stdDeviation="3" result="blur"/>
      <feFlood flood-opacity="0.161"/>
      <feComposite operator="in" in2="blur"/>
      <feComposite in="SourceGraphic"/>
    </filter>
  </defs>
  <g id="Grupo_1191389" data-name="Grupo 1191389" transform="translate(3444 11281)">
    <g id="Grupo_1181949" data-name="Grupo 1181949" transform="translate(-4243.781 -13824)">
      <g transform="matrix(1, 0, 0, 1, 799.78, 2543)" filter="url(#Elipse_12115)">
        <g id="Elipse_12115-2" data-name="Elipse 12115" transform="translate(9 6)" fill="#f6bc1c" stroke="#ab8212" stroke-width="1.5">
          <circle cx="50" cy="50" r="50" stroke="none"/>
          <circle cx="50" cy="50" r="49.25" fill="none"/>
        </g>
      </g>
    </g>
    <g id="Grupo_1191388" data-name="Grupo 1191388" transform="translate(-3423 -11276.531)">
      <path id="Trazado_1279340" data-name="Trazado 1279340" d="M26.01,213.05H9.735A2.235,2.235,0,0,1,7.5,210.815V180.579a2.235,2.235,0,0,1,2.235-2.235H26.01l2.314,13.882Z" transform="translate(-6.383 -138.559)" fill="#bbec6c"/>
      <path id="Trazado_1279341" data-name="Trazado 1279341" d="M7.5,386.312v1.49a2.235,2.235,0,0,0,2.235,2.235H26.01l.414-3.724Z" transform="translate(-6.383 -315.545)" fill="#a2e62e"/>
      <path id="Trazado_1279342" data-name="Trazado 1279342" d="M187.279,112.257l-27.765,2.314-27.765-2.314v-9.334a2.235,2.235,0,0,1,2.235-2.235h51.06a2.235,2.235,0,0,1,2.235,2.235Z" transform="translate(-112.123 -72.471)" fill="#8ac9fe"/>
      <path id="Trazado_1279343" data-name="Trazado 1279343" d="M480.99,100.687H479.5v11.879l3.724-.31v-9.334A2.235,2.235,0,0,0,480.99,100.687Z" transform="translate(-408.068 -72.47)" fill="#60b7ff"/>
      <path id="Trazado_1279344" data-name="Trazado 1279344" d="M185.045,213.05H131.75V178.344h55.529v32.471a2.234,2.234,0,0,1-2.235,2.234Z" transform="translate(-112.123 -138.559)" fill="#eaf6ff"/>
      <path id="Trazado_1279345" data-name="Trazado 1279345" d="M183.555,178.344v28.747a2.235,2.235,0,0,1-2.235,2.235H131.75v3.724h53.295a2.235,2.235,0,0,0,2.235-2.235V178.344Z" transform="translate(-112.123 -138.558)" fill="#d8ecfe"/>
      <path id="Trazado_1279346" data-name="Trazado 1279346" d="M72.922,27.1H64.5a35.824,35.824,0,0,0-51.078-1.677,1.117,1.117,0,0,0,1.542,1.618,33.587,33.587,0,0,1,46.408.06H21.862a3.356,3.356,0,0,0-3.352,3.352v8.217H7.026A33.485,33.485,0,0,1,11.569,30.8,1.117,1.117,0,1,0,9.8,29.432a35.7,35.7,0,0,0-5.178,9.236H3.352A3.356,3.356,0,0,0,0,42.02V72.257a3.356,3.356,0,0,0,3.352,3.352h8.422a35.771,35.771,0,0,0,10.169,7.707,1.117,1.117,0,0,0,1.012-1.992A33.515,33.515,0,0,1,14.9,75.609H45.991a1.117,1.117,0,1,0,0-2.235H39.254V64.04H55.529v9.334H51.2a1.117,1.117,0,0,0,0,2.235H61.371a33.64,33.64,0,0,1-33.7,7.673,1.117,1.117,0,0,0-.7,2.124,35.873,35.873,0,0,0,37.52-9.8h8.422a3.356,3.356,0,0,0,3.352-3.352V30.451A3.356,3.356,0,0,0,72.922,27.1ZM2.235,52.471H18.51v9.334H2.235Zm18.51,0H37.019v9.334H20.744Zm0-2.235V40.9H37.019v9.334ZM55.529,38.668H39.254V29.334H55.529ZM39.254,40.9H55.529v9.334H39.254Zm18.51,0H74.039v9.334H57.764ZM74.039,52.471v9.334H57.764V52.471Zm0-22.02v8.217H57.764V29.334H72.922A1.119,1.119,0,0,1,74.039,30.451Zm-53.295,0a1.118,1.118,0,0,1,1.117-1.117H37.019v9.334H20.744ZM3.352,40.9H18.51v9.334H2.235V42.02A1.118,1.118,0,0,1,3.352,40.9ZM2.235,72.257V64.04H18.51v9.334H3.352A1.118,1.118,0,0,1,2.235,72.257Zm34.785,1.117H20.744V64.04H37.019Zm2.235-11.569V52.471H55.529v9.334ZM72.922,73.374H57.764V64.04H74.039v8.217A1.118,1.118,0,0,1,72.922,73.374Z"/>
      <path id="Trazado_1279347" data-name="Trazado 1279347" d="M47.711,211.907h4.627a1.117,1.117,0,1,0,0-2.235H47.711a1.117,1.117,0,1,0,0,2.235Z" transform="translate(-39.653 -165.22)"/>
      <path id="Trazado_1279348" data-name="Trazado 1279348" d="M52.339,287.328H47.711a1.117,1.117,0,1,0,0,2.235h4.627a1.117,1.117,0,1,0,0-2.235Z" transform="translate(-39.653 -231.307)"/>
      <path id="Trazado_1279349" data-name="Trazado 1279349" d="M52.339,364.984H47.711a1.117,1.117,0,1,0,0,2.235h4.627a1.117,1.117,0,1,0,0-2.235Z" transform="translate(-39.653 -297.394)"/>
      <path id="Trazado_1279350" data-name="Trazado 1279350" d="M176.589,132.016h-4.627a1.117,1.117,0,1,0,0,2.235h4.627a1.117,1.117,0,1,0,0-2.235Z" transform="translate(-145.393 -99.132)"/>
      <path id="Trazado_1279351" data-name="Trazado 1279351" d="M296.211,134.251h4.627a1.117,1.117,0,1,0,0-2.235h-4.627a1.117,1.117,0,1,0,0,2.235Z" transform="translate(-251.133 -99.132)"/>
      <path id="Trazado_1279352" data-name="Trazado 1279352" d="M419.344,133.133a1.117,1.117,0,0,0,1.117,1.117h4.627a1.117,1.117,0,0,0,0-2.235h-4.627A1.117,1.117,0,0,0,419.344,133.133Z" transform="translate(-356.874 -99.132)"/>
    </g>
  </g>
</svg>
