<svg xmlns="http://www.w3.org/2000/svg" xmlns:xlink="http://www.w3.org/1999/xlink" width="295" height="288" viewBox="0 0 295 288">
  <defs>
    <filter id="Rectángulo_412000" x="167.233" y="100.056" width="119.014" height="119.695" filterUnits="userSpaceOnUse">
      <feOffset dy="13" input="SourceAlpha"/>
      <feGaussianBlur stdDeviation="7.5" result="blur"/>
      <feFlood flood-opacity="0.161"/>
      <feComposite operator="in" in2="blur"/>
      <feComposite in="SourceGraphic"/>
    </filter>
  </defs>
  <g id="Grupo_1191425" data-name="Grupo 1191425" transform="translate(-180.25 -1657)">
    <rect id="estrategia-de-inversiones-en-una-computadora-portatil-que-destaca-la-confianza-financiera-y-los-temas-de-planificacion" width="271" height="263" rx="7" transform="translate(180.25 1682)" fill="#185c2d"/>
    <g id="Grupo_1191424" data-name="Grupo 1191424" transform="translate(-311.522 1499.225)">
      <g id="Grupo_1191419" data-name="Grupo 1191419" transform="translate(570.526 157.775)">
        <path id="Rectángulo_412001" data-name="Rectángulo 412001" d="M8.368,0H207.878a8.368,8.368,0,0,1,8.368,8.368V143.417a0,0,0,0,1,0,0H0a0,0,0,0,1,0,0V8.368A8.368,8.368,0,0,1,8.368,0Z" fill="#e5e7f3"/>
        <line id="Línea_602" data-name="Línea 602" x2="216.246" transform="translate(0 16.807)" fill="none" stroke="#f5c679" stroke-miterlimit="10" stroke-width="0.892"/>
        <circle id="Elipse_12352" data-name="Elipse 12352" cx="4.482" cy="4.482" r="4.482" transform="translate(11.205 4.108)" fill="#f5c679"/>
        <circle id="Elipse_12353" data-name="Elipse 12353" cx="4.482" cy="4.482" r="4.482" transform="translate(27.638 4.108)" fill="#e37059"/>
        <circle id="Elipse_12354" data-name="Elipse 12354" cx="4.482" cy="4.482" r="4.482" transform="translate(44.071 4.108)" fill="#4475ab"/>
      </g>
      <g id="Grupo_1191421" data-name="Grupo 1191421" transform="translate(603.143 190.268)" opacity="0.88">
        <path id="Trazado_1279404" data-name="Trazado 1279404" d="M618.127,229.06a24.264,24.264,0,0,1,24.256-23.795V183.6a45.939,45.939,0,0,0-45.938,45.938C596.445,228.947,607.088,228.924,618.127,229.06Z" transform="translate(-596.445 -183.595)" fill="#ffb264"/>
        <path id="Trazado_1279405" data-name="Trazado 1279405" d="M657.218,220.1a24.269,24.269,0,0,1-24.269,24.269v21.669A45.937,45.937,0,0,0,678.887,220.1Z" transform="translate(-587.011 -174.161)" fill="#ffb264"/>
        <path id="Trazado_1279406" data-name="Trazado 1279406" d="M618.115,220.21c0-.159.009-.315.011-.473-11.039-.136-21.682-.113-21.682.473a45.938,45.938,0,0,0,45.938,45.938V244.479A24.268,24.268,0,0,1,618.115,220.21Z" transform="translate(-596.445 -174.272)" fill="#4475ab"/>
        <path id="Trazado_1279407" data-name="Trazado 1279407" d="M657.218,229.533h21.669A45.938,45.938,0,0,0,632.949,183.6v21.67A24.268,24.268,0,0,1,657.218,229.533Z" transform="translate(-587.011 -183.595)" fill="#4475ab"/>
        <g id="Grupo_1191420" data-name="Grupo 1191420" transform="translate(31.71 31.71)">
          <path id="Trazado_1279408" data-name="Trazado 1279408" d="M635.87,208.793a14.226,14.226,0,0,0-14.222,13.951c6.975.086,14.222.277,14.222.277Z" transform="translate(-621.642 -208.793)" fill="#1b314f"/>
          <path id="Trazado_1279409" data-name="Trazado 1279409" d="M632.949,234.328A14.229,14.229,0,0,0,647.178,220.1H632.949Z" transform="translate(-618.721 -205.871)" fill="#1b314f"/>
          <path id="Trazado_1279410" data-name="Trazado 1279410" d="M621.649,219.879c0,.092-.006.184-.006.277a14.228,14.228,0,0,0,14.228,14.229V220.156S628.625,219.965,621.649,219.879Z" transform="translate(-621.643 -205.928)" fill="#1b314f"/>
          <path id="Trazado_1279411" data-name="Trazado 1279411" d="M632.949,208.793v14.228h14.229A14.228,14.228,0,0,0,632.949,208.793Z" transform="translate(-618.721 -208.793)" fill="#d4603f"/>
        </g>
      </g>
      <g id="Grupo_1191422" data-name="Grupo 1191422" transform="translate(712.948 195.497)">
        <rect id="Rectángulo_412002" data-name="Rectángulo 412002" width="20.767" height="2.709" transform="translate(7.718 9.99)" fill="#ffb264"/>
        <rect id="Rectángulo_412003" data-name="Rectángulo 412003" width="47.308" height="2.709" transform="translate(7.718 17.21)" fill="#ffb264"/>
        <rect id="Rectángulo_412004" data-name="Rectángulo 412004" width="65.235" height="33.862" fill="none" stroke="#f5c679" stroke-miterlimit="10" stroke-width="0.892"/>
      </g>
      <g id="Grupo_1191423" data-name="Grupo 1191423" transform="translate(717.181 261.727)">
        <rect id="Rectángulo_412005" data-name="Rectángulo 412005" width="20.767" height="2.709" transform="translate(15.686 3.019)" fill="#ffb264"/>
        <path id="Trazado_1279412" data-name="Trazado 1279412" d="M696.524,245.111a4.73,4.73,0,1,0-4.73,4.73A4.732,4.732,0,0,0,696.524,245.111Z" transform="translate(-687.063 -240.379)" fill="#4475ab"/>
      </g>
    </g>
    <g id="Grupo_1191418" data-name="Grupo 1191418" transform="translate(184.25 1722.949)">
      <g id="Grupo_1191417" data-name="Grupo 1191417" transform="translate(0 0)">
        <g id="Grupo_1191415" data-name="Grupo 1191415" transform="translate(0 0)">
          <path id="Trazado_1279376" data-name="Trazado 1279376" d="M652.3,241.461c2.3-8.7,1.108-18.93-18.334-27.969s-56.959-5.115-64.121,24.729.682,45.021-13.814,63.781-41.27,40.588-18.077,66.34c39.907,28.138,104.539-4.264,110.338-19.953s-3.41-40.758-16.713-61.735S649.828,254.933,652.3,241.461Z" transform="translate(-512.32 -209.207)" fill="#151748"/>
          <path id="Trazado_1279377" data-name="Trazado 1279377" d="M557.218,308.227c.256-3.327,1.023-12.024,1.023-12.024,18.93,4.6,31.465-10.488,30.953-26.092s-.512-16.628,2.045-28.65-20.209-26.6-42.463-24.558-19.271,13.387-15.947,35.13c.512,5.884-2.813,14.923-2.813,14.923-.769,12.877-.425,41.015-.425,41.015S544.682,316.668,557.218,308.227Z" transform="translate(-451.26 -209.207)" fill="#ff7e7d"/>
          <path id="Trazado_1279378" data-name="Trazado 1279378" d="M605.77,316.753c-5.031-.6-11-1.535-11-1.535s.767-7.248.937-8.442-.6-1.364-2.3-.852-13.131,2.812-23.961-1.705c-2.815-.938-2.817-.767-3.243,2.643s-1.1,6.481-1.1,6.481-3.24,1.705-12.023,2.472C563.819,328.6,595.709,338.24,605.77,316.753Z" transform="translate(-489.154 -209.207)" fill="#dcd8f0"/>
          <path id="Trazado_1279379" data-name="Trazado 1279379" d="M604.254,261.586c-3.58-3.753-11.938-6.141-14.836,1.7s9.039,18.758,17.224,10.4A58.747,58.747,0,0,1,604.254,261.586Z" transform="translate(-525.925 -209.207)" fill="#ff7e7d"/>
          <path id="Trazado_1279380" data-name="Trazado 1279380" d="M600.261,243.166c-3.238-6.82-21.656-16.882-30.865-18.076-3.924,23.363-9.806,37.177-22.6,34.278-2.9,12.449-3.838,12.278-5.713,11.6s-2.9-7.418-3.411-10.829c-5.8-4.265-8.867-10.83-8.185-20.551s8.867-30.527,35.982-25.581S604.183,228.67,600.261,243.166Z" transform="translate(-460.71 -209.207)" fill="#151748"/>
          <g id="Grupo_1191400" data-name="Grupo 1191400" transform="translate(119.526 39.326)">
            <path id="Trazado_1279381" data-name="Trazado 1279381" d="M534.231,274.107h.027c3.384-.184,5.28-.857,6.148-2.183.688-1.051.69-2.454.007-4.289-.286-.767-.572-1.444-.836-2.071-1.216-2.882-1.95-4.622-.187-9.434a9.835,9.835,0,0,1,10.249-6.58.475.475,0,0,0,.525-.474.5.5,0,0,0-.474-.525c-2.537-.13-8.705.319-11.239,7.235-1.9,5.182-1.062,7.165.2,10.166.26.616.54,1.28.82,2.032.566,1.516.6,2.626.1,3.392-.668,1.02-2.373,1.57-5.366,1.733a.5.5,0,0,0,.027,1Z" transform="translate(-533.731 -248.533)"/>
          </g>
          <g id="Grupo_1191401" data-name="Grupo 1191401" transform="translate(103.54 40.423)">
            <path id="Trazado_1279382" data-name="Trazado 1279382" d="M553.886,254.239a.491.491,0,0,0,.284-.089c7.2-4.976,9.713-3.69,11.1-2.012a.5.5,0,0,0,.771-.635c-2.455-2.985-6.291-2.421-12.435,1.825a.5.5,0,0,0,.284.911Z" transform="translate(-553.385 -249.63)"/>
          </g>
          <g id="Grupo_1191402" data-name="Grupo 1191402" transform="translate(111.085 64.882)">
            <path id="Trazado_1279383" data-name="Trazado 1279383" d="M554.07,279.694a9.877,9.877,0,0,0,4.253-1.2.5.5,0,1,0-.435-.9c-3.264,1.577-5.779,2.194-10.8-3.339a.5.5,0,0,0-.741.672C549.494,278.391,551.784,279.694,554.07,279.694Z" transform="translate(-546.221 -274.089)"/>
          </g>
          <g id="Grupo_1191403" data-name="Grupo 1191403" transform="translate(82.052 66.926)">
            <path id="Trazado_1279384" data-name="Trazado 1279384" d="M587.139,296.7a.5.5,0,0,0,.158-.975c-1.944-.647-19.141-6.692-24.123-19.278a.5.5,0,0,0-.929.367c5.147,13.008,22.747,19.2,24.736,19.861A.511.511,0,0,0,587.139,296.7Z" transform="translate(-562.209 -276.133)"/>
          </g>
          <path id="Trazado_1279385" data-name="Trazado 1279385" d="M563.936,261.605c1.646.2.511,4.989-1.854,4.542S561.826,261.35,563.936,261.605Z" transform="translate(-456.06 -209.207)"/>
          <g id="Grupo_1191404" data-name="Grupo 1191404" transform="translate(107.556 50.172)">
            <path id="Trazado_1279386" data-name="Trazado 1279386" d="M560.1,262.565s1.288-1.544,1.931-2.381a.5.5,0,1,0-.793-.61c-.635.825-1.906,2.351-1.906,2.351Z" transform="translate(-559.333 -259.379)"/>
          </g>
          <path id="Trazado_1279387" data-name="Trazado 1279387" d="M540.85,258.344c1.646.2.509,4.988-1.856,4.541S538.738,258.088,540.85,258.344Z" transform="translate(-409.886 -209.207)"/>
          <g id="Grupo_1191405" data-name="Grupo 1191405" transform="translate(130.642 46.911)">
            <path id="Trazado_1279388" data-name="Trazado 1279388" d="M537.013,259.3s1.287-1.545,1.932-2.381a.5.5,0,0,0-.793-.612c-.635.827-1.907,2.352-1.907,2.352Z" transform="translate(-536.245 -256.117)"/>
          </g>
          <path id="Trazado_1279389" data-name="Trazado 1279389" d="M448.228,351.714c.6-2.218,1.621-5.713,1.621-5.713a5.025,5.025,0,0,0,5.627-.171c4.178,1.194,7.248.6,10.146-3.326,4.436,2.643,11.428-.938,12.11-4.092s-5.8-1.108-9.635.511c1.277-6.48-.172-8.015-1.279-7.759s-3.24.342-6.055,6.651c.768-7.334-2.131-6.652-3.922-4.69s-3.922,6.992-3.922,6.992l-2.218-.6c1.195-3.667,1.621-7.162,0-7.844s-3.836-.426-6.735,6.906c-5.373-1.109-11.086-3.667-13.219-.937s-4.347,9.379-4.347,9.379S429.64,359.9,448.228,351.714Z" transform="translate(-234.491 -209.207)" fill="#ff7e7d"/>
          <path id="Trazado_1279390" data-name="Trazado 1279390" d="M570.092,316.5c5.968,1.194,14.835-.851,21.828,1.877s12.791,10.742,20.976,30.354,15.69,33.426,15.69,33.426c4.6-10.4,15.859-32.914,17.054-35.3s2.047,1.875,8.356,3.922,13.814,1.2,15.178.171,0,4.434-3.752,14.325S652.974,402.279,647,412.341s-23.877,19.954-36.836,2.218-20.635-39.225-20.635-39.225l-10.914,55.083H501.536l-.682-45.532s-18.759,36.664-13.984,45.532c-11.426,0-31.379.341-31.379.341A35.578,35.578,0,0,1,457,411.037c4.6-12.646,10.42-28.343,14.006-36.9,6.652-15.862,15.007-37.349,19.953-43.489s8.039-10.975,27.968-15.177c1.622-.342,1.963,1.02,7.846,4.005s27.209,8.317,39.139.513C567.957,318.656,569.068,316.413,570.092,316.5Z" transform="translate(-454.755 -209.207)" fill="#31ba5c"/>
          <path id="Trazado_1279391" data-name="Trazado 1279391" d="M572.261,319.012a1.672,1.672,0,1,0,1.621-2.088A1.9,1.9,0,0,0,572.261,319.012Z" transform="translate(-478.071 -209.207)" fill="#151748"/>
          <g id="Grupo_1191406" data-name="Grupo 1191406" transform="translate(96.268 98.727)">
            <path id="Trazado_1279392" data-name="Trazado 1279392" d="M569.616,319.034c1.228,0,2.454-1.173,3.747-3.58a.5.5,0,0,0-.881-.473c-1.451,2.7-2.456,3.049-2.906,3.052-.785-.035-1.424-1.147-1.82-2.074-1.264-2.946-3.2-7.668-3.218-7.715a.5.5,0,0,0-.926.379c.02.048,1.958,4.776,3.224,7.73.742,1.732,1.649,2.633,2.7,2.679Z" transform="translate(-563.575 -307.934)"/>
          </g>
          <g id="Grupo_1191407" data-name="Grupo 1191407" transform="translate(75.954 99.031)">
            <path id="Trazado_1279393" data-name="Trazado 1279393" d="M586.012,320q.306,0,.61-.024c3.995-.306,5.268-4.794,6.392-8.754.231-.816.456-1.607.7-2.328a.5.5,0,1,0-.949-.317c-.245.735-.474,1.541-.71,2.372-1.034,3.646-2.208,7.777-5.506,8.031-4.449.336-9.236-3.645-11.353-6.055a.5.5,0,1,0-.752.66C576.588,316.031,581.349,320,586.012,320Z" transform="translate(-574.317 -308.238)"/>
          </g>
          <g id="Grupo_1191408" data-name="Grupo 1191408" transform="translate(133.723 147.506)">
            <path id="Trazado_1279394" data-name="Trazado 1279394" d="M531.118,378.05a.5.5,0,0,0,.489-.394c.645-2.967,1.3-5.82,1.912-8.439,1.223-5.285,2.189-9.46,2.446-11.952a.5.5,0,0,0-.994-.1c-.251,2.431-1.259,6.786-2.426,11.83-.607,2.623-1.269,5.48-1.915,8.452a.5.5,0,0,0,.382.6A.485.485,0,0,0,531.118,378.05Z" transform="translate(-530.618 -356.713)"/>
          </g>
          <g id="Grupo_1191409" data-name="Grupo 1191409" transform="translate(44.192 154.797)">
            <path id="Trazado_1279395" data-name="Trazado 1279395" d="M613.231,388.794a.5.5,0,0,0,.469-.327c2.2-5.98,6.937-14.782,10.071-20.607.65-1.21,1.221-2.27,1.67-3.123a.5.5,0,1,0-.885-.465c-.448.849-1.017,1.908-1.666,3.115-3.146,5.848-7.9,14.688-10.128,20.734a.5.5,0,0,0,.469.673Z" transform="translate(-612.731 -364.004)"/>
          </g>
          <g id="Grupo_1191410" data-name="Grupo 1191410" transform="translate(228.417 127.424)">
            <path id="Trazado_1279396" data-name="Trazado 1279396" d="M435.915,345.647a.5.5,0,0,0,.338-.131,22.372,22.372,0,0,0,5-8.257.5.5,0,1,0-.966-.252,21.489,21.489,0,0,1-4.714,7.772.5.5,0,0,0,.338.868Z" transform="translate(-435.415 -336.631)"/>
          </g>
          <g id="Grupo_1191411" data-name="Grupo 1191411" transform="translate(219.889 126.914)">
            <path id="Trazado_1279397" data-name="Trazado 1279397" d="M442.993,346.671a.5.5,0,0,0,.231-.057c4.239-2.205,5.732-7.131,6.45-9.5l.105-.348a.5.5,0,0,0-.955-.293l-.107.351c-.678,2.237-2.089,6.891-5.954,8.9a.5.5,0,0,0,.23.943Z" transform="translate(-442.494 -336.121)"/>
          </g>
          <g id="Grupo_1191412" data-name="Grupo 1191412" transform="translate(205.477 129.215)">
            <path id="Trazado_1279398" data-name="Trazado 1279398" d="M456.929,345.865a6.351,6.351,0,0,0,2.78-.611c2.027-.974,3.493-3,4.482-6.183a.5.5,0,0,0-.955-.3c-.9,2.907-2.2,4.732-3.96,5.579a6.914,6.914,0,0,1-5.612-.183.5.5,0,1,0-.365.932A10,10,0,0,0,456.929,345.865Z" transform="translate(-452.981 -338.422)"/>
          </g>
          <g id="Grupo_1191413" data-name="Grupo 1191413" transform="translate(207.866 127.51)">
            <path id="Trazado_1279399" data-name="Trazado 1279399" d="M459.7,341.47a.5.5,0,0,0,.447-.277,41.415,41.415,0,0,0,1.644-3.8.5.5,0,1,0-.94-.342c-.666,1.828-1.59,3.681-1.6,3.7a.5.5,0,0,0,.447.724Z" transform="translate(-459.204 -336.717)"/>
          </g>
          <g id="Grupo_1191414" data-name="Grupo 1191414" transform="translate(212.469 134.587)">
            <path id="Trazado_1279400" data-name="Trazado 1279400" d="M456.722,346.842a.5.5,0,0,0,.1-.99,10.576,10.576,0,0,1-3.188-1.94.5.5,0,0,0-.643.766,11.416,11.416,0,0,0,3.636,2.154A.46.46,0,0,0,456.722,346.842Z" transform="translate(-452.809 -343.794)"/>
          </g>
        </g>
        <g id="Grupo_1191416" data-name="Grupo 1191416" transform="translate(185.733 43.607)">
          <g transform="matrix(1, 0, 0, 1, -189.73, -109.56)" filter="url(#Rectángulo_412000)">
            <path id="Rectángulo_412000-2" data-name="Rectángulo 412000" d="M12.279,0H61.735A12.278,12.278,0,0,1,74.014,12.278V62.416A12.279,12.279,0,0,1,61.734,74.7H12.278A12.278,12.278,0,0,1,0,62.417V12.279A12.279,12.279,0,0,1,12.279,0Z" transform="translate(189.73 109.56)" fill="#fff"/>
          </g>
          <path id="Trazado_1279401" data-name="Trazado 1279401" d="M423.075,310.268a5.987,5.987,0,0,0,5.987,5.986h0a5.988,5.988,0,0,0,5.986-5.986v-25.59a5.988,5.988,0,0,0-5.986-5.987h0a5.987,5.987,0,0,0-5.987,5.987Z" transform="translate(-374.165 -252.814)" fill="#aad5ce"/>
          <path id="Trazado_1279402" data-name="Trazado 1279402" d="M439.806,310.268a5.988,5.988,0,0,0,5.988,5.986h0a5.987,5.987,0,0,0,5.986-5.986V275.084a5.986,5.986,0,0,0-5.986-5.986h0a5.986,5.986,0,0,0-5.988,5.986Z" transform="translate(-407.628 -252.814)" fill="#54478d"/>
          <path id="Trazado_1279403" data-name="Trazado 1279403" d="M456.538,310.268a5.988,5.988,0,0,0,5.987,5.986h0a5.987,5.987,0,0,0,5.986-5.986V266.389a5.987,5.987,0,0,0-5.986-5.987h0a5.989,5.989,0,0,0-5.987,5.987Z" transform="translate(-441.091 -252.814)" fill="#151748"/>
        </g>
      </g>
    </g>
  </g>
</svg>
