<svg xmlns="http://www.w3.org/2000/svg" xmlns:xlink="http://www.w3.org/1999/xlink" width="105.211" height="105.211" viewBox="0 0 105.211 105.211">
  <defs>
    <filter id="Elipse_12115" x="0" y="0" width="105.211" height="105.211" filterUnits="userSpaceOnUse">
      <feOffset dy="3" input="SourceAlpha"/>
      <feGaussianBlur stdDeviation="3" result="blur"/>
      <feFlood flood-opacity="0.161"/>
      <feComposite operator="in" in2="blur"/>
      <feComposite in="SourceGraphic"/>
    </filter>
  </defs>
  <g id="Grupo_1191471" data-name="Grupo 1191471" transform="translate(-275.25 -6482)">
    <g id="Grupo_1181949" data-name="Grupo 1181949" transform="translate(284.25 6488)">
      <g transform="matrix(1, 0, 0, 1, -9, -6)" filter="url(#Elipse_12115)">
        <g id="Elipse_12115-2" data-name="Elipse 12115" transform="translate(9 6)" fill="#f6bc1c" stroke="#ab8212" stroke-width="1.5">
          <circle cx="43.605" cy="43.605" r="43.605" stroke="none"/>
          <circle cx="43.605" cy="43.605" r="42.855" fill="none"/>
        </g>
      </g>
    </g>
    <g id="Grupo_1191470" data-name="Grupo 1191470" transform="translate(299.25 6438.855)">
      <g id="Grupo_1191468" data-name="Grupo 1191468" transform="translate(0.847 72.992)">
        <path id="Trazado_1279477" data-name="Trazado 1279477" d="M61.844,79.645H9.311A1.811,1.811,0,0,0,7.5,81.456v36.229A1.811,1.811,0,0,0,9.311,119.5H61.844a1.811,1.811,0,0,0,1.811-1.811V81.456A1.811,1.811,0,0,0,61.844,79.645Z" transform="translate(-7.5 -79.645)" fill="#eceaec"/>
        <g id="Grupo_1191467" data-name="Grupo 1191467" transform="translate(0 7.246)">
          <path id="Trazado_1279478" data-name="Trazado 1279478" d="M60.938,170.04a3.623,3.623,0,0,1-3.623,3.623H7.5v.906a1.812,1.812,0,0,0,1.811,1.811H61.844a1.811,1.811,0,0,0,1.811-1.811V143.774H60.938V170.04Z" transform="translate(-7.5 -143.774)" fill="#dbd8db"/>
        </g>
        <path id="Trazado_1279479" data-name="Trazado 1279479" d="M61.844,79.645H9.311A1.811,1.811,0,0,0,7.5,81.456v5.434H63.655V81.456a1.811,1.811,0,0,0-1.811-1.811Z" transform="translate(-7.5 -79.645)" fill="#f2d1ff"/>
        <path id="Trazado_1279480" data-name="Trazado 1279480" d="M167.959,197.305h-7.246a.906.906,0,0,1-.906-.906v-3.623a.906.906,0,0,1,.906-.906h7.246a.906.906,0,0,1,.906.906V196.4A.906.906,0,0,1,167.959,197.305Z" transform="translate(-142.598 -179.191)" fill="#dfbdf0"/>
        <path id="Trazado_1279481" data-name="Trazado 1279481" d="M481.358,79.645h-.906v7.246h2.717V81.456A1.811,1.811,0,0,0,481.358,79.645Z" transform="translate(-427.014 -79.645)" fill="#dfbdf0"/>
        <path id="Trazado_1279482" data-name="Trazado 1279482" d="M55.733,197.305H48.487a.906.906,0,0,1-.906-.906v-3.623a.906.906,0,0,1,.906-.906h7.246a.906.906,0,0,1,.906.906V196.4A.906.906,0,0,1,55.733,197.305Z" transform="translate(-43.052 -179.191)" fill="#ffd05b"/>
        <path id="Trazado_1279483" data-name="Trazado 1279483" d="M55.733,191.871H53.921a2.717,2.717,0,0,1-2.717,2.717H47.581V196.4a.906.906,0,0,0,.906.906h7.246a.906.906,0,0,0,.906-.906v-3.623A.906.906,0,0,0,55.733,191.871Z" transform="translate(-43.052 -179.191)" fill="#ffc244"/>
        <path id="Trazado_1279484" data-name="Trazado 1279484" d="M392.41,197.305h-7.246a.906.906,0,0,1-.906-.906v-3.623a.906.906,0,0,1,.906-.906h7.246a.906.906,0,0,1,.906.906V196.4A.906.906,0,0,1,392.41,197.305Z" transform="translate(-341.689 -179.191)" fill="#7ad7ee"/>
        <path id="Trazado_1279485" data-name="Trazado 1279485" d="M280.184,197.305h-7.246a.906.906,0,0,1-.906-.906v-3.623a.906.906,0,0,1,.906-.906h7.246a.906.906,0,0,1,.906.906V196.4A.906.906,0,0,1,280.184,197.305Z" transform="translate(-242.143 -179.191)" fill="#98db7c"/>
        <path id="Trazado_1279486" data-name="Trazado 1279486" d="M167.959,191.871h-1.811a2.717,2.717,0,0,1-2.717,2.717h-3.623V196.4a.906.906,0,0,0,.906.906h7.246a.906.906,0,0,0,.906-.906v-3.623A.906.906,0,0,0,167.959,191.871Z" transform="translate(-142.598 -179.191)" fill="#cbb0f2"/>
        <path id="Trazado_1279487" data-name="Trazado 1279487" d="M280.184,191.871h-1.811a2.717,2.717,0,0,1-2.717,2.717h-3.623V196.4a.906.906,0,0,0,.906.906h7.246a.906.906,0,0,0,.906-.906v-3.623A.906.906,0,0,0,280.184,191.871Z" transform="translate(-242.143 -179.191)" fill="#77cc7d"/>
        <path id="Trazado_1279488" data-name="Trazado 1279488" d="M392.409,191.871H390.6a2.717,2.717,0,0,1-2.717,2.717h-3.623V196.4a.906.906,0,0,0,.906.906h7.246a.906.906,0,0,0,.906-.906v-3.623A.906.906,0,0,0,392.409,191.871Z" transform="translate(-341.689 -179.191)" fill="#4bc3ef"/>
      </g>
      <g id="Grupo_1191469" data-name="Grupo 1191469" transform="translate(0 72.145)">
        <path id="Trazado_1279489" data-name="Trazado 1279489" d="M55.191,72.145H2.659A2.662,2.662,0,0,0,0,74.8v36.229a2.662,2.662,0,0,0,2.659,2.659H55.191a2.662,2.662,0,0,0,2.659-2.659V74.8A2.662,2.662,0,0,0,55.191,72.145Zm0,39.852H2.659a.965.965,0,0,1-.964-.964V81.086H49.757a.847.847,0,0,0,0-1.695H1.695V74.8a.965.965,0,0,1,.964-.964H55.191a.965.965,0,0,1,.964.964v4.587H53.38a.847.847,0,0,0,0,1.695h2.775v29.947a.965.965,0,0,1-.964.964Z" transform="translate(0 -72.145)"/>
        <path id="Trazado_1279490" data-name="Trazado 1279490" d="M150.073,104.209H121.089a.847.847,0,0,0,0,1.695h28.983a.847.847,0,1,0,0-1.695Z" transform="translate(-106.656 -100.586)"/>
        <path id="Trazado_1279491" data-name="Trazado 1279491" d="M161.306,184.371H154.06a1.755,1.755,0,0,0-1.753,1.753v3.623a1.755,1.755,0,0,0,1.753,1.753h7.246a1.755,1.755,0,0,0,1.753-1.753v-3.623A1.755,1.755,0,0,0,161.306,184.371Zm.058,5.376a.058.058,0,0,1-.058.058H154.06a.058.058,0,0,1-.058-.058v-3.623a.058.058,0,0,1,.058-.058h7.246a.058.058,0,0,1,.058.058Z" transform="translate(-135.098 -171.691)"/>
        <path id="Trazado_1279492" data-name="Trazado 1279492" d="M168.416,280.564H161.17a.847.847,0,0,0,0,1.695h7.246a.847.847,0,0,0,0-1.695Z" transform="translate(-142.208 -257.015)"/>
        <path id="Trazado_1279493" data-name="Trazado 1279493" d="M168.416,328.661H161.17a.847.847,0,0,0,0,1.695h7.246a.847.847,0,0,0,0-1.695Z" transform="translate(-142.208 -299.678)"/>
        <path id="Trazado_1279494" data-name="Trazado 1279494" d="M168.416,376.758H161.17a.847.847,0,1,0,0,1.695h7.246a.847.847,0,1,0,0-1.695Z" transform="translate(-142.208 -342.34)"/>
        <path id="Trazado_1279495" data-name="Trazado 1279495" d="M273.531,184.371h-7.246a1.755,1.755,0,0,0-1.753,1.753v3.623a1.755,1.755,0,0,0,1.753,1.753h7.246a1.755,1.755,0,0,0,1.753-1.753v-3.623A1.755,1.755,0,0,0,273.531,184.371Zm.058,5.376a.058.058,0,0,1-.058.058h-7.246a.058.058,0,0,1-.058-.058v-3.623a.058.058,0,0,1,.058-.058h7.246a.058.058,0,0,1,.058.058Z" transform="translate(-234.643 -171.691)"/>
        <path id="Trazado_1279496" data-name="Trazado 1279496" d="M280.641,280.564H273.4a.847.847,0,0,0,0,1.695h7.246a.847.847,0,0,0,0-1.695Z" transform="translate(-241.753 -257.015)"/>
        <path id="Trazado_1279497" data-name="Trazado 1279497" d="M280.641,328.661H273.4a.847.847,0,0,0,0,1.695h7.246a.847.847,0,0,0,0-1.695Z" transform="translate(-241.753 -299.678)"/>
        <path id="Trazado_1279498" data-name="Trazado 1279498" d="M280.641,376.758H273.4a.847.847,0,1,0,0,1.695h7.246a.847.847,0,1,0,0-1.695Z" transform="translate(-241.753 -342.34)"/>
        <path id="Trazado_1279499" data-name="Trazado 1279499" d="M385.757,184.371h-7.246a1.755,1.755,0,0,0-1.753,1.753v3.623a1.755,1.755,0,0,0,1.753,1.753h7.246a1.755,1.755,0,0,0,1.753-1.753v-3.623A1.755,1.755,0,0,0,385.757,184.371Zm.058,5.376a.058.058,0,0,1-.058.058h-7.246a.058.058,0,0,1-.058-.058v-3.623a.058.058,0,0,1,.058-.058h7.246a.058.058,0,0,1,.058.058Z" transform="translate(-334.189 -171.691)"/>
        <path id="Trazado_1279500" data-name="Trazado 1279500" d="M392.867,280.564h-7.246a.847.847,0,0,0,0,1.695h7.246a.847.847,0,1,0,0-1.695Z" transform="translate(-341.299 -257.015)"/>
        <path id="Trazado_1279501" data-name="Trazado 1279501" d="M392.867,328.661h-7.246a.847.847,0,0,0,0,1.695h7.246a.847.847,0,1,0,0-1.695Z" transform="translate(-341.299 -299.678)"/>
        <path id="Trazado_1279502" data-name="Trazado 1279502" d="M392.867,376.758h-7.246a.847.847,0,1,0,0,1.695h7.246a.847.847,0,1,0,0-1.695Z" transform="translate(-341.299 -342.34)"/>
        <path id="Trazado_1279503" data-name="Trazado 1279503" d="M49.08,184.371H41.834a1.755,1.755,0,0,0-1.753,1.753v3.623a1.755,1.755,0,0,0,1.753,1.753.847.847,0,0,0,0-1.695.058.058,0,0,1-.058-.058v-3.623a.058.058,0,0,1,.058-.058H49.08a.058.058,0,0,1,.058.058v3.623a.058.058,0,0,1-.058.058H45.457a.847.847,0,0,0,0,1.695H49.08a1.755,1.755,0,0,0,1.753-1.753v-3.623A1.755,1.755,0,0,0,49.08,184.371Z" transform="translate(-35.552 -171.691)"/>
        <path id="Trazado_1279504" data-name="Trazado 1279504" d="M56.19,280.564H48.944a.847.847,0,0,0,0,1.695H56.19a.847.847,0,0,0,0-1.695Z" transform="translate(-42.663 -257.015)"/>
        <path id="Trazado_1279505" data-name="Trazado 1279505" d="M56.19,328.661H48.944a.847.847,0,0,0,0,1.695H56.19a.847.847,0,0,0,0-1.695Z" transform="translate(-42.663 -299.678)"/>
        <path id="Trazado_1279506" data-name="Trazado 1279506" d="M56.19,376.758H48.944a.847.847,0,1,0,0,1.695H56.19a.847.847,0,1,0,0-1.695Z" transform="translate(-42.663 -342.34)"/>
      </g>
    </g>
  </g>
</svg>
