<svg xmlns="http://www.w3.org/2000/svg" xmlns:xlink="http://www.w3.org/1999/xlink" width="105.211" height="105.211" viewBox="0 0 105.211 105.211">
  <defs>
    <filter id="Elipse_12115" x="0" y="0" width="105.211" height="105.211" filterUnits="userSpaceOnUse">
      <feOffset dy="3" input="SourceAlpha"/>
      <feGaussianBlur stdDeviation="3" result="blur"/>
      <feFlood flood-opacity="0.161"/>
      <feComposite operator="in" in2="blur"/>
      <feComposite in="SourceGraphic"/>
    </filter>
  </defs>
  <g id="Grupo_1191475" data-name="Grupo 1191475" transform="translate(-589.25 -6481.969)">
    <g id="Grupo_1181949" data-name="Grupo 1181949" transform="translate(598.25 6487.969)">
      <g transform="matrix(1, 0, 0, 1, -9, -6)" filter="url(#Elipse_12115)">
        <g id="Elipse_12115-2" data-name="Elipse 12115" transform="translate(9 6)" fill="#f6bc1c" stroke="#ab8212" stroke-width="1.5">
          <circle cx="43.605" cy="43.605" r="43.605" stroke="none"/>
          <circle cx="43.605" cy="43.605" r="42.855" fill="none"/>
        </g>
      </g>
    </g>
    <g id="FILLED_OUTLINE" data-name="FILLED OUTLINE" transform="translate(601.933 6491.171)">
      <path id="Trazado_1279507" data-name="Trazado 1279507" d="M24.806,440a.806.806,0,0,0-.806.806v1.613a2.419,2.419,0,0,0,2.419,2.419H63.514a2.419,2.419,0,0,1-2.419-2.419v-1.613a.806.806,0,0,0-.806-.806Z" transform="translate(-7.194 -381.261)" fill="#c1c1c1"/>
      <path id="Trazado_1279508" data-name="Trazado 1279508" d="M111.514,24h-37.9A1.613,1.613,0,0,0,72,25.613v40.32h31.45a.806.806,0,0,1,.806.806v1.613a2.419,2.419,0,1,0,4.838,0V26.419A2.419,2.419,0,0,1,111.514,24Z" transform="translate(-50.355 -7.194)" fill="#e5e1dc"/>
      <path id="Trazado_1279509" data-name="Trazado 1279509" d="M217.613,240H241.8a1.613,1.613,0,0,1,1.613,1.613v17.741a1.613,1.613,0,0,1-1.613,1.613h-8.064L230.515,265l-3.226-4.032h-9.677A1.613,1.613,0,0,1,216,259.354V241.613A1.613,1.613,0,0,1,217.613,240Z" transform="translate(-179.84 -201.421)" fill="#57b584"/>
      <path id="Trazado_1279510" data-name="Trazado 1279510" d="M442.419,24A2.419,2.419,0,0,0,440,26.419v5.645h4.032a.806.806,0,0,0,.806-.806V26.419A2.419,2.419,0,0,0,442.419,24Z" transform="translate(-381.261 -7.194)" fill="#afafaf"/>
      <circle id="Elipse_12362" data-name="Elipse 12362" cx="7" cy="7" r="7" transform="translate(41.192 21.031)" fill="#f29d35"/>
      <path id="Trazado_1279511" data-name="Trazado 1279511" d="M108.9,99.29V88H107.29V99.29h-1.613v-8.87h-1.613v8.87h-1.613V92.838h-1.613V99.29H99.226V95.258H97.613V99.29H96V100.9h14.515V99.29Z" transform="translate(-71.936 -64.742)" fill="#336baf"/>
      <path id="Trazado_1279512" data-name="Trazado 1279512" d="M96,64h9.677v1.613H96Z" transform="translate(-71.936 -43.162)" fill="#c1c1c1"/>
      <path id="Trazado_1279513" data-name="Trazado 1279513" d="M343.258,71.258A7.258,7.258,0,0,0,336,64v7.258l6.154,3.846A7.219,7.219,0,0,0,343.258,71.258Z" transform="translate(-287.744 -43.162)" fill="#e59135"/>
      <path id="Trazado_1279514" data-name="Trazado 1279514" d="M281.1,136l-6.154,3.846a7.256,7.256,0,0,0,12.308,0Z" transform="translate(-232.848 -107.904)" fill="#d88635"/>
      <path id="Trazado_1279515" data-name="Trazado 1279515" d="M248,283.453l.806.728v4.032h3.226v-4.032l.806-.728v-3.825a1.613,1.613,0,0,0-1.014-1.5l-2-.8a1.613,1.613,0,0,1-1.014-1.5V275.5a1.613,1.613,0,0,1,3.226,0v.331a1.613,1.613,0,0,1-1.014,1.5l-2,.8a1.613,1.613,0,0,0-1.014,1.5Z" transform="translate(-208.614 -231.893)" fill="#1c3b54"/>
      <path id="Trazado_1279516" data-name="Trazado 1279516" d="M328,283.453l.806.728v4.032h3.226v-4.032l.806-.728v-3.825a1.613,1.613,0,0,0-1.014-1.5l-2-.8a1.613,1.613,0,0,1-1.014-1.5V275.5a1.613,1.613,0,0,1,3.226,0v.331a1.613,1.613,0,0,1-1.014,1.5l-2,.8a1.613,1.613,0,0,0-1.014,1.5Z" transform="translate(-280.55 -231.893)" fill="#1c3b54"/>
      <path id="Trazado_1279517" data-name="Trazado 1279517" d="M408,283.453l.806.728v4.032h3.226v-4.032l.806-.728v-3.825a1.613,1.613,0,0,0-1.014-1.5l-2-.8a1.613,1.613,0,0,1-1.014-1.5V275.5a1.613,1.613,0,0,1,3.226,0v.331a1.613,1.613,0,0,1-1.014,1.5l-2,.8a1.613,1.613,0,0,0-1.014,1.5Z" transform="translate(-352.486 -231.893)" fill="#1c3b54"/>
      <g id="Grupo_1191474" data-name="Grupo 1191474" transform="translate(24.064 38.579)">
        <path id="Trazado_1279518" data-name="Trazado 1279518" d="M96,240h1.613v1.613H96Z" transform="translate(-96 -240)" fill="#c1c1c1"/>
        <path id="Trazado_1279519" data-name="Trazado 1279519" d="M128,240h6.451v1.613H128Z" transform="translate(-124.774 -240)" fill="#c1c1c1"/>
        <path id="Trazado_1279520" data-name="Trazado 1279520" d="M96,288h1.613v1.613H96Z" transform="translate(-96 -283.162)" fill="#c1c1c1"/>
        <path id="Trazado_1279521" data-name="Trazado 1279521" d="M128,288h6.451v1.613H128Z" transform="translate(-124.774 -283.162)" fill="#c1c1c1"/>
        <path id="Trazado_1279522" data-name="Trazado 1279522" d="M96,336h1.613v1.613H96Z" transform="translate(-96 -326.323)" fill="#c1c1c1"/>
        <path id="Trazado_1279523" data-name="Trazado 1279523" d="M128,336h6.451v1.613H128Z" transform="translate(-124.774 -326.323)" fill="#c1c1c1"/>
        <path id="Trazado_1279524" data-name="Trazado 1279524" d="M96,384h1.613v1.613H96Z" transform="translate(-96 -369.485)" fill="#c1c1c1"/>
        <path id="Trazado_1279525" data-name="Trazado 1279525" d="M128,384h6.451v1.613H128Z" transform="translate(-124.774 -369.485)" fill="#c1c1c1"/>
      </g>
      <path id="Trazado_1279526" data-name="Trazado 1279526" d="M62.771,25.677a1.615,1.615,0,0,0,1.613-1.613V19.226A3.229,3.229,0,0,0,61.159,16h-37.9a2.422,2.422,0,0,0-2.419,2.419V57.933H17.613A1.615,1.615,0,0,0,16,59.546v1.613a3.229,3.229,0,0,0,3.226,3.226H46.643V62.771H19.226a1.615,1.615,0,0,1-1.613-1.613V59.546H35.972a2.414,2.414,0,0,0,1.8.806h9.289l3.613,4.516,3.613-4.516h7.676a2.422,2.422,0,0,0,2.419-2.419V40.192a2.422,2.422,0,0,0-2.419-2.419H59.546v-12.1Zm-3.226-6.451a1.613,1.613,0,0,1,3.226,0v4.838H59.546ZM35.354,40.192V57.933h-12.9V18.419a.807.807,0,0,1,.806-.806H58.367a3.2,3.2,0,0,0-.434,1.613V37.773H37.773A2.422,2.422,0,0,0,35.354,40.192Zm26.611-.806a.807.807,0,0,1,.806.806V57.933a.807.807,0,0,1-.806.806H53.513l-2.838,3.548-2.838-3.548H37.773a.807.807,0,0,1-.806-.806V40.192a.807.807,0,0,1,.806-.806Z"/>
      <path id="Trazado_1279527" data-name="Trazado 1279527" d="M240.806,281.839h4.838v-4.48l.806-.728v-4.183a2.407,2.407,0,0,0-1.407-2.2,2.41,2.41,0,0,0,.6-1.6v-.331a2.406,2.406,0,0,0-1.337-2.164,2.431,2.431,0,0,0-2.164,0,2.406,2.406,0,0,0-1.337,2.164v.331a2.41,2.41,0,0,0,.6,1.6,2.407,2.407,0,0,0-1.407,2.2v4.183l.806.728Zm1.613-13.518a.806.806,0,0,1,1.613,0v.331a.8.8,0,0,1-.507.749l-.3.12-.3-.12a.8.8,0,0,1-.507-.749Zm-.806,4.127a.8.8,0,0,1,.507-.749l1.106-.442,1.106.442a.8.8,0,0,1,.507.749v3.467l-.806.728v3.584h-1.613v-3.584l-.806-.728Z" transform="translate(-201.421 -224.712)"/>
      <path id="Trazado_1279528" data-name="Trazado 1279528" d="M320.806,281.839h4.838v-4.48l.806-.728v-4.183a2.407,2.407,0,0,0-1.407-2.2,2.41,2.41,0,0,0,.6-1.6v-.331a2.406,2.406,0,0,0-1.337-2.164,2.431,2.431,0,0,0-2.164,0,2.406,2.406,0,0,0-1.337,2.164v.331a2.41,2.41,0,0,0,.6,1.6,2.407,2.407,0,0,0-1.407,2.2v4.183l.806.728Zm1.613-13.518a.806.806,0,0,1,1.613,0v.331a.8.8,0,0,1-.507.749l-.3.12-.3-.12a.8.8,0,0,1-.507-.749Zm-.806,4.127a.8.8,0,0,1,.507-.749l1.106-.442,1.106.442a.8.8,0,0,1,.507.749v3.467l-.806.728v3.584h-1.613v-3.584l-.806-.728Z" transform="translate(-273.357 -224.712)"/>
      <path id="Trazado_1279529" data-name="Trazado 1279529" d="M400.806,281.839h4.838v-4.48l.806-.728v-4.183a2.407,2.407,0,0,0-1.407-2.2,2.41,2.41,0,0,0,.6-1.6v-.331a2.406,2.406,0,0,0-1.337-2.164,2.431,2.431,0,0,0-2.164,0,2.406,2.406,0,0,0-1.337,2.164v.331a2.41,2.41,0,0,0,.6,1.6,2.407,2.407,0,0,0-1.407,2.2v4.183l.806.728Zm1.613-13.518a.806.806,0,0,1,1.613,0v.331a.8.8,0,0,1-.507.749l-.3.12-.3-.12a.8.8,0,0,1-.507-.749Zm-.806,4.127a.8.8,0,0,1,.507-.749l1.106-.442,1.106.442a.8.8,0,0,1,.507.749v3.467l-.806.728v3.584h-1.613v-3.584l-.806-.728Z" transform="translate(-345.292 -224.712)"/>
      <path id="Trazado_1279530" data-name="Trazado 1279530" d="M264.064,72.128A8.064,8.064,0,1,0,256,64.064,8.064,8.064,0,0,0,264.064,72.128Zm.806-14.463a6.446,6.446,0,0,1,5.047,9.106l-5.047-3.154Zm4.191,10.473a6.442,6.442,0,0,1-9.995,0l5-3.123Zm-11.449-4.074a6.46,6.46,0,0,1,5.645-6.4v5.952l-5.047,3.154a6.411,6.411,0,0,1-.6-2.707Z" transform="translate(-215.808 -35.968)"/>
      <path id="Trazado_1279531" data-name="Trazado 1279531" d="M110.515,99.29H108.9V88H107.29V99.29h-1.613v-8.87h-1.613v8.87h-1.613V92.838h-1.613V99.29H99.226V95.258H97.613V99.29H96V100.9h14.515Z" transform="translate(-71.936 -64.742)"/>
      <path id="Trazado_1279532" data-name="Trazado 1279532" d="M96,64h9.677v1.613H96Z" transform="translate(-71.936 -43.162)"/>
      <path id="Trazado_1279533" data-name="Trazado 1279533" d="M96,240h1.613v1.613H96Z" transform="translate(-71.936 -201.421)"/>
      <path id="Trazado_1279534" data-name="Trazado 1279534" d="M128,240h6.451v1.613H128Z" transform="translate(-100.71 -201.421)"/>
      <path id="Trazado_1279535" data-name="Trazado 1279535" d="M96,288h1.613v1.613H96Z" transform="translate(-71.936 -244.582)"/>
      <path id="Trazado_1279536" data-name="Trazado 1279536" d="M128,288h6.451v1.613H128Z" transform="translate(-100.71 -244.582)"/>
      <path id="Trazado_1279537" data-name="Trazado 1279537" d="M96,336h1.613v1.613H96Z" transform="translate(-71.936 -287.744)"/>
      <path id="Trazado_1279538" data-name="Trazado 1279538" d="M128,336h6.451v1.613H128Z" transform="translate(-100.71 -287.744)"/>
      <path id="Trazado_1279539" data-name="Trazado 1279539" d="M96,384h1.613v1.613H96Z" transform="translate(-71.936 -330.905)"/>
      <path id="Trazado_1279540" data-name="Trazado 1279540" d="M128,384h6.451v1.613H128Z" transform="translate(-100.71 -330.905)"/>
    </g>
  </g>
</svg>
