<svg xmlns="http://www.w3.org/2000/svg" xmlns:xlink="http://www.w3.org/1999/xlink" width="295" height="468" viewBox="0 0 295 468">
  <defs>
    <clipPath id="clip-path">
      <rect id="Rectángulo_412015" data-name="Rectángulo 412015" width="295" height="468" rx="10" transform="translate(337.25 7444)" fill="#12263f"/>
    </clipPath>
    <linearGradient id="linear-gradient" x1="0.296" y1="0.325" x2="0.905" y2="0.733" gradientUnits="objectBoundingBox">
      <stop offset="0" stop-color="#fdf699" stop-opacity="0"/>
      <stop offset="1" stop-color="#fdf699"/>
    </linearGradient>
    <linearGradient id="linear-gradient-2" x1="0.296" y1="0.675" x2="0.905" y2="0.267" xlink:href="#linear-gradient"/>
  </defs>
  <g id="Enmascarar_grupo_1099241" data-name="Enmascarar grupo 1099241" transform="translate(-337.25 -7444)" clip-path="url(#clip-path)">
    <path id="Trazado_1273760" data-name="Trazado 1273760" d="M-8829.393-13837.078a158.6,158.6,0,0,1,29.5,3.03c46.445,8.878,92.243,44.315,136.127,105.329a555.155,555.155,0,0,1,51.591,87.973c2.38,4.493,25.438,49.412,14.468,82.494-4.357,13.141-13.266,22.65-26.479,28.268a25.717,25.717,0,0,1-10.12,2.072c-22.437,0-44.191-28.019-71.731-63.492-34.338-44.227-77.07-99.268-126.555-99.268a73.236,73.236,0,0,0-25.717,4.831c-43.09,16.142-67.277,47.572-90.67,77.97-27.608,35.876-53.685,69.762-105.927,69.762-15.073,0-31.325-2.8-49.687-8.562-60.512-18.984-95.488-69.334-93.564-134.684,1.871-63.6,37.525-121.779,81.17-132.439a91.246,91.246,0,0,1,21.556-2.69c34.271,0,58.583,21.2,80.033,39.905,18.009,15.7,33.561,29.262,51.87,29.262a39.015,39.015,0,0,0,8.094-.868c18.77-3.991,29.095-18.882,41.049-36.118C-8897.231-13809.041-8877.788-13837.078-8829.393-13837.078Zm195.085,292.09a10.049,10.049,0,0,0,4.019-.824c8.8-3.74,14.437-9.647,17.225-18.055,7.4-22.316-7.176-57.2-13.417-68.756l-.292-.6c-.732-1.642-74.44-164.611-176.033-184.027a143.03,143.03,0,0,0-26.586-2.756c-40.123,0-55.535,22.223-71.85,45.748-12.784,18.433-26,37.494-50.966,42.8a54.478,54.478,0,0,1-11.321,1.21c-24.18,0-43.537-16.879-62.257-33.2-20.278-17.683-41.246-35.966-69.646-35.966a75.649,75.649,0,0,0-17.872,2.248c-36.2,8.842-66.975,61.029-68.6,116.334-.809,27.433,5.563,93.823,81.969,117.8,16.827,5.279,31.557,7.847,45.03,7.847,44.478,0,67.094-29.391,93.28-63.418,23.65-30.733,50.457-65.566,97.854-83.32a88.718,88.718,0,0,1,31.18-5.824c57.205,0,102.645,58.525,139.155,105.553C-8670.6-13572.777-8649.023-13544.988-8634.308-13544.988Z" transform="translate(-13266.328 16719.34) rotate(90)" fill="url(#linear-gradient)"/>
    <path id="Trazado_1273760-2" data-name="Trazado 1273760" d="M368.841,309.166a158.6,158.6,0,0,0,29.5-3.03c46.445-8.878,92.243-44.315,136.127-105.329a555.155,555.155,0,0,0,51.591-87.973c2.38-4.493,25.438-49.412,14.468-82.494C596.167,17.2,587.259,7.689,574.046,2.072A25.717,25.717,0,0,0,563.926,0c-22.437,0-44.191,28.019-71.731,63.492-34.338,44.227-77.07,99.268-126.555,99.268a73.236,73.236,0,0,1-25.717-4.831c-43.09-16.142-67.277-47.572-90.67-77.97C221.645,44.083,195.568,10.2,143.326,10.2,128.253,10.2,112,13,93.64,18.76,33.128,37.744-1.849,88.094.075,153.443c1.871,63.6,37.525,121.779,81.17,132.439a91.246,91.246,0,0,0,21.556,2.69c34.271,0,58.583-21.2,80.033-39.905,18.009-15.7,33.561-29.262,51.87-29.262a39.015,39.015,0,0,1,8.094.868c18.77,3.991,29.095,18.882,41.049,36.118C301,281.129,320.445,309.166,368.841,309.166ZM563.926,17.076a10.049,10.049,0,0,1,4.019.824c8.8,3.74,14.437,9.647,17.225,18.055,7.4,22.316-7.176,57.2-13.417,68.756l-.292.6c-.732,1.642-74.44,164.611-176.033,184.027a143.03,143.03,0,0,1-26.586,2.756c-40.123,0-55.535-22.223-71.85-45.748-12.784-18.433-26-37.494-50.966-42.8a54.478,54.478,0,0,0-11.321-1.21c-24.18,0-43.537,16.879-62.257,33.2C152.169,253.215,131.2,271.5,102.8,271.5a75.649,75.649,0,0,1-17.872-2.248c-36.2-8.842-66.975-61.029-68.6-116.334C15.519,125.483,21.89,59.093,98.3,35.12c16.827-5.279,31.557-7.847,45.03-7.847,44.478,0,67.094,29.391,93.28,63.418,23.65,30.733,50.457,65.566,97.854,83.32a88.718,88.718,0,0,0,31.18,5.824c57.205,0,102.645-58.525,139.155-105.553C527.636,44.865,549.21,17.076,563.926,17.076Z" transform="translate(370.25 7969.86) rotate(-90)" fill="url(#linear-gradient-2)"/>
    <g id="Grupo_1191653" data-name="Grupo 1191653" transform="translate(193.144 7401.396)">
      <g id="Grupo_1191509" data-name="Grupo 1191509" transform="translate(157.107 54.604)">
        <g id="Grupo_1191479" data-name="Grupo 1191479" transform="translate(0 12.566)">
          <path id="Trazado_1279561" data-name="Trazado 1279561" d="M157.607,72.108s1.88,181.22,8.466,184.616S409.3,257.6,414.7,253.313s.526-173.277-1.8-183.573C410.857,60.666,157.673,64.315,157.607,72.108Z" transform="translate(-156.931 -63.727)" fill="#fff"/>
          <path id="Trazado_1279562" data-name="Trazado 1279562" d="M229.039,259.156c-34.044,0-60.793-.468-63.1-1.657-1.223-.63-4.47-2.305-7.069-94.163-1.278-45.213-1.759-90.593-1.763-91.046v-.014c.009-1.093,1.088-2.276,13.867-3.643,24.706-2.644,82.268-4.586,139.98-4.723,28.531-.072,53.066.331,70.928,1.153C413,66.495,413.5,68.705,413.738,69.769c1.159,5.136,2.974,50.023,3.809,94.174.75,39.681.969,87.518-2.253,90.076-3.909,3.105-104.211,4.486-124.278,4.731C270.1,259,248.391,259.156,229.039,259.156ZM158.46,72.378c.75,72.149,3.527,180.6,8.11,183.927,2.811,1.449,56.147,1.922,124.055,1.1,70.294-.855,121.219-2.684,123.836-4.448,4.682-4.594.427-171.951-2.04-182.89-.137-.253-1.663-1.69-17.584-2.886C335.241,62.7,163.616,66.491,158.46,72.378Z" transform="translate(-157.107 -63.903)" fill="#421b36"/>
        </g>
        <g id="Grupo_1191490" data-name="Grupo 1191490" transform="translate(18.199 21.919)">
          <g id="Grupo_1191480" data-name="Grupo 1191480" transform="translate(0 144.944)">
            <path id="Trazado_1279563" data-name="Trazado 1279563" d="M170.863,179.886s-1.15,23.327,1.15,24.477,13.307,1.48,13.964,0-.135-25.134-1.3-25.791S170.371,177.587,170.863,179.886Z" transform="translate(-170.575 -178.088)" fill="#a0d2f4"/>
          </g>
          <g id="Grupo_1191481" data-name="Grupo 1191481" transform="translate(23.366 113.629)">
            <path id="Trazado_1279564" data-name="Trazado 1279564" d="M188.155,158.739S187,208.356,189.3,210.8s13.306,3.144,13.963,0-.135-53.461-1.3-54.858S187.662,153.846,188.155,158.739Z" transform="translate(-187.867 -154.914)" fill="#a0d2f4"/>
          </g>
          <g id="Grupo_1191482" data-name="Grupo 1191482" transform="translate(116.827 113.629)">
            <path id="Trazado_1279565" data-name="Trazado 1279565" d="M257.319,158.739s-1.15,49.617,1.15,52.062,13.306,3.144,13.964,0-.136-53.461-1.3-54.858S256.826,153.846,257.319,158.739Z" transform="translate(-257.031 -154.914)" fill="#a0d2f4"/>
          </g>
          <g id="Grupo_1191483" data-name="Grupo 1191483" transform="translate(93.462 98.338)">
            <path id="Trazado_1279566" data-name="Trazado 1279566" d="M240.028,147.423s-1.15,64.908,1.15,67.354,13.306,3.144,13.964,0-.136-68.751-1.3-70.148S239.535,142.532,240.028,147.423Z" transform="translate(-239.74 -143.599)" fill="#a0d2f4"/>
          </g>
          <g id="Grupo_1191484" data-name="Grupo 1191484" transform="translate(70.097 84.939)">
            <path id="Trazado_1279567" data-name="Trazado 1279567" d="M222.737,137.507s-1.15,78.307,1.15,80.753,13.306,3.144,13.963,0-.135-82.15-1.3-83.547S222.243,132.616,222.737,137.507Z" transform="translate(-222.449 -133.683)" fill="#a0d2f4"/>
          </g>
          <g id="Grupo_1191485" data-name="Grupo 1191485" transform="translate(46.732 72.634)">
            <path id="Trazado_1279568" data-name="Trazado 1279568" d="M205.446,128.4s-1.15,91.2,1.15,93.646,13.306,3.144,13.963,0-.135-95.043-1.3-96.441S204.953,123.51,205.446,128.4Z" transform="translate(-205.158 -124.576)" fill="#a0d2f4"/>
          </g>
          <g id="Grupo_1191486" data-name="Grupo 1191486" transform="translate(161.984 41.736)">
            <path id="Trazado_1279569" data-name="Trazado 1279569" d="M290.737,106.723s-1.15,119.5,1.15,122.7,13.307,4.12,13.964,0-.135-124.536-1.3-126.367S290.245,100.312,290.737,106.723Z" transform="translate(-290.449 -101.711)" fill="#a0d2f4"/>
          </g>
          <g id="Grupo_1191487" data-name="Grupo 1191487" transform="translate(208.731 18.546)">
            <path id="Trazado_1279570" data-name="Trazado 1279570" d="M325.331,90.453s-1.15,140.738,1.15,144.512,13.306,4.852,13.964,0-.135-146.669-1.3-148.825S324.837,82.9,325.331,90.453Z" transform="translate(-325.043 -84.55)" fill="#a0d2f4"/>
          </g>
          <g id="Grupo_1191488" data-name="Grupo 1191488" transform="translate(138.422 85.615)">
            <path id="Trazado_1279571" data-name="Trazado 1279571" d="M273.3,137.509s-1.15,79.311,1.15,81.438,13.306,2.735,13.964,0-.136-82.653-1.3-83.869S272.806,133.255,273.3,137.509Z" transform="translate(-273.012 -134.183)" fill="#a0d2f4"/>
          </g>
          <g id="Grupo_1191489" data-name="Grupo 1191489" transform="translate(183.358)">
            <path id="Trazado_1279572" data-name="Trazado 1279572" d="M306.554,75.236s-1.15,162.551,1.15,165.371,13.307,3.627,13.964,0-.135-166.983-1.3-168.593S306.061,69.594,306.554,75.236Z" transform="translate(-306.266 -70.825)" fill="#a0d2f4"/>
          </g>
        </g>
        <g id="Grupo_1191491" data-name="Grupo 1191491" transform="translate(16.713 47.336)">
          <path id="Trazado_1279573" data-name="Trazado 1279573" d="M169.5,90.879c-.089.5-.109,12.922,2.07,14.228s25.86,1.549,27.295.711,1.292-13.537,0-14.938S169.848,88.979,169.5,90.879Z" transform="translate(-169.475 -89.634)" fill="#a0d2f4"/>
        </g>
        <g id="Grupo_1191492" data-name="Grupo 1191492" transform="translate(0.676 13.242)">
          <path id="Trazado_1279574" data-name="Trazado 1279574" d="M412.9,69.74c-2.047-9.074-255.231-5.425-255.3,2.367,0,0,.053,5.043.17,13.43l.177.223s245-4.38,255.9-5.554A101.546,101.546,0,0,0,412.9,69.74Z" transform="translate(-157.607 -64.404)" fill="#421b36"/>
        </g>
        <g id="Grupo_1191494" data-name="Grupo 1191494" transform="translate(23.664 7.362)">
          <g id="Grupo_1191493" data-name="Grupo 1191493">
            <path id="Trazado_1279575" data-name="Trazado 1279575" d="M406.534,100.6a290.771,290.771,0,0,0-26.6-27.35c-5.336-4.759-11.328-10.232-18.228-12.578-2.107-.715-4.556-1-6.542.208a14.463,14.463,0,0,0-3.282,3.15,135.329,135.329,0,0,0-9.691,13.633c-4.361,6.706-8.529,13.539-12.639,20.4-9.133,15.253-17.949,30.7-26.656,46.2q-4.974,8.86-9.891,17.752-1.628,2.945-3.248,5.894a32.15,32.15,0,0,0-1.708,3.116,4.506,4.506,0,0,1-.216.4l2.311-.605c-11.1-7.821-21.841-16.138-32.965-23.923-4.962-3.471-10-6.859-15.263-9.862a57.41,57.41,0,0,0-12.733-5.731,20.477,20.477,0,0,0-5.305-.839,6.534,6.534,0,0,0-2.4.259,6.957,6.957,0,0,0-1.778,1.44,71.661,71.661,0,0,0-7.006,7.837,216.646,216.646,0,0,0-18.333,27.535,254.328,254.328,0,0,0-19.646,42.884c-.712,2.059,2.55,2.944,3.258.9a243.334,243.334,0,0,1,34.852-66,99.652,99.652,0,0,1,7.359-8.86,27.8,27.8,0,0,0,2.844-2.744c.309-.453-.232.239-.416.185.132.039.349-.051.495-.038.377.032.781-.02,1.162-.005a14.17,14.17,0,0,1,2.35.3,43.715,43.715,0,0,1,11.855,4.831,165.057,165.057,0,0,1,14.151,8.858c12.156,8.324,23.769,17.409,35.81,25.893a1.7,1.7,0,0,0,2.311-.605q5.915-10.844,11.96-21.617c8.34-14.922,16.784-29.788,25.468-44.513,7.471-12.67,14.9-25.573,23.635-37.428a44.767,44.767,0,0,1,3.613-4.45c.243-.257.489-.509.749-.749.186-.174.847-.67.419-.38a2.315,2.315,0,0,1,1.5-.563c2.036-.039,4.481,1.149,6.516,2.33a66.56,66.56,0,0,1,8.923,6.428c10.9,9.032,20.737,19.5,30.038,30.15q.286.326.57.655c1.422,1.65,3.8-.749,2.389-2.389Z" transform="translate(-174.619 -60.052)" fill="#8380ff"/>
          </g>
        </g>
        <g id="Grupo_1191495" data-name="Grupo 1191495" transform="translate(17.015 151.244)">
          <path id="Trazado_1279576" data-name="Trazado 1279576" d="M184.985,174.173c0,4.221-3.753,6.216-7.973,6.216s-7.313-1.994-7.313-6.216a7.643,7.643,0,1,1,15.286,0Z" transform="translate(-169.699 -166.53)" fill="#8380ff"/>
        </g>
        <g id="Grupo_1191496" data-name="Grupo 1191496" transform="translate(62.713 70.283)">
          <path id="Trazado_1279577" data-name="Trazado 1279577" d="M221.4,115.559c0,4.939-4.39,7.273-9.329,7.273s-8.558-2.334-8.558-7.273a8.944,8.944,0,0,1,17.887,0Z" transform="translate(-203.517 -106.616)" fill="#8380ff"/>
        </g>
        <g id="Grupo_1191497" data-name="Grupo 1191497" transform="translate(129.706 108.771)">
          <path id="Trazado_1279578" data-name="Trazado 1279578" d="M268.38,142.741c0,4.221-3.751,6.216-7.973,6.216s-7.313-1.994-7.313-6.216a7.643,7.643,0,0,1,15.286,0Z" transform="translate(-253.094 -135.098)" fill="#8380ff"/>
        </g>
        <g id="Grupo_1191498" data-name="Grupo 1191498" transform="translate(197.716)">
          <path id="Trazado_1279579" data-name="Trazado 1279579" d="M321.039,63.412c0,4.865-4.324,7.162-9.189,7.162s-8.427-2.3-8.427-7.162a8.808,8.808,0,1,1,17.615,0Z" transform="translate(-303.424 -54.604)" fill="#8380ff"/>
        </g>
        <g id="Grupo_1191499" data-name="Grupo 1191499" transform="translate(59.366 203.714)">
          <path id="Trazado_1279580" data-name="Trazado 1279580" d="M201.04,227.629s23.045-23.987,28.555-22.172,13.891,17,13.329,21.2-17.433,24.557-17.433,24.557" transform="translate(-201.04 -205.359)" fill="#8380ff"/>
        </g>
        <g id="Grupo_1191500" data-name="Grupo 1191500" transform="translate(8.221 21.919)">
          <path id="Trazado_1279581" data-name="Trazado 1279581" d="M171.485,74.972c0,2.29-1.857,3.242-4.147,3.242s-4.147-.951-4.147-3.242a4.147,4.147,0,1,1,8.294,0Z" transform="translate(-163.191 -70.825)" fill="#a0d2f4"/>
        </g>
        <g id="Grupo_1191501" data-name="Grupo 1191501" transform="translate(19.327 21.919)">
          <path id="Trazado_1279582" data-name="Trazado 1279582" d="M179.7,74.972c0,2.29-1.857,3.242-4.147,3.242s-4.147-.951-4.147-3.242a4.147,4.147,0,1,1,8.294,0Z" transform="translate(-171.41 -70.825)" fill="#a0d2f4"/>
        </g>
        <g id="Grupo_1191503" data-name="Grupo 1191503" transform="translate(44.029 59.582)">
          <g id="Grupo_1191502" data-name="Grupo 1191502">
            <path id="Trazado_1279583" data-name="Trazado 1279583" d="M190.1,100.278c5.609,3.313,11.117,6.806,16.622,10.29.922.584,1.77-.878.853-1.458-5.505-3.484-11.013-6.977-16.622-10.29a.845.845,0,0,0-.853,1.458Z" transform="translate(-189.69 -98.697)" fill="#421b36"/>
          </g>
        </g>
        <g id="Grupo_1191505" data-name="Grupo 1191505" transform="translate(20.927 52.479)">
          <g id="Grupo_1191504" data-name="Grupo 1191504">
            <path id="Trazado_1279584" data-name="Trazado 1279584" d="M173.409,95.129h19.948a.845.845,0,0,0,0-1.689H173.409a.845.845,0,0,0,0,1.689Z" transform="translate(-172.594 -93.44)" fill="#421b36"/>
          </g>
        </g>
        <g id="Grupo_1191507" data-name="Grupo 1191507" transform="translate(21.592 57.265)">
          <g id="Grupo_1191506" data-name="Grupo 1191506">
            <path id="Trazado_1279585" data-name="Trazado 1279585" d="M173.9,98.671h11.171a.845.845,0,0,0,0-1.689H173.9a.845.845,0,0,0,0,1.689Z" transform="translate(-173.086 -96.982)" fill="#421b36"/>
          </g>
        </g>
        <g id="Grupo_1191508" data-name="Grupo 1191508" transform="translate(42.106 57.805)">
          <path id="Trazado_1279586" data-name="Trazado 1279586" d="M193.764,100.131c0,1.518-1.231,2.016-2.749,2.016s-2.749-.5-2.749-2.016a2.749,2.749,0,0,1,5.5,0Z" transform="translate(-188.267 -97.382)" fill="#421b36"/>
        </g>
      </g>
      <g id="Grupo_1191652" data-name="Grupo 1191652" transform="translate(193.087 89.952)">
        <g id="Grupo_1191510" data-name="Grupo 1191510" transform="translate(196.246 21.413)">
          <path id="Trazado_1279587" data-name="Trazado 1279587" d="M349.339,114.081s5.189-8.775,3.184-12.339-3.586-2.631-4.8-1.238-3.113,6.873-5.251,9.49-13.575,9.169-13.512,19.786c.016,2.744,2.813,13.878,2.8,12.918,0,0,2.9,12.635,3.685,13.108,1.054.636,20.773,1.263,20.014-.516s-2.877-16.488-2.877-16.488,13.291-20.819,13.759-25.938S366.7,95.9,359.2,96.643c0,0-4.271.969-1.828,7.082s-2.292,11.716-2.292,11.716S353.327,112.795,349.339,114.081Z" transform="translate(-328.962 -96.609)" fill="#ffae7a"/>
        </g>
        <g id="Grupo_1191511" data-name="Grupo 1191511" transform="translate(215.017 12.268)">
          <path id="Trazado_1279588" data-name="Trazado 1279588" d="M358.139,97.484c0,4.221-3.751,6.216-7.973,6.216s-7.313-1.994-7.313-6.216a7.643,7.643,0,0,1,15.286,0Z" transform="translate(-342.853 -89.841)" fill="#8380ff"/>
        </g>
        <g id="Grupo_1191513" data-name="Grupo 1191513" transform="translate(203.21 38.311)">
          <g id="Grupo_1191512" data-name="Grupo 1191512">
            <path id="Trazado_1279589" data-name="Trazado 1279589" d="M358.523,118.932c-1.105-3.049-2.345-6.242-5.023-8.262a6.732,6.732,0,0,0-8.014-.419l.651-.085a5.381,5.381,0,0,0-5.752,3.047l.73-.419c-2.269-.053-3.93,2.234-4.99,3.982a13.11,13.11,0,0,0-2.007,6.832,5.687,5.687,0,0,0,2.855,5.144,3.807,3.807,0,0,0,4.946-1.372c.569-.928-.891-1.778-1.458-.851a2.244,2.244,0,0,1-3.613.042c-1.147-1.246-1.172-3.1-.893-4.67a12.5,12.5,0,0,1,1.63-4.273c.711-1.172,1.986-3.182,3.531-3.146a.826.826,0,0,0,.73-.418,3.787,3.787,0,0,1,3.844-2.27c.738.012,1.2-.532,1.888-.772a4.821,4.821,0,0,1,2.662-.1c3.84.9,5.462,5.162,6.656,8.456.368,1.013,2,.576,1.628-.45Z" transform="translate(-334.116 -109.114)" fill="#421b36"/>
          </g>
        </g>
        <g id="Grupo_1191515" data-name="Grupo 1191515" transform="translate(206.386 50.168)">
          <g id="Grupo_1191514" data-name="Grupo 1191514">
            <path id="Trazado_1279590" data-name="Trazado 1279590" d="M336.885,119.469A10.655,10.655,0,0,1,341,125.828a.845.845,0,1,0,1.63-.449,12.4,12.4,0,0,0-4.9-7.369.852.852,0,0,0-1.157.3.863.863,0,0,0,.3,1.155Z" transform="translate(-336.466 -117.889)" fill="#421b36"/>
          </g>
        </g>
        <g id="Grupo_1191517" data-name="Grupo 1191517" transform="translate(209.096 42.124)">
          <g id="Grupo_1191516" data-name="Grupo 1191516">
            <path id="Trazado_1279591" data-name="Trazado 1279591" d="M338.848,113.544a24.5,24.5,0,0,1,8.9,11.4c.38,1.008,2.013.572,1.628-.449a26.468,26.468,0,0,0-9.675-12.41c-.9-.622-1.74.843-.853,1.458Z" transform="translate(-338.471 -111.936)" fill="#421b36"/>
          </g>
        </g>
        <g id="Grupo_1191519" data-name="Grupo 1191519" transform="translate(213.168 39.646)">
          <g id="Grupo_1191518" data-name="Grupo 1191518">
            <path id="Trazado_1279592" data-name="Trazado 1279592" d="M342.329,111.8c2.016.25,3.535,2.184,4.665,3.7a27.476,27.476,0,0,1,3.438,6.051.873.873,0,0,0,1.039.59.852.852,0,0,0,.591-1.039,29.409,29.409,0,0,0-3.95-6.9c-1.489-1.926-3.249-3.769-5.782-4.084a.849.849,0,0,0-.845.845.864.864,0,0,0,.845.845Z" transform="translate(-341.485 -110.102)" fill="#421b36"/>
          </g>
        </g>
        <g id="Grupo_1191520" data-name="Grupo 1191520" transform="translate(122.718 67.504)">
          <path id="Trazado_1279593" data-name="Trazado 1279593" d="M282.558,166.045s4.89-11.058,11.671-8.527,44.764,22.411,44.764,22.411-.145-41.916,7.721-46.479,27.127-2.588,31.754-.028-1.286,67.341-3.22,79.327c-2.362,14.648-14.926,15.671-25.011,15.64-13.247-.041-100.737-29.1-68.672-32.689C282.531,195.592,282.558,166.045,282.558,166.045Z" transform="translate(-274.549 -130.718)" fill="#8380ff"/>
        </g>
        <g id="Grupo_1191630" data-name="Grupo 1191630">
          <g id="Grupo_1191558" data-name="Grupo 1191558" transform="translate(62.505)">
            <g id="Grupo_1191552" data-name="Grupo 1191552" transform="translate(0 5.118)">
              <g id="Grupo_1191521" data-name="Grupo 1191521" transform="translate(53.76 9.328)">
                <path id="Trazado_1279594" data-name="Trazado 1279594" d="M277.5,94.338a11.726,11.726,0,0,1,5.45,5.979,11.418,11.418,0,0,1-.161,7.365,28.379,28.379,0,0,1-3.49,6.617l-9.52-22.846A34.8,34.8,0,0,1,277.5,94.338Z" transform="translate(-269.774 -91.453)" fill="#421b36"/>
              </g>
              <g id="Grupo_1191522" data-name="Grupo 1191522" transform="translate(8.042)">
                <path id="Trazado_1279595" data-name="Trazado 1279595" d="M283.063,95.7a9.961,9.961,0,0,0-3.267-6.89,15.7,15.7,0,0,0-6.874-3.575,22.5,22.5,0,0,0-19.463,4.212c-2.859,2.312-5.1,5.3-7.882,7.706s-6.021,4.817-9.636,4.144l4.09,5.715,6.677,3.516" transform="translate(-235.941 -84.55)" fill="#421b36"/>
              </g>
              <g id="Grupo_1191523" data-name="Grupo 1191523" transform="translate(0 14.497)">
                <path id="Trazado_1279596" data-name="Trazado 1279596" d="M231.621,109.348a13.309,13.309,0,0,1,5.508-3.3,4.036,4.036,0,0,1-3.993-6.643c1.7-1.832,4.6-2.157,7.054-1.7,5.27.972,7.386.6,11.371-2.424l-6.59,28.85c-2.582.231-5.355.422-7.6-.878s-3.4-4.725-1.546-6.535c-1.588,1.469-4.471.576-5.411-1.372A5.642,5.642,0,0,1,231.621,109.348Z" transform="translate(-229.99 -95.278)" fill="#421b36"/>
              </g>
              <g id="Grupo_1191524" data-name="Grupo 1191524" transform="translate(17.607 2.691)">
                <path id="Trazado_1279597" data-name="Trazado 1279597" d="M246.55,96.782a40.184,40.184,0,0,1,6.444-3.15c2.9-1.338,5.593-3.1,8.444-4.54a20.063,20.063,0,0,1,9.15-2.55c3.2.038,7.335,2.671,9.036,5.378,1.115,1.773,2.33,4.732,1.216,6.505l-37.82,4.282C242.97,100.313,244.588,98.155,246.55,96.782Z" transform="translate(-243.019 -86.541)" fill="#421b36"/>
              </g>
              <g id="Grupo_1191526" data-name="Grupo 1191526" transform="translate(16.918 9.924)">
                <g id="Grupo_1191525" data-name="Grupo 1191525">
                  <path id="Trazado_1279598" data-name="Trazado 1279598" d="M245.826,104.241c9.654-16.376,33.854-16.478,43.693-.211,3.111,5.144,4.892,12.176,5.531,21.722,1.781,26.63-20.714,28.623-20.714,28.623l-2.578,31.155-23.319-15.87,3.543-20.622c-4.177-3.973-12.09-22.6-8.61-36.946C244.037,109.35,244.413,106.638,245.826,104.241Z" transform="translate(-242.51 -91.894)" fill="#ffae7a"/>
                </g>
              </g>
              <g id="Grupo_1191527" data-name="Grupo 1191527" transform="translate(8.263 8.115)">
                <path id="Trazado_1279599" data-name="Trazado 1279599" d="M265.2,90.6c-14.414.558-28.338,14.118-28.977,22.957a38.191,38.191,0,0,0,18.009,35.948c-5.936-8.64-8.708-15.106-8.155-25.841,0,0,10.978,4.151,8.5-5.482-1.29-5.009-1.874-7.587-1.763-11.937.362-14.032,23.5-13.516,23.5-13.516S276.222,90.176,265.2,90.6Z" transform="translate(-236.105 -90.555)" fill="#421b36"/>
              </g>
              <g id="Grupo_1191529" data-name="Grupo 1191529" transform="translate(56.379 28.047)">
                <g id="Grupo_1191528" data-name="Grupo 1191528">
                  <path id="Trazado_1279600" data-name="Trazado 1279600" d="M274.9,106.906a1.6,1.6,0,1,1-1.776-1.592A1.69,1.69,0,0,1,274.9,106.906Z" transform="translate(-271.712 -105.306)" fill="#421b36"/>
                </g>
              </g>
              <g id="Grupo_1191531" data-name="Grupo 1191531" transform="translate(38.737 30.405)">
                <g id="Grupo_1191530" data-name="Grupo 1191530">
                  <path id="Trazado_1279601" data-name="Trazado 1279601" d="M261.842,108.65a1.6,1.6,0,1,1-1.776-1.59A1.691,1.691,0,0,1,261.842,108.65Z" transform="translate(-258.656 -107.051)" fill="#421b36"/>
                </g>
              </g>
              <g id="Grupo_1191534" data-name="Grupo 1191534" transform="translate(29.242 20.785)">
                <g id="Grupo_1191533" data-name="Grupo 1191533">
                  <g id="Grupo_1191532" data-name="Grupo 1191532">
                    <path id="Trazado_1279602" data-name="Trazado 1279602" d="M252.448,104.625a13.9,13.9,0,0,1,5.674-2.205,30.554,30.554,0,0,1,5.157.054c1.007,0,1.107-1.473.293-1.849-4.086-1.892-8.779.4-11.754,3.144-.489.453.068,1.272.63.855Z" transform="translate(-251.63 -99.932)" fill="#421b36"/>
                  </g>
                </g>
              </g>
              <g id="Grupo_1191536" data-name="Grupo 1191536" transform="translate(30.017 37.749)" opacity="0.2">
                <g id="Grupo_1191535" data-name="Grupo 1191535">
                  <path id="Trazado_1279603" data-name="Trazado 1279603" d="M262.3,114.612c.154,1.442-1.978,2.854-4.763,3.153s-5.167-.628-5.323-2.07,1.977-2.853,4.762-3.153S262.142,113.17,262.3,114.612Z" transform="translate(-252.203 -112.486)" fill="#421b36"/>
                </g>
              </g>
              <g id="Grupo_1191538" data-name="Grupo 1191538" transform="translate(55.62 35.381)" opacity="0.2">
                <g id="Grupo_1191537" data-name="Grupo 1191537">
                  <path id="Trazado_1279604" data-name="Trazado 1279604" d="M281.244,112.859c.154,1.442-1.978,2.854-4.763,3.153s-5.167-.627-5.323-2.07,1.977-2.853,4.762-3.153S281.089,111.417,281.244,112.859Z" transform="translate(-271.15 -110.733)" fill="#421b36"/>
                </g>
              </g>
              <g id="Grupo_1191544" data-name="Grupo 1191544" transform="translate(9.291 40.302)">
                <g id="Grupo_1191540" data-name="Grupo 1191540">
                  <g id="Grupo_1191539" data-name="Grupo 1191539">
                    <path id="Trazado_1279605" data-name="Trazado 1279605" d="M245.787,115.1c-3.43-1.495-5.486-.4-6.716.739a7.356,7.356,0,0,0-2.12,4.444,8.642,8.642,0,0,0,2.566,7.593,6.392,6.392,0,0,0,7.708.616Z" transform="translate(-236.865 -114.375)" fill="#ffae7a"/>
                  </g>
                </g>
                <g id="Grupo_1191543" data-name="Grupo 1191543" transform="translate(4.123 5.916)">
                  <g id="Grupo_1191542" data-name="Grupo 1191542">
                    <g id="Grupo_1191541" data-name="Grupo 1191541">
                      <path id="Trazado_1279606" data-name="Trazado 1279606" d="M240.173,121.195a4.989,4.989,0,0,1,2.02-.672,2.86,2.86,0,0,1,2.153.795.888.888,0,0,0,1.268-1.213,3.638,3.638,0,0,0-3.326-1.32,3.268,3.268,0,0,0-1.661.711c-.53.465-.5.886-.7,1.5-.047.142.108.312.247.2Z" transform="translate(-239.917 -118.753)" fill="#421b36"/>
                    </g>
                  </g>
                </g>
              </g>
              <g id="Grupo_1191547" data-name="Grupo 1191547" transform="translate(46.769 17.922)">
                <g id="Grupo_1191546" data-name="Grupo 1191546">
                  <g id="Grupo_1191545" data-name="Grupo 1191545">
                    <path id="Trazado_1279607" data-name="Trazado 1279607" d="M275.666,99.537a6.373,6.373,0,0,0-10.216,2.14c-2.5,5.667.953,14.047,4.675,18.419a1.017,1.017,0,0,0,1.635-1.207c-2.166-3.605-4.369-7.254-4.923-11.52-.385-2.966-.024-6.519,3.4-7.551a8.941,8.941,0,0,1,5.009.4.408.408,0,0,0,.422-.686Z" transform="translate(-264.6 -97.813)" fill="#421b36"/>
                  </g>
                </g>
              </g>
              <g id="Grupo_1191550" data-name="Grupo 1191550" transform="translate(36.174 69.726)">
                <g id="Grupo_1191549" data-name="Grupo 1191549">
                  <g id="Grupo_1191548" data-name="Grupo 1191548">
                    <path id="Trazado_1279608" data-name="Trazado 1279608" d="M256.789,136.291a20.939,20.939,0,0,0,15.617,3.035.852.852,0,0,0-.182-1.693,41.453,41.453,0,0,1-15.372-1.481.079.079,0,0,0-.062.139Z" transform="translate(-256.76 -136.149)" fill="#421b36"/>
                  </g>
                </g>
              </g>
              <g id="Grupo_1191551" data-name="Grupo 1191551" transform="translate(17.258 35.746)">
                <path id="Trazado_1279609" data-name="Trazado 1279609" d="M252.236,111a40.751,40.751,0,0,1,.9,11.66,4.6,4.6,0,0,1-1.108,2.9,2.075,2.075,0,0,1-2.836.189c-.251-.262-1.066-.915-1.3-1.2-2.939-3.585-3.463-6-5.135-9.786" transform="translate(-242.761 -111.003)" fill="#421b36"/>
              </g>
            </g>
            <g id="Grupo_1191553" data-name="Grupo 1191553" transform="translate(38.864 46.867)">
              <path id="Trazado_1279610" data-name="Trazado 1279610" d="M259.486,116.595a8.265,8.265,0,0,0,.488,7.782,8.179,8.179,0,0,0,7.081,3.394,8.814,8.814,0,0,0,6.786-4.046,2.728,2.728,0,0,0,.48-2.482,3.035,3.035,0,0,0-1.4-1.259,73.834,73.834,0,0,0-11.721-4.532A1.679,1.679,0,0,0,259.486,116.595Z" transform="translate(-258.75 -115.445)" fill="#fff"/>
            </g>
            <g id="Grupo_1191555" data-name="Grupo 1191555" transform="translate(48.867)">
              <g id="Grupo_1191554" data-name="Grupo 1191554">
                <path id="Trazado_1279611" data-name="Trazado 1279611" d="M272.045,96.866c4.79-4.834,2.23-12.233-2.813-15.78-1.867-1.313-4.219,1.7-2.457,3.184,3.784,3.188,4.521,7.423,4.189,12.148a.64.64,0,0,0,1.081.449Z" transform="translate(-266.153 -80.763)" fill="#421b36"/>
              </g>
            </g>
            <g id="Grupo_1191557" data-name="Grupo 1191557" transform="translate(53.015 9.397)">
              <g id="Grupo_1191556" data-name="Grupo 1191556">
                <path id="Trazado_1279612" data-name="Trazado 1279612" d="M269.627,94.982c1.463.53,3.225-.247,4.548-.873a15.13,15.13,0,0,0,4.247-3.031c1.782-1.781-1.077-4.612-2.754-2.754a27.371,27.371,0,0,1-3.273,3.108c-1.047.83-2.442,1.538-3.1,2.735a.564.564,0,0,0,.331.815Z" transform="translate(-269.223 -87.716)" fill="#421b36"/>
              </g>
            </g>
          </g>
          <g id="Grupo_1191574" data-name="Grupo 1191574" transform="translate(116.211 487.525)">
            <g id="Grupo_1191560" data-name="Grupo 1191560">
              <g id="Grupo_1191559" data-name="Grupo 1191559">
                <path id="Trazado_1279613" data-name="Trazado 1279613" d="M294.721,441.548c-.284.9-3.609,17.83.078,26.672s-18.441,11.92-18.441,11.92-4.436-24.188-6.51-31.5S294.721,441.548,294.721,441.548Z" transform="translate(-269.734 -441.547)" fill="#421b36"/>
              </g>
            </g>
            <g id="Grupo_1191562" data-name="Grupo 1191562" transform="translate(5.542 49.886)">
              <g id="Grupo_1191561" data-name="Grupo 1191561">
                <path id="Trazado_1279614" data-name="Trazado 1279614" d="M318.613,486.555a31.621,31.621,0,0,1-.593,5.832c-.6,2.761-10.117,4.219-22.585,3.463s-19.523-6.619-20.021-7.258-1.578-10.128-1.578-10.128Z" transform="translate(-273.835 -478.465)" fill="#8380ff"/>
              </g>
            </g>
            <g id="Grupo_1191564" data-name="Grupo 1191564" transform="translate(4.966 23.113)">
              <g id="Grupo_1191563" data-name="Grupo 1191563">
                <path id="Trazado_1279615" data-name="Trazado 1279615" d="M292.774,461.775c.453.368,12.439,17.9,16.367,20.583s10.143,6.619,9.591,12.128-24.027,4.3-33.127,1.865-8.919-1.3-10.429-4.511-1.738-16.307-1.768-18.086S279.322,450.846,292.774,461.775Z" transform="translate(-273.409 -458.652)" fill="#421b36"/>
              </g>
            </g>
            <g id="Grupo_1191567" data-name="Grupo 1191567" transform="translate(21.775 41.65)">
              <g id="Grupo_1191566" data-name="Grupo 1191566">
                <g id="Grupo_1191565" data-name="Grupo 1191565">
                  <path id="Trazado_1279616" data-name="Trazado 1279616" d="M299.533,472.97c-4.411-1.147-9.544-.715-13.4,1.87-.592.4-.2,1.5.534,1.208,4.189-1.673,8-2.861,12.559-1.9a.611.611,0,0,0,.3-1.182Z" transform="translate(-285.848 -472.37)" fill="#fff"/>
                </g>
              </g>
            </g>
            <g id="Grupo_1191570" data-name="Grupo 1191570" transform="translate(19.415 37.55)">
              <g id="Grupo_1191569" data-name="Grupo 1191569">
                <g id="Grupo_1191568" data-name="Grupo 1191568">
                  <path id="Trazado_1279617" data-name="Trazado 1279617" d="M296.8,469.851c-4.058-1.209-8.569-.131-12.317,1.59-.809.372-.195,1.793.636,1.443a34.481,34.481,0,0,1,11.6-2.342.353.353,0,0,0,.081-.692Z" transform="translate(-284.101 -469.336)" fill="#fff"/>
                </g>
              </g>
            </g>
            <g id="Grupo_1191573" data-name="Grupo 1191573" transform="translate(16.184 33.291)">
              <g id="Grupo_1191572" data-name="Grupo 1191572">
                <g id="Grupo_1191571" data-name="Grupo 1191571">
                  <path id="Trazado_1279618" data-name="Trazado 1279618" d="M294.354,466.811a18.549,18.549,0,0,0-12.082.931c-1.015.395-.531,2.043.481,1.632a20.433,20.433,0,0,1,11.34-1.547.525.525,0,0,0,.261-1.016Z" transform="translate(-281.711 -466.184)" fill="#fff"/>
                </g>
              </g>
            </g>
          </g>
          <g id="Grupo_1191590" data-name="Grupo 1191590" transform="translate(15.06 486.34)">
            <g id="Grupo_1191576" data-name="Grupo 1191576" transform="translate(24.844)">
              <g id="Grupo_1191575" data-name="Grupo 1191575">
                <path id="Trazado_1279619" data-name="Trazado 1279619" d="M213.756,440.671c.285.9,3.611,17.832-.077,26.672s18.44,11.92,18.44,11.92,4.436-24.188,6.51-31.5S213.756,440.671,213.756,440.671Z" transform="translate(-213.264 -440.67)" fill="#421b36"/>
              </g>
            </g>
            <g id="Grupo_1191578" data-name="Grupo 1191578" transform="translate(0.003 49.886)">
              <g id="Grupo_1191577" data-name="Grupo 1191577">
                <path id="Trazado_1279620" data-name="Trazado 1279620" d="M194.881,485.678a31.573,31.573,0,0,0,.595,5.833c.6,2.759,10.117,4.217,22.585,3.462s19.523-6.619,20.019-7.258,1.578-10.128,1.578-10.128Z" transform="translate(-194.881 -477.588)" fill="#8380ff"/>
              </g>
            </g>
            <g id="Grupo_1191580" data-name="Grupo 1191580" transform="translate(0 23.113)">
              <g id="Grupo_1191579" data-name="Grupo 1191579">
                <path id="Trazado_1279621" data-name="Trazado 1279621" d="M220.871,460.9c-.453.368-12.44,17.9-16.368,20.583s-10.143,6.62-9.59,12.128,24.026,4.3,33.127,1.866,8.918-1.3,10.429-4.512,1.736-16.306,1.768-18.086S234.323,449.969,220.871,460.9Z" transform="translate(-194.878 -457.775)" fill="#421b36"/>
              </g>
            </g>
            <g id="Grupo_1191583" data-name="Grupo 1191583" transform="translate(14.421 41.651)">
              <g id="Grupo_1191582" data-name="Grupo 1191582">
                <g id="Grupo_1191581" data-name="Grupo 1191581">
                  <path id="Trazado_1279622" data-name="Trazado 1279622" d="M205.994,472.094a16.861,16.861,0,0,1,13.4,1.87c.592.4.2,1.5-.534,1.207-4.19-1.673-8-2.861-12.559-1.9a.61.61,0,0,1-.3-1.181Z" transform="translate(-205.551 -471.493)" fill="#fff"/>
                </g>
              </g>
            </g>
            <g id="Grupo_1191586" data-name="Grupo 1191586" transform="translate(17.957 37.55)">
              <g id="Grupo_1191585" data-name="Grupo 1191585">
                <g id="Grupo_1191584" data-name="Grupo 1191584">
                  <path id="Trazado_1279623" data-name="Trazado 1279623" d="M208.422,468.974c4.058-1.209,8.57-.131,12.318,1.59.809.372.195,1.795-.638,1.443a34.481,34.481,0,0,0-11.6-2.342.353.353,0,0,1-.082-.692Z" transform="translate(-208.168 -468.459)" fill="#fff"/>
                </g>
              </g>
            </g>
            <g id="Grupo_1191589" data-name="Grupo 1191589" transform="translate(21.116 33.292)">
              <g id="Grupo_1191588" data-name="Grupo 1191588">
                <g id="Grupo_1191587" data-name="Grupo 1191587">
                  <path id="Trazado_1279624" data-name="Trazado 1279624" d="M210.886,465.935a18.545,18.545,0,0,1,12.081.93c1.016.4.532,2.043-.48,1.632a20.444,20.444,0,0,0-11.34-1.547.524.524,0,0,1-.261-1.015Z" transform="translate(-210.505 -465.308)" fill="#fff"/>
                </g>
              </g>
            </g>
          </g>
          <g id="Grupo_1191593" data-name="Grupo 1191593" transform="translate(29.721 210.618)">
            <g id="Grupo_1191592" data-name="Grupo 1191592">
              <g id="Grupo_1191591" data-name="Grupo 1191591">
                <path id="Trazado_1279625" data-name="Trazado 1279625" d="M319.089,236.627l-89.774,10.118c-.208,1.445-8.154,20.688-11.521,48.89-8.614,72.111-15.01,214.9-10.67,225.631,4.016,9.927,38.875,5.734,42.191,2.627L271.893,313.76s7.84,204.107,15.878,210.615c7.2,5.828,24.483,4.477,33.759-3.886S329.158,274.844,319.089,236.627Z" transform="translate(-205.728 -236.627)" fill="#421b36"/>
              </g>
            </g>
          </g>
          <g id="Grupo_1191594" data-name="Grupo 1191594" transform="translate(46.595 204.588)">
            <path id="Trazado_1279626" data-name="Trazado 1279626" d="M316.04,243.619c-.67,2.094,4.493,14.678,3.208,22.6S306.2,281.161,299,280.259c-14.324-1.8-21.606-20.11-21.606-20.11s-12.332,22.976-27.045,21.09-28.193-7.881-31.589-17.632,10.052-31.442,10.052-31.442Z" transform="translate(-218.215 -232.165)" fill="#a0d2f4"/>
          </g>
          <g id="Grupo_1191595" data-name="Grupo 1191595" transform="translate(0 99.674)">
            <path id="Trazado_1279627" data-name="Trazado 1279627" d="M235.768,154.525s-7.8.951-17.476,15.652c-6.786,10.309-42.444,71.6-32.967,97.218,6.95,18.783,26.088,17.457,32.723,14.028,21.164-10.937,28.191-39.61,28.191-39.61Z" transform="translate(-183.733 -154.525)" fill="#8380ff"/>
          </g>
          <g id="Grupo_1191597" data-name="Grupo 1191597" transform="translate(47.144 88.409)">
            <g id="Grupo_1191596" data-name="Grupo 1191596">
              <path id="Trazado_1279628" data-name="Trazado 1279628" d="M221.546,272.174c-.62-5.039-3.086-106.617-2.916-112.51,3.48-3.3,12.632-6.278,14.163-6.7l22.095-5.739s14.934,15.414,18.867,16.842,12.437-17.88,12.437-17.88c5.474.915,26.161,2.451,28.6,5.261,3.253,3.746,8.3,30.555,8.323,31.981s-6.058,75.345-7.887,92.486c0,0-.254,14.349-25.475,15S221.546,272.174,221.546,272.174Z" transform="translate(-218.622 -146.188)" fill="#8380ff"/>
            </g>
          </g>
          <g id="Grupo_1191598" data-name="Grupo 1191598" transform="translate(77.459 83.386)">
            <path id="Trazado_1279629" data-name="Trazado 1279629" d="M275.017,142.675c1.718-1.616,10.77,6.893,10.77,6.893s-2.4,17.529-6.612,14.1c-1.9-1.547-4.905-4.617-4.905-4.617s-6.328,8.4-7.76,7.99c-4.088-1.161-7.873-6.574-7.873-6.574s-3.162,6.609-3.836,6.574c-2.057-.109-15.963-15.6-13.44-17.037s3.88-8.086,7.315-7.305,17.238,16.233,17.238,16.233S273.391,144.2,275.017,142.675Z" transform="translate(-241.055 -142.471)" fill="#a0d2f4"/>
          </g>
          <g id="Grupo_1191599" data-name="Grupo 1191599" transform="translate(105.87 96.323)">
            <path id="Trazado_1279630" data-name="Trazado 1279630" d="M272.1,160.908a91.661,91.661,0,0,1-9.71-7.089c-.87-.735.314-2.3,1.23-1.6a91.714,91.714,0,0,1,9,8.005c.339.342-.1.95-.524.68Z" transform="translate(-262.081 -152.045)" fill="#421b36"/>
          </g>
          <g id="Grupo_1191601" data-name="Grupo 1191601" transform="translate(48.871 219.505)">
            <g id="Grupo_1191600" data-name="Grupo 1191600">
              <path id="Trazado_1279631" data-name="Trazado 1279631" d="M233.454,243.474a85.435,85.435,0,0,0-13.463,20.132c-.468.976.988,1.834,1.458.853a83.943,83.943,0,0,1,13.2-19.791c.724-.807-.466-2.005-1.193-1.193Z" transform="translate(-219.899 -243.204)" fill="#8380ff"/>
            </g>
          </g>
          <g id="Grupo_1191603" data-name="Grupo 1191603" transform="translate(63.141 225.109)">
            <g id="Grupo_1191602" data-name="Grupo 1191602">
              <path id="Trazado_1279632" data-name="Trazado 1279632" d="M232.076,272.369a245.365,245.365,0,0,0,15.155-23.75c.532-.95-.927-1.8-1.458-.853a245.374,245.374,0,0,1-15.156,23.75c-.636.884.828,1.727,1.459.853Z" transform="translate(-230.46 -247.351)" fill="#8380ff"/>
            </g>
          </g>
          <g id="Grupo_1191605" data-name="Grupo 1191605" transform="translate(84.243 230.299)">
            <g id="Grupo_1191604" data-name="Grupo 1191604">
              <path id="Trazado_1279633" data-name="Trazado 1279633" d="M247.637,273.725c3.7-7.212,8.1-14.043,11.8-21.254.5-.966-.961-1.822-1.458-.853-3.7,7.212-8.1,14.043-11.8,21.254-.495.966.962,1.822,1.459.853Z" transform="translate(-246.076 -251.192)" fill="#8380ff"/>
            </g>
          </g>
          <g id="Grupo_1191607" data-name="Grupo 1191607" transform="translate(120.122 232.374)">
            <g id="Grupo_1191606" data-name="Grupo 1191606">
              <path id="Trazado_1279634" data-name="Trazado 1279634" d="M272.8,253.934a60.465,60.465,0,0,1,9.44,17.741c.342,1.026,1.974.587,1.628-.449a61.815,61.815,0,0,0-9.609-18.145c-.654-.85-2.123-.009-1.459.853Z" transform="translate(-272.627 -252.727)" fill="#8380ff"/>
            </g>
          </g>
          <g id="Grupo_1191609" data-name="Grupo 1191609" transform="translate(134.077 228.733)">
            <g id="Grupo_1191608" data-name="Grupo 1191608">
              <path id="Trazado_1279635" data-name="Trazado 1279635" d="M283.192,251.487a29.214,29.214,0,0,1,7.571,15.259c.178,1.07,1.807.616,1.628-.449a30.761,30.761,0,0,0-8-16c-.749-.791-1.942.405-1.195,1.195Z" transform="translate(-282.955 -250.033)" fill="#8380ff"/>
            </g>
          </g>
          <g id="Grupo_1191611" data-name="Grupo 1191611" transform="translate(109.844 229.415)">
            <g id="Grupo_1191610" data-name="Grupo 1191610">
              <path id="Trazado_1279636" data-name="Trazado 1279636" d="M265.836,262.4c12.976.651,26.179-2.416,36.712-10.244.862-.641.02-2.108-.853-1.458-10.323,7.67-23.142,10.651-35.859,10.013-1.086-.054-1.084,1.635,0,1.689Z" transform="translate(-265.022 -250.538)" fill="#8380ff"/>
            </g>
          </g>
          <g id="Grupo_1191613" data-name="Grupo 1191613" transform="translate(46.181 230.251)">
            <g id="Grupo_1191612" data-name="Grupo 1191612">
              <path id="Trazado_1279637" data-name="Trazado 1279637" d="M218.339,252.71A226.457,226.457,0,0,0,264.6,269.642c1.055.261,1.505-1.369.449-1.628a224.489,224.489,0,0,1-45.861-16.761c-.972-.481-1.828.976-.853,1.458Z" transform="translate(-217.909 -251.156)" fill="#8380ff"/>
            </g>
          </g>
          <g id="Grupo_1191615" data-name="Grupo 1191615" transform="translate(49.829 218.72)">
            <g id="Grupo_1191614" data-name="Grupo 1191614">
              <path id="Trazado_1279638" data-name="Trazado 1279638" d="M221.052,244.157a367.051,367.051,0,0,0,51.654,17.728.845.845,0,0,0,.449-1.628,364.12,364.12,0,0,1-51.25-17.557c-.989-.422-1.851,1.032-.853,1.458Z" transform="translate(-220.608 -242.623)" fill="#8380ff"/>
            </g>
          </g>
          <g id="Grupo_1191617" data-name="Grupo 1191617" transform="translate(85.248 93.861)">
            <g id="Grupo_1191616" data-name="Grupo 1191616">
              <path id="Trazado_1279639" data-name="Trazado 1279639" d="M248.281,159.79a39.637,39.637,0,0,0,6.9-8.317c.576-.926-.885-1.774-1.459-.853a37.936,37.936,0,0,1-6.632,7.975c-.8.735.393,1.927,1.195,1.195Z" transform="translate(-246.82 -150.223)" fill="#8380ff"/>
            </g>
          </g>
          <g id="Grupo_1191619" data-name="Grupo 1191619" transform="translate(79.992 88.291)">
            <g id="Grupo_1191618" data-name="Grupo 1191618">
              <path id="Trazado_1279640" data-name="Trazado 1279640" d="M244.2,156.115a55.9,55.9,0,0,0,9.2-8.575.867.867,0,0,0,0-1.195.852.852,0,0,0-1.195,0,53.945,53.945,0,0,1-8.862,8.31.869.869,0,0,0-.3,1.155.851.851,0,0,0,1.155.3Z" transform="translate(-242.93 -146.101)" fill="#8380ff"/>
            </g>
          </g>
          <g id="Grupo_1191621" data-name="Grupo 1191621" transform="translate(108.095 90.992)">
            <g id="Grupo_1191620" data-name="Grupo 1191620">
              <path id="Trazado_1279641" data-name="Trazado 1279641" d="M263.973,149.531q5.11,4.007,10.217,8.016a.859.859,0,0,0,1.108.066.843.843,0,0,0,.218-1.089q-.2-.33-.4-.661c-.566-.926-2.028-.078-1.458.853l.4.661,1.327-1.024-10.217-8.016a.872.872,0,0,0-1.195,0,.851.851,0,0,0,0,1.195Z" transform="translate(-263.727 -148.099)" fill="#8380ff"/>
            </g>
          </g>
          <g id="Grupo_1191623" data-name="Grupo 1191623" transform="translate(112.414 86.42)">
            <g id="Grupo_1191622" data-name="Grupo 1191622">
              <path id="Trazado_1279642" data-name="Trazado 1279642" d="M268.578,158.577A63.858,63.858,0,0,1,272.964,146c.461-.977-.995-1.835-1.459-.853a66.025,66.025,0,0,0-4.555,12.978c-.25,1.057,1.378,1.508,1.628.449Z" transform="translate(-266.924 -144.717)" fill="#8380ff"/>
            </g>
          </g>
          <g id="Grupo_1191625" data-name="Grupo 1191625" transform="translate(80.475 85.976)">
            <g id="Grupo_1191624" data-name="Grupo 1191624">
              <path id="Trazado_1279643" data-name="Trazado 1279643" d="M243.535,145.831a187.3,187.3,0,0,1,13.147,14.684c.681.847,1.87-.355,1.195-1.195a187.044,187.044,0,0,0-13.148-14.684.845.845,0,0,0-1.193,1.195Z" transform="translate(-243.287 -144.387)" fill="#8380ff"/>
            </g>
          </g>
          <g id="Grupo_1191626" data-name="Grupo 1191626" transform="translate(91.023 98.043)">
            <path id="Trazado_1279644" data-name="Trazado 1279644" d="M256.937,153.913a40.313,40.313,0,0,1-4.178,9.679.91.91,0,0,1-1.57-.919c1.4-3.1,3.189-6.174,4.877-9.128a.479.479,0,0,1,.872.368Z" transform="translate(-251.093 -153.318)" fill="#421b36"/>
          </g>
          <g id="Grupo_1191627" data-name="Grupo 1191627" transform="translate(98.041 99.842)">
            <path id="Trazado_1279645" data-name="Trazado 1279645" d="M260.562,154.649l-4.275,5.412s3.286,3.531,5.4,2.711,4.488-4.562,4.488-4.562Z" transform="translate(-256.287 -154.649)" fill="#421b36"/>
          </g>
          <g id="Grupo_1191628" data-name="Grupo 1191628" transform="translate(95.459 100.789)">
            <path id="Trazado_1279646" data-name="Trazado 1279646" d="M254.376,155.35c.234.018,4.621,2.042,4.621,2.042l-2.039,2.423-2.582-3.039.426-.708" transform="translate(-254.376 -155.35)" fill="#421b36"/>
          </g>
          <g id="Grupo_1191629" data-name="Grupo 1191629" transform="translate(104.76 97.576)">
            <path id="Trazado_1279647" data-name="Trazado 1279647" d="M264.791,152.972s-.139.177-.362.468c-.936,1.216-3.348,4.428-3.159,4.978.235.681,2.778.943,2.778.943l2.857-3.628" transform="translate(-261.259 -152.972)" fill="#421b36"/>
          </g>
        </g>
        <g id="Grupo_1191641" data-name="Grupo 1191641" transform="translate(48.741 140.728)">
          <g id="Grupo_1191631" data-name="Grupo 1191631" transform="translate(17.698)">
            <path id="Trazado_1279648" data-name="Trazado 1279648" d="M247.73,188.931c-1.415-4.929-5.467-4.644-6.062-2.773-.581,1.831-8.769,17.537-8.769,17.537l8.156-1.655,1.007,1.172S249.144,193.862,247.73,188.931Z" transform="translate(-232.9 -184.906)" fill="#ffae7a"/>
          </g>
          <g id="Grupo_1191632" data-name="Grupo 1191632" transform="translate(0 7.116)">
            <path id="Trazado_1279649" data-name="Trazado 1279649" d="M227.792,210.08s12-12.049,19.433-15.441,23.068-5.928,27.315-3.512,1.762,5.523-1.24,5.9S259.351,198.37,257.67,199c0,0,5.061,1.992,4.005,5.225,0,0,3.663,4.275-.343,8.1,0,0,1.2,7.387-1.973,8.954s-16,5.5-18.318,4.452l-3.971-2.863s-5.855,9.071-8.832,6.693-8.766-10.725-8.42-13.1S227.792,210.08,227.792,210.08Z" transform="translate(-219.803 -190.172)" fill="#ffae7a"/>
          </g>
          <g id="Grupo_1191634" data-name="Grupo 1191634" transform="translate(50.092 6.536)">
            <g id="Grupo_1191633" data-name="Grupo 1191633">
              <path id="Trazado_1279650" data-name="Trazado 1279650" d="M262.679,192.508c-.065.035-.13.069-.2.1-.141.069.174-.058-.082.036a3.71,3.71,0,0,1-.378.118c-.072.019-.143.032-.215.049-.141.034,0,.005-.081.016a3.52,3.52,0,0,1-.4.022,2.113,2.113,0,0,1-.735-.091,3.3,3.3,0,0,1-.377-.12c-.055-.022-.055-.022,0,0l-.08-.039c-.059-.031-.12-.059-.178-.093-.1-.059-.2-.126-.3-.192-.122-.082.015.018-.051-.039s-.1-.086-.151-.132c-.088-.081-.172-.168-.251-.257-.045-.05-.089-.1-.13-.154.072.093-.007-.014-.035-.054-.068-.1-.131-.2-.189-.307-.032-.059-.064-.119-.092-.178s-.073-.166-.028-.055a3.7,3.7,0,0,1-.209-.772.845.845,0,0,0-1.038-.589.869.869,0,0,0-.591,1.038A4.544,4.544,0,0,0,259.177,194a4.617,4.617,0,0,0,4.355-.036.845.845,0,1,0-.853-1.458Z" transform="translate(-256.873 -189.743)" fill="#421b36"/>
            </g>
          </g>
          <g id="Grupo_1191636" data-name="Grupo 1191636" transform="translate(35.71 19.962)">
            <g id="Grupo_1191635" data-name="Grupo 1191635">
              <path id="Trazado_1279651" data-name="Trazado 1279651" d="M252.973,200.9a8.3,8.3,0,0,0-6.127-1.022.845.845,0,0,0,.45,1.628,6.949,6.949,0,0,1,2.426-.059,7.546,7.546,0,0,1,1.284.349c.058.022.115.043.172.066.1.038.113.046.053.022.084.038.166.077.249.116.22.109.434.23.642.358a.845.845,0,1,0,.853-1.458Z" transform="translate(-246.229 -199.679)" fill="#421b36"/>
            </g>
          </g>
          <g id="Grupo_1191638" data-name="Grupo 1191638" transform="translate(35.387 27.985)">
            <g id="Grupo_1191637" data-name="Grupo 1191637">
              <path id="Trazado_1279652" data-name="Trazado 1279652" d="M251.864,206.2a10.666,10.666,0,0,1-1.174-.093l-.073-.009c.113.015-.116-.018-.114-.016l-.307-.045-.7-.108a19.173,19.173,0,0,0-2.661-.309.845.845,0,0,0,0,1.689,10.666,10.666,0,0,1,1.173.095l.073.009c-.112-.015.118.016.115.016l.305.045.7.108a19.139,19.139,0,0,0,2.661.308.845.845,0,1,0,0-1.689Z" transform="translate(-245.99 -205.616)" fill="#421b36"/>
            </g>
          </g>
          <g id="Grupo_1191640" data-name="Grupo 1191640" transform="translate(17.571 8.615)">
            <g id="Grupo_1191639" data-name="Grupo 1191639">
              <path id="Trazado_1279653" data-name="Trazado 1279653" d="M246.757,191.325a48.063,48.063,0,0,0-13.678,8.474c-.816.72.382,1.911,1.195,1.195a45.638,45.638,0,0,1,12.932-8.039.874.874,0,0,0,.591-1.039.85.85,0,0,0-1.039-.591Z" transform="translate(-232.806 -191.282)" fill="#421b36"/>
            </g>
          </g>
        </g>
        <g id="Grupo_1191643" data-name="Grupo 1191643" transform="translate(11.471 167.448)">
          <g id="Grupo_1191642" data-name="Grupo 1191642">
            <path id="Trazado_1279654" data-name="Trazado 1279654" d="M193.619,234.545a112.258,112.258,0,0,1,18.9-18.463,101.355,101.355,0,0,1,10.574-7.165c3.639-2.122,9.459-4.278,12.509.02.624.88,2.089.037,1.458-.853-5.919-8.34-17.49.761-23.065,4.805a113.579,113.579,0,0,0-21.572,20.461c-.678.836.509,2.039,1.195,1.193Z" transform="translate(-192.222 -204.68)" fill="#421b36"/>
          </g>
        </g>
        <g id="Grupo_1191645" data-name="Grupo 1191645" transform="translate(49.786 130.29)">
          <g id="Grupo_1191644" data-name="Grupo 1191644">
            <path id="Trazado_1279655" data-name="Trazado 1279655" d="M222.266,214.461a326.2,326.2,0,0,1,2.808-36.478c.143-1.074-1.547-1.063-1.689,0a326.206,326.206,0,0,0-2.808,36.478.845.845,0,0,0,1.689,0Z" transform="translate(-220.577 -177.182)" fill="#421b36"/>
          </g>
        </g>
        <g id="Grupo_1191647" data-name="Grupo 1191647" transform="translate(37.844 186.126)">
          <g id="Grupo_1191646" data-name="Grupo 1191646">
            <path id="Trazado_1279656" data-name="Trazado 1279656" d="M213.228,256.5a96.98,96.98,0,0,0,16.817-16.715,95.934,95.934,0,0,0,6.493-9.344c2.05-3.374,3.858-7.081,3.4-11.133-.12-1.068-1.811-1.08-1.689,0,.47,4.171-1.635,7.842-3.773,11.255a93.905,93.905,0,0,1-6.7,9.371,97.054,97.054,0,0,1-15.745,15.372c-.857.668.346,1.855,1.195,1.195Z" transform="translate(-211.739 -218.502)" fill="#421b36"/>
          </g>
        </g>
        <g id="Grupo_1191649" data-name="Grupo 1191649" transform="translate(144.266 128.393)">
          <g id="Grupo_1191648" data-name="Grupo 1191648">
            <path id="Trazado_1279657" data-name="Trazado 1279657" d="M292.192,239.752c2.694-20.977,2.831-42.187,5.431-63.171.134-1.076-1.557-1.066-1.689,0-2.6,20.984-2.736,42.194-5.431,63.171-.138,1.074,1.553,1.065,1.689,0Z" transform="translate(-290.495 -175.778)" fill="#421b36"/>
          </g>
        </g>
        <g id="Grupo_1191651" data-name="Grupo 1191651" transform="translate(185.17 115.644)">
          <g id="Grupo_1191650" data-name="Grupo 1191650">
            <path id="Trazado_1279658" data-name="Trazado 1279658" d="M321.53,166.955a71.751,71.751,0,0,0,1.8,29.613.846.846,0,0,0,1.63-.449,69.688,69.688,0,0,1-1.8-28.716c.15-1.063-1.478-1.523-1.628-.449Z" transform="translate(-320.766 -166.343)" fill="#421b36"/>
          </g>
        </g>
      </g>
    </g>
  </g>
</svg>
