<svg xmlns="http://www.w3.org/2000/svg" width="173" height="167" viewBox="0 0 173 167">
  <g id="Grupo_1191313" data-name="Grupo 1191313" transform="translate(-254.051 -3132)">
    <rect id="Rect치ngulo_411643" data-name="Rect치ngulo 411643" width="173" height="167" rx="7" transform="translate(254.051 3132)" fill="#070e4a"/>
    <g id="Fill_out_line" data-name="Fill out line" transform="translate(261.148 3130.725)">
      <rect id="Rect치ngulo_411973" data-name="Rect치ngulo 411973" width="122" height="84" rx="13" transform="translate(18 39.276)" fill="#91d3ee"/>
      <path id="Trazado_1279011" data-name="Trazado 1279011" d="M24,376H146.067v4.209a8.418,8.418,0,0,1-8.418,8.418H32.418A8.418,8.418,0,0,1,24,380.209Z" transform="translate(-5.895 -265.293)" fill="#37a5ca"/>
      <path id="Trazado_1279012" data-name="Trazado 1279012" d="M58.1,136H159.125a2.1,2.1,0,0,1,2.1,2.1v61.033H56V138.1A2.1,2.1,0,0,1,58.1,136Z" transform="translate(-29.477 -88.431)" fill="#a9ca2a"/>
      <path id="Trazado_1279013" data-name="Trazado 1279013" d="M200.418,424v8.418A8.418,8.418,0,0,1,192,440.837h33.674a8.418,8.418,0,0,1-8.418-8.418V424Z" transform="translate(-129.699 -300.665)" fill="#91d3ee"/>
      <path id="Trazado_1279014" data-name="Trazado 1279014" d="M142.72,99.766H88V24h37.883L142.72,40.837Z" transform="translate(-53.059 -5.895)" fill="#cbdbe7"/>
      <path id="Trazado_1279015" data-name="Trazado 1279015" d="M232,24V40.837h16.837Z" transform="translate(-159.176 -5.895)" fill="#adb9c3"/>
      <path id="Trazado_1279016" data-name="Trazado 1279016" d="M120,296h8.418v12.628H120Z" transform="translate(-76.64 -206.339)" fill="#eb4042"/>
      <path id="Trazado_1279017" data-name="Trazado 1279017" d="M176,272h8.418v18.941H176Z" transform="translate(-117.908 -188.653)" fill="#f5c533"/>
      <path id="Trazado_1279018" data-name="Trazado 1279018" d="M232,248h8.418v25.255H232Z" transform="translate(-159.176 -170.967)" fill="#37a5ca"/>
      <path id="Trazado_1279019" data-name="Trazado 1279019" d="M376.837,222.647a16.784,16.784,0,0,1-4.93,11.907L360,222.647l11.907-11.907a16.784,16.784,0,0,1,4.93,11.907Z" transform="translate(-253.502 -143.509)" fill="#f5c533"/>
      <path id="Trazado_1279020" data-name="Trazado 1279020" d="M338.554,267.907a16.843,16.843,0,0,1-23.814,0L326.647,256Z" transform="translate(-220.149 -176.862)" fill="#eb4042"/>
      <path id="Trazado_1279021" data-name="Trazado 1279021" d="M324.738,196.925l-23.814,23.814a16.839,16.839,0,1,1,23.814-23.814Z" transform="translate(-206.334 -129.693)" fill="#37a5ca"/>
      <path id="Trazado_1279022" data-name="Trazado 1279022" d="M131.753,96H95.975v4.209h35.778a6.321,6.321,0,0,1,6.314,6.314v61.033h-4.209V108.628a4.214,4.214,0,0,0-4.209-4.209H95.975v4.209h33.674v58.929H28.627l0-58.929h0v-4.209a4.214,4.214,0,0,0-4.209,4.209v58.929H20.209V106.523a6.321,6.321,0,0,1,6.314-6.314h2.1V96h-2.1A10.535,10.535,0,0,0,16,106.523V173.87a10.535,10.535,0,0,0,10.523,10.523H68.615v6.314a6.321,6.321,0,0,1-6.314,6.314,2.1,2.1,0,0,0,0,4.209H95.975a2.1,2.1,0,1,0,0-4.209,6.321,6.321,0,0,1-6.314-6.314v-6.314h42.092a10.535,10.535,0,0,0,10.523-10.523V106.523A10.535,10.535,0,0,0,131.753,96ZM87.561,197.021H70.715a10.469,10.469,0,0,0,2.11-6.314v-6.314H85.452v6.314a10.469,10.469,0,0,0,2.11,6.314Zm44.192-16.837H26.523a6.321,6.321,0,0,1-6.314-6.314v-2.1H138.067v2.1a6.321,6.321,0,0,1-6.314,6.314Z" transform="translate(0 -58.954)"/>
      <circle id="Elipse_12335" data-name="Elipse 12335" cx="2" cy="2" r="2" transform="translate(77 115.276)"/>
      <path id="Trazado_1279023" data-name="Trazado 1279023" d="M84.209,20.209h33.674V34.941a2.1,2.1,0,0,0,2.1,2.1H134.72V62.3h4.209V34.941a2.1,2.1,0,0,0-.617-1.488L121.476,16.616A2.1,2.1,0,0,0,119.987,16H82.1A2.1,2.1,0,0,0,80,18.1V93.87h4.209Zm37.883,2.976,9.651,9.651h-9.651Z" transform="translate(-47.163)"/>
      <path id="Trazado_1279024" data-name="Trazado 1279024" d="M112,48h8.418v4.209H112Z" transform="translate(-70.745 -23.582)"/>
      <path id="Trazado_1279025" data-name="Trazado 1279025" d="M112,80h8.418v4.209H112Z" transform="translate(-70.745 -47.163)"/>
      <path id="Trazado_1279026" data-name="Trazado 1279026" d="M128,112h12.628v4.209H128Z" transform="translate(-82.536 -70.745)"/>
      <path id="Trazado_1279027" data-name="Trazado 1279027" d="M192,112h21.046v4.209H192Z" transform="translate(-129.699 -70.745)"/>
      <path id="Trazado_1279028" data-name="Trazado 1279028" d="M112,144h12.628v4.209H112Z" transform="translate(-70.745 -94.326)"/>
      <path id="Trazado_1279029" data-name="Trazado 1279029" d="M176,144h12.628v4.209H176Z" transform="translate(-117.908 -94.326)"/>
      <path id="Trazado_1279030" data-name="Trazado 1279030" d="M240,144h8.418v4.209H240Z" transform="translate(-165.071 -94.326)"/>
      <path id="Trazado_1279031" data-name="Trazado 1279031" d="M112,176h25.255v4.209H112Z" transform="translate(-70.745 -117.908)"/>
      <path id="Trazado_1279032" data-name="Trazado 1279032" d="M224,176h12.628v4.209H224Z" transform="translate(-153.28 -117.908)"/>
      <path id="Trazado_1279033" data-name="Trazado 1279033" d="M112,208h16.837v4.209H112Z" transform="translate(-70.745 -141.49)"/>
      <path id="Trazado_1279034" data-name="Trazado 1279034" d="M114.1,288a2.1,2.1,0,0,0-2.1,2.1v12.628a2.1,2.1,0,0,0,2.1,2.1h8.418a2.1,2.1,0,0,0,2.1-2.1V290.1a2.1,2.1,0,0,0-2.1-2.1Zm6.314,12.628h-4.209v-8.418h4.209Z" transform="translate(-70.745 -200.444)"/>
      <path id="Trazado_1279035" data-name="Trazado 1279035" d="M170.1,287.151h8.418a2.1,2.1,0,0,0,2.1-2.1V266.1a2.1,2.1,0,0,0-2.1-2.1H170.1a2.1,2.1,0,0,0-2.1,2.1v18.941a2.1,2.1,0,0,0,2.1,2.1Zm2.1-18.941h4.209v14.732h-4.209Z" transform="translate(-112.013 -182.757)"/>
      <path id="Trazado_1279036" data-name="Trazado 1279036" d="M226.1,269.464h8.418a2.1,2.1,0,0,0,2.1-2.1V242.1a2.1,2.1,0,0,0-2.1-2.1H226.1a2.1,2.1,0,0,0-2.1,2.1V267.36a2.1,2.1,0,0,0,2.1,2.1Zm2.1-25.255h4.209v21.046h-4.209Z" transform="translate(-153.28 -165.071)"/>
      <path id="Trazado_1279037" data-name="Trazado 1279037" d="M306.941,221.883A18.941,18.941,0,1,0,288,202.941,18.941,18.941,0,0,0,306.941,221.883Zm-8.818-7.147,8.818-8.818,8.818,8.818A14.7,14.7,0,0,1,298.123,214.736Zm20.612-2.976-8.818-8.818,8.818-8.818A14.7,14.7,0,0,1,318.736,211.759Zm-11.794-23.55a14.655,14.655,0,0,1,8.818,2.938l-20.612,20.612a14.725,14.725,0,0,1,11.794-23.55Z" transform="translate(-200.444 -123.803)"/>
    </g>
  </g>
</svg>
