<svg xmlns="http://www.w3.org/2000/svg" xmlns:xlink="http://www.w3.org/1999/xlink" width="400" height="250.878" viewBox="0 0 400 250.878">
  <defs>
    <clipPath id="clip-path">
      <rect id="Rectángulo_412101" data-name="Rectángulo 412101" width="400" height="250.878" rx="7" transform="translate(915 3435.211)" fill="#12263f"/>
    </clipPath>
    <clipPath id="clip-path-2">
      <rect id="Rectángulo_412100" data-name="Rectángulo 412100" width="400.08" height="183.655" rx="14" transform="translate(0 -63)" fill="#111d96"/>
    </clipPath>
    <linearGradient id="linear-gradient" x1="0.607" y1="0.434" x2="0.284" y2="0.705" gradientUnits="objectBoundingBox">
      <stop offset="0" stop-color="#31ba5c"/>
      <stop offset="0.565" stop-color="#31ba5c" stop-opacity="0.337"/>
      <stop offset="1" stop-color="#31ba5c" stop-opacity="0"/>
    </linearGradient>
  </defs>
  <g id="Grupo_1192393" data-name="Grupo 1192393" transform="translate(-915 -3435.211)">
    <g id="Enmascarar_grupo_1099245" data-name="Enmascarar grupo 1099245" clip-path="url(#clip-path)">
      <rect id="Rectángulo_411928" data-name="Rectángulo 411928" width="400" height="183.655" rx="7" transform="translate(915 3502.434)" fill="#12263f"/>
      <g id="Enmascarar_grupo_1099244" data-name="Enmascarar grupo 1099244" transform="translate(915.051 3565.434)" clip-path="url(#clip-path-2)">
        <g id="Grupo_1192378" data-name="Grupo 1192378" transform="translate(-170.203 -82.965)">
          <path id="Trazado_1280218" data-name="Trazado 1280218" d="M0,117.417c24.214,65.157,74.113,120.372,136.494,151.038,16.406,8.064,36.965,14.2,52.1,3.938,7.384-5.007,12.089-13.271,14.381-21.893,7.318-27.519-7.879-56.793-2.8-84.812,4.173-23.035,22.457-42.295,44.516-50.132s47.137-4.969,68.2,5.252c27.911,13.544,48.893,38.837,77.1,51.745,26.869,12.294,59.41,11.853,85.59-1.85s45.218-40.569,48.723-69.909-8.94-60.265-32.255-78.418C472.892,7.465,448.107,1.544,423.875.161,408.868-.7,391.1,1.559,383.7,14.642c-7.66,13.542.284,30.269,8.125,43.707l24.716,42.364c4.889,8.381,9.87,17.01,11.4,26.591s-1.141,20.47-9.037,26.108c-9.091,6.491-22.286,3.971-31.141-2.839s-14.377-16.967-19.67-26.8c-12.89-23.957-26.139-48.112-44.717-67.985S280.035,20.468,252.9,18.542c-36.252-2.572-71.579,20.468-88.753,52.5s-17.723,71.255-6.9,105.95c4.483,14.377,10.89,28.751,9.859,43.775s-13.158,30.753-28.107,28.933c-8.47-1.031-15.316-7.232-21.074-13.53-28.064-30.69-44.725-70.635-52-111.581S60.325,41.565,65.5.3" transform="translate(63.845 0)" fill="#0b1468"/>
          <path id="Trazado_1273760" data-name="Trazado 1273760" d="M-8944.519-13837.08a182.92,182.92,0,0,0-31.9,3.067c-50.224,8.98-99.749,44.827-147.2,106.544a553.413,553.413,0,0,0-55.79,88.987c-2.574,4.546-27.507,49.98-15.645,83.447,4.713,13.291,14.346,22.911,28.632,28.594a29.5,29.5,0,0,0,10.944,2.1c24.263,0,47.787-28.343,77.57-64.227,37.13-44.736,83.342-100.411,136.851-100.411a84.073,84.073,0,0,1,27.81,4.886c46.6,16.328,72.753,48.122,98.048,78.87,29.854,36.289,58.053,70.564,114.547,70.564,16.3,0,33.873-2.833,53.729-8.66,65.435-19.2,103.258-70.134,101.179-136.237-2.024-64.339-40.58-123.186-87.775-133.968a105.016,105.016,0,0,0-23.309-2.721c-37.061,0-63.351,21.444-86.545,40.364-19.476,15.884-36.293,29.6-56.093,29.6a44.984,44.984,0,0,1-8.752-.879c-20.3-4.038-31.461-19.1-44.39-36.536C-8871.158-13808.719-8892.184-13837.08-8944.519-13837.08Zm-210.959,295.462a11.538,11.538,0,0,1-4.345-.834c-9.519-3.785-15.611-9.759-18.626-18.265-8-22.573,7.761-57.858,14.509-69.547l.316-.6c.791-1.661,80.5-166.511,190.355-186.151a164.953,164.953,0,0,1,28.749-2.788c43.389,0,60.054,22.479,77.7,46.276,13.825,18.646,28.118,37.925,55.113,43.3a62.947,62.947,0,0,0,12.242,1.223c26.149,0,47.08-17.073,67.323-33.587,21.927-17.886,44.6-36.382,75.313-36.381a87.209,87.209,0,0,1,19.327,2.274c39.146,8.944,72.425,61.732,74.184,117.678.874,27.748-6.016,94.905-88.638,119.152-18.2,5.342-34.125,7.938-48.694,7.938-48.1,0-72.554-29.729-100.872-64.148-25.574-31.09-54.562-66.321-105.815-84.282a101.861,101.861,0,0,0-33.717-5.891c-61.86,0-111,59.2-150.478,106.77C-9116.234-13569.728-9139.564-13541.618-9155.478-13541.618Z" transform="translate(9198.236 13862.505)" fill="url(#linear-gradient)"/>
        </g>
      </g>
      <g id="Grupo_1192377" data-name="Grupo 1192377" transform="translate(-622.266 2691.887)">
        <g id="Grupo_1192372" data-name="Grupo 1192372" transform="translate(1560.21 743.324)">
          <path id="Trazado_1280212" data-name="Trazado 1280212" d="M1625.607,865.118h143.149a9.8,9.8,0,0,0,9.8-9.8V753.7a9.8,9.8,0,0,0-9.8-9.8H1570.584a9.8,9.8,0,0,0-9.8,9.8V855.315a9.8,9.8,0,0,0,9.8,9.8h31.731l11.613,38.231Z" transform="translate(-1560.291 -743.405)" fill="#fff"/>
          <path id="Trazado_1280213" data-name="Trazado 1280213" d="M1613.847,903.758h0a.491.491,0,0,1-.469-.347l-11.507-37.884H1570.5a10.3,10.3,0,0,1-10.292-10.293V753.616a10.3,10.3,0,0,1,10.292-10.292h198.172a10.3,10.3,0,0,1,10.293,10.292V855.234a10.3,10.3,0,0,1-10.293,10.293H1625.888l-11.572,37.885A.491.491,0,0,1,1613.847,903.758ZM1570.5,744.3a9.323,9.323,0,0,0-9.312,9.312V855.234a9.323,9.323,0,0,0,9.312,9.313h31.732a.491.491,0,0,1,.469.347l11.145,36.692,11.209-36.693a.491.491,0,0,1,.469-.346h143.149a9.324,9.324,0,0,0,9.313-9.313V753.616a9.323,9.323,0,0,0-9.313-9.312Z" transform="translate(-1560.21 -743.324)" fill="#361524"/>
        </g>
        <g id="Grupo_1192373" data-name="Grupo 1192373" transform="translate(1580.898 770.165)">
          <path id="Trazado_1280214" data-name="Trazado 1280214" d="M1584.824,827.566a.49.49,0,0,1-.425-.732c.091-.16,2.6-14.932,18.168-14.932.121,0,.241,0,.363,0,9,.141,13.613,3.667,17.686,6.778,3.086,2.357,5.75,4.392,9.766,4.495,6.054.153,8.2-2.206,10.49-4.7a16.983,16.983,0,0,1,4.457-3.814,14.7,14.7,0,0,1,7.624-1.692,10.9,10.9,0,0,0,5.37-1.009c1.341-.709,2.8-4.513,4.491-8.916,3.256-8.488,7.717-20.111,16.329-24.9a26.345,26.345,0,0,1,35.2,8.493c2.87,4.406,4.643,9.322,6.358,14.076.782,2.167,1.59,4.408,2.493,6.572,2.456,5.9,5.916,9.595,10.282,10.993a14.508,14.508,0,0,0,15.136-4.254,88.84,88.84,0,0,0,10.96-15.585.49.49,0,1,1,.865.458,89.862,89.862,0,0,1-11.1,15.782,15.489,15.489,0,0,1-16.163,4.532c-4.653-1.49-8.316-5.375-10.889-11.55-.911-2.185-1.723-4.437-2.509-6.616-1.7-4.7-3.45-9.562-6.257-13.873a25.373,25.373,0,0,0-33.905-8.171c-8.3,4.612-12.688,16.042-15.891,24.389-1.906,4.964-3.282,8.55-4.948,9.431a11.681,11.681,0,0,1-5.815,1.123,13.7,13.7,0,0,0-7.168,1.572,16.2,16.2,0,0,0-4.2,3.616c-2.335,2.55-4.779,5.173-11.238,5.022-4.333-.111-7.248-2.339-10.336-4.7-3.953-3.02-8.434-6.441-17.107-6.577-.116,0-.232,0-.347,0-15.006,0-17.228,14.281-17.317,14.436A.489.489,0,0,1,1584.824,827.566Z" transform="translate(-1584.333 -774.622)" fill="#e95a73"/>
        </g>
        <g id="Grupo_1192374" data-name="Grupo 1192374" transform="translate(1580.84 760.151)">
          <path id="Trazado_1280215" data-name="Trazado 1280215" d="M1761.712,851.168H1584.266V762.945h.98v87.243h176.466Z" transform="translate(-1584.266 -762.945)" fill="#5dace1"/>
        </g>
        <g id="Grupo_1192375" data-name="Grupo 1192375" transform="translate(1753.427 840.952)">
          <path id="Trazado_1280216" data-name="Trazado 1280216" d="M1785.509,857.163l6.932,6.931-6.932,6.931Z" transform="translate(-1785.509 -857.163)" fill="#5dace1"/>
        </g>
        <g id="Grupo_1192376" data-name="Grupo 1192376" transform="translate(1574.407 759.469)">
          <path id="Trazado_1280217" data-name="Trazado 1280217" d="M1576.765,769.081l6.931-6.931,6.932,6.931Z" transform="translate(-1576.765 -762.15)" fill="#5dace1"/>
        </g>
      </g>
      <g id="Grupo_1192371" data-name="Grupo 1192371" transform="translate(83.383 2734.432)">
        <g id="Grupo_1192331" data-name="Grupo 1192331" transform="translate(1087.561 713.306)">
          <g id="Grupo_1192326" data-name="Grupo 1192326" transform="translate(0)">
            <g id="Grupo_1192315" data-name="Grupo 1192315">
              <path id="Trazado_1280173" data-name="Trazado 1280173" d="M1159.28,729.453c-4.293-6.554-13.473-8.475-21.014-7.7-1.489-4.871-7.48-7.881-12.47-8.369a17.276,17.276,0,0,0-14.06,5.244,9.372,9.372,0,0,0-3.291-.6c-4.875,0-8.827,3.671-8.827,8.2a7.835,7.835,0,0,0,2.167,5.37c.063.374-3.059,6.454,3.038,12.605,5.608,4.519,12.757,1.068,17.574-2.8a.527.527,0,0,0,.176-.657c5.726-2.84,12.516-3.61,18.488-1.035,6.685,2.882,8.968,10.292,14.5,14.565q-.793,2.7-1.606,5.384c-.25.827,2.028,5.7,2.277,4.88,1.765-5.839,4.142-15.337,4.763-21.41C1161.542,737.781,1161.858,733.388,1159.28,729.453Z" transform="translate(-1099.619 -713.306)" fill="#942f51"/>
            </g>
            <g id="Grupo_1192316" data-name="Grupo 1192316" transform="translate(23.43 49.481)">
              <path id="Trazado_1280174" data-name="Trazado 1280174" d="M1163.048,823.335l-15.207,10.5-18.206-9.919.91-10.067.857-9.544.295-3.24,24.792-24.364.308,2.182,1.526,10.87.08.6Z" transform="translate(-1129.635 -776.696)" fill="#ffa6a6"/>
            </g>
            <g id="Grupo_1192317" data-name="Grupo 1192317" transform="translate(9.926 16.467)">
              <path id="Trazado_1280175" data-name="Trazado 1280175" d="M1154.526,780.467a3.64,3.64,0,0,1-.147.415,33.961,33.961,0,0,1-3.534,7.162c-5.368,8.059-14.672,10.508-23.239,6.974-.549-.228-1.1-.468-1.633-.75-7.47-3.8-11-10.883-12.516-18.982a95.174,95.174,0,0,1-.428-25.97c.013-.147.041-.294.067-.442,1.138-6.76,13.293-16.237,22.342-14.189s18.688,8.982,20.923,10.869C1158.221,747.122,1159.627,766.131,1154.526,780.467Z" transform="translate(-1112.336 -734.402)" fill="#ffa6a1"/>
            </g>
            <g id="Grupo_1192318" data-name="Grupo 1192318" transform="translate(24.341 72.398)">
              <path id="Trazado_1280176" data-name="Trazado 1280176" d="M1151.323,806.056a26.691,26.691,0,0,1-12.155,11.151,41.465,41.465,0,0,1-8.366,3.079l.856-9.545a28.947,28.947,0,0,0,11.861-1.178C1149.127,807.663,1151.123,806.2,1151.323,806.056Z" transform="translate(-1130.802 -806.056)" fill="#361524"/>
            </g>
            <g id="Grupo_1192319" data-name="Grupo 1192319" transform="translate(17.558 44.073)">
              <path id="Trazado_1280177" data-name="Trazado 1280177" d="M1124.178,770.251a1.374,1.374,0,0,0-.414-.363.955.955,0,0,0-.883-.02,1.528,1.528,0,0,0-.707,1.137,4.564,4.564,0,0,0,.6,3.168,1.15,1.15,0,0,0,2.182-.262,3.1,3.1,0,0,0,.075-1.268,5.885,5.885,0,0,0-.509-1.81A2.984,2.984,0,0,0,1124.178,770.251Z" transform="translate(-1122.113 -769.769)" fill="#361524"/>
            </g>
            <g id="Grupo_1192320" data-name="Grupo 1192320" transform="translate(32.649 43.786)">
              <path id="Trazado_1280178" data-name="Trazado 1280178" d="M1143.486,769.866a1.363,1.363,0,0,0-.419-.355.954.954,0,0,0-.883,0,1.527,1.527,0,0,0-.688,1.149,4.57,4.57,0,0,0,.656,3.157,1.15,1.15,0,0,0,2.178-.3,3.1,3.1,0,0,0,.053-1.268,5.892,5.892,0,0,0-.541-1.8A2.951,2.951,0,0,0,1143.486,769.866Z" transform="translate(-1141.446 -769.4)" fill="#361524"/>
            </g>
            <g id="Grupo_1192321" data-name="Grupo 1192321" transform="translate(25.131 47.528)">
              <path id="Trazado_1280179" data-name="Trazado 1280179" d="M1134.043,783.1a.617.617,0,0,1-.427-.169,6.326,6.326,0,0,1-1.777-2.768c-.226-1.222,1.192-4.59,1.632-5.593a.624.624,0,0,1,1.143.5c-.828,1.888-1.656,4.284-1.548,4.865a5.259,5.259,0,0,0,1.4,2.086.624.624,0,0,1-.427,1.078Z" transform="translate(-1131.815 -774.195)" fill="#361524"/>
            </g>
            <g id="Grupo_1192322" data-name="Grupo 1192322" transform="translate(30.587 36.114)">
              <path id="Trazado_1280180" data-name="Trazado 1280180" d="M1149.7,761.941a1.629,1.629,0,0,0-.073-.191,2.715,2.715,0,0,0-1.026-1.109,7.445,7.445,0,0,0-3.538-1.025,9.631,9.631,0,0,0-3.188.208c-1.238.325-4.212,1.944-2.609,3.539a3.373,3.373,0,0,0,1.918.761,17.608,17.608,0,0,0,7.062-.213,2.206,2.206,0,0,0,1.291-.7A1.442,1.442,0,0,0,1149.7,761.941Z" transform="translate(-1138.805 -759.573)" fill="#942f51"/>
            </g>
            <g id="Grupo_1192323" data-name="Grupo 1192323" transform="translate(12.655 36.322)">
              <path id="Trazado_1280181" data-name="Trazado 1280181" d="M1116.071,763.475a2.2,2.2,0,0,0,1.291.7,17.6,17.6,0,0,0,7.062.213,3.368,3.368,0,0,0,1.917-.761c1.6-1.6-1.371-3.214-2.609-3.539a9.634,9.634,0,0,0-3.188-.208,7.442,7.442,0,0,0-3.538,1.025,2.721,2.721,0,0,0-1.027,1.109,1.765,1.765,0,0,0-.072.191A1.44,1.44,0,0,0,1116.071,763.475Z" transform="translate(-1115.832 -759.839)" fill="#942f51"/>
            </g>
            <g id="Grupo_1192324" data-name="Grupo 1192324" transform="translate(23.716 56.313)">
              <path id="Trazado_1280182" data-name="Trazado 1280182" d="M1134.145,790.756c-2.773,0-3.82-.926-3.955-1.057a.624.624,0,0,1,.862-.9c.045.038,1.405,1.152,5.422.509a11.344,11.344,0,0,0,6.61-3.621.624.624,0,0,1,.977.777,12.489,12.489,0,0,1-7.39,4.076A16.013,16.013,0,0,1,1134.145,790.756Z" transform="translate(-1130.002 -785.449)" fill="#361524"/>
            </g>
            <g id="Grupo_1192325" data-name="Grupo 1192325" transform="translate(9.926 14.315)">
              <path id="Trazado_1280183" data-name="Trazado 1280183" d="M1156.708,743c-1.683-2.393-12.449-9.029-21.512-11.064s-21.722,7.3-22.86,14.056c-.027.148.487,4.2.474,4.352a32.115,32.115,0,0,0,9-.838,23.824,23.824,0,0,0,10.4-6.091,14.028,14.028,0,0,0,7.027.228c4.123-.777,8.982-1.888,11.406,2.6,1.968,3.641,3.882,34.175,3.962,34.229C1154.607,780.465,1166.315,756.659,1156.708,743Z" transform="translate(-1112.335 -731.645)" fill="#942f51"/>
            </g>
          </g>
          <g id="Grupo_1192327" data-name="Grupo 1192327" transform="translate(9.784 39.915)">
            <path id="Trazado_1280184" data-name="Trazado 1280184" d="M1119.573,778.845a7.205,7.205,0,1,1,7.42-7.2A7.322,7.322,0,0,1,1119.573,778.845Zm0-13.156a5.958,5.958,0,1,0,6.173,5.954A6.073,6.073,0,0,0,1119.573,765.689Z" transform="translate(-1112.153 -764.441)" fill="#fff"/>
          </g>
          <g id="Grupo_1192328" data-name="Grupo 1192328" transform="translate(28.793 39.915)">
            <path id="Trazado_1280185" data-name="Trazado 1280185" d="M1143.927,778.845a7.205,7.205,0,1,1,7.42-7.2A7.322,7.322,0,0,1,1143.927,778.845Zm0-13.156a5.958,5.958,0,1,0,6.172,5.954A6.073,6.073,0,0,0,1143.927,765.689Z" transform="translate(-1136.506 -764.441)" fill="#fff"/>
          </g>
          <g id="Grupo_1192329" data-name="Grupo 1192329" transform="translate(42.359 38.68)">
            <rect id="Rectángulo_412097" data-name="Rectángulo 412097" width="10.817" height="1.248" transform="translate(0 5.955) rotate(-33.404)" fill="#fff"/>
          </g>
          <g id="Grupo_1192330" data-name="Grupo 1192330" transform="translate(45.654 38.075)">
            <path id="Trazado_1280186" data-name="Trazado 1280186" d="M1170.262,770.334c0,4.556-2.721,8.25-6.078,8.25s-6.077-3.694-6.077-8.25,2.721-8.25,6.077-8.25S1170.262,765.777,1170.262,770.334Z" transform="translate(-1158.107 -762.084)" fill="#ffa6a6"/>
          </g>
        </g>
        <g id="Grupo_1192332" data-name="Grupo 1192332" transform="translate(1156.842 813.243)">
          <path id="Trazado_1280187" data-name="Trazado 1280187" d="M1206.243,841.337s20.051,8.179,28.973,44.387c6.886,27.944,11.3,60.372.1,72.02-13.829,14.378-47.525,5.427-46.93,1.264S1206.243,841.337,1206.243,841.337Z" transform="translate(-1188.376 -841.337)" fill="#361524"/>
        </g>
        <g id="Grupo_1192333" data-name="Grupo 1192333" transform="translate(1044.668 810.492)">
          <path id="Trazado_1280188" data-name="Trazado 1280188" d="M1087.7,837.813s-17.845,4.907-26.469,26.915-19.628,60.075-15.762,74.35,15.167,19.926,27.063,17.249,40.366-21.413,41.893-27.658S1087.7,837.813,1087.7,837.813Z" transform="translate(-1044.668 -837.813)" fill="#361524"/>
        </g>
        <g id="Grupo_1192334" data-name="Grupo 1192334" transform="translate(1049.803 806.775)">
          <path id="Trazado_1280189" data-name="Trazado 1280189" d="M1087.949,1030.524l16.358-190.536-4.313-6.939s-20.075,3.569-26.023,18.736c-4.77,12.164-17.765,131.824-22.725,178.738Z" transform="translate(-1051.247 -833.05)" fill="#361524"/>
        </g>
        <g id="Grupo_1192335" data-name="Grupo 1192335" transform="translate(1068.514 949.676)">
          <path id="Trazado_1280190" data-name="Trazado 1280190" d="M1186.3,1047.35s-18.29-31.227-19.628-31.227l-91.451,24.312V1138.8H1122.5l7.356-51.747,10.489,51.747h47.733Z" transform="translate(-1075.217 -1016.123)" fill="#942f51"/>
        </g>
        <g id="Grupo_1192336" data-name="Grupo 1192336" transform="translate(1114.068 967.52)">
          <path id="Trazado_1280191" data-name="Trazado 1280191" d="M1142.326,1082.052a5.947,5.947,0,0,1-3.712-1.416c-2.7-2.186-4.263-6.511-4.642-12.851a255.989,255.989,0,0,1,0-28.385.446.446,0,0,1,.891.059,254.6,254.6,0,0,0,0,28.271c.452,7.575,2.594,10.822,4.313,12.212a4.8,4.8,0,0,0,3.428,1.2.446.446,0,0,1,.134.882A2.962,2.962,0,0,1,1142.326,1082.052Z" transform="translate(-1133.578 -1038.984)" fill="#361524"/>
        </g>
        <g id="Grupo_1192337" data-name="Grupo 1192337" transform="translate(1122.715 974.658)">
          <path id="Trazado_1280192" data-name="Trazado 1280192" d="M1145.1,1093.631a.446.446,0,0,1-.446-.447v-44.61a.446.446,0,0,1,.892,0v44.61A.446.446,0,0,1,1145.1,1093.631Z" transform="translate(-1144.655 -1048.128)" fill="#361524"/>
        </g>
        <g id="Grupo_1192338" data-name="Grupo 1192338" transform="translate(1064.793 801.062)">
          <path id="Trazado_1280193" data-name="Trazado 1280193" d="M1168.521,834.162s-.071,1.187-.2,3.3c-.018.285-.036.58-.054.892-.036.571-.071,1.2-.116,1.865-.017.285-.035.589-.062.892-.267,4.3-.633,10.287-1.052,17.157-.027.294-.044.589-.062.892-.233,3.872-.491,8-.749,12.25-.027.3-.045.6-.063.892-.08,1.329-.16,2.659-.24,4.007-.018.294-.036.589-.054.892-.347,5.736-.7,11.571-1.026,17.157-.026.3-.045.6-.054.892-.214,3.506-.419,6.906-.606,10.108-.009.3-.027.6-.045.892-.125,2.15-.241,4.211-.348,6.156-.018.3-.036.6-.054.892-.472,8.431-.784,14.516-.784,15.988,0,.276,0,.669-.009,1.169,0,.268-.009.562-.009.892-.018,1.838-.062,4.6-.125,7.967-.01.294-.01.589-.018.892-.044,2.5-.089,5.3-.151,8.3,0,.294-.009.6-.018.892-.09,5.362-.205,11.286-.322,17.157,0,.3-.009.6-.009.892-.036,1.955-.08,3.908-.116,5.818-.009.294-.009.6-.018.892-.071,3.676-.143,7.209-.205,10.448-.009.3-.009.6-.017.892l-.322,15.836H1070.45l2.2-15.836.125-.892,1.446-10.448.125-.892.8-5.818.125-.892,2.381-17.157.125-.892,1.151-8.3.125-.892,1.106-7.967.125-.892,2.374-17.157.125-.892.856-6.156.125-.892,1.4-10.108.071-.509s.036-.133.116-.383c.49-1.659,2.542-8.53,5.13-17.157.089-.3.179-.589.268-.892.383-1.3.785-2.641,1.2-4.007.089-.294.178-.589.267-.892,1.187-3.988,2.436-8.163,3.659-12.25.089-.294.178-.6.268-.892,1.9-6.335,3.72-12.4,5.148-17.157.089-.3.179-.6.258-.892.2-.652.384-1.276.562-1.865.1-.3.188-.6.268-.892,1.107-3.667,1.8-5.951,1.838-6.023.447-.892,22.341-3.64,22.341-3.64s5.5,3.007,11.135,2.56,10.34-4.63,10.34-4.63Z" transform="translate(-1070.45 -825.731)" fill="#fff"/>
        </g>
        <g id="Grupo_1192357" data-name="Grupo 1192357" transform="translate(1066.988 815.551)">
          <g id="Grupo_1192340" data-name="Grupo 1192340" transform="translate(28.64)">
            <g id="Grupo_1192339" data-name="Grupo 1192339">
              <path id="Trazado_1280194" data-name="Trazado 1280194" d="M1176.814,844.294c-.017.285-.035.589-.062.892h-66.8c.089-.3.179-.6.258-.892Z" transform="translate(-1109.953 -844.294)" fill="#ffc29e"/>
            </g>
          </g>
          <g id="Grupo_1192342" data-name="Grupo 1192342" transform="translate(23.224 18.049)">
            <g id="Grupo_1192341" data-name="Grupo 1192341">
              <path id="Trazado_1280195" data-name="Trazado 1280195" d="M1174.177,867.417c-.027.294-.044.589-.062.892h-71.1c.089-.294.178-.6.268-.892Z" transform="translate(-1103.015 -867.417)" fill="#ffc29e"/>
            </g>
          </g>
          <g id="Grupo_1192344" data-name="Grupo 1192344" transform="translate(17.835 36.09)">
            <g id="Grupo_1192343" data-name="Grupo 1192343">
              <path id="Trazado_1280196" data-name="Trazado 1280196" d="M1171.547,890.529c-.018.294-.036.589-.054.892h-75.382c.089-.3.179-.589.268-.892Z" transform="translate(-1096.111 -890.529)" fill="#ffc29e"/>
            </g>
          </g>
          <g id="Grupo_1192346" data-name="Grupo 1192346" transform="translate(12.518 54.139)">
            <g id="Grupo_1192345" data-name="Grupo 1192345">
              <path id="Trazado_1280197" data-name="Trazado 1280197" d="M1168.973,913.652c-.026.3-.044.6-.054.892H1089.3l.071-.509s.036-.133.116-.383Z" transform="translate(-1089.299 -913.652)" fill="#ffc29e"/>
            </g>
          </g>
          <g id="Grupo_1192348" data-name="Grupo 1192348" transform="translate(10.011 72.188)">
            <g id="Grupo_1192347" data-name="Grupo 1192347">
              <path id="Trazado_1280198" data-name="Trazado 1280198" d="M1167.215,936.775c-.018.3-.036.6-.054.892h-81.074l.125-.892Z" transform="translate(-1086.087 -936.775)" fill="#ffc29e"/>
            </g>
          </g>
          <g id="Grupo_1192350" data-name="Grupo 1192350" transform="translate(7.512 90.237)">
            <g id="Grupo_1192349" data-name="Grupo 1192349">
              <path id="Trazado_1280199" data-name="Trazado 1280199" d="M1165.665,959.9c0,.268-.009.562-.009.892h-82.77l.125-.892Z" transform="translate(-1082.886 -959.898)" fill="#ffc29e"/>
            </g>
          </g>
          <g id="Grupo_1192352" data-name="Grupo 1192352" transform="translate(5.005 108.286)">
            <g id="Grupo_1192351" data-name="Grupo 1192351">
              <path id="Trazado_1280200" data-name="Trazado 1280200" d="M1164.657,983.021c0,.294-.009.6-.018.892h-84.965l.125-.892Z" transform="translate(-1079.674 -983.021)" fill="#ffc29e"/>
            </g>
          </g>
          <g id="Grupo_1192354" data-name="Grupo 1192354" transform="translate(2.499 126.335)">
            <g id="Grupo_1192353" data-name="Grupo 1192353">
              <path id="Trazado_1280201" data-name="Trazado 1280201" d="M1163.613,1006.144c0,.3-.009.6-.009.892h-87.141l.125-.892Z" transform="translate(-1076.463 -1006.144)" fill="#ffc29e"/>
            </g>
          </g>
          <g id="Grupo_1192356" data-name="Grupo 1192356" transform="translate(0 144.385)">
            <g id="Grupo_1192355" data-name="Grupo 1192355">
              <path id="Trazado_1280202" data-name="Trazado 1280202" d="M1162.562,1029.268c-.009.3-.009.6-.017.892h-89.283l.125-.892Z" transform="translate(-1073.262 -1029.268)" fill="#ffc29e"/>
            </g>
          </g>
        </g>
        <g id="Grupo_1192358" data-name="Grupo 1192358" transform="translate(1144.499 803.584)">
          <path id="Trazado_1280203" data-name="Trazado 1280203" d="M1225.907,1029.627c-2.787-47.9-10.147-171.72-12.3-180.82-2.677-11.3-37.033-19.844-37.033-19.844s-.142,32.931-2.819,75.458c-1.96,31.142-1.049,93.856-.422,125.206Z" transform="translate(-1172.563 -828.963)" fill="#361524"/>
        </g>
        <g id="Grupo_1192359" data-name="Grupo 1192359" transform="translate(1100.534 782.398)">
          <path id="Trazado_1280204" data-name="Trazado 1280204" d="M1156.722,812.135c-2.722,3.17-11,9.876-11,9.876s.855,1.469,1.859,3.66c.125.274.249.564.382.863a41.9,41.9,0,0,1,1.9,5.328c.091.357.183.706.266,1.062a14.455,14.455,0,0,1,.108,7.419c-2.182,6.839-16.672,13.768-16.672,13.768l-17.329-16.532s.631-6.332,1.9-12.141c.838-3.793,1.847-6.857,2.03-12.382.168-5.084.433-10.052,1.971-10.809,1.816-.894,3.838-.985,4.875,5.921.422,2.814,1.066,9.478,2.46,11.187s8.34-2.067,12.224-3.85,12.3-9.569,14.457-9.2S1159.444,808.973,1156.722,812.135Z" transform="translate(-1116.239 -801.82)" fill="#ffa6a6"/>
        </g>
        <g id="Grupo_1192361" data-name="Grupo 1192361" transform="translate(1128.011 806.248)">
          <g id="Grupo_1192360" data-name="Grupo 1192360" transform="translate(0)">
            <path id="Trazado_1280205" data-name="Trazado 1280205" d="M1155.69,833.239l-3.5,4.7a.423.423,0,0,1-.333.166.406.406,0,0,1-.249-.084.411.411,0,0,1-.083-.581l3.784-5.062C1155.433,832.65,1155.557,832.94,1155.69,833.239Z" transform="translate(-1151.44 -832.376)" fill="#361524"/>
          </g>
        </g>
        <g id="Grupo_1192363" data-name="Grupo 1192363" transform="translate(1130.781 812.439)">
          <g id="Grupo_1192362" data-name="Grupo 1192362" transform="translate(0)">
            <path id="Trazado_1280206" data-name="Trazado 1280206" d="M1158.635,841.369l-2.9,4.042a.434.434,0,0,1-.34.174.388.388,0,0,1-.241-.083.412.412,0,0,1-.091-.573l3.3-4.623C1158.461,840.664,1158.552,841.013,1158.635,841.369Z" transform="translate(-1154.989 -840.307)" fill="#361524"/>
          </g>
        </g>
        <path id="Trazado_1280207" data-name="Trazado 1280207" d="M1120.167,850.468l-17.068-8.529s-2.212,3.23-5.7,8.386c-1.463,2.168-3.158,4.676-5.005,7.423-12.723,18.951-32.815,49.4-37.321,59.341-3.558,7.842-4.091,15.917-2.007,22.057l-.03.048a1.82,1.82,0,0,0-.979,2.446,10.346,10.346,0,0,0,1.162,7.168c3.143,6.053,11.417,8.967,17.564,9.856s34.106.261,34.106.261l.311-28.446a39.819,39.819,0,0,0-8.137-5.256c2.409-4.924,4.471-10.158,6.483-15.28,4.157-10.591,10.126-27.1,13.927-37.7,1.347-3.765,2.418-6.8,3.043-8.547.375-1.071.589-1.669.589-1.669Z" transform="translate(-1.574 -28.226)" fill="#ffa6a6"/>
        <g id="Grupo_1192364" data-name="Grupo 1192364" transform="translate(1096.789 894.203)">
          <path id="Trazado_1280208" data-name="Trazado 1280208" d="M1118.277,953.105s51.8-7.1,60.8-7.867,29.479.421,34.237,12.911c4.135,10.853,2.5,27.658-35.8,26.468-50.279-1.562-59.549-3.066-59.549-3.066s-7.589-9.722-6.4-10.912S1118.277,953.105,1118.277,953.105Z" transform="translate(-1111.441 -945.055)" fill="#ffa6a6"/>
        </g>
        <g id="Grupo_1192365" data-name="Grupo 1192365" transform="translate(1050.912 895.877)">
          <path id="Trazado_1280209" data-name="Trazado 1280209" d="M1071.021,969.83a14.069,14.069,0,0,1-9.349-3.018c-.553-.466-1.08-.931-1.589-1.376-2.68-2.357-4.617-4.062-6.8-3.189a.446.446,0,0,1-.33-.829c2.7-1.073,5.028.976,7.724,3.347.5.443,1.026.9,1.574,1.364,2.479,2.088,5.875,3.014,10.085,2.77,2.45-.146,8.344-.906,10.162-4.835l.06-.13c.617-1.322.811-2.109.578-2.339a4.01,4.01,0,0,0-2.07-.8c-.262-.052-.518-.1-.76-.163-1.29-.324-2.437-.632-3.508-.941l-.4-.112c-3.947-1.1-9.315-2.858-10.363-5.364a2.19,2.19,0,0,1,.127-2c1.481-2.671,6-2.38,8.165-2.24a32.19,32.19,0,0,0,6.9-.2,22.663,22.663,0,0,0,4.482-1.254,16.69,16.69,0,0,1,10.618-.844.446.446,0,1,1-.176.875,15.936,15.936,0,0,0-10.138.808,23.5,23.5,0,0,1-4.65,1.3,33.175,33.175,0,0,1-7.092.213c-1.83-.115-6.12-.394-7.327,1.782a1.325,1.325,0,0,0-.084,1.219c.665,1.591,3.955,3.221,9.78,4.848l.407.115c1.062.307,2.2.613,3.478.935.227.057.468.1.714.151a4.716,4.716,0,0,1,2.527,1.038c.8.789.049,2.393-.4,3.351l-.059.127c-1.948,4.208-7.676,5.159-10.918,5.351Q1071.69,969.831,1071.021,969.83Z" transform="translate(-1052.668 -947.2)" fill="#361524"/>
        </g>
        <g id="Grupo_1192366" data-name="Grupo 1192366" transform="translate(1049.581 913.126)">
          <path id="Trazado_1280210" data-name="Trazado 1280210" d="M1075.647,985.256h-.03a38.176,38.176,0,0,1-15.671-5.2c-7.5-4.651-8.915-9.982-8.971-10.207a.445.445,0,0,1,.323-.541.452.452,0,0,1,.542.322c.012.052,1.4,5.222,8.576,9.667a37.217,37.217,0,0,0,15.258,5.064.446.446,0,0,1-.028.891Z" transform="translate(-1050.962 -969.298)" fill="#361524"/>
        </g>
        <g id="Grupo_1192368" data-name="Grupo 1192368" transform="translate(1090.818 822.099)">
          <g id="Grupo_1192367" data-name="Grupo 1192367" transform="translate(0)">
            <path id="Trazado_1280211" data-name="Trazado 1280211" d="M1131.914,866.049c-.624,1.748-1.7,4.782-3.043,8.547l-25.08-14.49c1.847-2.748,3.542-5.255,5.005-7.423Z" transform="translate(-1103.792 -852.683)" fill="#e95a73"/>
          </g>
        </g>
        <g id="Grupo_1192369" data-name="Grupo 1192369" transform="translate(1096.979 824.385)">
          <circle id="Elipse_12398" data-name="Elipse 12398" cx="5.948" cy="5.948" r="5.948" transform="translate(0 8.412) rotate(-45)" fill="#fff"/>
        </g>
        <g id="Grupo_1192370" data-name="Grupo 1192370" transform="translate(1119.605 770.724)">
          <rect id="Rectángulo_412098" data-name="Rectángulo 412098" width="3.873" height="0.892" transform="translate(0)" fill="#fff"/>
        </g>
      </g>
    </g>
    <g id="Grupo_1192390" data-name="Grupo 1192390" transform="translate(-881.776 2611.016)">
      <g id="Grupo_1192379" data-name="Grupo 1192379" transform="translate(1842.307 988.984)">
        <path id="Trazado_1280219" data-name="Trazado 1280219" d="M1773.918,937.073V919.887a8.332,8.332,0,0,0-8.332-8.332H1682.73a8.332,8.332,0,0,0-8.332,8.332V970.18a8.332,8.332,0,0,0,8.332,8.332h82.856a8.332,8.332,0,0,0,8.332-8.332v-9.153l59.628-29.371Z" transform="translate(-1673.982 -911.138)" fill="#fff"/>
        <path id="Trazado_1280220" data-name="Trazado 1280220" d="M1682.575,910.984h82.854a8.759,8.759,0,0,1,8.749,8.749v16.728l59.174-5.374a.423.423,0,0,1,.439.3.415.415,0,0,1-.217.486l-59.4,29.257v8.893a8.758,8.758,0,0,1-8.749,8.749h-82.854a8.758,8.758,0,0,1-8.749-8.749V919.733A8.759,8.759,0,0,1,1682.575,910.984Zm91.186,26.351a.417.417,0,0,1-.416-.417V919.733a7.925,7.925,0,0,0-7.916-7.916h-82.854a7.925,7.925,0,0,0-7.916,7.916v50.292a7.924,7.924,0,0,0,7.916,7.916h82.854a7.925,7.925,0,0,0,7.916-7.916v-9.152a.416.416,0,0,1,.233-.373l57.615-28.38-57.394,5.214Z" transform="translate(-1673.826 -910.984)" fill="#361524"/>
      </g>
    </g>
    <g id="Grupo_1192392" data-name="Grupo 1192392" transform="translate(140.286 4502.678)">
      <g id="Grupo_1192391" data-name="Grupo 1192391" transform="translate(846.668 -889.162)">
        <path id="Trazado_1280221" data-name="Trazado 1280221" d="M955.748-853.133h-41.7a1.4,1.4,0,0,1-1.4-1.4,1.4,1.4,0,0,1,1.4-1.4h41.086l16.794-18.269a1.4,1.4,0,0,1,1.982-.083,1.4,1.4,0,0,1,.083,1.982L956.78-853.587A1.4,1.4,0,0,1,955.748-853.133Z" transform="translate(-912.643 874.662)" fill="#111d96"/>
      </g>
      <circle id="Elipse_12399" data-name="Elipse 12399" cx="3.287" cy="3.287" r="3.287" transform="translate(885.01 -868.889) rotate(-46.818)" fill="#111d96"/>
      <circle id="Elipse_12400" data-name="Elipse 12400" cx="3.287" cy="3.287" r="3.287" transform="matrix(0.242, -0.97, 0.97, 0.242, 902.999, -885.365)" fill="#111d96"/>
      <path id="Trazado_1280222" data-name="Trazado 1280222" d="M848.789-732.7a1.4,1.4,0,0,1-.759-.224,1.4,1.4,0,0,1-.418-1.939l9.863-15.283a1.4,1.4,0,0,1,1.939-.418,1.4,1.4,0,0,1,.418,1.939l-9.863,15.283A1.4,1.4,0,0,1,848.789-732.7Z" transform="translate(-10.582 -119.652)" fill="#111d96"/>
      <circle id="Elipse_12401" data-name="Elipse 12401" cx="3.287" cy="3.287" r="3.287" transform="translate(843.92 -871.131) rotate(-18.228)" fill="#111d96"/>
      <path id="Trazado_1280223" data-name="Trazado 1280223" d="M841.5-658.855a3.287,3.287,0,0,1-3.287,3.287,3.287,3.287,0,0,1-3.287-3.287,3.287,3.287,0,0,1,3.287-3.287A3.287,3.287,0,0,1,841.5-658.855Z" transform="translate(0 -194.9)" fill="#111d96"/>
    </g>
  </g>
</svg>
